<?xml version="1.0" encoding="utf-8"?>
<!-- Generator: Adobe Illustrator 16.0.0, SVG Export Plug-In . SVG Version: 6.00 Build 0)  -->
<!DOCTYPE svg PUBLIC "-//W3C//DTD SVG 1.1//EN" "http://www.w3.org/Graphics/SVG/1.1/DTD/svg11.dtd">
<svg version="1.1" id="Layer_1" xmlns="http://www.w3.org/2000/svg" xmlns:xlink="http://www.w3.org/1999/xlink" x="0px" y="0px"
	 width="200px" height="180px" viewBox="0 0 200 180" enable-background="new 0 0 200 180" xml:space="preserve">
<g>
	<g>
		<g>
			<polygon fill="#2B3D54" points="29.656,124.188 1.822,147.5 199.192,147.5 168.16,124.188 			"/>
			<path fill="#010101" d="M200.329,147.88H0.774l28.743-24.07H168.29L200.329,147.88z M2.866,147.121h195.188l-30.019-22.553
				H29.795L2.866,147.121z"/>
		</g>
		<g>
			<path fill="#FFFFFF" d="M171.617,119.427c0,3.321-2.613,6.011-5.838,6.011H33.412c-3.224,0-5.839-2.689-5.839-6.011V21.97
				c0-3.324,2.615-6.013,5.839-6.013h132.368c3.225,0,5.838,2.689,5.838,6.013V119.427z"/>
			<path fill="#010101" d="M165.779,125.821H33.412c-3.43,0-6.217-2.868-6.217-6.395V21.97c0-3.524,2.787-6.392,6.217-6.392h132.368
				c3.429,0,6.221,2.868,6.221,6.392v97.457C172,122.953,169.208,125.821,165.779,125.821z M33.412,16.337
				c-3.01,0-5.459,2.529-5.459,5.633v97.457c0,3.107,2.449,5.631,5.459,5.631h132.368c3.011,0,5.458-2.523,5.458-5.631V21.97
				c0-3.104-2.447-5.633-5.458-5.633H33.412z"/>
		</g>
		<g>
			<path fill="#303A45" d="M169.338,116.598c0,3.211-2.533,5.815-5.656,5.815H35.508c-3.122,0-5.651-2.604-5.651-5.815V24.797
				c0-3.21,2.529-5.815,5.651-5.815h128.174c3.123,0,5.656,2.605,5.656,5.815V116.598z"/>
			<path fill="#010101" d="M163.682,122.798H35.508c-3.327,0-6.035-2.783-6.035-6.2V24.797c0-3.416,2.708-6.199,6.035-6.199h128.174
				c3.329,0,6.036,2.783,6.036,6.199v91.801C169.718,120.015,167.011,122.798,163.682,122.798z M35.508,19.36
				c-2.908,0-5.276,2.44-5.276,5.437v91.801c0,2.997,2.368,5.442,5.276,5.442h128.174c2.909,0,5.272-2.445,5.272-5.442V24.797
				c0-2.997-2.363-5.437-5.272-5.437H35.508z"/>
		</g>
		<g>
			<path fill="#FFFFFF" d="M160.284,109.364c0,2.539-1.997,4.593-4.459,4.593H43.365c-2.465,0-4.464-2.054-4.464-4.593V32.032
				c0-2.543,2-4.595,4.464-4.595h112.46c2.462,0,4.459,2.052,4.459,4.595V109.364z"/>
			<path fill="#010101" d="M155.825,114.337H43.365c-2.67,0-4.842-2.23-4.842-4.973V32.032c0-2.743,2.172-4.978,4.842-4.978h112.46
				c2.666,0,4.838,2.234,4.838,4.978v77.333C160.663,112.106,158.491,114.337,155.825,114.337z M43.365,27.816
				c-2.252,0-4.08,1.891-4.08,4.216v77.333c0,2.325,1.828,4.214,4.08,4.214h112.46c2.246,0,4.081-1.889,4.081-4.214V32.032
				c0-2.325-1.835-4.216-4.081-4.216H43.365z"/>
		</g>
		<g>
			<rect x="1.822" y="147.5" fill="#7A7C7E" width="197.371" height="7.506"/>
			<path fill="#010101" d="M199.571,155.385H1.438v-8.264h198.133V155.385z M2.197,154.627h196.615v-6.747H2.197V154.627z"/>
		</g>
		<g>
			<polygon fill="#D1D2D3" points="43.214,128.101 31.342,138.501 167.848,138.501 154.611,128.101 			"/>
			<path fill="#010101" d="M168.945,138.879H30.333l12.738-11.162h111.675L168.945,138.879z M32.35,138.121h134.401l-12.27-9.646
				H43.356L32.35,138.121z"/>
		</g>
		<g>
			<polygon fill="#D1D2D3" points="118.665,144.779 82.099,144.779 87.572,139.98 112.56,139.98 			"/>
			<path fill="#010101" d="M119.762,145.158h-38.67l6.337-5.556h25.266L119.762,145.158z M83.108,144.396h34.46l-5.138-4.035H87.714
				L83.108,144.396z"/>
		</g>
		<g>
			<g>
				<rect x="49.962" y="36.004" fill="#F47C20" width="16.987" height="16.992"/>
				<path fill="#010101" d="M67.328,53.376h-17.75v-17.75h17.75V53.376z M50.341,52.618H66.57V36.384H50.341V52.618z"/>
			</g>
			<g>
				<path fill="#F47C20" d="M68.747,54.794H48.16V34.207h20.586V54.794z M48.78,54.174h19.347V34.827H48.78V54.174z"/>
				<path fill="#010101" d="M69.13,55.173h-21.35V33.828h21.35V55.173z M49.16,53.795h18.588V35.211H49.16V53.795z"/>
			</g>
			<g>
				<rect x="49.962" y="62.041" fill="#F47C20" width="16.987" height="16.987"/>
				<path fill="#010101" d="M67.328,79.408h-17.75v-17.75h17.75V79.408z M50.341,78.65H66.57V62.42H50.341V78.65z"/>
			</g>
			<g>
				<path fill="#F47C20" d="M68.747,80.83H48.16V60.24h20.586V80.83z M48.78,80.206h19.347V60.859H48.78V80.206z"/>
				<path fill="#010101" d="M69.13,81.205h-21.35V59.86h21.35V81.205z M49.16,79.826h18.588V61.237H49.16V79.826z"/>
			</g>
			<g>
				<rect x="49.962" y="88.073" fill="#F47C20" width="16.987" height="16.987"/>
				<path fill="#010101" d="M67.328,105.439h-17.75V87.693h17.75V105.439z M50.341,104.682H66.57v-16.23H50.341V104.682z"/>
			</g>
			<g>
				<path fill="#F47C20" d="M68.747,106.858H48.16V86.272h20.586V106.858z M48.78,106.238h19.347V86.896H48.78V106.238z"/>
				<path fill="#010101" d="M69.13,107.241h-21.35V85.892h21.35V107.241z M49.16,105.858h18.588V87.271H49.16V105.858z"/>
			</g>
			<g>
				<rect x="74.896" y="38.551" fill="#F47C20" width="75.189" height="2.052"/>
				<path fill="#010101" d="M150.464,40.981H74.513v-2.809h75.951V40.981z M75.275,40.219h74.43v-1.29h-74.43V40.219z"/>
			</g>
			<g>
				<rect x="74.896" y="43.475" fill="#F47C20" width="75.189" height="2.051"/>
				<path fill="#010101" d="M150.464,45.906H74.513v-2.81h75.951V45.906z M75.275,45.147h74.43v-1.293h-74.43V45.147z"/>
			</g>
			<g>
				<rect x="74.896" y="48.398" fill="#F47C20" width="23.246" height="2.052"/>
				<path fill="#010101" d="M98.52,50.829H74.513V48.02H98.52V50.829z M75.275,50.071h22.488v-1.294H75.275V50.071z"/>
			</g>
			<g>
				<rect x="74.896" y="64.254" fill="#F47C20" width="75.189" height="2.05"/>
				<path fill="#010101" d="M150.464,66.689H74.513v-2.811h75.951V66.689z M75.275,65.931h74.43v-1.294h-74.43V65.931z"/>
			</g>
			<g>
				<rect x="74.896" y="69.181" fill="#F47C20" width="75.189" height="2.052"/>
				<path fill="#010101" d="M150.464,71.612H74.513v-2.814h75.951V71.612z M75.275,70.849h74.43v-1.289h-74.43V70.849z"/>
			</g>
			<g>
				<rect x="74.896" y="74.105" fill="#F47C20" width="49.13" height="2.05"/>
				<path fill="#010101" d="M124.405,76.536H74.513v-2.811h49.893V76.536z M75.275,75.778h48.372v-1.295H75.275V75.778z"/>
			</g>
			<g>
				<rect x="74.896" y="89.96" fill="#F47C20" width="75.189" height="2.052"/>
				<path fill="#010101" d="M150.464,92.391H74.513v-2.81h75.951V92.391z M75.275,91.632h74.43v-1.289h-74.43V91.632z"/>
			</g>
			<g>
				<rect x="74.896" y="94.883" fill="#F47C20" width="64.311" height="2.053"/>
				<path fill="#010101" d="M139.587,97.313H74.513v-2.81h65.074V97.313z M75.275,96.557h63.554v-1.289H75.275V96.557z"/>
			</g>
			<g>
				<rect x="74.896" y="99.807" fill="#F47C20" width="23.246" height="2.057"/>
				<path fill="#010101" d="M98.52,102.238H74.513v-2.811H98.52V102.238z M75.275,101.479h22.488v-1.294H75.275V101.479z"/>
			</g>
		</g>
	</g>
	<g>
		<g>
			<g>
				<path fill="#171717" d="M48.16,164.938c0,3.301-2.333,6.004-5.183,6.004H12.165c-2.849,0-5.178-2.703-5.178-6.004v-63.283
					c0-3.303,2.329-6,5.178-6h30.813c2.85,0,5.183,2.697,5.183,6V164.938z"/>
				<path fill="#010101" d="M42.978,171.32H12.165c-3.064,0-5.558-2.863-5.558-6.383v-63.283c0-3.516,2.493-6.379,5.558-6.379
					h30.813c3.069,0,5.562,2.863,5.562,6.379v63.283C48.539,168.457,46.046,171.32,42.978,171.32z M12.165,96.034
					c-2.644,0-4.799,2.523-4.799,5.62v63.283c0,3.1,2.155,5.623,4.799,5.623h30.813c2.649,0,4.803-2.523,4.803-5.623v-63.283
					c0-3.097-2.154-5.62-4.803-5.62H12.165z"/>
			</g>
			<g>
				<g>
					<defs>
						<path id="SVGID_1_" d="M42.978,95.654H24.719l2.422,7.77h17.616v29.582l3.403,10.931v-42.282
							C48.16,98.352,45.828,95.654,42.978,95.654z"/>
					</defs>
					<clipPath id="SVGID_2_">
						<use xlink:href="#SVGID_1_"  overflow="visible"/>
					</clipPath>
					<polygon clip-path="url(#SVGID_2_)" fill="#535454" points="30.414,95 24,98.375 24,95 					"/>
					<polygon clip-path="url(#SVGID_2_)" fill="#535454" points="31.932,95 24,99.093 24,98.375 30.414,95 					"/>
					<polygon clip-path="url(#SVGID_2_)" fill="#535353" points="33.446,95 24,99.82 24,99.093 31.932,95 					"/>
					<polygon clip-path="url(#SVGID_2_)" fill="#525252" points="34.959,95 24,100.547 24,99.82 33.446,95 					"/>
					<polygon clip-path="url(#SVGID_2_)" fill="#515151" points="36.475,95 24,101.27 24,100.547 34.959,95 					"/>
					<polygon clip-path="url(#SVGID_2_)" fill="#505050" points="37.992,95 24.4,101.643 24,101.881 24,101.27 36.475,95 					"/>
					<polygon clip-path="url(#SVGID_2_)" fill="#4F4F4F" points="39.503,95 25.044,102.231 24.764,101.473 37.992,95 					"/>
					<polygon clip-path="url(#SVGID_2_)" fill="#4E4E4E" points="41.021,95 25.331,102.816 25.044,102.063 39.503,95 					"/>
					<polygon clip-path="url(#SVGID_2_)" fill="#4D4D4D" points="42.537,95 25.606,103.408 25.331,102.648 41.021,95 					"/>
					<polygon clip-path="url(#SVGID_2_)" fill="#4C4C4C" points="44.047,95 25.888,103.998 25.606,103.249 42.537,95 					"/>
					<polygon clip-path="url(#SVGID_2_)" fill="#4B4B4B" points="45.56,95 26.169,104.586 25.888,103.828 44.047,95 					"/>
					<polygon clip-path="url(#SVGID_2_)" fill="#4A4A4A" points="47.081,95 26.45,105.174 26.169,104.418 45.56,95 					"/>
					<polygon clip-path="url(#SVGID_2_)" fill="#494949" points="48,95.859 26.652,106.091 26.412,105.174 47.081,95 48,95 					"/>
					<polygon clip-path="url(#SVGID_2_)" fill="#484848" points="48,96.587 26.938,106.685 26.613,106.091 48,95.859 					"/>
					<polygon clip-path="url(#SVGID_2_)" fill="#474747" points="48,97.311 27.216,107.273 26.895,106.685 48,96.587 					"/>
					<polygon clip-path="url(#SVGID_2_)" fill="#464646" points="48,98.037 27.499,107.856 27.18,107.273 48,97.311 					"/>
					<polygon clip-path="url(#SVGID_2_)" fill="#454545" points="48,98.754 27.777,108.449 27.46,107.856 48,98.037 					"/>
					<polygon clip-path="url(#SVGID_2_)" fill="#444444" points="48,99.482 28.062,109.04 27.738,108.449 48,98.754 					"/>
					<polygon clip-path="url(#SVGID_2_)" fill="#434343" points="48,100.203 28.338,109.627 28.023,109.04 48,99.482 					"/>
					<polygon clip-path="url(#SVGID_2_)" fill="#424242" points="48,100.927 28.624,110.216 28.299,109.627 48,100.203 					"/>
					<polygon clip-path="url(#SVGID_2_)" fill="#414141" points="48,101.648 28.9,110.805 28.584,110.216 48,100.927 					"/>
					<polygon clip-path="url(#SVGID_2_)" fill="#404040" points="48,102.371 29.187,111.398 28.865,110.805 48,101.648 					"/>
					<polygon clip-path="url(#SVGID_2_)" fill="#3F3F3F" points="48,103.098 29.471,111.982 29.147,111.398 48,102.371 					"/>
					<polygon clip-path="url(#SVGID_2_)" fill="#3E3E3E" points="48,103.82 29.748,112.57 29.427,111.982 48,103.098 					"/>
					<polygon clip-path="url(#SVGID_2_)" fill="#3D3D3D" points="48,104.543 30.033,113.164 29.709,112.57 48,103.82 					"/>
					<polygon clip-path="url(#SVGID_2_)" fill="#3C3C3B" points="48,105.266 30.31,113.747 29.991,113.164 48,104.543 					"/>
					<polygon clip-path="url(#SVGID_2_)" fill="#3A3B3B" points="48,105.988 30.596,114.341 30.27,113.747 48,105.266 					"/>
					<polygon clip-path="url(#SVGID_2_)" fill="#3A3A39" points="48,106.715 30.872,114.93 30.551,114.341 48,105.988 					"/>
					<polygon clip-path="url(#SVGID_2_)" fill="#383938" points="48,107.438 31.158,115.515 30.833,114.93 48,106.715 					"/>
					<polygon clip-path="url(#SVGID_2_)" fill="#373737" points="48,108.16 31.435,116.107 31.114,115.515 48,107.438 					"/>
					<polygon clip-path="url(#SVGID_2_)" fill="#373636" points="48,108.882 31.709,116.696 31.394,116.107 48,108.16 					"/>
					<polygon clip-path="url(#SVGID_2_)" fill="#353635" points="48,109.608 31.996,117.285 31.675,116.696 48,108.882 					"/>
					<polygon clip-path="url(#SVGID_2_)" fill="#333333" points="48,110.333 32.28,117.873 31.961,117.285 48,109.608 					"/>
					<polygon clip-path="url(#SVGID_2_)" fill="#333332" points="48,111.05 32.558,118.467 32.237,117.873 48,110.333 					"/>
					<polygon clip-path="url(#SVGID_2_)" fill="#313131" points="48,111.775 32.844,119.056 32.519,118.467 48,111.05 					"/>
					<polygon clip-path="url(#SVGID_2_)" fill="#303030" points="48,112.5 33.119,119.64 32.8,119.056 48,111.775 					"/>
					<polygon clip-path="url(#SVGID_2_)" fill="#302F2F" points="48,113.222 33.406,120.231 33.085,119.64 48,112.5 					"/>
					<polygon clip-path="url(#SVGID_2_)" fill="#2E2E2E" points="48,113.944 33.682,120.82 33.365,120.231 48,113.222 					"/>
					<polygon clip-path="url(#SVGID_2_)" fill="#2D2E2D" points="48,114.666 33.966,121.406 33.646,120.82 48,113.944 					"/>
					<polygon clip-path="url(#SVGID_2_)" fill="#2D2C2C" points="48,115.394 34.242,121.999 33.928,121.406 48,114.666 					"/>
					<polygon clip-path="url(#SVGID_2_)" fill="#2B2C2B" points="48,116.117 34.528,122.587 34.205,121.999 48,115.394 					"/>
					<polygon clip-path="url(#SVGID_2_)" fill="#2A2A2A" points="48,116.839 34.814,123.173 34.49,122.587 48,116.117 					"/>
					<polygon clip-path="url(#SVGID_2_)" fill="#292929" points="48,117.562 35.091,123.765 34.771,123.173 48,116.839 					"/>
					<polygon clip-path="url(#SVGID_2_)" fill="#282828" points="48,118.284 35.377,124.354 35.053,123.765 48,117.562 					"/>
					<polygon clip-path="url(#SVGID_2_)" fill="#272727" points="48,119.011 35.653,124.942 35.332,124.354 48,118.284 					"/>
					<polygon clip-path="url(#SVGID_2_)" fill="#272626" points="48,119.734 35.938,125.531 35.614,124.942 48,119.011 					"/>
					<polygon clip-path="url(#SVGID_2_)" fill="#252525" points="48,120.455 36.214,126.125 35.898,125.531 48,119.734 					"/>
					<polygon clip-path="url(#SVGID_2_)" fill="#242424" points="48,121.178 36.5,126.709 36.175,126.125 48,120.455 					"/>
					<polygon clip-path="url(#SVGID_2_)" fill="#232323" points="48,121.905 36.776,127.297 36.457,126.709 48,121.178 					"/>
					<polygon clip-path="url(#SVGID_2_)" fill="#222222" points="48,122.627 37.063,127.89 36.742,127.297 48,121.905 					"/>
					<polygon clip-path="url(#SVGID_2_)" fill="#212121" points="48,123.35 37.34,128.475 37.024,127.89 48,122.627 					"/>
					<polygon clip-path="url(#SVGID_2_)" fill="#202020" points="48,124.072 37.624,129.067 37.303,128.475 48,123.35 					"/>
					<polygon clip-path="url(#SVGID_2_)" fill="#1F2020" points="48,124.795 37.9,129.656 37.584,129.067 48,124.072 					"/>
					<polygon clip-path="url(#SVGID_2_)" fill="#1E1E1E" points="48,125.521 38.186,130.245 37.866,129.656 48,124.795 					"/>
					<polygon clip-path="url(#SVGID_2_)" fill="#1D1D1D" points="48,126.244 38.462,130.834 38.145,130.245 48,125.521 					"/>
					<polygon clip-path="url(#SVGID_2_)" fill="#1C1C1C" points="48,126.969 38.748,131.423 38.427,130.834 48,126.244 					"/>
					<polygon clip-path="url(#SVGID_2_)" fill="#1B1B1B" points="48,127.689 39.034,132.012 38.708,131.423 48,126.969 					"/>
					<polygon clip-path="url(#SVGID_2_)" fill="#1A1A1A" points="48,128.411 39.308,132.6 38.989,132.012 48,127.689 					"/>
					<polygon clip-path="url(#SVGID_2_)" fill="#191919" points="48,129.139 39.593,133.189 39.271,132.6 48,128.411 					"/>
					<polygon clip-path="url(#SVGID_2_)" fill="#191918" points="48,129.857 39.874,133.777 39.552,133.189 48,129.139 					"/>
					<polygon clip-path="url(#SVGID_2_)" fill="#181818" points="48,130.583 40.154,134.371 39.831,133.777 48,129.857 					"/>
					<polygon clip-path="url(#SVGID_2_)" fill="#171717" points="48,131.308 40.432,134.958 40.113,134.371 48,130.583 					"/>
					<polygon clip-path="url(#SVGID_2_)" fill="#171717" points="44.802,145 40.434,135.491 48,131.308 48,145 					"/>
				</g>
				<path fill="#010101" d="M48.539,146.43l-4.166-13.424v-29.203H26.86l-2.654-8.527h18.771c3.069,0,5.562,2.863,5.562,6.379
					V146.43z M45.137,132.947l2.644,8.491v-39.784c0-3.097-2.154-5.62-4.803-5.62H25.236l2.181,7.011h17.72V132.947z"/>
			</g>
			<g>
				<rect x="10.39" y="103.424" fill="#FFFFFF" width="34.367" height="59.744"/>
				<path fill="#010101" d="M45.137,163.551H10.011v-60.506h35.126V163.551z M10.769,162.788h33.604v-58.985H10.769V162.788z"/>
			</g>
		</g>
		<g>
			<g>
				<path fill="#171717" d="M33.714,98.575c0,0.526-0.365,0.946-0.816,0.946h-9.592c-0.45,0-0.817-0.42-0.817-0.946l0,0
					c0-0.521,0.367-0.945,0.817-0.945h9.592C33.349,97.63,33.714,98.055,33.714,98.575L33.714,98.575z"/>
				<path fill="#010101" d="M32.898,99.9h-9.592c-0.661,0-1.196-0.593-1.196-1.325c0-0.73,0.535-1.325,1.196-1.325h9.592
					c0.656,0,1.196,0.595,1.196,1.325C34.094,99.308,33.554,99.9,32.898,99.9z M23.306,98.014c-0.237,0-0.437,0.256-0.437,0.562
					c0,0.313,0.195,0.566,0.437,0.566h9.592c0.242,0,0.438-0.253,0.438-0.566c0-0.306-0.201-0.562-0.438-0.562H23.306z"/>
			</g>
			<g>
				<path fill="#010101" d="M32.898,99.776h-9.592c-0.588,0-1.076-0.54-1.076-1.201c0-0.659,0.487-1.198,1.076-1.198h9.592
					c0.589,0,1.071,0.539,1.071,1.198C33.969,99.236,33.487,99.776,32.898,99.776z M23.306,97.889c-0.308,0-0.557,0.309-0.557,0.687
					c0,0.38,0.249,0.688,0.557,0.688h9.592c0.309,0,0.558-0.309,0.558-0.688c0-0.378-0.249-0.687-0.558-0.687H23.306z"/>
				<path fill="#010101" d="M32.898,100.156h-9.592c-0.798,0-1.455-0.706-1.455-1.581c0-0.869,0.656-1.579,1.455-1.579h9.592
					c0.8,0,1.45,0.71,1.45,1.579C34.348,99.45,33.698,100.156,32.898,100.156z M23.306,98.27c-0.072,0-0.179,0.119-0.179,0.306
					c0,0.188,0.107,0.309,0.179,0.309h9.592c0.072,0,0.179-0.12,0.179-0.309c0-0.187-0.106-0.306-0.179-0.306H23.306z"/>
			</g>
		</g>
	</g>
	<g>
		<g>
			<rect x="12.713" y="122.864" fill="#F47C20" width="5.094" height="5.099"/>
			<path fill="#010101" d="M17.825,127.979H12.69v-5.133h5.134V127.979z M12.732,127.943h5.057v-5.057h-5.057V127.943z"/>
		</g>
		<g>
			<path fill="#F47C20" d="M18.346,128.501h-6.172v-6.177h6.172V128.501z M12.361,128.314h5.798v-5.802h-5.798V128.314z"/>
			<path fill="#010101" d="M18.368,128.519h-6.216v-6.212h6.216V128.519z M12.191,128.479h6.137v-6.131h-6.137V128.479z
				 M18.181,128.332h-5.842v-5.838h5.842V128.332z M12.379,128.297h5.762v-5.766h-5.762V128.297z"/>
		</g>
		<g>
			<rect x="12.713" y="130.673" fill="#F47C20" width="5.094" height="5.098"/>
			<path fill="#010101" d="M17.825,135.789H12.69v-5.134h5.134V135.789z M12.732,135.749h5.057v-5.059h-5.057V135.749z"/>
		</g>
		<g>
			<path fill="#F47C20" d="M18.346,136.312h-6.172v-6.177h6.172V136.312z M12.361,136.123h5.798v-5.802h-5.798V136.123z"/>
			<path fill="#010101" d="M18.368,136.329h-6.216v-6.214h6.216V136.329z M12.191,136.288h6.137v-6.133h-6.137V136.288z
				 M18.181,136.142h-5.842v-5.843h5.842V136.142z M12.379,136.101h5.762v-5.762h-5.762V136.101z"/>
		</g>
		<g>
			<rect x="12.713" y="138.483" fill="#F47C20" width="5.094" height="5.092"/>
			<path fill="#010101" d="M17.825,143.598H12.69v-5.138h5.134V143.598z M12.732,143.559h5.057v-5.058h-5.057V143.559z"/>
		</g>
		<g>
			<path fill="#F47C20" d="M18.346,144.114h-6.172v-6.177h6.172V144.114z M12.361,143.932h5.798v-5.806h-5.798V143.932z"/>
			<path fill="#010101" d="M18.368,144.137h-6.216v-6.216h6.216V144.137z M12.191,144.093h6.137v-6.137h-6.137V144.093z
				 M18.181,143.95h-5.842v-5.842h5.842V143.95z M12.379,143.91h5.762v-5.763h-5.762V143.91z"/>
		</g>
		<g>
			<rect x="12.713" y="146.287" fill="#F47C20" width="5.094" height="5.098"/>
			<path fill="#010101" d="M17.825,151.403H12.69v-5.134h5.134V151.403z M12.732,151.362h5.057v-5.054h-5.057V151.362z"/>
		</g>
		<g>
			<path fill="#F47C20" d="M18.346,151.92h-6.172v-6.173h6.172V151.92z M12.361,151.737h5.798v-5.803h-5.798V151.737z"/>
			<path fill="#010101" d="M18.368,151.943h-6.216v-6.214h6.216V151.943z M12.191,151.901h6.137v-6.132h-6.137V151.901z
				 M18.181,151.755h-5.842v-5.837h5.842V151.755z M12.379,151.714h5.762v-5.762h-5.762V151.714z"/>
		</g>
		<g>
			<rect x="12.713" y="154.098" fill="#F47C20" width="5.094" height="5.092"/>
			<path fill="#010101" d="M17.825,159.211H12.69v-5.132h5.134V159.211z M12.732,159.171h5.057v-5.058h-5.057V159.171z"/>
		</g>
		<g>
			<path fill="#F47C20" d="M18.346,159.729h-6.172v-6.173h6.172V159.729z M12.361,159.542h5.798v-5.802h-5.798V159.542z"/>
			<path fill="#010101" d="M18.368,159.746h-6.216v-6.212h6.216V159.746z M12.191,159.711h6.137v-6.136h-6.137V159.711z
				 M18.181,159.563h-5.842v-5.843h5.842V159.563z M12.379,159.524h5.762v-5.763h-5.762V159.524z"/>
		</g>
		<g>
			<rect x="20.193" y="123.626" fill="#F47C20" width="22.548" height="0.616"/>
			<path fill="#010101" d="M42.759,124.265H20.17v-0.655h22.589V124.265z M20.209,124.224h22.515v-0.573H20.209V124.224z"/>
		</g>
		<g>
			<rect x="20.193" y="125.107" fill="#F47C20" width="22.548" height="0.615"/>
			<path fill="#010101" d="M42.759,125.741H20.17v-0.656h22.589V125.741z M20.209,125.7h22.515v-0.575H20.209V125.7z"/>
		</g>
		<g>
			<rect x="20.193" y="126.584" fill="#F47C20" width="6.971" height="0.615"/>
			<path fill="#010101" d="M27.18,127.217h-7.01v-0.65h7.01V127.217z M20.209,127.176h6.931v-0.574h-6.931V127.176z"/>
		</g>
		<g>
			<rect x="20.193" y="131.338" fill="#F47C20" width="22.548" height="0.615"/>
			<path fill="#010101" d="M42.759,131.971H20.17v-0.651h22.589V131.971z M20.209,131.936h22.515v-0.579H20.209V131.936z"/>
		</g>
		<g>
			<rect x="20.193" y="132.814" fill="#F47C20" width="22.548" height="0.614"/>
			<path fill="#010101" d="M42.759,133.446H20.17v-0.65h22.589V133.446z M20.209,133.411h22.515v-0.575H20.209V133.411z"/>
		</g>
		<g>
			<rect x="20.193" y="134.29" fill="#F47C20" width="14.735" height="0.615"/>
			<path fill="#010101" d="M34.945,134.928H20.17v-0.656h14.775V134.928z M20.209,134.888h14.696v-0.575H20.209V134.888z"/>
		</g>
		<g>
			<rect x="20.193" y="139.049" fill="#F47C20" width="22.548" height="0.615"/>
			<path fill="#010101" d="M42.759,139.682H20.17v-0.655h22.589V139.682z M20.209,139.642h22.515v-0.574H20.209V139.642z"/>
		</g>
		<g>
			<rect x="20.193" y="140.525" fill="#F47C20" width="19.288" height="0.614"/>
			<path fill="#010101" d="M39.499,141.159H20.17v-0.652h19.329V141.159z M20.209,141.119h19.249v-0.576H20.209V141.119z"/>
		</g>
		<g>
			<rect x="20.193" y="142.001" fill="#F47C20" width="6.971" height="0.615"/>
			<path fill="#010101" d="M27.18,142.634h-7.01v-0.65h7.01V142.634z M20.209,142.599h6.931v-0.579h-6.931V142.599z"/>
		</g>
		<g>
			<rect x="20.193" y="146.756" fill="#F47C20" width="22.548" height="0.615"/>
			<path fill="#010101" d="M42.759,147.393H20.17v-0.655h22.589V147.393z M20.209,147.353h22.515v-0.574H20.209V147.353z"/>
		</g>
		<g>
			<rect x="20.193" y="148.234" fill="#F47C20" width="11.363" height="0.611"/>
			<path fill="#010101" d="M31.574,148.869H20.17v-0.655h11.404V148.869z M20.209,148.828h11.329v-0.574H20.209V148.828z"/>
		</g>
		<g>
			<rect x="20.193" y="154.465" fill="#F47C20" width="22.548" height="0.616"/>
			<path fill="#010101" d="M42.759,155.1H20.17v-0.65h22.589V155.1z M20.209,155.06h22.515v-0.575H20.209V155.06z"/>
		</g>
		<g>
			<rect x="20.193" y="155.942" fill="#F47C20" width="22.548" height="0.616"/>
			<path fill="#010101" d="M42.759,156.576H20.17v-0.651h22.589V156.576z M20.209,156.535h22.515v-0.574H20.209V156.535z"/>
		</g>
		<g>
			<rect x="20.193" y="157.419" fill="#F47C20" width="16.442" height="0.614"/>
			<path fill="#010101" d="M36.653,158.052H20.17v-0.65h16.483V158.052z M20.209,158.016h16.404v-0.579H20.209V158.016z"/>
		</g>
	</g>
	<g>
		<g>
			<path fill="#192E35" d="M33.037,108.24c0,0.316-0.223,0.575-0.505,0.575c-0.28,0-0.503-0.259-0.503-0.575
				c0-0.317,0.29-1.057,0.503-1.057C32.711,107.184,33.037,107.923,33.037,108.24z"/>
			<path fill="#010101" d="M32.532,108.91c-0.33,0-0.601-0.3-0.601-0.67c0-0.312,0.293-1.146,0.601-1.146
				c0.273,0,0.599,0.819,0.599,1.146C33.131,108.61,32.863,108.91,32.532,108.91z M32.528,107.281c-0.103,0-0.406,0.606-0.406,0.959
				c0,0.268,0.184,0.481,0.41,0.481c0.228,0,0.411-0.214,0.411-0.481C32.943,107.937,32.636,107.313,32.528,107.281z"/>
		</g>
		<g>
			<path fill="#192E35" d="M30.869,109.445c0,0.235-0.169,0.429-0.375,0.429c-0.209,0-0.379-0.193-0.379-0.429
				c0-0.237,0.218-0.79,0.379-0.79C30.624,108.655,30.869,109.208,30.869,109.445z"/>
			<path fill="#010101" d="M30.495,109.966c-0.263,0-0.473-0.231-0.473-0.521c0-0.219,0.209-0.885,0.473-0.885
				c0.231,0,0.468,0.656,0.468,0.885C30.963,109.734,30.754,109.966,30.495,109.966z M30.481,108.749
				c-0.071,0.026-0.272,0.473-0.272,0.696c0,0.182,0.129,0.334,0.285,0.334c0.155,0,0.281-0.152,0.281-0.334
				C30.776,109.231,30.561,108.788,30.481,108.749z"/>
		</g>
		<g>
			<path fill="#192E35" d="M25.924,109.213c0,0.365-0.259,0.661-0.581,0.661s-0.579-0.296-0.579-0.661
				c0-0.366,0.333-1.213,0.579-1.213C25.548,108,25.924,108.847,25.924,109.213z"/>
			<path fill="#010101" d="M25.343,109.966c-0.37,0-0.673-0.339-0.673-0.753c0-0.356,0.326-1.307,0.673-1.307
				c0.299,0,0.673,0.945,0.673,1.307C26.017,109.627,25.718,109.966,25.343,109.966z M25.343,108.098
				c-0.138,0-0.485,0.731-0.485,1.115c0,0.312,0.217,0.566,0.485,0.566c0.268,0,0.486-0.255,0.486-0.566
				C25.83,108.847,25.464,108.12,25.343,108.098z"/>
		</g>
		<g>
			<path fill="#192E35" d="M28.265,107.509c0,0.414-0.293,0.754-0.66,0.754c-0.366,0-0.66-0.34-0.66-0.754s0.378-1.382,0.66-1.382
				C27.841,106.127,28.265,107.095,28.265,107.509z"/>
			<path fill="#010101" d="M27.604,108.356c-0.414,0-0.753-0.379-0.753-0.848c0-0.393,0.375-1.477,0.753-1.477
				c0.339,0,0.758,1.07,0.758,1.477C28.363,107.978,28.02,108.356,27.604,108.356z M27.604,106.226
				c-0.188,0-0.567,0.864-0.567,1.283c0,0.361,0.255,0.659,0.567,0.659c0.313,0,0.567-0.298,0.567-0.659
				C28.171,107.08,27.744,106.238,27.604,106.226z"/>
		</g>
		<g>
			<g>
				<polygon fill="#989898" points="29.019,120.692 28.836,120.692 28.836,115.408 28.934,115.572 29.019,115.465 				"/>
				<polygon fill="#010101" points="29.117,120.785 28.737,120.785 28.737,115.069 28.942,115.408 29.117,115.197 				"/>
			</g>
			<g>
				<path fill="#333333" d="M28.818,120.371v0.307c0,0.112-0.044,0.225-0.129,0.3c-0.259,0.237-0.459-0.018-0.544-0.157
					c-0.022-0.039-0.076-0.057-0.116-0.03h-0.004c-0.041,0.028-0.059,0.089-0.032,0.135c0.348,0.57,0.807,0.315,0.945,0.088
					c0.058-0.088,0.098-0.205,0.098-0.313v-0.329c0-0.009-0.009-0.022-0.021-0.022H28.84
					C28.828,120.349,28.818,120.362,28.818,120.371z"/>
				<path fill="#010101" d="M28.492,121.365c-0.156,0-0.379-0.066-0.58-0.392c-0.026-0.044-0.031-0.1-0.022-0.147
					c0.013-0.05,0.045-0.091,0.084-0.115c0.089-0.054,0.201-0.023,0.254,0.062c0.036,0.063,0.134,0.209,0.246,0.209
					c0.049,0,0.098-0.025,0.151-0.075c0.063-0.053,0.098-0.138,0.098-0.229v-0.307c0-0.063,0.05-0.116,0.116-0.116h0.174
					c0.063,0,0.115,0.053,0.115,0.116v0.329c0,0.118-0.04,0.245-0.107,0.362C28.934,121.209,28.729,121.365,28.492,121.365z
					 M28.376,121.156c0.187,0.066,0.401-0.058,0.482-0.193c0.053-0.084,0.084-0.182,0.084-0.263v-0.253h-0.031v0.23
					c0,0.143-0.058,0.282-0.156,0.372C28.631,121.159,28.492,121.192,28.376,121.156z"/>
			</g>
		</g>
		<g>
			<g>
				<path fill="#F47C20" d="M25.812,115.506L25.812,115.506c0.276-0.406,0.87-0.562,1.57-0.562c0.661,0,1.226,0.169,1.521,0.521
					v-4.941C28.528,110.778,25.82,112.683,25.812,115.506z"/>
				<path fill="#010101" d="M25.718,115.813v-0.307c0.006-2.792,2.61-4.704,3.131-5.059l0.146-0.102v5.387l-0.168-0.205
					c-0.259-0.316-0.773-0.489-1.446-0.489c-0.517,0-1.195,0.088-1.49,0.521L25.718,115.813z M28.808,110.707
					c-0.704,0.508-2.751,2.185-2.894,4.544c0.313-0.268,0.811-0.406,1.467-0.406c0.611,0,1.105,0.139,1.426,0.394V110.707z"/>
			</g>
			<g>
				<path fill="#F47C20" d="M28.957,110.523v5.004c0.268-0.396,0.852-0.593,1.529-0.593c0.696,0,1.289,0.214,1.543,0.632
					c0-0.003-0.004-0.003-0.004-0.003C32.02,112.745,29.327,110.782,28.957,110.523z"/>
				<path fill="#010101" d="M32.123,115.911l-0.179-0.294c0-0.005-0.004-0.01-0.009-0.019l-0.003-0.005
					c-0.233-0.355-0.773-0.565-1.446-0.565c-0.688,0-1.218,0.201-1.45,0.553l-0.173,0.259v-5.499l0.147,0.106
					c0.516,0.357,3.086,2.289,3.108,5.08l0.005,0.039V115.911z M30.486,114.836c0.62,0,1.125,0.165,1.437,0.455
					c-0.157-2.373-2.244-4.106-2.873-4.58v4.563C29.363,114.993,29.87,114.836,30.486,114.836z"/>
			</g>
			<g>
				<path fill="#F47C20" d="M26.227,113.448c0.298-0.609,0.699-1.162,1.155-1.663c0.343-0.374,0.717-0.718,1.119-1.034
					c0.112-0.085,0.21-0.191,0.335-0.263c0.009-0.005,0.018-0.008,0.022-0.013c-3.407,0.025-6.172,2.252-6.245,5.007
					c0,0.027,0.028,0.036,0.041,0.019c0.286-0.375,0.865-0.526,1.543-0.539c1.11-0.027,1.561,0.525,1.561,0.525
					C25.749,114.729,25.896,114.128,26.227,113.448z"/>
				<path fill="#010101" d="M25.856,115.756l-0.169-0.21c-0.004,0-0.424-0.491-1.414-0.491h-0.071
					c-0.723,0.015-1.235,0.192-1.471,0.505l-0.026,0.034l-0.107,0.011l-0.071-0.063l-0.005-0.06c0.071-2.83,2.859-5.073,6.337-5.105
					h0.335l-0.309,0.192c-0.076,0.044-0.142,0.102-0.209,0.161c-0.04,0.035-0.076,0.065-0.116,0.097
					c-0.397,0.313-0.767,0.655-1.106,1.021c-0.482,0.527-0.865,1.08-1.137,1.642c-0.335,0.678-0.473,1.276-0.464,1.998
					L25.856,115.756z M28.563,110.577c-3.157,0.147-5.659,2.162-5.846,4.719c0.302-0.268,0.798-0.415,1.48-0.433h0.076
					c0.727,0,1.173,0.241,1.392,0.41c0.018-0.66,0.165-1.23,0.477-1.868c0.281-0.576,0.678-1.146,1.172-1.681
					c0.344-0.381,0.724-0.729,1.129-1.046c0.035-0.03,0.071-0.061,0.107-0.093C28.555,110.582,28.56,110.582,28.563,110.577z"/>
			</g>
			<g>
				<path fill="#F47C20" d="M28.979,110.476c0.012,0.008,0.022,0.013,0.036,0.025c0.106,0.081,0.218,0.156,0.32,0.241
					c0.393,0.313,0.763,0.661,1.098,1.033c0.455,0.505,0.847,1.063,1.142,1.673c0.161,0.33,0.285,0.68,0.37,1.032
					c0.023,0.079,0.139,0.834,0.147,1.073c0,0.006,0,0.01,0,0.013c0.259-0.418,0.87-0.619,1.579-0.619
					c0.611,0,1.15,0.152,1.449,0.464c0.044,0.05,0.124,0.013,0.124-0.049C35.093,112.656,32.35,110.498,28.979,110.476z"/>
				<path fill="#010101" d="M31.917,116.022l0.076-0.469c-0.005-0.226-0.121-0.972-0.139-1.051
					c-0.084-0.341-0.204-0.679-0.366-1.009c-0.271-0.572-0.65-1.125-1.123-1.655c-0.334-0.37-0.701-0.713-1.088-1.024
					c-0.077-0.059-0.157-0.117-0.232-0.176l-0.375-0.262h0.308c3.407,0.026,6.204,2.212,6.359,4.982c0,0.044-0.018,0.088-0.045,0.12
					c-0.063,0.066-0.178,0.066-0.241,0c-0.267-0.282-0.757-0.434-1.381-0.434c-0.728,0-1.276,0.205-1.503,0.571L31.917,116.022z
					 M29.277,110.577c0.04,0.026,0.075,0.059,0.116,0.089c0.402,0.321,0.771,0.671,1.111,1.048c0.49,0.541,0.878,1.115,1.155,1.695
					c0.165,0.345,0.294,0.696,0.379,1.048c0.017,0.071,0.093,0.544,0.129,0.865c0.308-0.299,0.838-0.468,1.503-0.468
					c0.646,0,1.172,0.161,1.48,0.454C34.977,112.76,32.435,110.715,29.277,110.577z"/>
			</g>
		</g>
	</g>
</g>
</svg>
