<?xml version="1.0" encoding="utf-8"?>
<!-- Generator: Adobe Illustrator 16.0.0, SVG Export Plug-In . SVG Version: 6.00 Build 0)  -->
<!DOCTYPE svg PUBLIC "-//W3C//DTD SVG 1.1//EN" "http://www.w3.org/Graphics/SVG/1.1/DTD/svg11.dtd">
<svg version="1.1" id="Layer_1" xmlns="http://www.w3.org/2000/svg" xmlns:xlink="http://www.w3.org/1999/xlink" x="0px" y="0px"
	 width="80px" height="80px" viewBox="0 0 80 80" enable-background="new 0 0 80 80" xml:space="preserve">
<g>
	<g>
		<g>
			<path fill="#FD7C05" d="M69.177,58.08v3.745h-5.47c-0.47,0-0.848-0.379-0.848-0.846v-2.848c0-0.017,0-0.034,0.003-0.052H69.177z"
				/>
		</g>
		<g>
			<path d="M69.336,61.985h-5.629c-0.556,0-1.007-0.45-1.007-1.006v-2.848c0-0.023,0-0.046,0.003-0.069l0.015-0.143h6.618V61.985z
				 M63.021,58.239l-0.001,2.74c0,0.379,0.309,0.686,0.688,0.686h5.31v-3.426H63.021z"/>
		</g>
	</g>
	<g>
		<g>
			<path fill="#0B1742" d="M75.493,58.08H62.862c0.022-0.441,0.393-0.792,0.845-0.792h10.942
				C75.101,57.288,75.469,57.639,75.493,58.08z"/>
		</g>
		<g>
			<path d="M75.661,58.239H62.693l0.009-0.168c0.028-0.528,0.47-0.942,1.005-0.942h10.942c0.533,0,0.975,0.414,1.003,0.942
				L75.661,58.239z M63.052,57.92h12.251c-0.088-0.274-0.349-0.472-0.653-0.472H63.707C63.4,57.448,63.14,57.646,63.052,57.92z"/>
		</g>
	</g>
	<g>
		<g>
			<path fill="#E86A03" d="M75.496,58.132v2.848c0,0.467-0.377,0.846-0.847,0.846h-5.473V58.08h6.316
				C75.496,58.098,75.496,58.115,75.496,58.132z"/>
		</g>
		<g>
			<path d="M74.649,61.985h-5.633V57.92h6.61l0.023,0.131c0.005,0.028,0.006,0.054,0.006,0.081v2.848
				C75.656,61.535,75.204,61.985,74.649,61.985z M69.336,61.665h5.313c0.379,0,0.688-0.307,0.688-0.686v-2.74h-6.001V61.665z"/>
		</g>
	</g>
	<g>
		<g>
			<path fill="#FD7C05" d="M69.177,53.543v3.745h-5.47c-0.47,0-0.848-0.379-0.848-0.844v-2.849c0-0.018,0-0.035,0.003-0.053H69.177z
				"/>
		</g>
		<g>
			<path d="M69.336,57.448h-5.629c-0.556,0-1.007-0.451-1.007-1.004v-2.849c0-0.024,0-0.048,0.003-0.07l0.015-0.143h6.618V57.448z
				 M63.021,53.702l-0.001,2.742c0,0.376,0.309,0.685,0.688,0.685h5.31v-3.427H63.021z"/>
		</g>
	</g>
	<g>
		<g>
			<path fill="#0B1742" d="M75.493,53.543H62.862c0.022-0.442,0.393-0.793,0.845-0.793h10.942
				C75.101,52.75,75.469,53.101,75.493,53.543z"/>
		</g>
		<g>
			<path d="M75.661,53.702H62.693l0.009-0.168c0.028-0.529,0.47-0.944,1.005-0.944h10.942c0.533,0,0.975,0.415,1.003,0.944
				L75.661,53.702z M63.052,53.383h12.251c-0.088-0.275-0.349-0.474-0.653-0.474H63.707C63.4,52.909,63.14,53.107,63.052,53.383z"/>
		</g>
	</g>
	<g>
		<g>
			<path fill="#E86A03" d="M75.496,53.596v2.849c0,0.465-0.377,0.844-0.847,0.844h-5.473v-3.745h6.316
				C75.496,53.561,75.496,53.578,75.496,53.596z"/>
		</g>
		<g>
			<path d="M74.649,57.448h-5.633v-4.065h6.61l0.023,0.132c0.005,0.025,0.006,0.053,0.006,0.081v2.849
				C75.656,56.997,75.204,57.448,74.649,57.448z M69.336,57.129h5.313c0.379,0,0.688-0.309,0.688-0.685v-2.742h-6.001V57.129z"/>
		</g>
	</g>
	<g>
		<g>
			<path fill="#FD7C05" d="M69.177,49.004v3.746h-5.47c-0.47,0-0.848-0.379-0.848-0.844v-2.85c0-0.018,0-0.035,0.003-0.053H69.177z"
				/>
		</g>
		<g>
			<path d="M69.336,52.909h-5.629c-0.556,0-1.007-0.45-1.007-1.003v-2.85c0-0.022,0-0.046,0.002-0.069l0.016-0.143h6.618V52.909z
				 M63.021,49.163l-0.001,2.743c0,0.377,0.309,0.684,0.688,0.684h5.31v-3.427H63.021z"/>
		</g>
	</g>
	<g>
		<g>
			<path fill="#0B1742" d="M75.493,49.004H62.862c0.022-0.441,0.393-0.792,0.845-0.792h10.942
				C75.101,48.212,75.469,48.563,75.493,49.004z"/>
		</g>
		<g>
			<path d="M75.661,49.163H62.693l0.009-0.168c0.028-0.529,0.47-0.942,1.005-0.942h10.942c0.533,0,0.975,0.413,1.003,0.942
				L75.661,49.163z M63.052,48.845h12.251c-0.088-0.274-0.349-0.473-0.653-0.473H63.707C63.4,48.372,63.14,48.57,63.052,48.845z"/>
		</g>
	</g>
	<g>
		<g>
			<path fill="#E86A03" d="M75.496,49.057v2.85c0,0.465-0.377,0.844-0.847,0.844h-5.473v-3.746h6.316
				C75.496,49.021,75.496,49.039,75.496,49.057z"/>
		</g>
		<g>
			<path d="M74.649,52.909h-5.633v-4.064h6.61l0.023,0.132c0.005,0.026,0.006,0.054,0.006,0.08v2.85
				C75.656,52.459,75.204,52.909,74.649,52.909z M69.336,52.59h5.313c0.379,0,0.688-0.307,0.688-0.684v-2.743h-6.001V52.59z"/>
		</g>
	</g>
	<g>
		<g>
			<path fill="#FD7C05" d="M69.177,44.467v3.745h-5.47c-0.47,0-0.848-0.377-0.848-0.844v-2.848c0-0.019,0-0.036,0.003-0.054H69.177z
				"/>
		</g>
		<g>
			<path d="M69.336,48.372h-5.629c-0.556,0-1.007-0.45-1.007-1.004v-2.848c0-0.023,0-0.048,0.002-0.07l0.016-0.144h6.618V48.372z
				 M63.021,44.626l-0.001,2.742c0,0.378,0.309,0.685,0.688,0.685h5.31v-3.427H63.021z"/>
		</g>
	</g>
	<g>
		<g>
			<path fill="#0B1742" d="M75.493,44.467H62.862c0.022-0.441,0.393-0.792,0.845-0.792h10.942
				C75.101,43.675,75.469,44.025,75.493,44.467z"/>
		</g>
		<g>
			<path d="M75.661,44.626H62.693l0.009-0.167c0.028-0.528,0.47-0.943,1.005-0.943h10.942c0.533,0,0.975,0.415,1.003,0.943
				L75.661,44.626z M63.052,44.307h12.251c-0.088-0.274-0.349-0.472-0.653-0.472H63.707C63.4,43.835,63.14,44.032,63.052,44.307z"/>
		</g>
	</g>
	<g>
		<g>
			<path fill="#E86A03" d="M75.496,44.521v2.848c0,0.467-0.377,0.844-0.847,0.844h-5.473v-3.745h6.316
				C75.496,44.484,75.496,44.502,75.496,44.521z"/>
		</g>
		<g>
			<path d="M74.649,48.372h-5.633v-4.065h6.61l0.023,0.133c0.005,0.026,0.006,0.054,0.006,0.081v2.848
				C75.656,47.922,75.204,48.372,74.649,48.372z M69.336,48.053h5.313c0.379,0,0.688-0.307,0.688-0.685v-2.742h-6.001V48.053z"/>
		</g>
	</g>
	<g>
		<g>
			<path fill="#FD7C05" d="M69.177,39.93v3.745h-5.47c-0.47,0-0.848-0.377-0.848-0.844v-2.85c0-0.017,0-0.034,0.003-0.052H69.177z"
				/>
		</g>
		<g>
			<path d="M69.336,43.835h-5.629c-0.556,0-1.007-0.451-1.007-1.004v-2.85c0-0.022,0-0.047,0.003-0.069l0.016-0.142h6.617V43.835z
				 M63.021,40.089l-0.001,2.742c0,0.378,0.309,0.685,0.688,0.685h5.31v-3.427H63.021z"/>
		</g>
	</g>
	<g>
		<g>
			<path fill="#0B1742" d="M75.493,39.93H62.862c0.022-0.441,0.393-0.792,0.845-0.792h10.942
				C75.101,39.138,75.469,39.488,75.493,39.93z"/>
		</g>
		<g>
			<path d="M75.661,40.089H62.693l0.009-0.168c0.028-0.529,0.47-0.943,1.005-0.943h10.942c0.533,0,0.975,0.414,1.003,0.943
				L75.661,40.089z M63.052,39.77h12.251c-0.088-0.275-0.349-0.473-0.653-0.473H63.707C63.4,39.297,63.14,39.495,63.052,39.77z"/>
		</g>
	</g>
	<g>
		<g>
			<path fill="#E86A03" d="M75.496,39.981v2.85c0,0.467-0.377,0.844-0.847,0.844h-5.473V39.93h6.316
				C75.496,39.947,75.496,39.964,75.496,39.981z"/>
		</g>
		<g>
			<path d="M74.649,43.835h-5.633V39.77h6.609l0.024,0.13c0.004,0.026,0.006,0.056,0.006,0.081v2.85
				C75.656,43.384,75.204,43.835,74.649,43.835z M69.336,43.516h5.313c0.379,0,0.688-0.307,0.688-0.685v-2.742h-6.001V43.516z"/>
		</g>
	</g>
	<g>
		<g>
			<path fill="#FD7C05" d="M56.542,58.08v3.745h-5.469c-0.471,0-0.847-0.379-0.847-0.846v-2.848c0-0.017,0-0.034,0.002-0.052H56.542
				z"/>
		</g>
		<g>
			<path d="M56.701,61.985h-5.628c-0.556,0-1.007-0.45-1.007-1.006v-2.848c0-0.024,0.001-0.05,0.004-0.074l0.02-0.138h6.611V61.985z
				 M50.386,58.239v2.74c0,0.379,0.309,0.686,0.688,0.686h5.309v-3.426H50.386z"/>
		</g>
	</g>
	<g>
		<g>
			<path fill="#0B1742" d="M62.859,58.08H50.229c0.023-0.441,0.393-0.792,0.845-0.792h10.94
				C62.466,57.288,62.836,57.639,62.859,58.08z"/>
		</g>
		<g>
			<path d="M63.028,58.239H50.061l0.009-0.168c0.029-0.528,0.47-0.942,1.004-0.942h10.94c0.535,0,0.977,0.414,1.006,0.942
				L63.028,58.239z M50.419,57.92H62.67c-0.089-0.274-0.35-0.472-0.656-0.472h-10.94C50.768,57.448,50.508,57.646,50.419,57.92z"/>
		</g>
	</g>
	<g>
		<g>
			<path fill="#E86A03" d="M62.862,58.132v2.848c0,0.467-0.379,0.846-0.849,0.846h-5.472V58.08h6.317
				C62.862,58.098,62.862,58.115,62.862,58.132z"/>
		</g>
		<g>
			<path d="M62.014,61.985h-5.632V57.92h6.622l0.014,0.143c0.003,0.023,0.003,0.046,0.003,0.069v2.848
				C63.021,61.535,62.569,61.985,62.014,61.985z M56.701,61.665h5.313c0.38,0,0.688-0.307,0.688-0.686v-2.74h-6.001V61.665z"/>
		</g>
	</g>
	<g>
		<g>
			<path fill="#FD7C05" d="M56.542,53.543v3.745h-5.469c-0.471,0-0.847-0.379-0.847-0.844v-2.849c0-0.018,0-0.035,0.002-0.053
				H56.542z"/>
		</g>
		<g>
			<path d="M56.701,57.448h-5.628c-0.556,0-1.007-0.451-1.007-1.004v-2.849c0-0.025,0.001-0.052,0.004-0.077l0.02-0.136h6.611
				V57.448z M50.386,53.702v2.742c0,0.376,0.309,0.685,0.688,0.685h5.309v-3.427H50.386z"/>
		</g>
	</g>
	<g>
		<g>
			<path fill="#0B1742" d="M62.859,53.543H50.229c0.023-0.442,0.393-0.793,0.845-0.793h10.94
				C62.466,52.75,62.836,53.101,62.859,53.543z"/>
		</g>
		<g>
			<path d="M63.028,53.702H50.061l0.009-0.168c0.029-0.529,0.47-0.944,1.004-0.944h10.94c0.535,0,0.977,0.415,1.006,0.944
				L63.028,53.702z M50.419,53.383H62.67c-0.089-0.275-0.35-0.474-0.656-0.474h-10.94C50.768,52.909,50.508,53.107,50.419,53.383z"
				/>
		</g>
	</g>
	<g>
		<g>
			<path fill="#E86A03" d="M62.862,53.596v2.849c0,0.465-0.379,0.844-0.849,0.844h-5.472v-3.745h6.317
				C62.862,53.561,62.862,53.578,62.862,53.596z"/>
		</g>
		<g>
			<path d="M62.014,57.448h-5.632v-4.065h6.622l0.014,0.143c0.003,0.022,0.003,0.046,0.003,0.07v2.849
				C63.021,56.997,62.569,57.448,62.014,57.448z M56.701,57.129h5.313c0.38,0,0.688-0.309,0.688-0.685v-2.742h-6.001V57.129z"/>
		</g>
	</g>
	<g>
		<g>
			<path fill="#FD7C05" d="M44.166,58.08v3.745h-5.47c-0.47,0-0.848-0.379-0.848-0.846v-2.848c0-0.017,0-0.034,0.003-0.052H44.166z"
				/>
		</g>
		<g>
			<path d="M44.325,61.985h-5.629c-0.556,0-1.007-0.45-1.007-1.006v-2.848c0-0.027,0-0.053,0.005-0.081l0.024-0.131h6.607V61.985z
				 M38.009,58.239l-0.001,2.74c0,0.379,0.309,0.686,0.688,0.686h5.31v-3.426H38.009z"/>
		</g>
	</g>
	<g>
		<g>
			<path fill="#0B1742" d="M50.482,58.08H37.852c0.023-0.441,0.393-0.792,0.845-0.792h10.941
				C50.09,57.288,50.458,57.639,50.482,58.08z"/>
		</g>
		<g>
			<path d="M50.65,58.239H37.684l0.009-0.168c0.027-0.528,0.468-0.942,1.004-0.942h10.941c0.534,0,0.976,0.414,1.004,0.942
				L50.65,58.239z M38.042,57.92h12.25c-0.088-0.274-0.349-0.472-0.654-0.472H38.696C38.39,57.448,38.129,57.646,38.042,57.92z"/>
		</g>
	</g>
	<g>
		<g>
			<path fill="#E86A03" d="M50.485,58.132v2.848c0,0.467-0.378,0.846-0.848,0.846h-5.472V58.08h6.316
				C50.485,58.098,50.485,58.115,50.485,58.132z"/>
		</g>
		<g>
			<path d="M49.638,61.985h-5.632V57.92h6.609l0.024,0.131c0.005,0.028,0.005,0.054,0.005,0.081v2.848
				C50.645,61.535,50.193,61.985,49.638,61.985z M44.325,61.665h5.313c0.38,0,0.688-0.307,0.688-0.686v-2.74h-6V61.665z"/>
		</g>
	</g>
	<g>
		<g>
			<path fill="#FD7C05" d="M44.166,53.543v3.745h-5.47c-0.47,0-0.848-0.379-0.848-0.844v-2.849c0-0.018,0-0.035,0.003-0.053H44.166z
				"/>
		</g>
		<g>
			<path d="M44.325,57.448h-5.629c-0.556,0-1.007-0.451-1.007-1.004v-2.849c0-0.028,0-0.056,0.005-0.081l0.024-0.132h6.607V57.448z
				 M38.009,53.702l-0.001,2.742c0,0.376,0.309,0.685,0.688,0.685h5.31v-3.427H38.009z"/>
		</g>
	</g>
	<g>
		<g>
			<path fill="#0B1742" d="M50.482,53.543H37.852c0.023-0.442,0.393-0.793,0.845-0.793h10.941
				C50.09,52.75,50.458,53.101,50.482,53.543z"/>
		</g>
		<g>
			<path d="M50.65,53.702H37.684l0.009-0.168c0.027-0.529,0.468-0.944,1.004-0.944h10.941c0.534,0,0.976,0.415,1.004,0.944
				L50.65,53.702z M38.042,53.383h12.25c-0.088-0.275-0.349-0.474-0.654-0.474H38.696C38.39,52.909,38.129,53.107,38.042,53.383z"/>
		</g>
	</g>
	<g>
		<g>
			<path fill="#E86A03" d="M50.485,53.596v2.849c0,0.465-0.378,0.844-0.848,0.844h-5.472v-3.745h6.316
				C50.485,53.561,50.485,53.578,50.485,53.596z"/>
		</g>
		<g>
			<path d="M49.638,57.448h-5.632v-4.065h6.609l0.024,0.132c0.005,0.025,0.005,0.053,0.005,0.081v2.849
				C50.645,56.997,50.193,57.448,49.638,57.448z M44.325,57.129h5.313c0.38,0,0.688-0.309,0.688-0.685v-2.742h-6V57.129z"/>
		</g>
	</g>
	<g>
		<g>
			<path fill="#FD7C05" d="M56.542,49.004v3.746h-5.469c-0.471,0-0.847-0.379-0.847-0.844v-2.85c0-0.018,0-0.035,0.002-0.053H56.542
				z"/>
		</g>
		<g>
			<path d="M56.701,52.909h-5.628c-0.556,0-1.007-0.45-1.007-1.003v-2.85c0-0.025,0.001-0.05,0.004-0.075l0.02-0.137h6.611V52.909z
				 M50.386,49.163v2.743c0,0.377,0.309,0.684,0.688,0.684h5.309v-3.427H50.386z"/>
		</g>
	</g>
	<g>
		<g>
			<path fill="#0B1742" d="M62.859,49.004H50.229c0.023-0.441,0.393-0.792,0.845-0.792h10.94
				C62.466,48.212,62.836,48.563,62.859,49.004z"/>
		</g>
		<g>
			<path d="M63.028,49.163H50.06l0.01-0.168c0.029-0.529,0.47-0.942,1.004-0.942h10.94c0.535,0,0.977,0.413,1.006,0.942
				L63.028,49.163z M50.419,48.845h12.25c-0.088-0.274-0.349-0.473-0.655-0.473h-10.94C50.768,48.372,50.508,48.57,50.419,48.845z"
				/>
		</g>
	</g>
	<g>
		<g>
			<path fill="#E86A03" d="M62.862,49.057v2.85c0,0.465-0.379,0.844-0.849,0.844h-5.472v-3.746h6.317
				C62.862,49.021,62.862,49.039,62.862,49.057z"/>
		</g>
		<g>
			<path d="M62.014,52.909h-5.632v-4.064h6.622l0.015,0.143c0.002,0.023,0.002,0.047,0.002,0.069v2.85
				C63.021,52.459,62.569,52.909,62.014,52.909z M56.701,52.59h5.313c0.38,0,0.688-0.307,0.688-0.684v-2.743h-6.001V52.59z"/>
		</g>
	</g>
	<g>
		<g>
			<path fill="#FD7C05" d="M68.799,31.402l0.957,3.621l-5.287,1.4c-0.454,0.12-0.916-0.15-1.035-0.6l-0.729-2.754
				c-0.004-0.018-0.008-0.034-0.01-0.052L68.799,31.402z"/>
		</g>
		<g>
			<path d="M64.251,36.612c-0.456,0-0.855-0.308-0.972-0.747L62.55,33.11c-0.01-0.043-0.013-0.062-0.015-0.083l-0.009-0.132
				l6.386-1.688l1.039,3.929l-5.441,1.441C64.425,36.6,64.338,36.612,64.251,36.612z M62.887,33.132l0.701,2.65
				c0.094,0.358,0.478,0.583,0.841,0.486l5.133-1.359l-0.877-3.312L62.887,33.132z"/>
		</g>
	</g>
	<g>
		<g>
			<path fill="#0B1742" d="M74.905,29.788l-12.211,3.229c-0.09-0.433,0.178-0.866,0.613-0.981l10.578-2.799
				C74.324,29.122,74.77,29.367,74.905,29.788z"/>
		</g>
		<g>
			<path d="M62.572,33.214l-0.034-0.165c-0.107-0.518,0.214-1.031,0.729-1.167l10.579-2.799c0.514-0.135,1.052,0.162,1.211,0.654
				l0.052,0.161L62.572,33.214z M74.104,29.369c-0.06,0-0.119,0.007-0.178,0.022L63.349,32.19c-0.294,0.078-0.495,0.335-0.511,0.624
				l11.843-3.132C74.559,29.49,74.343,29.369,74.104,29.369z"/>
		</g>
	</g>
	<g>
		<g>
			<path fill="#E86A03" d="M74.921,29.837l0.729,2.753c0.119,0.45-0.15,0.914-0.603,1.034l-5.292,1.399l-0.957-3.621l6.106-1.614
				C74.912,29.804,74.917,29.82,74.921,29.837z"/>
		</g>
		<g>
			<path d="M69.643,35.219l-1.039-3.931l6.396-1.692l0.053,0.13c0.011,0.024,0.018,0.046,0.024,0.071l0.729,2.753
				c0.142,0.535-0.18,1.086-0.716,1.229L69.643,35.219z M68.994,31.516l0.876,3.313l5.138-1.358
				c0.365-0.097,0.585-0.474,0.489-0.839l-0.702-2.65L68.994,31.516z"/>
		</g>
	</g>
	<g>
		<g>
			<path fill="#FD7C05" d="M19.332,26.597v35.229h-2.173c-10.365,0-16.026-9.065-12.815-17.047l7.31-18.182H19.332z"/>
		</g>
		<g>
			<path d="M19.491,61.985h-2.333c-4.989,0-9.283-2.121-11.781-5.819c-2.271-3.361-2.713-7.641-1.182-11.447l7.35-18.282h7.946
				V61.985z M11.761,26.757l-7.27,18.082C3,48.545,3.43,52.713,5.642,55.987c2.438,3.608,6.635,5.678,11.517,5.678h2.014V26.757
				H11.761z"/>
		</g>
	</g>
	<g>
		<g>
			<rect x="11.653" y="23.003" fill="#0B1742" width="15.362" height="3.597"/>
		</g>
		<g>
			<path d="M27.175,26.76H11.494v-3.917h15.682V26.76z M11.813,26.441h15.043v-3.278H11.813V26.441z"/>
		</g>
	</g>
	<g>
		<g>
			<path fill="#FD7C05" d="M19.332,61.825V26.597h7.686l7.311,18.182C37.076,51.629,33.873,61.825,19.332,61.825z"/>
		</g>
		<g>
			<path d="M19.332,61.985h-0.16V26.437h7.953l0.041,0.1l7.311,18.182c1.509,3.763,1.1,8.091-1.067,11.294
				C31.567,58.737,27.629,61.985,19.332,61.985z M19.491,26.757v34.908c8.048-0.04,11.866-3.188,13.654-5.831
				c2.108-3.117,2.505-7.329,1.034-10.995l-7.271-18.082H19.491z"/>
		</g>
	</g>
	<g>
		<g>
			<polygon fill="#FD7C05" points="11.653,23.003 10.167,19.94 19.332,18.102 19.334,23.003 			"/>
		</g>
		<g>
			<path d="M19.494,23.163h-7.941l-1.621-3.339l9.559-1.917L19.494,23.163z M11.753,22.844h7.422l-0.003-4.547l-8.771,1.76
				L11.753,22.844z"/>
		</g>
	</g>
	<g>
		<g>
			<polygon fill="#FD7C05" points="27.016,23.003 28.502,19.94 19.337,18.102 19.334,23.003 			"/>
		</g>
		<g>
			<path d="M27.115,23.163h-7.94l0.002-5.255l9.558,1.917L27.115,23.163z M19.494,22.844h7.422l1.352-2.788l-8.771-1.76
				L19.494,22.844z"/>
		</g>
	</g>
	<g>
		<g>
			<path fill="#0B1742" d="M17.947,32.652c-2.722,0.771-4.702,3.062-4.702,5.76c0,2.986,2.432,5.47,5.613,5.944
				c2.814,0.43,3.813,1.869,3.813,3.31c0,1.945-1.98,3.296-3.977,3.296c-1.49,0-2.792-0.682-3.465-1.688l-1.957,1.956
				c1.09,1.338,2.759,2.25,4.675,2.438v1.004h2.768v-1.244c2.722-0.772,4.702-3.063,4.702-5.762c0-3.935-2.992-5.253-6.559-6.104
				c-1.653-0.399-2.867-1.657-2.867-3.15c0-1.96,2.025-3.294,3.976-3.294c1.491,0,2.792,0.681,3.466,1.687l1.956-1.956
				c-1.09-1.338-2.759-2.25-4.675-2.439v-1.002h-2.768V32.652z"/>
		</g>
		<g>
			<path d="M20.875,54.832h-3.086v-1.02c-1.845-0.221-3.529-1.119-4.64-2.482l-0.091-0.111l2.196-2.196l0.108,0.162
				c0.668,0.997,1.945,1.617,3.333,1.617c1.843,0,3.816-1.26,3.816-3.136c0-1.646-1.34-2.795-3.677-3.151
				c-3.331-0.498-5.749-3.064-5.749-6.103c0-2.683,1.885-5.032,4.703-5.88v-1.284h3.086v1.019c1.843,0.218,3.528,1.118,4.639,2.481
				l0.091,0.111l-2.195,2.197l-0.108-0.161c-0.667-0.997-1.944-1.617-3.333-1.617c-1.843,0-3.816,1.259-3.816,3.135
				c0,1.373,1.128,2.604,2.745,2.995c3.47,0.828,6.681,2.158,6.681,6.259c0,2.684-1.885,5.032-4.703,5.882V54.832z M18.107,54.513
				h2.448v-1.206l0.116-0.033c2.743-0.778,4.586-3.031,4.586-5.607c0-3.663-2.573-5.027-6.436-5.948
				c-1.761-0.425-2.99-1.785-2.99-3.306c0-2.066,2.138-3.454,4.136-3.454c1.42,0,2.736,0.608,3.486,1.601l1.72-1.72
				c-1.088-1.271-2.71-2.096-4.475-2.271l-0.144-0.014v-0.987h-2.448v1.206l-0.116,0.033c-2.744,0.778-4.587,3.031-4.587,5.607
				c0,2.879,2.304,5.313,5.478,5.787c3.563,0.543,3.948,2.605,3.948,3.467c0,2.134-2.147,3.455-4.136,3.455
				c-1.419,0-2.735-0.609-3.485-1.601l-1.721,1.72c1.087,1.271,2.709,2.095,4.475,2.269l0.144,0.015V54.513z"/>
		</g>
	</g>
	<g>
		<g>
			<rect x="27.016" y="23.003" fill="#0B1742" width="5.626" height="3.597"/>
		</g>
		<g>
			<path d="M32.801,26.76h-5.945v-3.917h5.945V26.76z M27.175,26.441h5.307v-3.278h-5.307V26.441z"/>
		</g>
	</g>
	<g>
		<g>
			<rect x="66.351" y="21.312" fill="#0B1742" width="1.162" height="6.997"/>
		</g>
		<g>
			<path d="M67.672,28.468h-1.48v-7.316h1.48V28.468z M66.511,28.149h0.842v-6.678h-0.842V28.149z"/>
		</g>
	</g>
	<g>
		<g>
			<rect x="68.598" y="21.312" fill="#0B1742" width="1.161" height="6.997"/>
		</g>
		<g>
			<path d="M69.919,28.468h-1.48v-7.316h1.48V28.468z M68.757,28.149H69.6v-6.678h-0.843V28.149z"/>
		</g>
	</g>
	<g>
		<g>
			<rect x="70.843" y="21.312" fill="#0B1742" width="1.161" height="6.997"/>
		</g>
		<g>
			<path d="M72.164,28.468h-1.48v-7.316h1.48V28.468z M71.003,28.149h0.842v-6.678h-0.842V28.149z"/>
		</g>
	</g>
</g>
</svg>
