<?xml version="1.0" encoding="utf-8"?>
<!-- Generator: Adobe Illustrator 16.0.0, SVG Export Plug-In . SVG Version: 6.00 Build 0)  -->
<!DOCTYPE svg PUBLIC "-//W3C//DTD SVG 1.1//EN" "http://www.w3.org/Graphics/SVG/1.1/DTD/svg11.dtd">
<svg version="1.1" id="Layer_1" xmlns="http://www.w3.org/2000/svg" xmlns:xlink="http://www.w3.org/1999/xlink" x="0px" y="0px"
	 width="80px" height="45px" viewBox="0 0 80 45" enable-background="new 0 0 80 45" xml:space="preserve">
<g>
	<g>
		<g>
			<g>
				<path fill="#FD7C05" d="M13.641,43.696c-1.14,0.004-2.326-0.149-3.527-0.455c-2.879-0.733-5.262-2.513-6.71-5.012
					c-1.459-2.52-1.819-5.503-1.013-8.401c1.492-5.366,6.786-9.278,12.586-9.302c1.77-0.007,3.461,0.35,5.03,1.063
					c2.021,0.921,3.61,2.31,4.725,4.131l0.009,0.013c0.063,0.104,0.131,0.219,0.182,0.288c0.084-0.025,0.224-0.078,0.354-0.128
					c1.062-0.404,2.126-0.809,3.189-1.212c2.486-0.941,5.054-1.919,7.575-2.895c4.907-1.9,9.89-3.839,14.709-5.716
					c2.737-1.064,5.475-2.132,8.215-3.195c0.984-0.381,1.859-0.956,2.601-1.706c0.648-0.657,0.677-1.26,0.088-1.956
					c-0.232-0.276-0.484-0.552-0.726-0.818c-0.266-0.293-0.537-0.594-0.799-0.905c-0.536-0.641-1.219-0.915-2.105-0.846
					c-0.092,0.007-0.184,0.014-0.276,0.023c-0.38,0.032-0.778,0.063-1.172,0.054c-0.355-0.008-0.712-0.13-0.957-0.323
					c-0.386-0.306-0.761-0.629-1.125-0.944c-0.243-0.21-0.494-0.431-0.744-0.637c-0.257-0.212-0.395-0.449-0.411-0.707
					c-0.017-0.25,0.079-0.49,0.286-0.713c0.231-0.253,0.464-0.507,0.694-0.76c0.636-0.697,1.291-1.417,1.966-2.102
					C56.636,0.177,56.999,0,57.397,0c0.365-0.002,0.736,0.149,1.137,0.461c0.848,0.659,1.721,1.372,2.665,2.183
					c0.353,0.302,0.706,0.602,1.063,0.902c1.746,1.474,3.551,3,5.066,4.797c0.757,0.898,1.498,1.946,2.331,3.297
					c0.306,0.497,0.509,1.134,0.617,1.952c0.165,1.235-0.307,1.935-1.531,2.267c-0.569,0.155-1.15,0.279-1.714,0.399
					c-0.303,0.064-0.605,0.128-0.908,0.199c-1.903,0.438-3.406,0.969-4.729,1.672c-0.045,0.023-0.09,0.048-0.137,0.073l0.779,1.221
					c0.046-0.021,0.09-0.042,0.136-0.061c1.671-0.739,3.354-1.117,4.998-1.123c1.66-0.007,3.313,0.362,4.918,1.1
					c2.35,1.079,4.166,2.928,5.116,5.209c0.947,2.273,0.998,4.882,0.144,7.349c-1.631,4.706-6.357,8.009-11.494,8.028
					c-1.455,0.007-2.866-0.253-4.195-0.771c-3.079-1.198-5.339-3.661-6.199-6.759c-0.877-3.152-0.187-6.499,1.889-9.186
					c0.46-0.596,0.987-1.137,1.497-1.661c0.091-0.094,0.182-0.189,0.273-0.281c0.002-0.004,0.006-0.007,0.009-0.011
					c-0.215-0.315-0.422-0.644-0.643-0.989c-0.015-0.021-0.028-0.044-0.042-0.066c-2.3,1.844-3.67,4.056-4.185,6.748
					c-0.604,3.181-0.097,5.918,1.554,8.366l0.447,0.663l-30.64,2.253l0.474-0.772c1.137-1.857,1.737-3.278,2.008-4.755
					c0.288-1.566,0.32-3.046,0.098-4.508l-2.145,0.813c0.044,0.246,0.085,0.479,0.117,0.722c0.492,3.854-0.683,7.212-3.489,9.982
					C20.017,42.342,16.977,43.682,13.641,43.696z M14.981,21.454C9.589,21.476,4.67,25.103,3.286,30.079
					c-0.74,2.653-0.41,5.383,0.921,7.686c1.322,2.281,3.501,3.906,6.136,4.577c1.125,0.287,2.234,0.43,3.293,0.425
					c3.084-0.011,5.907-1.262,8.394-3.714c2.589-2.557,3.672-5.652,3.219-9.204c-0.028-0.226-0.069-0.452-0.113-0.695
					c-0.022-0.117-0.043-0.24-0.064-0.364l-0.063-0.376l3.9-1.479l0.107,0.54c0.341,1.753,0.342,3.519-0.004,5.395
					c-0.252,1.383-0.763,2.704-1.672,4.305l27.283-2.006c-1.459-2.488-1.875-5.242-1.274-8.393c0.585-3.08,2.199-5.575,4.931-7.623
					l0.4-0.301l0.269,0.42c0.112,0.173,0.219,0.339,0.319,0.498c0.235,0.369,0.439,0.689,0.654,1.006
					c0.398,0.583-0.004,1-0.138,1.138c-0.09,0.094-0.184,0.188-0.275,0.283c-0.49,0.506-0.999,1.026-1.427,1.58
					c-1.896,2.454-2.525,5.503-1.729,8.37c0.782,2.813,2.839,5.052,5.642,6.144c1.22,0.475,2.518,0.712,3.856,0.706
					c4.75-0.019,9.117-3.063,10.619-7.405c1.624-4.683-0.339-9.374-4.769-11.408c-1.48-0.682-3.003-1.023-4.526-1.017
					c-1.517,0.006-3.073,0.357-4.627,1.044c-0.1,0.044-0.198,0.09-0.308,0.141l-0.55,0.253l-1.742-2.728l0.428-0.241
					c0.084-0.047,0.158-0.09,0.225-0.128c0.137-0.078,0.246-0.14,0.358-0.198c1.396-0.742,2.972-1.299,4.957-1.757
					c0.307-0.072,0.614-0.136,0.923-0.203c0.549-0.116,1.118-0.238,1.663-0.387c0.765-0.207,0.957-0.487,0.855-1.25
					c-0.092-0.675-0.255-1.208-0.488-1.586c-0.808-1.31-1.524-2.322-2.251-3.186c-1.464-1.738-3.239-3.237-4.957-4.688
					c-0.355-0.3-0.712-0.602-1.066-0.904c-0.933-0.8-1.794-1.505-2.63-2.154c-0.227-0.178-0.418-0.269-0.564-0.267
					c-0.051-0.001-0.203,0-0.457,0.258c-0.66,0.673-1.31,1.388-1.938,2.077c-0.233,0.254-0.466,0.51-0.699,0.764
					c-0.01,0.01-0.017,0.018-0.022,0.026c0.013,0.013,0.032,0.03,0.057,0.052c0.259,0.213,0.514,0.433,0.76,0.648
					c0.356,0.307,0.724,0.626,1.093,0.918c0.086,0.067,0.255,0.119,0.403,0.123c0.35,0.008,0.7-0.022,1.073-0.052
					c0.094-0.009,0.188-0.016,0.284-0.023c1.187-0.093,2.158,0.304,2.887,1.178c0.247,0.295,0.515,0.589,0.773,0.874
					c0.248,0.274,0.505,0.555,0.748,0.845c0.901,1.065,0.854,2.204-0.138,3.205c-0.833,0.843-1.818,1.49-2.923,1.919
					c-2.74,1.064-5.479,2.13-8.215,3.196c-4.821,1.876-9.806,3.817-14.71,5.718c-2.523,0.977-5.094,1.952-7.58,2.896
					c-1.064,0.403-2.127,0.807-3.19,1.211c-0.321,0.123-0.531,0.202-0.743,0.203c-0.458,0.002-0.66-0.329-0.916-0.746l-0.007-0.012
					c-1.015-1.66-2.468-2.932-4.319-3.771C18.177,21.778,16.615,21.448,14.981,21.454z M13.591,39.911
					C13.591,39.911,13.591,39.911,13.591,39.911c-0.849,0.003-1.683-0.122-2.48-0.372c-2.143-0.676-3.844-2.211-4.665-4.21
					c-0.823-2.004-0.69-4.298,0.363-6.29c1.535-2.903,4.634-4.787,7.896-4.801c1.025-0.005,2.018,0.177,2.954,0.539
					c1.516,0.586,2.931,1.762,3.606,2.994l0.241,0.443l-0.462,0.205c-0.069,0.03-0.138,0.063-0.208,0.096
					c-0.155,0.071-0.315,0.146-0.486,0.21c-0.953,0.36-1.908,0.717-2.862,1.076c-1.311,0.493-2.621,0.985-3.93,1.48
					c-0.244,0.093-0.499,0.198-0.713,0.336c-0.256,0.165-0.354,0.469-0.245,0.772c0.088,0.245,0.234,0.346,0.506,0.344
					c0.028,0,0.058-0.001,0.089-0.003c0.271-0.022,0.558-0.119,0.779-0.201c1.914-0.707,3.786-1.405,5.767-2.146l2.283-0.85
					l0.127,0.5c0.272,1.07,0.267,2.146-0.014,3.286c-0.454,1.854-1.586,3.541-3.185,4.749C17.392,39.25,15.487,39.903,13.591,39.911
					z M14.708,25.167c-2.923,0.011-5.701,1.701-7.077,4.306c-0.926,1.748-1.045,3.755-0.328,5.502
					c0.716,1.744,2.206,3.085,4.087,3.679c0.705,0.221,1.444,0.332,2.195,0.329c3.544-0.013,6.835-2.542,7.653-5.883
					c0.199-0.807,0.238-1.573,0.12-2.325l-1.291,0.481c-1.982,0.739-3.853,1.438-5.77,2.146c-0.277,0.103-0.642,0.223-1.024,0.256
					c-0.057,0.005-0.11,0.007-0.162,0.007c-0.67,0.003-1.163-0.338-1.384-0.959c-0.256-0.714-0.009-1.464,0.615-1.866
					c0.286-0.186,0.596-0.314,0.888-0.424c1.31-0.497,2.621-0.987,3.933-1.482c0.953-0.358,1.907-0.717,2.859-1.075
					c0.053-0.02,0.104-0.042,0.157-0.063c-0.64-0.887-1.731-1.717-2.855-2.151C16.498,25.323,15.619,25.163,14.708,25.167z
					 M66.043,36.396c-1.254,0.005-2.474-0.286-3.526-0.845c-2.093-1.109-3.402-2.946-3.688-5.171
					c-0.291-2.298,0.576-4.621,2.32-6.217c0.055-0.05,0.106-0.083,0.161-0.122c0.025-0.016,0.057-0.037,0.094-0.062l0.396-0.279
					l0.92,1.434c0.846,1.312,1.678,2.607,2.511,3.9l0.085,0.134c0.158,0.247,0.307,0.48,0.47,0.705
					c0.294,0.406,0.725,0.486,1.128,0.213c0.358-0.239,0.425-0.659,0.17-1.067c-0.544-0.865-1.109-1.74-1.657-2.587
					c-0.222-0.347-0.446-0.691-0.669-1.036c-0.313-0.487-0.623-0.972-0.962-1.494l-0.826-1.282l0.607-0.17
					c0.219-0.061,0.435-0.128,0.644-0.193c0.458-0.142,0.929-0.291,1.414-0.363c3.017-0.445,5.438,0.445,7.169,2.633
					c2.089,2.637,1.87,6.365-0.528,9.066C70.726,35.339,68.396,36.387,66.043,36.396z M61.564,25.052
					c-1.379,1.38-2.056,3.308-1.813,5.212c0.244,1.917,1.381,3.503,3.197,4.468c0.92,0.486,1.989,0.74,3.09,0.735
					c2.095-0.007,4.164-0.939,5.54-2.489c2.096-2.358,2.299-5.599,0.496-7.874c-1.28-1.619-2.918-2.401-5.005-2.394
					c-0.415,0.002-0.854,0.036-1.301,0.104c-0.412,0.061-0.829,0.191-1.272,0.328c-0.023,0.01-0.048,0.018-0.071,0.023l0.15,0.234
					c0.337,0.522,0.649,1.009,0.962,1.494c0.222,0.345,0.446,0.689,0.668,1.035c0.548,0.85,1.116,1.728,1.663,2.6
					c0.52,0.828,0.336,1.81-0.436,2.328c-0.309,0.21-0.653,0.319-0.995,0.32c-0.55,0.004-1.05-0.267-1.405-0.758
					c-0.179-0.247-0.343-0.501-0.499-0.749l-0.086-0.132c-0.832-1.294-1.664-2.588-2.509-3.901L61.564,25.052z"/>
				<path fill="none" stroke="#000000" stroke-width="0.25" stroke-miterlimit="10" d="M13.641,43.696
					c-1.14,0.004-2.326-0.149-3.527-0.455c-2.879-0.733-5.262-2.513-6.71-5.012c-1.459-2.52-1.819-5.503-1.013-8.401
					c1.492-5.366,6.786-9.278,12.586-9.302c1.77-0.007,3.461,0.35,5.03,1.063c2.021,0.921,3.61,2.31,4.725,4.131l0.009,0.013
					c0.063,0.104,0.131,0.219,0.182,0.288c0.084-0.025,0.224-0.078,0.354-0.128c1.062-0.404,2.126-0.809,3.189-1.212
					c2.486-0.941,5.054-1.919,7.575-2.895c4.907-1.9,9.89-3.839,14.709-5.716c2.737-1.064,5.475-2.132,8.215-3.195
					c0.984-0.381,1.859-0.956,2.601-1.706c0.648-0.657,0.677-1.26,0.088-1.956c-0.232-0.276-0.484-0.552-0.726-0.818
					c-0.266-0.293-0.537-0.594-0.799-0.905c-0.536-0.641-1.219-0.915-2.105-0.846c-0.092,0.007-0.184,0.014-0.276,0.023
					c-0.38,0.032-0.778,0.063-1.172,0.054c-0.355-0.008-0.712-0.13-0.957-0.323c-0.386-0.306-0.761-0.629-1.125-0.944
					c-0.243-0.21-0.494-0.431-0.744-0.637c-0.257-0.212-0.395-0.449-0.411-0.707c-0.017-0.25,0.079-0.49,0.286-0.713
					c0.231-0.253,0.464-0.507,0.694-0.76c0.636-0.697,1.291-1.417,1.966-2.102C56.636,0.177,56.999,0,57.397,0
					c0.365-0.002,0.736,0.149,1.137,0.461c0.848,0.659,1.721,1.372,2.665,2.183c0.353,0.302,0.706,0.602,1.063,0.902
					c1.746,1.474,3.551,3,5.066,4.797c0.757,0.898,1.498,1.946,2.331,3.297c0.306,0.497,0.509,1.134,0.617,1.952
					c0.165,1.235-0.307,1.935-1.531,2.267c-0.569,0.155-1.15,0.279-1.714,0.399c-0.303,0.064-0.605,0.128-0.908,0.199
					c-1.903,0.438-3.406,0.969-4.729,1.672c-0.045,0.023-0.09,0.048-0.137,0.073l0.779,1.221c0.046-0.021,0.09-0.042,0.136-0.061
					c1.671-0.739,3.354-1.117,4.998-1.123c1.66-0.007,3.313,0.362,4.918,1.1c2.35,1.079,4.166,2.928,5.116,5.209
					c0.947,2.273,0.998,4.882,0.144,7.349c-1.631,4.706-6.357,8.009-11.494,8.028c-1.455,0.007-2.866-0.253-4.195-0.771
					c-3.079-1.198-5.339-3.661-6.199-6.759c-0.877-3.152-0.187-6.499,1.889-9.186c0.46-0.596,0.987-1.137,1.497-1.661
					c0.091-0.094,0.182-0.189,0.273-0.281c0.002-0.004,0.006-0.007,0.009-0.011c-0.215-0.315-0.422-0.644-0.643-0.989
					c-0.015-0.021-0.028-0.044-0.042-0.066c-2.3,1.844-3.67,4.056-4.185,6.748c-0.604,3.181-0.097,5.918,1.554,8.366l0.447,0.663
					l-30.64,2.253l0.474-0.772c1.137-1.857,1.737-3.278,2.008-4.755c0.288-1.566,0.32-3.046,0.098-4.508l-2.145,0.813
					c0.044,0.246,0.085,0.479,0.117,0.722c0.492,3.854-0.683,7.212-3.489,9.982C20.017,42.342,16.977,43.682,13.641,43.696z
					 M14.981,21.454C9.589,21.476,4.67,25.103,3.286,30.079c-0.74,2.653-0.41,5.383,0.921,7.686
					c1.322,2.281,3.501,3.906,6.136,4.577c1.125,0.287,2.234,0.43,3.293,0.425c3.084-0.011,5.907-1.262,8.394-3.714
					c2.589-2.557,3.672-5.652,3.219-9.204c-0.028-0.226-0.069-0.452-0.113-0.695c-0.022-0.117-0.043-0.24-0.064-0.364l-0.063-0.376
					l3.9-1.479l0.107,0.54c0.341,1.753,0.342,3.519-0.004,5.395c-0.252,1.383-0.763,2.704-1.672,4.305l27.283-2.006
					c-1.459-2.488-1.875-5.242-1.274-8.393c0.585-3.08,2.199-5.575,4.931-7.623l0.4-0.301l0.269,0.42
					c0.112,0.173,0.219,0.339,0.319,0.498c0.235,0.369,0.439,0.689,0.654,1.006c0.398,0.583-0.004,1-0.138,1.138
					c-0.09,0.094-0.184,0.188-0.275,0.283c-0.49,0.506-0.999,1.026-1.427,1.58c-1.896,2.454-2.525,5.503-1.729,8.37
					c0.782,2.813,2.839,5.052,5.642,6.144c1.22,0.475,2.518,0.712,3.856,0.706c4.75-0.019,9.117-3.063,10.619-7.405
					c1.624-4.683-0.339-9.374-4.769-11.408c-1.48-0.682-3.003-1.023-4.526-1.017c-1.517,0.006-3.073,0.357-4.627,1.044
					c-0.1,0.044-0.198,0.09-0.308,0.141l-0.55,0.253l-1.742-2.728l0.428-0.241c0.084-0.047,0.158-0.09,0.225-0.128
					c0.137-0.078,0.246-0.14,0.358-0.198c1.396-0.742,2.972-1.299,4.957-1.757c0.307-0.072,0.614-0.136,0.923-0.203
					c0.549-0.116,1.118-0.238,1.663-0.387c0.765-0.207,0.957-0.487,0.855-1.25c-0.092-0.675-0.255-1.208-0.488-1.586
					c-0.808-1.31-1.524-2.322-2.251-3.186c-1.464-1.738-3.239-3.237-4.957-4.688c-0.355-0.3-0.712-0.602-1.066-0.904
					c-0.933-0.8-1.794-1.505-2.63-2.154c-0.227-0.178-0.418-0.269-0.564-0.267c-0.051-0.001-0.203,0-0.457,0.258
					c-0.66,0.673-1.31,1.388-1.938,2.077c-0.233,0.254-0.466,0.51-0.699,0.764c-0.01,0.01-0.017,0.018-0.022,0.026
					c0.013,0.013,0.032,0.03,0.057,0.052c0.259,0.213,0.514,0.433,0.76,0.648c0.356,0.307,0.724,0.626,1.093,0.918
					c0.086,0.067,0.255,0.119,0.403,0.123c0.35,0.008,0.7-0.022,1.073-0.052c0.094-0.009,0.188-0.016,0.284-0.023
					c1.187-0.093,2.158,0.304,2.887,1.178c0.247,0.295,0.515,0.589,0.773,0.874c0.248,0.274,0.505,0.555,0.748,0.845
					c0.901,1.065,0.854,2.204-0.138,3.205c-0.833,0.843-1.818,1.49-2.923,1.919c-2.74,1.064-5.479,2.13-8.215,3.196
					c-4.821,1.876-9.806,3.817-14.71,5.718c-2.523,0.977-5.094,1.952-7.58,2.896c-1.064,0.403-2.127,0.807-3.19,1.211
					c-0.321,0.123-0.531,0.202-0.743,0.203c-0.458,0.002-0.66-0.329-0.916-0.746l-0.007-0.012c-1.015-1.66-2.468-2.932-4.319-3.771
					C18.177,21.778,16.615,21.448,14.981,21.454z M13.591,39.911C13.591,39.911,13.591,39.911,13.591,39.911
					c-0.849,0.003-1.683-0.122-2.48-0.372c-2.143-0.676-3.844-2.211-4.665-4.21c-0.823-2.004-0.69-4.298,0.363-6.29
					c1.535-2.903,4.634-4.787,7.896-4.801c1.025-0.005,2.018,0.177,2.954,0.539c1.516,0.586,2.931,1.762,3.606,2.994l0.241,0.443
					l-0.462,0.205c-0.069,0.03-0.138,0.063-0.208,0.096c-0.155,0.071-0.315,0.146-0.486,0.21c-0.953,0.36-1.908,0.717-2.862,1.076
					c-1.311,0.493-2.621,0.985-3.93,1.48c-0.244,0.093-0.499,0.198-0.713,0.336c-0.256,0.165-0.354,0.469-0.245,0.772
					c0.088,0.245,0.234,0.346,0.506,0.344c0.028,0,0.058-0.001,0.089-0.003c0.271-0.022,0.558-0.119,0.779-0.201
					c1.914-0.707,3.786-1.405,5.767-2.146l2.283-0.85l0.127,0.5c0.272,1.07,0.267,2.146-0.014,3.286
					c-0.454,1.854-1.586,3.541-3.185,4.749C17.392,39.25,15.487,39.903,13.591,39.911z M14.708,25.167
					c-2.923,0.011-5.701,1.701-7.077,4.306c-0.926,1.748-1.045,3.755-0.328,5.502c0.716,1.744,2.206,3.085,4.087,3.679
					c0.705,0.221,1.444,0.332,2.195,0.329c3.544-0.013,6.835-2.542,7.653-5.883c0.199-0.807,0.238-1.573,0.12-2.325l-1.291,0.481
					c-1.982,0.739-3.853,1.438-5.77,2.146c-0.277,0.103-0.642,0.223-1.024,0.256c-0.057,0.005-0.11,0.007-0.162,0.007
					c-0.67,0.003-1.163-0.338-1.384-0.959c-0.256-0.714-0.009-1.464,0.615-1.866c0.286-0.186,0.596-0.314,0.888-0.424
					c1.31-0.497,2.621-0.987,3.933-1.482c0.953-0.358,1.907-0.717,2.859-1.075c0.053-0.02,0.104-0.042,0.157-0.063
					c-0.64-0.887-1.731-1.717-2.855-2.151C16.498,25.323,15.619,25.163,14.708,25.167z M66.043,36.396
					c-1.254,0.005-2.474-0.286-3.526-0.845c-2.093-1.109-3.402-2.946-3.688-5.171c-0.291-2.298,0.576-4.621,2.32-6.217
					c0.055-0.05,0.106-0.083,0.161-0.122c0.025-0.016,0.057-0.037,0.094-0.062l0.396-0.279l0.92,1.434
					c0.846,1.312,1.678,2.607,2.511,3.9l0.085,0.134c0.158,0.247,0.307,0.48,0.47,0.705c0.294,0.406,0.725,0.486,1.128,0.213
					c0.358-0.239,0.425-0.659,0.17-1.067c-0.544-0.865-1.109-1.74-1.657-2.587c-0.222-0.347-0.446-0.691-0.669-1.036
					c-0.313-0.487-0.623-0.972-0.962-1.494l-0.826-1.282l0.607-0.17c0.219-0.061,0.435-0.128,0.644-0.193
					c0.458-0.142,0.929-0.291,1.414-0.363c3.017-0.445,5.438,0.445,7.169,2.633c2.089,2.637,1.87,6.365-0.528,9.066
					C70.726,35.339,68.396,36.387,66.043,36.396z M61.564,25.052c-1.379,1.38-2.056,3.308-1.813,5.212
					c0.244,1.917,1.381,3.503,3.197,4.468c0.92,0.486,1.989,0.74,3.09,0.735c2.095-0.007,4.164-0.939,5.54-2.489
					c2.096-2.358,2.299-5.599,0.496-7.874c-1.28-1.619-2.918-2.401-5.005-2.394c-0.415,0.002-0.854,0.036-1.301,0.104
					c-0.412,0.061-0.829,0.191-1.272,0.328c-0.023,0.01-0.048,0.018-0.071,0.023l0.15,0.234c0.337,0.522,0.649,1.009,0.962,1.494
					c0.222,0.345,0.446,0.689,0.668,1.035c0.548,0.85,1.116,1.728,1.663,2.6c0.52,0.828,0.336,1.81-0.436,2.328
					c-0.309,0.21-0.653,0.319-0.995,0.32c-0.55,0.004-1.05-0.267-1.405-0.758c-0.179-0.247-0.343-0.501-0.499-0.749l-0.086-0.132
					c-0.832-1.294-1.664-2.588-2.509-3.901L61.564,25.052z"/>
			</g>
		</g>
		<g>
			<g>
				<path fill="#002F64" d="M32.179,22.493c-0.298,0.002-0.596-0.053-0.912-0.169c-2.244-0.814-4.528-1.635-6.736-2.429
					c-2.372-0.851-4.825-1.732-7.233-2.607c-0.521-0.19-1.051-0.505-1.492-0.894c-1.866-1.626-3.745-3.298-5.563-4.914
					c-0.605-0.537-1.212-1.077-1.818-1.614C8.391,9.834,8.358,9.804,8.324,9.774l-0.12-0.109C7.829,9.329,7.199,8.766,7.642,7.883
					C7.814,7.54,8.173,7.128,8.909,7.125c0.226,0,0.445,0.036,0.634,0.069c1.964,0.342,3.978,0.491,5.979,0.444
					c1.047-0.025,2.122-0.097,3.159-0.168c0.476-0.033,0.954-0.064,1.432-0.092l0.43-0.025L20.6,7.778
					c0.02,0.146,0.037,0.29,0.053,0.436c0.034,0.304,0.066,0.591,0.128,0.867c0.382,1.727,1.74,2.909,3.723,3.246
					c2.306,0.392,4.458,0.576,6.577,0.568c0.376-0.002,0.756-0.011,1.127-0.023c0.254-0.01,0.263-0.031,0.325-0.205
					c0.63-1.784,1.625-3.208,2.958-4.235c1.546-1.19,3.31-1.772,5.39-1.782c0.512-0.002,1.052,0.035,1.604,0.102
					c2.24,0.281,4.521,0.545,6.727,0.8c1,0.115,2.001,0.232,3.001,0.349c0.093,0.01,0.185,0.021,0.279,0.029
					c0.254,0.026,0.519,0.054,0.784,0.108c1.427,0.3,2.479,1.514,2.622,3.025c0.14,1.479-0.644,2.664-2.148,3.254
					c-3.436,1.347-6.936,2.699-10.32,4.008l-0.03,0.012c-1.292,0.5-2.584,0.996-3.875,1.495c-2.097,0.807-4.266,1.64-6.395,2.47
					C32.8,22.429,32.488,22.491,32.179,22.493z M8.912,8.056c-0.267,0-0.362,0.085-0.439,0.243C8.371,8.499,8.39,8.587,8.824,8.975
					l0.127,0.113c0.03,0.028,0.061,0.055,0.091,0.083c0.606,0.538,1.212,1.076,1.818,1.616c1.815,1.613,3.696,3.284,5.556,4.909
					c0.358,0.313,0.783,0.567,1.2,0.718c2.407,0.875,4.856,1.756,7.229,2.607c2.209,0.794,4.494,1.615,6.741,2.429
					c0.431,0.157,0.774,0.154,1.207-0.016c2.131-0.83,4.301-1.664,6.397-2.472c1.292-0.497,2.584-0.994,3.874-1.493l0.031-0.012
					c3.383-1.307,6.884-2.66,10.317-4.006c1.106-0.432,1.662-1.25,1.563-2.3c-0.104-1.105-0.864-1.99-1.889-2.205
					c-0.219-0.046-0.447-0.069-0.689-0.094c-0.097-0.009-0.194-0.021-0.292-0.03c-0.999-0.118-1.999-0.233-2.999-0.35
					c-2.207-0.255-4.49-0.519-6.734-0.799c-0.513-0.065-1.014-0.097-1.485-0.094c-1.871,0.008-3.448,0.525-4.828,1.588
					c-1.189,0.915-2.081,2.197-2.649,3.808c-0.248,0.696-0.728,0.807-1.166,0.824c-0.382,0.015-0.771,0.023-1.158,0.024
					c-2.173,0.008-4.375-0.182-6.735-0.582c-2.34-0.397-4.013-1.877-4.476-3.961c-0.071-0.318-0.107-0.64-0.142-0.95
					c-0.33,0.021-0.66,0.044-0.988,0.066c-1.046,0.07-2.13,0.145-3.199,0.168c-2.06,0.05-4.136-0.106-6.161-0.458
					C9.234,8.082,9.062,8.055,8.912,8.056z"/>
				<path fill="none" stroke="#000000" stroke-width="0.25" stroke-miterlimit="10" d="M32.179,22.493
					c-0.298,0.002-0.596-0.053-0.912-0.169c-2.244-0.814-4.528-1.635-6.736-2.429c-2.372-0.851-4.825-1.732-7.233-2.607
					c-0.521-0.19-1.051-0.505-1.492-0.894c-1.866-1.626-3.745-3.298-5.563-4.914c-0.605-0.537-1.212-1.077-1.818-1.614
					C8.391,9.834,8.358,9.804,8.324,9.774l-0.12-0.109C7.829,9.329,7.199,8.766,7.642,7.883C7.814,7.54,8.173,7.128,8.909,7.125
					c0.226,0,0.445,0.036,0.634,0.069c1.964,0.342,3.978,0.491,5.979,0.444c1.047-0.025,2.122-0.097,3.159-0.168
					c0.476-0.033,0.954-0.064,1.432-0.092l0.43-0.025L20.6,7.778c0.02,0.146,0.037,0.29,0.053,0.436
					c0.034,0.304,0.066,0.591,0.128,0.867c0.382,1.727,1.74,2.909,3.723,3.246c2.306,0.392,4.458,0.576,6.577,0.568
					c0.376-0.002,0.756-0.011,1.127-0.023c0.254-0.01,0.263-0.031,0.325-0.205c0.63-1.784,1.625-3.208,2.958-4.235
					c1.546-1.19,3.31-1.772,5.39-1.782c0.512-0.002,1.052,0.035,1.604,0.102c2.24,0.281,4.521,0.545,6.727,0.8
					c1,0.115,2.001,0.232,3.001,0.349c0.093,0.01,0.185,0.021,0.279,0.029c0.254,0.026,0.519,0.054,0.784,0.108
					c1.427,0.3,2.479,1.514,2.622,3.025c0.14,1.479-0.644,2.664-2.148,3.254c-3.436,1.347-6.936,2.699-10.32,4.008l-0.03,0.012
					c-1.292,0.5-2.584,0.996-3.875,1.495c-2.097,0.807-4.266,1.64-6.395,2.47C32.8,22.429,32.488,22.491,32.179,22.493z
					 M8.912,8.056c-0.267,0-0.362,0.085-0.439,0.243C8.371,8.499,8.39,8.587,8.824,8.975l0.127,0.113
					c0.03,0.028,0.061,0.055,0.091,0.083c0.606,0.538,1.212,1.076,1.818,1.616c1.815,1.613,3.696,3.284,5.556,4.909
					c0.358,0.313,0.783,0.567,1.2,0.718c2.407,0.875,4.856,1.756,7.229,2.607c2.209,0.794,4.494,1.615,6.741,2.429
					c0.431,0.157,0.774,0.154,1.207-0.016c2.131-0.83,4.301-1.664,6.397-2.472c1.292-0.497,2.584-0.994,3.874-1.493l0.031-0.012
					c3.383-1.307,6.884-2.66,10.317-4.006c1.106-0.432,1.662-1.25,1.563-2.3c-0.104-1.105-0.864-1.99-1.889-2.205
					c-0.219-0.046-0.447-0.069-0.689-0.094c-0.097-0.009-0.194-0.021-0.292-0.03c-0.999-0.118-1.999-0.233-2.999-0.35
					c-2.207-0.255-4.49-0.519-6.734-0.799c-0.513-0.065-1.014-0.097-1.485-0.094c-1.871,0.008-3.448,0.525-4.828,1.588
					c-1.189,0.915-2.081,2.197-2.649,3.808c-0.248,0.696-0.728,0.807-1.166,0.824c-0.382,0.015-0.771,0.023-1.158,0.024
					c-2.173,0.008-4.375-0.182-6.735-0.582c-2.34-0.397-4.013-1.877-4.476-3.961c-0.071-0.318-0.107-0.64-0.142-0.95
					c-0.33,0.021-0.66,0.044-0.988,0.066c-1.046,0.07-2.13,0.145-3.199,0.168c-2.06,0.05-4.136-0.106-6.161-0.458
					C9.234,8.082,9.062,8.055,8.912,8.056z"/>
			</g>
		</g>
	</g>
</g>
</svg>
