<?xml version="1.0" encoding="utf-8"?>
<!-- Generator: Adobe Illustrator 16.0.0, SVG Export Plug-In . SVG Version: 6.00 Build 0)  -->
<!DOCTYPE svg PUBLIC "-//W3C//DTD SVG 1.1//EN" "http://www.w3.org/Graphics/SVG/1.1/DTD/svg11.dtd">
<svg version="1.1" id="Layer_1" xmlns="http://www.w3.org/2000/svg" xmlns:xlink="http://www.w3.org/1999/xlink" x="0px" y="0px"
	 width="80px" height="45px" viewBox="0 0 80 45" enable-background="new 0 0 80 45" xml:space="preserve">
<path fill="#002F64" stroke="#000000" stroke-width="0.25" stroke-miterlimit="10" d="M580.902,668.416v2.68
	c1.122,0,2.146,0.409,2.885,1.154c0.748,0.754,1.156,1.791,1.147,2.92c-0.019,2.17-1.776,3.868-4.018,3.868
	c-1.092-0.003-2.104-0.423-2.849-1.181c-0.712-0.727-1.095-1.688-1.078-2.709c0.039-2.411,1.532-4.002,3.804-4.053
	c0.036,0,0.072,0,0.108,0V668.416 M580.901,668.416c-0.056,0-0.11,0.001-0.167,0.002c-3.649,0.082-6.357,2.803-6.422,6.686
	c-0.061,3.669,2.91,6.604,6.598,6.613c0.006,0,0.013,0,0.02,0c3.695,0,6.654-2.888,6.684-6.525
	C587.643,671.424,584.765,668.416,580.901,668.416L580.901,668.416z"/>
<path fill="#002F64" stroke="#000000" stroke-width="0.25" stroke-miterlimit="10" d="M631.67,671.127L631.67,671.127h0.03
	c1.324,0.015,2.423,0.43,3.178,1.202c0.707,0.724,1.073,1.734,1.06,2.923c-0.025,2.09-1.77,3.79-3.889,3.79l-0.071-0.001
	c-2.266-0.039-4.017-1.805-3.985-4.021C628.021,672.982,629.773,671.127,631.67,671.127 M631.67,668.449
	c-3.343,0-6.307,3.039-6.355,6.533c-0.052,3.707,2.861,6.672,6.617,6.737c0.038,0.001,0.077,0.001,0.117,0.001
	c3.59,0,6.524-2.863,6.566-6.436c0.047-3.98-2.785-6.792-6.887-6.836C631.709,668.449,631.689,668.449,631.67,668.449
	L631.67,668.449z"/>
<g>
	<g>
		<path fill="#FD7C05" stroke="#000000" stroke-width="0.25" stroke-miterlimit="10" d="M4.413,34.426
			c-0.497,0-0.908-0.021-1.292-0.066c-1.633-0.194-2.808-1.588-2.86-3.391l-0.001-0.072c-0.058-2.065-0.12-4.202,0.568-6.319
			c0.359-1.106,0.455-2.346,0.517-3.42c0.091-1.589,0.896-2.727,2.328-3.289c1.509-0.592,3.272-1.256,5.092-1.65
			c2.696-0.583,5.051-1.69,7.204-3.388c4.564-3.597,9.992-5.448,16.137-5.498c0.199-0.001,0.399-0.002,0.6-0.002
			c7.625,0,14.018,1.268,19.54,3.879c2.304,1.088,4.664,2.513,7.426,4.483c1.488,1.062,3.116,1.71,5.279,2.102
			c3.493,0.631,6.918,1.556,9.81,2.377c1.978,0.562,3.327,1.645,4.01,3.217c0.023,0.053,0.055,0.106,0.085,0.159
			c0.093,0.164,0.208,0.368,0.237,0.624c0.074,0.627,0.177,1.268,0.276,1.889c0.309,1.943,0.629,3.955,0.192,6.028
			c-0.398,1.894-0.932,2.328-2.849,2.329h-4.503l0.093-0.662c0.54-3.87-0.767-6.688-3.995-8.61c-2.575-1.532-5.28-1.501-7.818,0.087
			c-3.107,1.946-4.354,4.792-3.704,8.46l0.121,0.683h-17.23H22.445l0.102-0.669c0.495-3.215-0.669-5.416-1.733-6.697
			c-1.44-1.734-3.613-2.852-5.669-2.919c-2.588-0.082-5.013,1.02-6.609,2.996c-1.5,1.857-2.072,4.263-1.568,6.599l0.15,0.704H6.4
			c-0.329,0-0.656,0.01-0.983,0.018C5.081,34.416,4.746,34.426,4.413,34.426z M32.705,8.492c-0.197,0-0.394,0.001-0.591,0.001
			c-5.962,0.05-11.008,1.766-15.427,5.25c-2.294,1.808-4.805,2.989-7.677,3.61c-1.735,0.375-3.446,1.021-4.914,1.596
			c-1.007,0.396-1.528,1.139-1.592,2.274c-0.066,1.147-0.171,2.474-0.573,3.712c-0.626,1.926-0.571,3.87-0.512,5.928l0.002,0.073
			c0.035,1.231,0.773,2.144,1.837,2.27c0.336,0.041,0.703,0.059,1.154,0.059c0.322,0,0.646-0.009,0.971-0.018
			c0.109-0.003,0.218-0.006,0.327-0.009c-0.335-2.459,0.349-4.933,1.923-6.883c1.825-2.26,4.584-3.516,7.55-3.425
			c2.377,0.076,4.877,1.354,6.525,3.339c1.139,1.372,2.38,3.662,2.07,6.944h15.881H55.54c-0.459-3.808,1.03-6.896,4.333-8.965
			c2.904-1.817,6.081-1.855,9.027-0.1c3.437,2.046,4.991,5.108,4.627,9.107h3.185c1.363,0,1.427-0.053,1.713-1.408
			c0.393-1.861,0.103-3.681-0.203-5.606c-0.102-0.631-0.205-1.284-0.282-1.935c-0.006-0.031-0.06-0.125-0.095-0.188
			c-0.051-0.089-0.101-0.179-0.141-0.271c-0.545-1.254-1.612-2.093-3.262-2.561c-2.864-0.814-6.255-1.73-9.698-2.353
			c-2.34-0.423-4.112-1.132-5.748-2.299c-2.704-1.928-5.008-3.319-7.247-4.379C46.31,9.688,40.258,8.492,32.705,8.492z
			 M55.267,18.864L55.267,18.864c-1.759-0.04-3.516-0.113-5.217-0.182l-0.771-0.032c-0.941-0.038-1.885-0.08-2.828-0.121
			c-2.172-0.097-4.415-0.196-6.622-0.25c-1.109-0.027-1.653-0.534-1.762-1.643c-0.11-1.1-0.264-2.22-0.413-3.303
			c-0.074-0.538-0.148-1.076-0.217-1.614c-0.024-0.183-0.03-0.359-0.038-0.603c-0.004-0.133-0.009-0.292-0.019-0.492l-0.032-0.699
			l0.693,0.098c0.634,0.09,1.257,0.166,1.871,0.241c1.361,0.165,2.646,0.322,3.935,0.608c4.119,0.916,8.087,2.773,11.793,5.523
			c0.027,0.021,0.058,0.04,0.087,0.06c0.13,0.084,0.305,0.199,0.432,0.394c0.135,0.208,0.236,0.42,0.335,0.625
			c0.036,0.076,0.072,0.153,0.109,0.228l0.286,0.563l-0.586,0.237c-0.071,0.029-0.143,0.067-0.213,0.104
			C55.866,18.721,55.591,18.864,55.267,18.864z M38.565,11.265c0.004,0.122,0.01,0.217,0.021,0.305
			c0.069,0.535,0.143,1.069,0.216,1.604c0.15,1.094,0.307,2.225,0.418,3.348c0.052,0.528,0.112,0.584,0.636,0.597
			c2.216,0.055,4.468,0.155,6.646,0.251c0.94,0.042,1.881,0.083,2.823,0.121l0.771,0.033c1.695,0.069,3.448,0.141,5.169,0.181
			c0.011-0.001,0.023-0.004,0.04-0.01c-0.035-0.068-0.072-0.133-0.11-0.195c-0.022-0.018-0.07-0.05-0.104-0.071
			c-0.048-0.032-0.098-0.064-0.144-0.098c-3.574-2.652-7.394-4.443-11.354-5.324c-1.232-0.273-2.49-0.426-3.823-0.588
			C39.373,11.367,38.972,11.317,38.565,11.265z M36.279,17.768H17.551l-0.375-1.006l0.218-0.259
			c0.064-0.076,0.126-0.155,0.189-0.234c0.15-0.188,0.306-0.382,0.493-0.565c2.684-2.628,6.089-4.297,10.414-5.104
			c1.554-0.291,3.151-0.404,4.695-0.513l0.773-0.053c0.484,0,1.301,0.432,1.395,1.006c0.256,1.574,0.463,3.173,0.664,4.721
			c0.058,0.452,0.117,0.902,0.175,1.351L36.279,17.768z M18.816,16.607h16.139c-0.031-0.231-0.061-0.463-0.09-0.697
			c-0.195-1.502-0.396-3.055-0.641-4.578c-0.072-0.057-0.203-0.124-0.271-0.137l-0.687,0.05c-1.511,0.107-3.075,0.218-4.564,0.496
			c-4.09,0.763-7.301,2.331-9.815,4.792C18.864,16.557,18.841,16.583,18.816,16.607z"/>
	</g>
	<path fill="#002F64" stroke="#000000" stroke-width="0.25" stroke-miterlimit="10" d="M14.554,24.696v2.613
		c1.094,0,2.092,0.399,2.813,1.125c0.729,0.735,1.127,1.746,1.118,2.848c-0.017,2.115-1.732,3.771-3.917,3.771
		c-1.064-0.002-2.051-0.412-2.777-1.15c-0.694-0.709-1.068-1.646-1.051-2.642c0.038-2.351,1.493-3.902,3.708-3.951
		c0.036,0,0.07,0,0.105,0V24.696 M14.553,24.696c-0.054,0-0.108,0.001-0.163,0.002c-3.558,0.08-6.199,2.732-6.262,6.52
		c-0.058,3.577,2.838,6.438,6.433,6.447c0.007,0,0.013,0,0.02,0c3.603,0,6.489-2.815,6.517-6.361
		C21.125,27.63,18.32,24.696,14.553,24.696L14.553,24.696z"/>
	<path fill="#002F64" stroke="#000000" stroke-width="0.25" stroke-miterlimit="10" d="M64.055,27.34L64.055,27.34h0.028
		c1.291,0.015,2.362,0.419,3.099,1.172c0.689,0.706,1.047,1.691,1.033,2.851c-0.024,2.037-1.725,3.694-3.792,3.694l-0.069-0.001
		c-2.209-0.037-3.916-1.759-3.886-3.92C60.496,29.149,62.204,27.34,64.055,27.34 M64.055,24.729c-3.26,0-6.15,2.963-6.197,6.369
		c-0.052,3.615,2.79,6.506,6.451,6.569c0.037,0.001,0.075,0.001,0.114,0.001c3.501,0,6.362-2.791,6.402-6.275
		c0.047-3.881-2.715-6.622-6.714-6.664C64.092,24.729,64.072,24.729,64.055,24.729L64.055,24.729z"/>
</g>
</svg>
