<?xml version="1.0" encoding="utf-8"?>
<!-- Generator: Adobe Illustrator 16.0.0, SVG Export Plug-In . SVG Version: 6.00 Build 0)  -->
<!DOCTYPE svg PUBLIC "-//W3C//DTD SVG 1.1//EN" "http://www.w3.org/Graphics/SVG/1.1/DTD/svg11.dtd">
<svg version="1.1" id="Layer_1" xmlns="http://www.w3.org/2000/svg" xmlns:xlink="http://www.w3.org/1999/xlink" x="0px" y="0px"
	 width="22px" height="22px" viewBox="0 0 22 22" enable-background="new 0 0 22 22" xml:space="preserve">
<g>
	<path fill-rule="evenodd" clip-rule="evenodd" fill="#666666" d="M11.001,0.17c5.967-0.018,10.839,4.848,10.838,10.824
		c0,5.965-4.867,10.83-10.839,10.836c-5.958,0.008-10.832-4.867-10.84-10.838C0.152,5.021,4.996,0.188,11.001,0.17z M20.143,11.811
		c-0.615-0.104-1.398,0.059-1.407-0.834c-0.009-0.936,0.844-0.725,1.389-0.857c0.08-4.012-4.602-8.635-8.291-8.215
		c-0.092,0.529,0.068,1.27-0.757,1.328c-1.01,0.068-0.77-0.854-0.956-1.395C5.96,1.957,1.773,6.17,1.881,10.129
		c0.529,0.117,1.336-0.098,1.385,0.775c0.056,1.008-0.865,0.758-1.414,0.934c0.211,4.924,4.947,8.387,8.309,8.264
		c0.121-0.535-0.104-1.344,0.764-1.406c1.064-0.078,0.73,0.936,0.974,1.467C16.218,19.875,20.12,15.934,20.143,11.811z"/>
	<path fill-rule="evenodd" clip-rule="evenodd" fill="#666666" d="M6.355,7.568C6.649,7.75,6.887,7.875,7.1,8.033
		c1.102,0.824,2.208,1.641,3.286,2.494c0.411,0.326,0.672,0.303,1.029-0.082c1.386-1.492,2.801-2.955,4.208-4.426
		c0.307-0.32,0.641-0.736,1.096-0.281c0.454,0.451,0.028,0.795-0.272,1.107c-1.287,1.357-2.593,2.697-3.865,4.066
		c-0.309,0.33-0.546,0.736-0.765,1.137c-0.321,0.58-0.977,0.713-1.444,0.277c-0.752-0.703-1.501-1.41-2.286-2.076
		C7.458,9.717,6.758,9.27,6.132,8.734c-0.166-0.143-0.245-0.473-0.23-0.711C5.912,7.877,6.169,7.744,6.355,7.568z"/>
</g>
<g>
	<path fill="#666666" d="M50.527,18.224c-0.701,0.317-1.667,0.51-2.424,0.637c0.359-0.061,0.792-0.711,1.004-0.974
		c0.323-0.401,0.542-0.859,0.693-1.353c0.02-0.039,0.01-0.087-0.028-0.116c-0.049-0.02-0.093-0.01-0.131,0.01
		c-0.845,0.453-1.725,0.781-2.655,1.014c-0.076,0.02-0.137,0-0.186-0.049c-0.077-0.086-0.151-0.169-0.233-0.236
		c-0.392-0.332-0.812-0.594-1.284-0.787c-0.621-0.253-1.3-0.359-1.969-0.316c-0.65,0.043-1.29,0.227-1.867,0.527
		c-0.579,0.303-1.096,0.724-1.507,1.23c-0.425,0.525-0.738,1.146-0.899,1.803c-0.154,0.634-0.143,1.261-0.048,1.902
		c0.015,0.105,0.005,0.12-0.091,0.105c-3.639-0.541-6.655-1.844-9.104-4.633c-0.105-0.121-0.163-0.121-0.25,0.009
		c-1.072,1.605-0.552,4.187,0.786,5.454c0.179,0.17,0.362,0.338,0.56,0.492c-0.071,0.016-0.963-0.082-1.756-0.492
		c-0.106-0.067-0.16-0.028-0.17,0.092c-0.01,0.174,0.005,0.334,0.029,0.521c0.205,1.629,1.333,3.135,2.877,3.722
		c0.184,0.077,0.386,0.145,0.584,0.179c-0.353,0.077-0.715,0.133-1.724,0.053c-0.125-0.023-0.174,0.039-0.125,0.16
		c0.758,2.066,2.395,2.681,3.62,3.03c0.164,0.029,0.328,0.029,0.492,0.067c-0.01,0.016-0.02,0.016-0.029,0.029
		c-0.406,0.62-1.815,1.081-2.472,1.311c-1.193,0.417-2.493,0.604-3.755,0.48c-0.202-0.03-0.244-0.027-0.299,0
		c-0.056,0.034-0.007,0.082,0.058,0.135c0.256,0.169,0.517,0.319,0.782,0.464c0.801,0.425,1.637,0.763,2.51,1.004
		c4.511,1.246,9.591,0.33,12.978-3.035c2.66-2.642,3.592-6.286,3.592-9.935c0-0.143,0.169-0.222,0.27-0.297
		c0.691-0.52,1.631-1.143,2.146-1.838C50.617,18.438,51,18.3,51,18.242c0-0.01,0-0.019,0-0.019
		C51,18.165,50.617,18.183,50.527,18.224z"/>
	<path fill="#666666" d="M-19.161,19.287c-3.225,0-5.85,2.624-5.85,5.85s2.625,5.85,5.85,5.85c3.226,0,5.85-2.624,5.85-5.85
		S-15.935,19.287-19.161,19.287z M-19.161,28.884c-2.066,0-3.747-1.681-3.747-3.747s1.681-3.748,3.747-3.748
		c2.066,0,3.748,1.682,3.748,3.748S-17.094,28.884-19.161,28.884z"/>
	<path fill="#666666" d="M-14.516,37.014H-24c-3.934,0-7.135-3.201-7.135-7.135v-9.484c0-3.934,3.201-7.135,7.135-7.135h9.484
		c3.934,0,7.135,3.201,7.135,7.135v9.484C-7.381,33.813-10.582,37.014-14.516,37.014z M-24,15.494c-2.702,0-4.899,2.198-4.899,4.9
		v9.484c0,2.702,2.197,4.9,4.899,4.9h9.484c2.702,0,4.901-2.198,4.901-4.9v-9.484c0-2.702-2.199-4.9-4.901-4.9H-24z"/>
	<path fill-rule="evenodd" clip-rule="evenodd" fill="#666666" d="M-81.746,25.34v10.979c0,0.158,0.128,0.286,0.286,0.286h4.078
		c0.158,0,0.286-0.128,0.286-0.286V25.16h2.956c0.149,0,0.272-0.113,0.286-0.261l0.284-3.362c0.014-0.167-0.118-0.311-0.286-0.311
		h-3.24v-2.385c0-0.56,0.454-1.012,1.012-1.012h2.278c0.158,0,0.286-0.129,0.286-0.286v-3.362c0-0.158-0.128-0.285-0.286-0.285
		h-3.85c-2.258,0-4.09,1.83-4.09,4.09v3.24h-2.039c-0.158,0-0.286,0.129-0.286,0.287v3.361c0,0.158,0.128,0.285,0.286,0.285h2.039
		V25.34z"/>
	<g>
		<g>
			<path fill="#666666" d="M93.35,21.967h3.758v1.724h0.052c0.524-0.991,1.802-2.036,3.71-2.036c3.967,0,4.698,2.609,4.698,6.004
				v6.913h-3.915v-6.129c0-1.462-0.028-3.342-2.036-3.342c-2.04,0-2.351,1.593-2.351,3.235v6.235H93.35V21.967z"/>
		</g>
		<path fill="#666666" d="M86.968,21.967h3.924v12.604h-3.924V21.967z M88.931,15.703c1.254,0,2.271,1.018,2.271,2.27
			c0,1.254-1.018,2.273-2.271,2.273c-1.258,0-2.275-1.02-2.275-2.273C86.655,16.721,87.673,15.703,88.931,15.703"/>
	</g>
</g>
</svg>
