<?xml version="1.0" encoding="utf-8"?>
<!-- Generator: Adobe Illustrator 16.0.0, SVG Export Plug-In . SVG Version: 6.00 Build 0)  -->
<!DOCTYPE svg PUBLIC "-//W3C//DTD SVG 1.1//EN" "http://www.w3.org/Graphics/SVG/1.1/DTD/svg11.dtd">
<svg version="1.1" id="Layer_1" xmlns="http://www.w3.org/2000/svg" xmlns:xlink="http://www.w3.org/1999/xlink" x="0px" y="0px"
	 width="1280px" height="400px" viewBox="0 0 1280 400" enable-background="new 0 0 1280 400" xml:space="preserve">
<path fill="#FD7C05" stroke="#000000" stroke-width="0.25" stroke-miterlimit="10" d="M871.664,107.712
	c0,0-0.691-12.993-4.055-12.993c-7.054,0-19.613,35.774-19.979,41.024c-0.62,8.842,5.46,9.37,11.42,10.088
	c5.834,0.702,6.916-12.105,6.916-12.105L871.664,107.712z"/>
<g>
	<g>
		<polygon fill="#E6E6E6" stroke="#000000" stroke-width="0.25" stroke-miterlimit="10" points="876.213,360.229 876.035,371.189 
			877.255,371.226 878.827,358.73 		"/>
		<path fill="#E6E6E6" stroke="#000000" stroke-width="0.25" stroke-miterlimit="10" d="M867.778,263.846
			c0,0,1.308,17.138,3.405,22.258c2.099,5.12-1.652,72.813-3.438,78.272c-0.393,1.212-0.928,2.293-1.479,3.24
			c-1.947,3.327-2.388,4.005,0.22,4.016c3.348,0.01,6.285-0.625,6.933-1.999c1.127-2.367,2.118-10.527,4.409-10.52
			c0,0,1.564-3.042,1.174-4.643c-0.586-2.41-2.224-1.171-2.214-4.521c0.012-3.35,11.112-54.268,9.375-61.679
			c-1.739-7.413-2.97-8.296-2.942-17.112C883.25,262.341,867.778,263.846,867.778,263.846z"/>
		<path fill="#432C47" stroke="#000000" stroke-width="0.25" stroke-miterlimit="10" d="M877.029,351.688
			c-1.029,6.129-4.986,17.911-7.43,18.237c-3.173,0-3.357-0.167-3.337-2.309c-1.943,3.327-5.644,5.467-3.036,5.476
			c3.35,0.011,10.071-0.207,10.723-1.578c1.123-2.367,1.763-11.341,4.056-11.334l-0.75,11.046l1.218,0.036
			c0,0,1.853-15.205,1.463-16.725C879.4,352.452,877.678,352.062,877.029,351.688z"/>
	</g>
	<g>
		<path fill="#E6E6E6" stroke="#000000" stroke-width="0.25" stroke-miterlimit="10" d="M874.805,246.415
			c0,0-12.501,23.824-11.7,30.88c0.797,7.055,3.436,12.751,1.173,22.384c-2.267,9.631-20.195,44.56-20.625,50.943
			c-0.181,2.695,0.642,2.945,0.642,2.945c-0.039,4.642-1.484,9.609-2.449,10.569c-1.239,1.227-2.634,7.342-3.81,7.339
			c-1.173-0.004-11.107,1.057-11.107,1.057c-0.256-2.263,2.781-0.445,4.563-5.14c1.778-4.696,2.859-11.746,5.124-21.259
			c2.266-9.514,11.555-52.927,11.59-62.919c0.032-9.991-0.883-10.04,0.664-16.618c1.551-6.575,7.352-18.899,7.352-18.899
			L874.805,246.415z"/>
		<path fill="#432C47" stroke="#000000" stroke-width="0.25" stroke-miterlimit="10" d="M830.085,369.722
			c-2.982,1.356-5.917,1.556-5.712,3.37c0,0,12.531-0.181,13.707-0.178c1.176,0.004,2.525-7.551,3.765-8.777
			c1.237-1.231,0.091,8.816,0.091,8.816l1.536-0.018c0,0,0.965-10.318,2.152-14.195c0.947-3.087-0.381-4.389-1.33-5.173
			C840.41,360.934,839.805,371.481,830.085,369.722z"/>
	</g>
</g>
<path fill="#292C47" stroke="#000000" stroke-width="0.25" stroke-miterlimit="10" d="M833.099,336.149
	c0,0,50.991,3.38,57.223-6.254c0,0,0.132-24.436,1.12-42.883c1.384-25.814,8.947-83.28-2.63-109.583
	c-1.899-4.318-8.628-16.088-8.628-16.088l-19.245-4.466c0,0-13.683,78.324-15.329,103.768
	C843.966,286.089,833.099,336.149,833.099,336.149z"/>
<path fill="#FD7C05" stroke="#000000" stroke-width="0.25" stroke-miterlimit="10" d="M867.609,94.719c0,0,4.504-1.846,25.426,3.207
	l-0.82,20.124c0,0-10.93,35.614-9.203,44.503c0,0-10.442,6.901-25.957-0.739c0,0,3.893-26.093,2.48-32.324
	c-1.411-6.231-4.227-11.878-0.229-18.344C863.303,104.682,867.609,94.719,867.609,94.719z"/>
<path fill="#E9BF85" stroke="#000000" stroke-width="0.25" stroke-miterlimit="10" d="M859.159,144.739
	c0.068-2.786,0.39-9.034,0.088-13.118c-0.472-5.955-5.586-12.705-0.34-21.07c2.873-4.661,6.177-10.967,8.671-15.843l0.01-0.017
	c1.169-0.22,0.066-0.011,0.034,0.06l0.017-0.017c-7.885,21.161-11.832,17.301-8.587,30.257
	C860.249,129.792,861.235,131.1,859.159,144.739z"/>
<path fill="#E6E6E6" stroke="#000000" stroke-width="0.25" stroke-miterlimit="10" d="M879.441,138.644
	c-2.374,1.657-3.923,4.06-9.05,5.513c3.003,2.346,6.438,4.779,9.713,6.678c0.778-4.149,1.341-7.576,1.434-11.728
	C881.426,139.154,879.564,138.609,879.441,138.644z"/>
<path fill="#FD7C05" stroke="#000000" stroke-width="0.25" stroke-miterlimit="10" d="M899.038,104.993
	c-1.523-4.817-6.003-7.066-6.003-7.066c-5.175-0.598-6.924,25.446-6.924,25.446l-2.056,15.031c-0.424,0.451-1.963,0.011-2.518,0.239
	c-0.093,4.15-0.655,8.042-1.434,12.191c5.117,2.969,9.839,4.632,11.881,2.589C896.634,148.783,900.568,109.817,899.038,104.993z"/>
<path fill="#9E5C00" stroke="#000000" stroke-width="0.25" stroke-miterlimit="10" d="M876.313,149.047c0,0,2.251,1.5,3.129,2.379
	c0.884,0.882,4.692,2.635,6.007,2.023c1.313-0.612,2.062-4.976,1.444-11.104c-0.615-6.126-3.791-4.64-5.179-4.194
	c-1.389,0.447-2.579,0.49-2.579,0.49S874.949,145.917,876.313,149.047z"/>
<path fill="#9E5C00" stroke="#000000" stroke-width="0.25" stroke-miterlimit="10" d="M859.829,135.603c0,0-2.425-3.173-3.438-4.187
	c-1.014-1.015-2.337-0.265-3.878,0.616c-1.544,0.881-0.795-1.013-3.792,1.191c-2.999,2.203-3.746,5.951-2.602,8.463
	c1.146,2.512,5.534,5.751,7.935,3.349C856.457,142.634,859.829,135.603,859.829,135.603z"/>
<path fill="#E6E6E6" stroke="#000000" stroke-width="0.25" stroke-miterlimit="10" d="M855.114,124.036
	c-2.029-0.438-8.363,1.765-8.363,1.765s-1.678,2.333-1.678,3.835c0,0.253,0.141,0.382,0.372,0.353
	c-0.435,0.317-0.65,0.58-0.471,0.755c0.837,0.838,7.452-2.342,7.849-1.947c0.395,0.396-7.519,1.686-6.878,3.118
	c0.27,0.6,3.309-0.354,5.221-1.015c-1.665,0.648-4.099,1.698-4.099,2.333c0,0.974,6.896-0.521,8.406-0.521
	c0.566,0,1.481,0.597,2.526,1.253c0.465-0.085,0.782,0.136,0.979,0.074c0,0,5.162-0.115,11.734,0.704
	C863.537,130.445,855.666,124.156,855.114,124.036z M847.956,128.62c-0.528,0.261-1.043,0.523-1.502,0.769
	c0.443-0.423,0.806-1.354,1.431-1.799c1.286-0.909,3.224-1.417,3.513-1.127C851.744,126.813,849.804,127.717,847.956,128.62z"/>
<path fill="#E6E6E6" stroke="#000000" stroke-width="0.25" stroke-miterlimit="10" d="M885.234,129.778
	c-0.348,1.665-0.949,6.702-1.08,7.889c0,0-0.856-0.605-1.139-0.31h-0.006c-2.813,1.498-6.783,5.625-14.529,7.273
	c-7.61,1.592-17.993,2.417-17.993-2.751c0-5.162,5.198-7.991,8.492-7.991c0,0,5.162,0.035,11.734,0.854c0.009,0,0.009,0,0.016,0
	C877.297,135.566,884.551,129.255,885.234,129.778z"/>
<path fill="#E9BF85" stroke="#000000" stroke-width="0.25" stroke-miterlimit="10" d="M893.035,97.926
	c-4.904-0.109-4.886,21.769-8.881,39.741c0.342-6.387,1.295-14.225,1.35-15.125C885.847,117.502,888.078,96.981,893.035,97.926z"/>
<polygon fill="#3C1047" stroke="#000000" stroke-width="0.25" stroke-miterlimit="10" points="897.593,99.626 893.393,98.126 
	884.201,95.993 882.456,78.621 896.811,90.133 "/>
<path fill="#3C1047" stroke="#000000" stroke-width="0.25" stroke-miterlimit="10" d="M873.188,59.267
	c0,0-3.733,18.547-10.176,22.046c-6.442,3.499-7.111,3.156-8.692,2.167c0,0,0.239,3.398,3.344,4.539
	c0.21,0.076,0.435,0.144,0.671,0.198c3.742,0.863-1.108,2.688-3.223,2.792c-2.113,0.104,5.414,5.721,9.72,5.956
	c4.31,0.232,15.949,0.893,18.94-14.101C886.761,67.869,873.188,59.267,873.188,59.267z"/>
<path fill="#E6E6E6" stroke="#000000" stroke-width="0.25" stroke-miterlimit="10" d="M878.935,83.021l-5.698,15.822
	c0,0-2.166,9.87,0.99,11.594C877.384,112.16,886,101.663,886,99.468c0-2.192,1.904-22.629,1.904-22.629L878.935,83.021z"/>
<path fill="#E6E6E6" stroke="#000000" stroke-width="0.25" stroke-miterlimit="10" d="M876.194,50.446c0,0-3.24,1.282-4.935,4.841
	c-1.694,3.559-0.439,8.476-1.371,11.62c-0.933,3.144,0.475,19.844,8.789,18.46c8.313-1.385,11.098-12.953,11.854-15.507
	c0.754-2.553-0.162-12.44-3.873-15.782C882.946,50.735,876.194,50.446,876.194,50.446z"/>
<path fill="#510B5E" stroke="#000000" stroke-width="0.25" stroke-miterlimit="10" d="M875.322,66.192c0,0,0.804-1.683,2.262-2.65
	c1.455-0.967,4.489-0.27,4.489-0.27s-3.015-0.148-3.965,0.536c-0.948,0.685-1.613,1.878-1.613,1.878L875.322,66.192z"/>
<path fill="#510B5E" stroke="#000000" stroke-width="0.25" stroke-miterlimit="10" d="M873.341,66.945c0,0-0.828-1.41-1.996-1.958
	c-1.17-0.547-2.517,0.665-2.517,0.665s1.422-0.679,2.193-0.269c0.768,0.408,1.424,1.384,1.424,1.384L873.341,66.945z"/>
<path fill="#FFFFFF" stroke="#000000" stroke-width="0.25" stroke-miterlimit="10" d="M879.556,78.169
	c-2.474,0.279-3.759,0.922-6.616-0.072C874.934,79.544,877.808,79.415,879.556,78.169z"/>
<ellipse fill="#510B5E" stroke="#000000" stroke-width="0.25" stroke-miterlimit="10" cx="878.935" cy="68.071" rx="0.987" ry="1.4"/>
<path fill="#42004A" stroke="#000000" stroke-width="0.25" stroke-miterlimit="10" d="M882.456,68.534
	c-3.698-3.713-5.106-0.947-6.317-0.743c0.988,0.051,2.101-1.029,3.188-0.758C880.218,67.245,881.557,68.042,882.456,68.534z"/>
<path fill="#510B5E" stroke="#000000" stroke-width="0.25" stroke-miterlimit="10" d="M870.21,69.295
	c0.07,0.616,0.466,1.063,0.891,1.003c0.424-0.059,0.712-0.607,0.645-1.22c-0.069-0.614-0.468-1.062-0.891-1.003
	C870.431,68.135,870.142,68.682,870.21,69.295z"/>
<path fill="#42004A" stroke="#000000" stroke-width="0.25" stroke-miterlimit="10" d="M873.236,69.933
	c-2.289-3.974-4.059-1.452-5.117-1.379c0.815,0.151,1.978-0.773,2.828-0.399C871.646,68.453,872.59,69.362,873.236,69.933z"/>
<path fill="#510B5E" stroke="#000000" stroke-width="0.25" stroke-miterlimit="10" d="M873.151,68.39
	c0.245,1.959,0.337,4.357,0.321,6.345c0.678,0.208,1.527,0.249,2.268-0.009c-1.116,0.71-2.515,0.261-2.594,0.262
	C873.094,73.351,872.934,71.179,873.151,68.39z"/>
<path opacity="0.53" fill="#FD5E5A" stroke="#000000" stroke-width="0.25" stroke-miterlimit="10" d="M876.194,50.446
	c0,0-3.24,1.282-4.935,4.841c-1.694,3.559-0.439,8.476-1.371,11.62c-0.063,0.208-0.113,0.474-0.153,0.791
	c0,0,1.652-0.318,2.611-1.276c4.349-4.35,7.691-10.982,8.944-15.09C878.578,50.547,876.194,50.446,876.194,50.446z"/>
<path fill="#510B5E" stroke="#000000" stroke-width="0.25" stroke-miterlimit="10" d="M874.227,51.898
	c0-0.22,4.246-5.89,10.319-5.123c7.27,0.92,13.936,8.505,14.371,16.246c0.43,7.74,0.326,16.39,6.589,20.407
	c6.262,4.016,4.524,14.48,0.515,20.183c-4.012,5.704-10.089,2.142-10.089,2.142s5.052-2.312,4.297-3.695
	c0,0-5.957,5.032-9.453,3.501c-3.784-1.655-4.854-4.779-4.854-4.779s7.05,0.197,4.102-4.28c-2.052-3.117-2.348-4.578-3.274-10.292
	c-0.811-4.997,2.593-14.173,2.021-22.151c-0.427,0.186-1.026,0.291-1.896,0.129c-3.779-0.702-1.318-2.886-3.627-7.915
	C878.26,51.126,874.628,52.031,874.227,51.898z"/>
<path fill="#510B5E" stroke="#000000" stroke-width="0.25" stroke-miterlimit="10" d="M881.054,47.966c0,0-4.092-1.193-7.997,0.927
	c-3.907,2.121-6.521,14.272-4.934,16.663c1.589,2.388-6.385,1.842-1.909,3.168C870.693,70.049,884.934,49.57,881.054,47.966z"/>
<path fill="#560D68" stroke="#000000" stroke-width="0.25" stroke-miterlimit="10" d="M895.953,66.959
	c-1.748,2.427-3.463,5.772-4.164,8.575c-2.17,8.965,8.571,7.132,11.122,8.087c1.584,0.538,2.512,2.418,1.335,4.235
	c-0.955,1.504-2.165,1.681-2.915,2.178c-1.141,0.77-1.05,2.083-0.218,2.851c1.646,1.54,4.679,0.053,4.684,2.901
	c0.049,1.992-1.161,4.007-3.026,4.993c2.001-0.724,3.495-2.743,3.668-4.976c0.165-2.294-1.358-2.635-3.46-3.091
	c-1.298-0.293-1.582-1.044-1.363-1.406c0.31-0.745,2.167-0.513,3.671-2.77c1.132-1.598,1.009-3.716-0.36-5.143
	c-3.563-3.754-15.793,2.343-11.493-10.676C894.072,70.73,894.971,68.826,895.953,66.959z"/>
<path fill="#E6E6E6" stroke="#000000" stroke-width="0.25" stroke-miterlimit="10" d="M887.392,66.44c0,0,0.864-3.442,2.551-2.632
	c1.688,0.814,2.239,3.502,0.71,5.512C889.121,71.33,886.258,69.389,887.392,66.44z"/>
<path fill="#E6E6E6" stroke="#000000" stroke-width="0.25" stroke-miterlimit="10" d="M887.929,67.174c0,0,0.379-2.156,1.213-2.117
	c0.835,0.04,1.168,1.908,0.682,2.937S887.682,68.454,887.929,67.174z"/>
<path fill="#560D68" stroke="#000000" stroke-width="0.25" stroke-miterlimit="10" d="M875.597,50.673
	c-6.254-0.259-10.229,4.757-8.62,10c0.278,0.887,0.74,1.785,1.601,2.112l0.373-1.256c-0.341-0.042-0.764-0.909-0.888-1.228
	C866.254,55.736,869.643,50.878,875.597,50.673z"/>
<path fill="#E6E6E6" stroke="#000000" stroke-width="0.25" stroke-miterlimit="10" d="M701.221,151.226c0,0,3.887-2.342,6.282-2.202
	c3.06,0.177,9.155-0.615,10.666-2.053c1.51-1.44,10.231-5.625,10.231-5.625l6.121,4.727c0,0-29.205,17.371-31.486,17.238
	c-2.281-0.131,6.477-4.463,5.965-5.002c-0.515-0.539-9.222,6.61-10.098,4.854c-0.877-1.758,9.243-5.325,9.232-6.599
	c-0.013-1.272-10.261,6.359-11.632,4.923c-1.369-1.436,11.117-6.639,11.117-6.639s-0.53-0.89-4.115,0.303
	c-3.586,1.191-6.876,2.539-6.889,1.431c-0.012-1.11,9.854-3.42,9.837-5.107C706.453,151.474,701.541,152.495,701.221,151.226z"/>
<path fill="#FD7C05" stroke="#000000" stroke-width="0.25" stroke-miterlimit="10" d="M779.922,88.321
	c0,0-21.195,30.638-25.595,35.037c-4.396,4.396-32.909,18.632-32.909,18.632l4.855,10.201l34.207-17.475l20.819-19.094
	L779.922,88.321z"/>
<polygon fill="#1D1C22" stroke="#000000" stroke-width="0.25" stroke-miterlimit="10" points="805.651,359.852 805.471,371.123 
	806.723,371.159 808.343,358.31 "/>
<g>
	<path fill="#E6E6E6" stroke="#000000" stroke-width="0.25" stroke-miterlimit="10" d="M796.979,260.743
		c0,0,1.344,17.626,3.503,22.889c2.157,5.266-1.7,74.871-3.532,80.483c-0.407,1.244-0.956,2.356-1.527,3.335
		c-1.999,3.421-2.454,4.116,0.227,4.126c3.445,0.011,6.463-0.646,7.133-2.055c1.154-2.438,2.177-10.826,4.532-10.819
		c0,0,1.61-3.125,1.209-4.772c-0.604-2.478-2.291-1.204-2.277-4.649c0.011-3.444,11.424-55.8,9.638-63.42
		c-1.787-7.621-3.053-8.531-3.023-17.597C812.89,259.198,796.979,260.743,796.979,260.743z"/>
	<path fill="#E6E6E6" stroke="#000000" stroke-width="0.25" stroke-miterlimit="10" d="M789.189,242.288
		c0,0-12.854,24.497-12.032,31.752c0.821,7.253,3.535,13.11,1.206,23.016s-20.764,45.817-21.205,52.385
		c-0.185,2.769,0.658,3.024,0.658,3.024c-0.035,4.772-1.524,9.881-2.518,10.868c-1.273,1.264-2.706,7.551-3.914,7.548
		c-1.209-0.004-11.422,1.089-11.422,1.089c-0.265-2.33,2.861-0.46,4.689-5.289s2.939-12.078,5.271-21.859
		c2.328-9.781,11.884-54.421,11.916-64.693c0.033-10.274-0.909-10.325,0.685-17.088c1.593-6.762,7.559-19.435,7.559-19.435
		L789.189,242.288z"/>
	<path fill="#E6E6E6" stroke="#000000" stroke-width="0.25" stroke-miterlimit="10" d="M777.157,274.04
		c-0.821-7.255,12.032-31.752,12.032-31.752l-19.107,1.317c0,0-5.966,12.673-7.559,19.435c-1.169,4.961-0.972,6.311-0.799,10.732
		c3.651,0.786,9.336,1.934,15.825,2.979C777.398,275.864,777.263,274.962,777.157,274.04z"/>
	<path fill="#E6E6E6" stroke="#000000" stroke-width="0.25" stroke-miterlimit="10" d="M812.859,268.264
		c0.03-9.065-15.881-7.521-15.881-7.521s0.857,11.241,2.301,18.449c5.385,0.257,10.475,0.153,14.671-0.542
		C813.255,276,812.843,273.483,812.859,268.264z"/>
</g>
<path fill="#292C47" stroke="#000000" stroke-width="0.25" stroke-miterlimit="10" d="M775.771,158.313
	c0,0-2.24,34.505-3.932,42.724c-1.691,8.22-11.359,66.474-11.359,66.474s43.074,3.628,53.47,0c0,0,1.161-74.752-1.287-84.362
	c-2.447-9.608-13.146-27.094-13.146-27.094L775.771,158.313z"/>
<path fill="#E469A6" stroke="#000000" stroke-width="0.25" stroke-miterlimit="10" d="M779.922,88.321c0,0,5.956-4.582,26.117-0.029
	c0.551,0.124,1.052,22.003,1.052,22.003s-9.354,36.621-7.574,45.759c0,0-10.694,9.025-26.649,1.171c0,0,2.073-28.761,0.623-35.165
	c-1.451-6.406-4.347-12.215-0.238-18.863C777.361,96.549,779.922,88.321,779.922,88.321z"/>
<path fill="#FD7C05" stroke="#000000" stroke-width="0.25" stroke-miterlimit="10" d="M779.922,88.321c0,0,5.956-4.582,26.117-0.029
	c0.551,0.124,1.052,22.003,1.052,22.003s-9.354,36.621-7.574,45.759c0,0-10.694,9.025-26.649,1.171c0,0,2.073-28.761,0.623-35.165
	c-1.451-6.406-4.347-12.215-0.238-18.863C777.361,96.549,779.922,88.321,779.922,88.321z"/>
<path fill="#E6E6E6" stroke="#000000" stroke-width="0.25" stroke-miterlimit="10" d="M806.97,164.98
	c0.328-0.326,3.186-4.537,3.798-3.926c0.609,0.611-2.534,4.493-2.534,4.493s3.646-3.688,4.366-2.966
	c0.719,0.72-4.869,5.698-5.459,5.698C806.552,168.279,806.97,164.98,806.97,164.98z"/>
<path fill="#E6E6E6" stroke="#000000" stroke-width="0.25" stroke-miterlimit="10" d="M802.032,160.82c0,0-1.54,2.352-0.406,3.486
	c1.136,1.135,0.528,2.313,1.3,3.083c0.769,0.769,4.215,0.891,4.215,0.891s0.244-3.323,1.947-7.135
	c0.314-0.707,1.321-2.091,2.751-3.915c-1.523-1.002-3.129-1.907-4.757-2.721C804.232,158.208,802.084,160.728,802.032,160.82z"/>
<path fill="#FD7C05" stroke="#000000" stroke-width="0.25" stroke-miterlimit="10" d="M806.031,88.328c0,0-1.998,15.893,0,20.271
	c1.949,4.263,13.328,9.179,15.279,17.813c1.458,6.45-8.039,20.061-14.229,28.097c1.549,1.546,4.057,4.109,5.581,5.114
	c6.298-8.017,20.028-26.892,20.426-31.319C833.575,122.867,814.49,87.76,806.031,88.328z"/>
<path fill="#828AC3" stroke="#000000" stroke-width="0.25" stroke-miterlimit="10" d="M806.031,88.328
	c-0.298,3.707-0.538,7.256-0.607,11.037c-0.062,6.676,0.339,8.781,1.813,10.457c3.421,3.964,12.577,8.807,14.074,16.59
	c-2.131-7.715-10.986-12.01-14.563-16.176c-1.348-1.554-1.61-3.219-1.775-5.323C804.606,99.979,805.277,93.288,806.031,88.328z"/>
<path fill="#3A3745" stroke="#000000" stroke-width="0.25" stroke-miterlimit="10" d="M806.483,351.044
	c-1.06,6.299-4.598,17.164-7.031,18.182c-4.031,0.845-4.053,0.424-4.03-1.775c-1.999,3.418-4.265,5.167-1.582,5.176
	c3.442,0.012,8.815,0.24,9.485-1.171c1.154-2.436,1.813-11.661,4.17-11.654l-0.772,11.358l1.252,0.038
	c0,0,1.908-15.636,1.505-17.199C808.93,351.853,807.146,351.428,806.483,351.044z"/>
<path fill="#3A3745" stroke="#000000" stroke-width="0.25" stroke-miterlimit="10" d="M743.402,368.9
	c-2.806,1.737-6.28,1.774-6.068,3.643c0,0,13.223-0.525,14.432-0.52c1.21,0.004,2.26-7.427,3.533-8.69
	c1.275-1.266,0.455,8.702,0.455,8.702l1.303,0.005c0,0,0.908-10.268,2.129-14.256c0.975-3.173-0.393-4.513-1.369-5.319
	C753.825,360.041,753.399,370.712,743.402,368.9z"/>
<g>
	<path fill="#3C1247" stroke="#000000" stroke-width="0.25" stroke-miterlimit="10" d="M800.044,59.154c0,0,8.11,1.478,8.11,7.233
		c0,5.754-1.247,3.153-2.55,7.264c-1.304,4.11-0.093,7.622-5.561,7.622c-5.473,0-4.521,0.356-7.251,2.017
		c-2.728,1.659-8.111-1.127-8.693-7.058c-0.582-5.93,9.424-5.518,9.424-9.845C793.523,62.06,800.044,59.154,800.044,59.154z"/>
	<path fill="#E6E6E6" stroke="#000000" stroke-width="0.25" stroke-miterlimit="10" d="M784.1,72.846c0,0,2.771,4.06,2.428,8.71
		c-0.188,2.516-0.663,5.679-1.418,7.52c-1.603,3.913,2.856,5.537,5.714,4.442c2.347-0.902,5.91-2.573,6.995-5.196
		c0.726-1.753-5.838-21.588-5.838-21.588L784.1,72.846z"/>
	<path fill="#808080" stroke="#000000" stroke-width="0.25" stroke-miterlimit="10" d="M784.1,72.846l7.881-6.112
		c0,0,0.772,2.332,1.758,5.467c-1.85,2.799-4.309,5.502-7.356,6.553C785.828,75.389,784.1,72.846,784.1,72.846z"/>
	<path fill="#E6E6E6" stroke="#000000" stroke-width="0.25" stroke-miterlimit="10" d="M778.55,46.18c0,0-2.551,1.724-3.338,5.138
		c-0.791,3.415,1.214,7.463,1.005,10.374c-0.211,2.911,4.141,17.188,11.037,14.426c6.898-2.761,8.505-13.572,8.675-15.938
		c0.171-2.365-3.864-10.579-7.688-12.795C784.416,45.168,778.55,46.18,778.55,46.18z"/>
	<g>
		<path fill="#501F5E" stroke="#000000" stroke-width="0.25" stroke-miterlimit="10" d="M781.102,60.622
			c-0.072,1.829-0.35,4.036-0.662,5.85c0.581,0.297,1.347,0.466,2.052,0.345c-1.117,0.477-2.313-0.151-2.386-0.162
			C780.304,65.15,780.489,63.138,781.102,60.622z"/>
		<path fill="#501F5E" stroke="#000000" stroke-width="0.25" stroke-miterlimit="10" d="M784.284,57.678
			c0,0,1.354-1.051,2.948-1.237c1.593-0.188,3.792,1.663,3.792,1.663s-2.412-1.389-3.475-1.223
			c-1.059,0.166-2.096,0.874-2.096,0.874L784.284,57.678z"/>
		<path fill="#501F5E" stroke="#000000" stroke-width="0.25" stroke-miterlimit="10" d="M780.452,57.723
			c0,0-1.187-1.054-2.532-1.246c-1.347-0.19-3.101,1.649-3.101,1.649s1.955-1.379,2.854-1.209c0.897,0.168,1.803,0.875,1.803,0.875
			L780.452,57.723z"/>
		<path fill="#FFFFFF" stroke="#000000" stroke-width="0.25" stroke-miterlimit="10" d="M785.858,69.527
			c-3.426,1.286-4.703,1.198-5.884,0.936C781.674,71.833,784.585,71.041,785.858,69.527z"/>
		<path fill="#501F5E" stroke="#000000" stroke-width="0.25" stroke-miterlimit="10" d="M785.311,60.05
			c0.139,0.555,0.642,0.909,1.126,0.789c0.486-0.121,0.768-0.668,0.631-1.226c-0.137-0.557-0.642-0.912-1.125-0.791
			C785.455,58.943,785.174,59.493,785.311,60.05z"/>
		<path fill="#42124A" stroke="#000000" stroke-width="0.25" stroke-miterlimit="10" d="M789.424,60.22
			c-3.625-3.203-4.735-0.556-5.831-0.289c0.909-0.017,1.857-1.084,2.873-0.903C787.291,59.167,788.57,59.82,789.424,60.22z"/>
		<path fill="#501F5E" stroke="#000000" stroke-width="0.25" stroke-miterlimit="10" d="M777.705,60.447
			c0.128,0.558,0.541,0.93,0.919,0.828c0.38-0.101,0.584-0.635,0.456-1.192c-0.131-0.559-0.543-0.93-0.922-0.828
			C777.777,59.354,777.574,59.889,777.705,60.447z"/>
		<path fill="#42124A" stroke="#000000" stroke-width="0.25" stroke-miterlimit="10" d="M780.575,60.613
			c-2.928-3.064-3.938-0.396-4.862-0.095c0.759-0.045,1.585-1.138,2.425-0.992C778.826,59.637,779.872,60.243,780.575,60.613z"/>
	</g>
	<path fill="#501F5E" stroke="#000000" stroke-width="0.25" stroke-miterlimit="10" d="M778.192,46.11
		c0.402-1.124,1.977-4.383,6.858-4.689c0.16-0.013,0.321-0.024,0.485-0.031c2.997-0.122,6.007-0.445,8.975,0.218
		c1.736,0.388,3.482,1.159,4.847,2.324c1.679,1.43,3.276,3.071,3.501,5.188c0.402,3.875-1.381,8.104-0.091,11.842
		c0.009,0.027,0.019,0.054,0.027,0.081c1.424,4.067-0.479,8.537-4.444,10.222c-2.275,0.968-4.137,1.285-5.375-0.761
		c0.181-2.104,5.376-8.845,0.604-13.893c-0.332,0.242-0.142,2.025-0.921,2.047c-1.89,0.054-3.121-4.051-3.338-5.762
		c-0.375-1.64-1.338-3.197-3.317-4.634c-2.505-1.604-4.402-2.036-5.716-2.071c-0.568,0.015-1.012,0.058-1.347,0.105
		c-0.474,0.091-0.761,0.203-0.862,0.191C778.071,46.458,778.105,46.321,778.192,46.11z"/>
	<path fill="#501F5E" stroke="#000000" stroke-width="0.25" stroke-miterlimit="10" d="M780.217,43.695c0,0-3.751-0.273-6.714,2.303
		c-2.963,2.577-2.528,11.845-0.713,13.628c1.816,1.782-5.559,4.904-1.444,4.916C777.18,64.558,783.86,44.365,780.217,43.695z"/>
	<path fill="#6D2A81" stroke="#000000" stroke-width="0.25" stroke-miterlimit="10" d="M779.188,45.078
		c-5.512,0.26-8.599,5.02-6.763,9.545c0.313,0.766,0.793,1.524,1.575,1.747l0.224-1.144c-0.302-0.01-0.741-0.746-0.876-1.019
		C771.393,50.3,773.976,45.726,779.188,45.078z"/>
	<path fill="#E6E6E6" stroke="#000000" stroke-width="0.25" stroke-miterlimit="10" d="M792.635,57.848c0,0,0.323-2.933,2.655-2.114
		c2.335,0.82,1.358,7.952-0.7,7.253C792.53,62.289,792.635,57.848,792.635,57.848z"/>
	<path fill="#E6E6E6" stroke="#000000" stroke-width="0.25" stroke-miterlimit="10" d="M793.151,59.269c0,0,0.286-3.185,1.447-2.343
		c1.161,0.844,1.279,3.964,0.068,4.157C793.452,61.277,793.151,59.269,793.151,59.269z"/>
</g>
<path fill="#E6E6E6" stroke="#000000" stroke-width="0.25" stroke-miterlimit="10" d="M683.27,209.101c0,0,5.62,17.035,6.621,18.784
	c1.001,1.748,1.025,9.745-0.573,10.833c-1.603,1.088-0.437-3.244-0.863-5.532c-0.425-2.286-2.513-5.334-2.513-5.334
	s1.734,2.368,2.298,5.234c0.432,2.203-0.125,4.999-0.876,5.43c-1.731,1.001-0.313-1.676-0.907-4.866
	c-0.595-3.191-2.337-4.69-2.337-4.69s1.444,5.949-0.088,6.799c-1.531,0.851-6.847-23.166-6.847-23.166L683.27,209.101z"/>
<path fill="#341102" stroke="#000000" stroke-width="0.25" stroke-miterlimit="10" d="M663.354,92.397
	c0,0,9.154,13.456,10.431,29.526c0.531,6.694,0.063,39.864,3.302,53.671c4.192,17.875,10.032,34.968,10.032,34.968l-13.579,8.217
	l-10.675-42.593l-2.902-30.342L663.354,92.397z"/>
<path fill="#292C47" stroke="#000000" stroke-width="0.25" stroke-miterlimit="10" d="M652.521,234.963l-18.662,137.455l8.856-1.559
	l15.212-74.508c0,0,10.023-69.149,10.023-94.116L652.521,234.963z"/>
<path fill="#432C47" stroke="#000000" stroke-width="0.25" stroke-miterlimit="10" d="M603.984,380.664h17.232l-10.796-7.006
	l1.175-5.557c-2.466,0-3.06,1.752-5.55,1.752C605.341,373.943,603.984,380.664,603.984,380.664z"/>
<path fill="#432C47" stroke="#000000" stroke-width="0.25" stroke-miterlimit="10" d="M634.942,379.694h16.876l-10.795-7.006
	l1.175-5.559c-2.464,0-3.061,1.752-5.548,1.752C635.946,372.972,634.942,379.694,634.942,379.694z"/>
<path fill="#292C47" stroke="#000000" stroke-width="0.25" stroke-miterlimit="10" d="M667.331,181.987
	c-18.358,0.421-26.042,11.508-43.097,16.585l0.671,5.222l-1.178,87.984c0,0-17.631,62.01-21.174,82.604
	c0,0,10.075-0.646,9.498-0.646l29.648-73.565l13.387-67.207l10.966-26.126L667.331,181.987z"/>
<polygon fill="#70497A" stroke="#000000" stroke-width="0.25" stroke-miterlimit="10" points="655.086,232.963 639.051,299.214 
	612.051,373.735 641.699,300.17 "/>
<polygon fill="#375866" stroke="#000000" stroke-width="0.25" stroke-miterlimit="10" points="639.622,82.128 638.965,92.419 
	663.354,89.647 657.655,82.665 "/>
<path fill="#D24307" stroke="#000000" stroke-width="0.25" stroke-miterlimit="10" d="M671.34,161.087
	c0-34.913-5.413-69.643-13.041-74.061c0,0-8.869-0.61-13.429-0.763c-6.805-0.227-12.102,3.209-17.753,22.466
	c-3.563,12.14-7.057,41.445-6.674,66.981c0.169,11.323-1.552,21.904-1.311,29.921c19.225,0,33.284-0.641,51.94-0.641
	C671.36,198.899,671.34,172.061,671.34,161.087z"/>
<path fill="#FD7C05" stroke="#000000" stroke-width="0.25" stroke-miterlimit="10" d="M649.047,128.362
	c0.057,0.418-11.337-41.076-11.337-41.076s-3.822,1.047-8.899,3.76c-5.078,2.713-7.343,23.28-7.343,23.28
	s-3.032,42.483-3.032,45.854c0,1.813-3.651,28.952-7.026,53.651l41.59,3.188C652.374,182.567,649.047,128.362,649.047,128.362z"/>
<path fill="#692204" stroke="#000000" stroke-width="0.25" stroke-miterlimit="10" d="M658.299,87.026
	c0,0,10.32,4.618,13.479,35.639c3.157,31.019,7.507,94.355,7.507,94.355H664.91c0,0-1.557-90.478-1.557-96.683
	C663.354,114.134,658.299,87.026,658.299,87.026z"/>
<polygon fill="#874E36" stroke="#000000" stroke-width="0.25" stroke-miterlimit="10" points="657.655,82.665 663.333,127.265 
	665.346,104.965 663.354,102.546 663.354,89.647 "/>
<path fill="#FC7575" stroke="#000000" stroke-width="0.25" stroke-miterlimit="10" d="M632.775,130.987
	c-0.011-0.01-0.021-0.022-0.029-0.032C633.006,130.937,632.987,130.95,632.775,130.987z"/>
<path fill="#E6E6E6" stroke="#000000" stroke-width="0.25" stroke-miterlimit="10" d="M710.318,146.285c0,0-4.275,1.515-5.692,3.453
	c-1.806,2.475-9.104,6.958-11.172,7.208c-2.072,0.252-7.966,1.905-7.966,1.905l-0.305,9.877c0,0,28.646-8.695,33.315-13.363
	c1.617-1.615-7.561,2.167-7.651,1.428c-0.089-0.738,10.964-2.921,10.164-4.714c-0.803-1.793-9.989,3.754-10.962,2.937
	c-0.976-0.82,11.429-3.884,11.189-5.854c-0.238-1.969-12.187,4.367-12.187,4.367s-0.353-0.972,2.847-2.985
	c3.197-2.011,6.329-3.697,5.481-4.412c-0.85-0.712-8.902,5.439-10.194,4.353C707.187,150.484,711.095,147.34,710.318,146.285z"/>
<polygon fill="#874E36" stroke="#000000" stroke-width="0.25" stroke-miterlimit="10" points="649.047,128.362 639.622,82.128 
	629.879,89.701 638.405,105.532 637.771,110.488 "/>
<path fill="#381A3F" stroke="#000000" stroke-width="0.25" stroke-miterlimit="10" d="M645.192,73.802
	c-0.423-0.268-5.659-13.296-5.659-13.296s-3.494-9.782-1.238-11.438c2.256-1.657,7.619-7.398,12.319-7.502
	c4.701-0.104,7.854,1.304,8.274,1.57c0.421,0.269,3.47,5.411,3.47,5.411s-1.419-1.732-2.15,4.695
	C659.48,59.668,645.192,73.802,645.192,73.802z"/>
<path fill="#E6E6E6" stroke="#000000" stroke-width="0.25" stroke-miterlimit="10" d="M657.049,73.214
	c-0.559,1.663-0.318,13.544-0.76,16.535c-0.434,2.953-13.916,7.528-14.179-3.212c-0.265-10.741,0.794-23.374,0.794-23.374
	L657.049,73.214z"/>
<path fill="#808080" stroke="#000000" stroke-width="0.25" stroke-miterlimit="10" d="M657.049,73.213L657.049,73.213
	L657.049,73.213l-4.693-3.335l-9.451-6.714c0,0,0,0.006,0,0.017c0,0.004,0,0.007,0,0.012c0,0.002,0,0.004-0.004,0.006
	c-0.001,0.045-0.008,0.127-0.017,0.249c-0.032,0.391-0.093,1.171-0.168,2.25v0.004c-0.013,0.218-0.03,0.449-0.046,0.69
	c-0.003,0.017-0.003,0.032-0.003,0.048c-0.052,0.78-0.107,1.678-0.165,2.666c-0.002,0.057-0.006,0.111-0.01,0.167
	c-0.013,0.235-0.026,0.474-0.04,0.718c0,0.002,0,0.004,0,0.006c-0.007,0.127-0.012,0.256-0.021,0.383
	c0,0.014-0.001,0.028-0.001,0.041c-0.004,0.049-0.007,0.097-0.009,0.146c-0.001,0.018-0.003,0.038-0.004,0.055
	c-0.005,0.086-0.007,0.169-0.012,0.255c1.755,5.757,8.391,12.011,14.132,12.754c0.013-0.397,0.033-0.798,0.061-1.201
	C656.673,78.396,656.732,74.16,657.049,73.213z"/>
<path fill="#E6E6E6" stroke="#000000" stroke-width="0.25" stroke-miterlimit="10" d="M642.375,53.322
	c-1.726,4.295-1.818,12.151,2.299,18.092c4.114,5.94,9.797,9.003,13.866,6.008c4.069-2.997,5.234-21.797,2.293-26.635
	C657.894,45.949,645.008,46.776,642.375,53.322z"/>
<path fill="#653870" stroke="#000000" stroke-width="0.25" stroke-miterlimit="10" d="M642.381,73.148c0,0-0.915-6.149-3.275-7.648
	c-2.358-1.499-3.422-2.412-3.85-4.582c-0.426-2.172-8.297-3.625-7.011-7.195c1.285-3.571,7.447-5.242,10.581-11.449
	c3.133-6.208,6.517-9.645,13.819-7.382c7.303,2.262,8.32,6.717,8.32,6.717s3.224-0.56,5.191,3.296
	c1.972,3.857,0.556,6.049-0.709,7.857c0,0,0.27-5.091-1.477-4.739c-1.745,0.354,0.016,5.955,0.016,5.955s-2.625-2.146-5.42-5.465
	c-2.792-3.318-2.105,0.564-1.28,4.771c0.826,4.208-5.37,0.243-8.128-2.799c-2.753-3.042-6.695-0.198-8.135,4.113
	C639.583,58.913,645.788,65.688,642.381,73.148z"/>
<path fill="#E6E6E6" stroke="#000000" stroke-width="0.25" stroke-miterlimit="10" d="M643.733,60.065c0,0-2.575-4.397-3.916-2.487
	c-1.339,1.911-0.235,7.622,2.605,7.68C645.265,65.314,643.733,60.065,643.733,60.065z"/>
<path fill="#E6E6E6" stroke="#000000" stroke-width="0.25" stroke-miterlimit="10" d="M642.28,60.385c0,0,0.097-2.547-1.286-1.703
	c-1.384,0.843,0.009,4.936,1.286,4.854C643.553,63.455,642.28,60.385,642.28,60.385z"/>
<path fill="#172866" stroke="#000000" stroke-width="0.25" stroke-miterlimit="10" d="M656.881,59.208
	c0.493,1.161,0.827,2.383,1.034,3.629c0.41,2.698-0.026,3.851-0.041,4.021c-0.313-0.059-1.146-0.181-2.251-0.471
	c0.711-0.02,1.418-0.002,2.118,0.038l-0.237,0.175C657.624,64.155,657.145,61.706,656.881,59.208z"/>
<path fill="#2F499F" stroke="#000000" stroke-width="0.25" stroke-miterlimit="10" d="M653.398,59.858
	c0.151,0.764-0.182,1.473-0.742,1.588c-0.563,0.113-1.137-0.414-1.287-1.177c-0.15-0.764,0.184-1.474,0.742-1.587
	C652.674,58.567,653.249,59.094,653.398,59.858z"/>
<path fill="#2F499F" stroke="#000000" stroke-width="0.25" stroke-miterlimit="10" d="M661.11,58.763
	c0.15,0.764-0.182,1.476-0.741,1.587c-0.562,0.114-1.137-0.413-1.285-1.176c-0.152-0.764,0.182-1.473,0.741-1.588
	C660.385,57.474,660.962,58,661.11,58.763z"/>
<path fill="#172866" stroke="#000000" stroke-width="0.25" stroke-miterlimit="10" d="M649.013,57.925c0,0,1.187-2.081,3.16-2.48
	c1.975-0.399,1.377,1.261,0.916,1.354C652.629,56.892,648.937,57.534,649.013,57.925z"/>
<path fill="#172866" stroke="#000000" stroke-width="0.25" stroke-miterlimit="10" d="M658.426,54.485c0,0,2.338,0.692,2.779,1.766
	c0,0-2.474-0.206-2.92-0.786C657.84,54.885,658.426,54.485,658.426,54.485z"/>
<path fill="#FFFFFF" stroke="#000000" stroke-width="0.25" stroke-miterlimit="10" d="M650.653,69.672c0,0,6.035,2.268,9.309,0.088
	c0,0-0.915,3.039-1.75,3.586C656.456,74.5,652.139,73.624,650.653,69.672z"/>
<path fill="#E6E6E6" stroke="#000000" stroke-width="0.25" stroke-miterlimit="10" d="M371.583,104.322
	c0,0-10.186,11.861-5.104,27.268c7.155,21.702,10.515,38.652,15.241,42.552c4.726,3.899,28.357-15.041,32.688-21.167
	c0,0,6.122-0.816,9.04-0.256c1.061,0.203,2.043-0.811,2.228-2.303c0.083-0.68,0.095-1.416-0.042-2.142c0,0,0.739-2.262-0.097-4.003
	c0,0,0.343-2.506-0.052-3.622c-0.393-1.113-2.758-1.128-6.645,0.346c-1.122,0.426-5.292,5.19-6.547,6.966
	c-1.256,1.775-20.922,13.926-25.846,12.186C382.215,158.648,372.17,104.322,371.583,104.322z"/>
<path fill="#D3650B" stroke="#000000" stroke-width="0.25" stroke-miterlimit="10" d="M409.805,145.483
	c-5.714,3.923-19.372,16.071-23.36,14.662c-4.23-1.497-14.275-55.824-14.862-55.824c0,0-10.186,11.861-5.104,27.268
	c7.155,21.702,9.716,42.9,14.442,46.799c3.802,3.137,20.712-5.874,29.092-13.738C410.153,162.021,410.034,148.079,409.805,145.483z"
	/>
<path fill="#292C47" stroke="#000000" stroke-width="0.25" stroke-miterlimit="10" d="M358.072,218.901l16.303,91.52l-16.303,65.345
	l-1.483,6.908h25.967c0.457-3.922-11.541-2.72-13.74-7.78c-2.066-4.759,26.679-62.25,26.679-63.729
	c0-1.485-9.594-87.302-9.594-87.302L358.072,218.901z"/>
<path fill="#292C47" stroke="#000000" stroke-width="0.25" stroke-miterlimit="10" d="M332.505,202.226l-1.482,25.196
	l17.785,145.248l-2.963,10.004h28.532c0.824-5.617-18.527-5.558-20.009-10.743c-1.482-5.189,11.116-153.77,11.116-153.77
	L332.505,202.226z"/>
<path fill="#FD7C05" stroke="#000000" stroke-width="0.25" stroke-miterlimit="10" d="M369.458,101.35
	c0,0,11.445,13.832,14.778,32.359c1.503,8.352-2.259,29.011-1.713,49.364c0.667,24.795,5.468,49.053,5.468,49.053
	s-25.289,0.829-40.666-14.549c-15.377-15.377-16.304,9.845-16.304,9.845s-2.552-12.968-2.552-25.196s1.124-95.292,25.615-100.337
	C364.927,99.656,369.458,101.35,369.458,101.35z"/>
<path fill="#E6E6E6" stroke="#000000" stroke-width="0.25" stroke-miterlimit="10" d="M346.862,221.786l0.835,11.724l-9.312-2.124
	c0,0,3.893-8.202,1.251-10.844c-0.033-0.034,7.19,1.123,7.19,1.123C346.849,221.739,346.862,221.786,346.862,221.786z"/>
<path fill="#0F1D5B" stroke="#000000" stroke-width="0.25" stroke-miterlimit="10" d="M353.973,238.318
	c0.549-0.717-0.801-1.165-1.691-1.996c-6.141-4.707-11.58-4.735-16.548-6.178c-0.31-0.068-0.598,0.116-0.667,0.413
	c-0.23,0.991,1.202,0.641,7.293,2.276c6.396,1.493,9.831,4.941,10.834,5.587C353.295,238.499,353.786,238.562,353.973,238.318z"/>
<path fill="#FD7C05" stroke="#000000" stroke-width="0.25" stroke-miterlimit="10" d="M352.912,103.949
	c6.937,6.935,6.457,28.777-1.602,42.95c-8.059,14.173-12.924,19.564-12.924,28.845c0,8.964,10.253,43.797,10.874,45.921h-10.246
	c-2.772-3.294-18.395-37.22-22.784-49.704C311.781,159.316,343.243,94.279,352.912,103.949z"/>
<path fill="#292C47" stroke="#000000" stroke-width="0.25" stroke-miterlimit="10" d="M352.912,103.949
	c6.729,7.853,4.452,26.428,0.434,36.748c-4.871,12.564-15.433,22.435-14.96,35.047c1.201-17.385,19.831-26.053,19.975-53.581
	C358.403,116.244,357.223,107.922,352.912,103.949z"/>
<path fill="#E6E6E6" stroke="#000000" stroke-width="0.25" stroke-miterlimit="10" d="M354.95,77.71c0,0-1.585,14.843-0.443,24.584
	c0.284,2.427,1.673,4.584,3.767,5.844c4.208,2.53,11.534,6.255,14.284,3.443l-3.512-23.221L354.95,77.71z"/>
<path fill="#808080" stroke="#000000" stroke-width="0.25" stroke-miterlimit="10" d="M354.95,77.71l14.095,10.65l1.783,11.781
	c-5.527,0.719-12.128-6.7-14.473-16.484c-0.405-1.682-0.939-3.194-1.537-4.583C354.898,78.206,354.95,77.71,354.95,77.71z"/>
<path fill="#E6E6E6" stroke="#000000" stroke-width="0.25" stroke-miterlimit="10" d="M373.572,56.57
	c0.213,0.16,0.465,0.469,0.734,0.908c1.232,2.012,2.803,6.77,2.409,12.62c-0.483,7.128-0.889,22.07-6.104,22.993
	c-5.217,0.923-13.455-4.974-15.524-13.372c-2.07-8.396-6.417-12.011-4.472-19.085C352.562,53.562,373.572,56.57,373.572,56.57z"/>
<g>
	<path fill="#E6E6E6" stroke="#000000" stroke-width="0.25" stroke-miterlimit="10" d="M373.572,56.569
		c0,0-21.011-3.007-22.957,4.065c-1.945,7.074,2.401,10.688,4.472,19.085c1.866-0.498,4.815-0.745,3.188-10.91
		c1.591-5.442,4.742-4.896,5.291-7.291c4.874,1.063,5.45,3.613,5.766,3.897c2.21,3.624,4.568,5.581,7.243,6.914
		c0.073-1.175,0.075-1.279,0.141-2.231C377.13,63.974,375.165,57.772,373.572,56.569z"/>
	<path fill="#E6E6E6" stroke="#000000" stroke-width="0.25" stroke-miterlimit="10" d="M355.087,79.719
		C354.735,78.883,355.309,80.617,355.087,79.719L355.087,79.719z"/>
</g>
<path fill="#1111BF" stroke="#000000" stroke-width="0.25" stroke-miterlimit="10" d="M357.947,72.756c0,0,1.134-4.27,2.616-6.565
	c1.484-2.298,0.625-3.869,0.625-3.869s6.796,0.049,9.58,4.563c2.785,4.516,6.326,11.245,13.009,6.775
	c6.684-4.471,3.614-14.413,1.922-14.113c-1.69,0.299-3.511-0.945-3.511-0.945s-7.699-8.182-10.941-7.608
	c-3.243,0.574-0.987-3.112-6.645-3.047c-5.66,0.062-9.089,6.146-9.089,6.146s-2.906-2.458-6.624,1.174
	c-3.718,3.632,0.225,14.515,2.414,18.196c2.188,3.682,3.43,10.113,3.43,10.113S359.91,83.834,357.947,72.756z"/>
<path fill="#E6E6E6" stroke="#000000" stroke-width="0.25" stroke-miterlimit="10" d="M354.692,67.838
	c0.248-2.145,2.694-2.825,4.014-1.143c1.09,1.392,1.911,3.203,0.827,4.882c-2.169,3.356-5.128,0.594-4.901-3.045
	C354.646,68.287,354.667,68.057,354.692,67.838z"/>
<path fill="#E6E6E6" stroke="#000000" stroke-width="0.25" stroke-miterlimit="10" d="M359.733,69.429
	c-0.211-0.825-1.495-3.099-2.58-2.048c-1.084,1.054-1.547,4.226,0.59,4.474C359.879,72.103,359.937,70.222,359.733,69.429z"/>
<g>
	<path fill="#2B3278" stroke="#000000" stroke-width="0.25" stroke-miterlimit="10" d="M371.303,82.221l2.959-0.525l-1.379-7.788
		c-0.03-0.169-0.18-0.282-0.335-0.253c-0.156,0.027-0.258,0.186-0.229,0.353l1.272,7.182l-2.396,0.426
		c-0.155,0.027-0.259,0.184-0.229,0.353C370.997,82.136,371.147,82.25,371.303,82.221z"/>
</g>
<ellipse transform="matrix(-0.9847 0.1743 -0.1743 -0.9847 744.9727 81.767)" fill="#2B3278" stroke="#000000" stroke-width="0.25" stroke-miterlimit="10" cx="368.896" cy="73.597" rx="1.234" ry="1.617"/>
<ellipse transform="matrix(-0.9847 0.1743 -0.1743 -0.9847 757.2272 80.4234)" fill="#2B3278" stroke="#000000" stroke-width="0.25" stroke-miterlimit="10" cx="375.082" cy="73.466" rx="1.049" ry="1.49"/>
<g>
	<path fill="#2B3278" stroke="#000000" stroke-width="0.25" stroke-miterlimit="10" d="M370.324,88.373
		c0.596-0.106,0.958-0.291,0.969-0.297c0.13-0.069,0.182-0.241,0.113-0.384c-0.068-0.144-0.235-0.198-0.362-0.136
		c-0.104,0.062-2.532,1.27-5.218-1.369c-0.11-0.112-0.279-0.101-0.38,0.011c-0.099,0.116-0.089,0.3,0.021,0.41
		C367.385,88.494,369.241,88.564,370.324,88.373z"/>
</g>
<path fill="#2B3278" stroke="#000000" stroke-width="0.25" stroke-miterlimit="10" d="M370.392,69.288c0,0-1.653-1.272-3.345-0.972
	c-1.691,0.3-2.626,2.657-2.626,2.657s0.963-1.945,2.472-1.899c1.509,0.045,3.679,1.226,3.679,1.226L370.392,69.288z"/>
<path fill="#3C4875" stroke="#000000" stroke-width="0.25" stroke-miterlimit="10" d="M304.99,172.918
	c-0.02,0-0.038-0.001-0.056-0.004c-0.286-0.03-0.494-0.287-0.464-0.573c5.641-54.002,31.751-63.153,32.014-63.24
	c0.272-0.088,0.566,0.058,0.658,0.333c0.089,0.272-0.06,0.568-0.333,0.657c-0.256,0.086-25.737,9.098-31.301,62.358
	C305.479,172.717,305.253,172.918,304.99,172.918z"/>
<path fill="#363A68" stroke="#000000" stroke-width="0.25" stroke-miterlimit="10" d="M914.614,117.552
	c0,0-2.781,16.626-11.502,27.82c-6.517,8.367-20.151,17.693-20.151,17.693l7.722,8.464l21.295-17.577L914.614,117.552z"/>
<polygon fill="#260E0D" stroke="#000000" stroke-width="0.25" stroke-miterlimit="10" points="926.273,102.002 943.354,102.002 
	942.8,158.168 920.127,159.697 "/>
<path fill="#260E0D" stroke="#000000" stroke-width="0.25" stroke-miterlimit="10" d="M907.135,371.11
	c-9.621,0-9.387,3.955-9.387,3.955h28.156c0,0-1.4-12.155-1.61-15.028h-6.614C916.951,363.552,914.523,371.11,907.135,371.11z"/>
<path fill="#260E0D" stroke="#000000" stroke-width="0.25" stroke-miterlimit="10" d="M954.202,372.56
	c-8.762,0-10.551-10.617-10.802-12.522h-6.327c-0.001,0.519-0.001,0.846-0.001,0.925c0,1.317-1.646,15.555-1.646,15.555
	s7.042,0,11.735,0c4.69,0,16.423,0,16.423,0S963.819,372.56,954.202,372.56z"/>
<path fill="#292C47" stroke="#000000" stroke-width="0.25" stroke-miterlimit="10" d="M951.691,296.109l8.988-76.02l-2.537-22.497
	h-49.48l-0.354,19.825l-5.196,77.242c0,0,12.911,64.314,12.688,65.377h9.342c-0.017-0.234-2.641-70.519-2.641-70.519l10.678-62.611
	l4.176,65.719c0,0-1.896,59.238-1.929,67.411h8.796C944.199,359.85,951.691,296.109,951.691,296.109z"/>
<path fill="#0E0E0E" stroke="#000000" stroke-width="0.25" stroke-miterlimit="10" d="M958.477,200.551l-0.334-2.958h-49.48
	l-0.048,2.591l10.385,3.532c8.469,2.881,17.477,3.11,26.051,0.664L958.477,200.551z"/>
<path fill="#F1A97E" stroke="#000000" stroke-width="0.25" stroke-miterlimit="10" d="M961.572,116.94
	c-5.381-6.044-17.834-15.689-31.56-13.362l-14.343,6.37l-4.217,30.955l-3.777,58.962l51.143,0.587l4.865-57.397
	C963.684,143.055,966.952,122.986,961.572,116.94z"/>
<path fill="#E6E6E6" stroke="#000000" stroke-width="0.25" stroke-miterlimit="10" d="M928.268,89.686
	c0,0-0.148,12.096-1.305,18.256c-0.445,2.384,0.646,4.824,2.671,5.699c1.491,0.647,3.466,1.029,5.943,0.558
	c6.436-1.227,6.654-8.457,6.654-8.457l-2.171-22.058L928.268,89.686z"/>
<path fill="#808080" stroke="#000000" stroke-width="0.25" stroke-miterlimit="10" d="M940.061,83.684l-11.793,6.002
	c0,0-0.054,4.465-0.358,9.352c3.077,0.152,6.947-1.594,11.049-6.856c0.61-0.782,1.177-1.559,1.709-2.325L940.061,83.684z"/>
<path fill="#E6E6E6" stroke="#000000" stroke-width="0.25" stroke-miterlimit="10" d="M929.031,58.676c0,0-4.037,3.433-5.782,9.192
	c-1.747,5.76-3.273,9.928-3.273,9.928l1.855,1.225c0,0-1.478,8.041-0.329,10.785c1.747,4.168,9.111,7.539,17.456-1.837
	c8.346-9.376,9.055-17.649,7.637-21.693C945.176,62.23,932.305,56.593,929.031,58.676z"/>
<path fill="#121841" stroke="#000000" stroke-width="0.25" stroke-miterlimit="10" d="M941.576,67.646c0,0-3.709-3.433-9.055-1.962
	c-5.346,1.472-7.146-0.796-6.108-1.96c0,0-4.692,0.122-6.438-4.167c-1.745-4.29-1.309-17.282,6.981-14.831
	c8.292,2.45,6.617,8.333,6.617,8.333s2.658-2.818,5.166-1.347c2.508,1.471,2.182,3.554,2.182,3.554s2.292,4.78,5.455,5.394
	c3.164,0.61,2.836,7.721,2.836,7.721s1.854,1.472,0.544,6.618c-1.31,5.148-9.01,13.215-9.01,15.667c0,0-1.899-3.288-0.37-8.313
	c1.525-5.024,1.525-7.968-0.109-7.968C938.629,74.386,941.576,67.646,941.576,67.646z"/>
<path fill="#E6E6E6" stroke="#000000" stroke-width="0.25" stroke-miterlimit="10" d="M939.217,77.712c0,0,0.532-4.228,1.718-4.228
	s2.293,0.458,2.006,2.849c-0.286,2.39-1.514,5.055-3.068,3.953C938.316,79.184,939.217,77.712,939.217,77.712z"/>
<path fill="#121841" stroke="#000000" stroke-width="0.25" stroke-miterlimit="10" d="M953.395,68.295
	c-0.11-0.359-0.387-0.741-0.727-0.906c-1.112-0.529-2.595,0.614-3.57,1.406l-0.167-0.223c0.658-0.765,1.357-1.527,2.333-2.015
	c1.438-0.681,2.721,0.013,3.264,1.307L953.395,68.295z"/>
<path fill="#121841" stroke="#000000" stroke-width="0.25" stroke-miterlimit="10" d="M953.212,73.589
	c0.106-0.612,0.106-1.329-0.038-1.965c-0.709-3.181-4.156-2.905-4.324-2.998v-0.197c0.099,0.039,4.988-1.026,5.688,4.108
	c0.062,0.447,0.093,0.824,0.056,1.365L953.212,73.589z"/>
<path fill="#2F499F" stroke="#000000" stroke-width="0.25" stroke-miterlimit="10" d="M928.082,71.444
	c0,1.039-0.408,1.882-0.915,1.882c-0.505,0-0.913-0.844-0.913-1.882c0-1.042,0.408-1.885,0.913-1.885
	C927.674,69.559,928.082,70.401,928.082,71.444z"/>
<path fill="#2F499F" stroke="#000000" stroke-width="0.25" stroke-miterlimit="10" d="M930.135,69.583
	c-2.027-1.86-4.214-0.651-4.234-0.64l-0.343-1.354c0.098-0.059,2.426-1.353,4.707,0.743L930.135,69.583z"/>
<path fill="#FD7C05" stroke="#000000" stroke-width="0.25" stroke-miterlimit="10" d="M924.568,104.14l-3.814,114.446h-23.723
	l6.994-51.982l4.589-31.606c0,0,2.226-21.252,7.056-25.05C920.501,106.149,924.568,104.14,924.568,104.14z"/>
<path fill="#E6E6E6" stroke="#000000" stroke-width="0.25" stroke-miterlimit="10" d="M940.001,76.006c0,0,0.694-1.434,1.313-1.229
	c0.619,0.204,0.758,3.083-0.343,4.296C939.872,80.285,938.946,78.297,940.001,76.006z"/>
<path fill="#FD7C05" stroke="#000000" stroke-width="0.25" stroke-miterlimit="10" d="M943.611,103.514l-2.497,115.072h25.407
	c0,0,0.959-91.203-1.854-100.739C961.855,108.313,943.611,103.514,943.611,103.514z"/>
<polygon fill="#FD7C05" stroke="#000000" stroke-width="0.25" stroke-miterlimit="10" points="915.344,108.394 926.273,102.002 
	923.011,158.895 916.752,126.626 918.867,125.169 "/>
<polygon fill="#FD7C05" stroke="#000000" stroke-width="0.25" stroke-miterlimit="10" points="942.584,158.895 943.354,102.002 
	953.088,106.429 947.785,125.128 949.132,126.181 "/>
<polygon fill="#1E3340" stroke="#000000" stroke-width="0.25" stroke-miterlimit="10" points="897.748,175.09 862.526,148.157 
	899.828,144.697 928.035,175.09 "/>
<path fill="#E6E6E6" stroke="#000000" stroke-width="0.25" stroke-miterlimit="10" d="M917.366,163.656c0,0,3.827,0.875,5.241,2.421
	c1.807,1.976,6.092,5.186,7.892,5.186c1.803,0,9.471,0.766,9.471,0.766l1.289,8.62c0,0-28.616-6.694-29.965-8.166
	c-1.348-1.477,6.71,1.092,6.71,0.436s-9.704-1.396-9.205-3.051c0.501-1.655,8.956,2.229,9.707,1.41
	c0.75-0.822-10.206-2.189-10.206-3.941c0-1.751,10.904,2.531,10.904,2.531s0.202-0.891-2.75-2.312
	c-2.951-1.424-5.813-2.568-5.16-3.283c0.654-0.715,8.199,3.818,9.195,2.73L917.366,163.656z"/>
<path fill="#FD7C05" stroke="#000000" stroke-width="0.25" stroke-miterlimit="10" d="M957.666,115.623c0,0-4.16,7.77-3.328,18.963
	c0.829,11.192,2.247,28.354-0.082,33.95c-2.33,5.598-19.386,0-19.386,0v13.247c0,0,24.732,10.261,31.896,6.902
	c7.164-3.357,6.481-32.274,6.481-46.451C973.248,128.056,962.235,105.45,957.666,115.623z"/>
<path fill="#EEF1F9" stroke="#000000" stroke-width="0.25" stroke-miterlimit="10" d="M957.666,115.623
	c-2.052,4.501-3.403,11.168-2.971,18.091c0.768,10.419,3.197,33.033-1.245,36.47c-4.285,2.693-13.967,0.01-18.58-1.647
	c4.525,1.227,17.337,4.245,19.002-0.203c1.417-3.559,1.19-12.161,1.056-15.985c-0.516-16.53-2.501-22.361,0.919-32.447
	C956.341,118.427,956.925,116.981,957.666,115.623z"/>
<path fill="#2B3278" stroke="#000000" stroke-width="0.25" stroke-miterlimit="10" d="M923.45,85.653l0.329,2.082
	c4.13-0.47,6.179-4.051,6.179-4.051C927.505,86.188,923.45,85.653,923.45,85.653z"/>
<path fill="#E6E6E6" stroke="#000000" stroke-width="0.25" stroke-miterlimit="10" d="M887.379,163.31c0,0-0.497,0.62-1.285,2.524
	c-0.766,1.842,1.363,3.735,1.78,4.133c0.794,0.76,2.222,1.791,3.11,2.309c0.89,0.519,1.461,0.781,2.318,0.973
	c1.26,0.281,4.08-4.298,3.692-4.736c-0.26-0.294-0.576-0.524-0.872-0.433c-0.309,0.097-3.438,2.596-3.438,2.596
	s2.826-3.602,2.503-4.674c-0.317-1.073-0.926-0.94-1.172-0.668c-0.247,0.271-3.839,3.654-3.839,3.654s2.423-4.305,2.212-5.005
	c-0.207-0.698-1.187-1.188-2.297,0.545c-0.623,0.973-2.26,2.557-2.26,2.557s1.362-3.248,1.049-4.296
	C888.568,161.741,887.379,163.31,887.379,163.31z"/>
<path fill="#002B32" stroke="#000000" stroke-width="0.25" stroke-miterlimit="10" d="M525.925,94.97l3.648-2.462
	c0,0-9.524-15.662-8.542-29.157c0.518-7.124-11.162-17.622-14.266-15.998c-0.187-0.073-10.372,0.224-11.277,23.487l-2.168,27.257
	l11.006,9.746c0,0,6.934-11.89,15.754-6.664c8.82,5.226,11.527,5.069,11.527,5.069S525.925,97.479,525.925,94.97z"/>
<path fill="#411026" stroke="#000000" stroke-width="0.25" stroke-miterlimit="10" d="M518.393,93.082c0,0-9.735-4.847-17.511,0.4
	l0.733,5.794l8.023,17.076l7.67-1.723l3.714-18.017L518.393,93.082z"/>
<path fill="#411026" stroke="#000000" stroke-width="0.25" stroke-miterlimit="10" d="M474.529,271.301
	c0,0,35.254-13.771,68.012-0.41l-15.049-129.216l-28.822,6.496L474.529,271.301z"/>
<path fill="#E6E6E6" stroke="#000000" stroke-width="0.25" stroke-miterlimit="10" d="M557.361,374.75
	c-1.82-4.857-2.914-12.142-5.22-21.979c-0.271-1.153-0.644-2.805-1.084-4.814c-2.704-0.844-6.083,0.688-8.597,2.04
	c0.989,2.66,2.32,6.237,2.394,7.393c0.177,2.778-0.67,3.038-0.67,3.038c0.022,4.792,1.499,9.931,2.492,10.926
	c1.275,1.273,2.695,7.594,3.91,7.594c1.214,0,11.471,1.13,11.471,1.13C562.329,377.739,559.183,379.608,557.361,374.75z"/>
<path fill="#E6E6E6" stroke="#000000" stroke-width="0.25" stroke-miterlimit="10" d="M504.829,372
	c-0.537-1.668-1.07-8.935-1.497-18.486c-2.674-0.036-5.675-0.954-8.509-0.39c0.216,1.313,0.716,3.581,0.716,3.937
	c0,3.464-1.688,2.177-2.303,4.667c-0.408,1.651,1.198,4.797,1.198,4.797c2.368,0,3.365,8.435,4.519,10.886
	c0.666,1.419,3.695,2.09,7.155,2.09c2.693,0,2.241-0.704,0.242-4.148C505.78,374.371,505.233,373.252,504.829,372z"/>
<path fill="#292C47" stroke="#000000" stroke-width="0.25" stroke-miterlimit="10" d="M539.753,270.565
	c-0.338-1.466-9.763-81.273-13.291-110.722l-19.022-0.664l-10.51,43.542l25.012,78.844c-0.851,7.286-0.523,13.163,1.783,23.119
	c1.904,8.22,9.713,35.695,14.386,48.257c2.514-1.354,10.216-4.035,12.945-4.986C540.417,282.054,543.331,285.972,539.753,270.565z"
	/>
<path fill="#292C47" stroke="#000000" stroke-width="0.25" stroke-miterlimit="10" d="M506.012,278.724l15.93-89.497l-1.92-30.64
	h-15.587c0,0-15.614,16.875-19.125,38.248c-3.511,21.374,3.001,82.267,3.001,82.267s-0.681,7.651-2.243,14.208
	c-1.632,6.859,1.254,49.852,3.12,61.188c2.832-0.567,12.73-0.85,15.404-0.813c-1.019-22.813-2.7-58.835-1.158-62.558
	C504.446,288.676,505.342,283.534,506.012,278.724z"/>
<polygon fill="#646225" stroke="#000000" stroke-width="0.25" stroke-miterlimit="10" points="527.008,163.018 501.237,162.46 
	504.435,158.587 527.008,158.587 "/>
<path fill="#FD7C05" stroke="#000000" stroke-width="0.25" stroke-miterlimit="10" d="M544.182,133.761
	c-0.02-0.017-0.04-0.034-0.059-0.051c0.495-1.229,1.212-2.694-0.335-3.772c-2.116-1.472-2.038-0.406-2.038-3.673
	c0-3.051-0.82-3.498-3.164-4.247c-0.084-0.276-0.167-0.554-0.25-0.834c-2.94-10.05-11.935-25.338-14.737-26.537
	c-2.803-1.198-3.52,6.428-3.52,6.428l9.232,29.25c0,0,2.297,4.062,5.545,8.648c0.668,1.251,1.336,2.18,1.958,2.663
	c0.641,0.838,1.304,1.671,1.982,2.479l6.998-4.773L544.182,133.761z"/>
<polygon fill="#1D1B22" stroke="#000000" stroke-width="0.25" stroke-miterlimit="10" points="496.101,367.686 496.245,379.01 
	494.985,379.04 493.403,366.129 "/>
<path fill="#7F71A4" stroke="#000000" stroke-width="0.25" stroke-miterlimit="10" d="M522.857,94.97c0,0-5.723-4.432-25-0.385
	c-0.943,0.198-2.37,22.372-2.37,22.372s6.428,34.668,4.61,43.846c0,0,13.563,11.255,29.618,3.416c0,0-1.986-28.899-0.509-35.33
	c1.479-6.432,4.407-12.258,0.301-18.95S522.857,94.97,522.857,94.97z"/>
<path fill="#FD5E5A" stroke="#000000" stroke-width="0.25" stroke-miterlimit="10" d="M531.089,162.538c0,0-0.395,0.699-1.047,1.353
	c-0.652,0.652-6.146,2.473-6.146,2.473l3.277-1.912C527.172,164.452,531.089,161.992,531.089,162.538z"/>
<path fill="#393644" stroke="#000000" stroke-width="0.25" stroke-miterlimit="10" d="M495.341,358.695
	c1.042,6.334,4.175,16.396,7.557,17.821c3.596,0.691,3.472,1.046,3.455-1.165c1.997,3.441,4.267,5.208,1.573,5.208
	c-3.46,0-8.858,0.21-9.525-1.21c-1.152-2.449-1.782-11.719-4.151-11.719l0.737,11.409l-1.258,0.035c0,0-1.862-15.714-1.454-17.282
	C492.834,359.641,494.673,359.081,495.341,358.695z"/>
<path fill="#393644" stroke="#000000" stroke-width="0.25" stroke-miterlimit="10" d="M558.638,377.021
	c2.405,2.248,6.275,1.767,6.057,3.643c0,0-13.283-0.57-14.498-0.57c-1.215,0-2.246-7.468-3.521-8.741
	c-1.275-1.275-0.485,8.741-0.485,8.741h-1.31c0,0-0.877-10.321-2.091-14.327c-0.966-3.191,0.409-4.533,1.394-5.34
	C548.17,368.051,548.591,378.806,558.638,377.021z"/>
<path fill="#FD7C05" stroke="#000000" stroke-width="0.25" stroke-miterlimit="10" d="M500.882,93.482
	c0,0,12.74,125.753-0.728,162.33c-7.857,21.34-15.551,23.057-20.6,20.78c-3.687-1.662-5.886-5.511-5.847-9.554
	c0.137-13.91,1.315-58.813,10.564-90.058c11.217-37.898,5.743-42.612,5.743-48.878c0-10.856,1.684-26.608,4.237-32.794
	C494.604,94.452,500.882,93.482,500.882,93.482z"/>
<path fill="#AB99A1" stroke="#000000" stroke-width="0.25" stroke-miterlimit="10" d="M508.743,92.286
	c2.166-0.038,4.622,0.716,8.656,1.155c0.375,0.041,0.59-0.403,0.994-0.359c-4.155-3.976-19.924-6.09-20.835,0.672
	c-6.214,46.094,8.993,132.443,2.596,162.058c14.667-29.734,11.631-110.536,2.977-156.771
	C502.374,94.997,504.63,92.358,508.743,92.286z"/>
<path fill="#FD7C05" stroke="#000000" stroke-width="0.25" stroke-miterlimit="10" d="M518.393,93.082
	c8.869,10.023,12.522,173.984,24.148,177.809c0,0-0.645-47.898-0.645-59.938c0-12.039-5.288-91.669-7.814-98.355
	c-2.527-6.687-10.482-17.951-10.482-17.951L518.393,93.082z"/>
<path fill="#AB99A1" stroke="#000000" stroke-width="0.25" stroke-miterlimit="10" d="M518.393,93.082
	c-0.13-0.131-1.444-0.753-1.346-0.543c5.082,10.849,7.49,109.491,19.46,160.085C534.886,231.6,528.602,103.698,518.393,93.082z"/>
<path fill="#E6E6E6" stroke="#000000" stroke-width="0.25" stroke-miterlimit="10" d="M537.35,139.749
	c0,0,0.586,19.492-9.342,23.523c-9.929,4.032-11.751,8.425-10.965,8.913c0.787,0.488,1.61-1.86,2.587-1.899
	c0.98-0.039,0.538,1.803-1.023,2.582c-1.558,0.78-4.139,0.291-3.896,0.925c0.243,0.634,3.506,0.974,5.844-0.681
	c2.338-1.657,0.732,0.292-0.243,0.681c-0.974,0.389-4.517,0.377-3.896,0.998c0.621,0.623,5.518,0.704,7.479-0.538
	c1.96-1.241,10.141-8.726,12.051-10.634c1.908-1.909,9.982-18.952,9.982-23.334C545.929,135.9,537.691,133.855,537.35,139.749z"/>
<path fill="#FC7575" stroke="#000000" stroke-width="0.25" stroke-miterlimit="10" d="M515.485,171.381l0.743-0.53
	c0,0,3.087,0.031,4.382-0.605c1.293-0.636,2.877-0.612,2.293,0c-0.586,0.615-3.513,1.281-2.928,2.869
	C520.56,174.701,515.485,171.381,515.485,171.381z"/>
<g>
	<path fill="#FD7C05" stroke="#000000" stroke-width="0.25" stroke-miterlimit="10" d="M526.561,172.244
		c-0.553,0.341-1.729,0.479-2.947,0.897c-1.221,0.419,5.519-2.55,5.519-3.526c0-0.979-5.645,2.013-7.285,2.712
		c-1.867,0.793-4.835-0.59-5.62-1.477c0,0-23.256-7.799-29.43-12.176c-0.555-0.395-1.985-2.408-1.816-3.92
		c-3.969,0.357-7.872,1.192-11.408,3.093c0.042,2.438-0.651,5.412,0,6.611c4.032,7.424,30.281,10.206,35.798,10.206
		s10.923,1.316,12.458,1.316c1.534,0,8.668-3.908,8.88-5.735C530.908,168.531,527.289,171.794,526.561,172.244z"/>
	<path fill="#FD7C05" stroke="#000000" stroke-width="0.25" stroke-miterlimit="10" d="M487.54,134.48
		c4.032-4.548,5.432-16.648,5.432-25.147c0-8.5-1.33-14.025-1.33-14.025s-8.949-0.354-13.929,9.219
		c-5.229,10.049-12.31,20.378-5.603,52.695c3.536-1.901,8.903-2.11,12.872-2.467C485.893,146.622,484.142,138.316,487.54,134.48z"/>
	<g>
		<path fill="#FD7C05" stroke="#000000" stroke-width="0.25" stroke-miterlimit="10" d="M471.412,154.947
			c0,0-0.807,2.574-0.003,3.419c0.806,0.846-0.176,2.766,0.361,3.84c0.537,1.076,9.302-1.728,13.449-2.906
			c4.148-1.178,1.574-2.611,1.08-4.147c-0.493-1.536,0.066-2.331-0.883-3.329C484.462,150.826,472.143,152.131,471.412,154.947z"/>
		<path fill="#FD7C05" stroke="#000000" stroke-width="0.25" stroke-miterlimit="10" d="M472.484,158.675
			c3.16-1.268,9.112-3.322,12.46-2.832c0.526,0.077,0.396,0.919-0.129,0.808c-0.086,0-1.74-0.534-6.188,0.376
			C476.558,157.446,474.505,158.009,472.484,158.675z"/>
	</g>
</g>
<path fill="#E6E6E6" stroke="#000000" stroke-width="0.25" stroke-miterlimit="10" d="M515.368,77.104
	c0.444,0.443-1.353,13.257,0.423,16.81c0,0,4.673,18.322,1.499,18.703c-2.76,0.329-12.766-14.782-13.315-17.313
	c-0.74-3.404,0-20.421,0-20.421L515.368,77.104z"/>
<path fill="#808080" stroke="#000000" stroke-width="0.25" stroke-miterlimit="10" d="M515.184,82.409
	c-4.214,3.813-8.186,2.079-11.384-2.703c0.073-2.408,0.169-4.683,0.174-4.823l11.394,2.221
	C515.55,77.285,515.355,79.553,515.184,82.409z"/>
<path fill="#E6E6E6" stroke="#000000" stroke-width="0.25" stroke-miterlimit="10" d="M514.038,48.305c0,0,5.338,1.018,5.974,5.592
	c0.635,4.576,1.524,8.389,0.635,13.729c-0.89,5.337-4.067,12.456-9.278,13.599c-5.212,1.144-10.676-7.498-10.676-12.201
	s-1.907-12.583,1.651-17.415C505.903,46.779,514.038,48.305,514.038,48.305z"/>
<path fill="#FFFFFF" stroke="#000000" stroke-width="0.25" stroke-miterlimit="10" d="M508.01,72.922
	c2.811,1.225,6.971,1.254,6.971,1.254s-0.294,0.571-0.804,1.186c-1.217-0.067-3.597-0.284-5.559-0.984
	C508.208,73.592,508.01,72.922,508.01,72.922z"/>
<path fill="#2E0A29" stroke="#000000" stroke-width="0.25" stroke-miterlimit="10" d="M508.619,74.378
	c1.961,0.7,4.341,0.917,5.559,0.984C512.189,77.733,510.08,77.16,508.619,74.378z"/>
<path fill="#FD5E5A" stroke="#000000" stroke-width="0.25" stroke-miterlimit="10" d="M520.012,53.897
	c0.577,4.147,1.361,7.669,0.839,12.268c-0.848-0.588-2.055-1.177-3.751-1.737c-4.706-1.549-9.547-7.705-10.179-14.153
	c0.001-0.128-0.005-2.699,1.294-3.998C513.558,44.16,519.224,48.223,520.012,53.897z"/>
<path fill="#172866" stroke="#000000" stroke-width="0.25" stroke-miterlimit="10" d="M514.089,69.846
	c-0.143-1.459-0.239-2.922-0.226-4.393c0.326,1.864,0.401,3.222,0.512,4.576c-0.778,0.212-1.708,0.646-2.881,0.204
	C512.387,70.404,513.274,70.149,514.089,69.846z"/>
<path fill="#172866" stroke="#000000" stroke-width="0.25" stroke-miterlimit="10" d="M511.199,65.314
	c-0.265-0.842-0.985-1.646-1.965-1.91c-1.744-0.454-2.809,2.058-4.003,2.033c0.858,0.439,2.232-1.029,3.176-1.402
	c0.511-0.208,0.964-0.064,1.47,0.175C510.366,64.463,510.806,64.855,511.199,65.314z"/>
<ellipse fill="#172866" stroke="#000000" stroke-width="0.25" stroke-miterlimit="10" cx="508.889" cy="64.558" rx="0.849" ry="0.96"/>
<path fill="#172866" stroke="#000000" stroke-width="0.25" stroke-miterlimit="10" d="M515.075,65.859
	c0.303-0.829,1.056-1.599,2.048-1.817c1.763-0.376,2.713,2.179,3.908,2.208c-0.877,0.4-2.184-1.126-3.109-1.542
	c-0.503-0.23-0.962-0.106-1.476,0.108C515.944,65.048,515.487,65.42,515.075,65.859z"/>
<ellipse transform="matrix(0.999 0.0449 -0.0449 0.999 3.453 -23.1853)" fill="#172866" stroke="#000000" stroke-width="0.25" stroke-miterlimit="10" cx="517.415" cy="65.209" rx="0.848" ry="0.959"/>
<path fill="#172866" stroke="#000000" stroke-width="0.25" stroke-miterlimit="10" d="M511.816,61.246
	c0.189-0.124-1.333-1.653-3.157-1.825c-1.825-0.172-3.797,1.825-3.797,1.825s2.688-1.603,3.823-1.085
	C509.82,60.678,510.764,61.929,511.816,61.246z"/>
<path fill="#1B2B80" stroke="#000000" stroke-width="0.25" stroke-miterlimit="10" d="M509.32,44.43
	c-3.89,0.445-10.054-0.508-12.927,5.845c-1.696,3.607-5.169,10.559-5.169,22.916c0,18.407-17.759,26.556-17.759,26.556l7.784,3.76
	l4.647-3.76l-3.169,6.76l12.761,1.274l0.544-8.817l2.637,10.025l5.965-1.208c0,0-2.351-30.125-2.609-41.5
	c0.042,0.047,0.065,0.074,0.065,0.074s-0.054-1.465-0.056-3.349c0-0.004,0-0.008,0-0.012c0.029-0.553,0.032-1.12,0.012-1.693
	c0.031-1.81,0.127-3.716,0.36-4.988c0.572-3.112,1.715-4.702,4.513-6.037c2.796-1.333,12.809,2.468,12.809,2.468
	C519.385,46.947,513.211,43.983,509.32,44.43z"/>
<path fill="#2F499F" stroke="#000000" stroke-width="0.25" stroke-miterlimit="10" d="M514.532,45.479
	c4.893,1.079,6.37,8.61,10.373,12.613c4.004,4.003,2.986,9.787,1.082,13.6c-1.908,3.813-4.963,1.335-4.963,1.335
	s1.594,0.89,2.611-2.288c1.017-3.177-0.762-5.656-6.165-7.436c-5.402-1.779-10.549-13.029-10.549-13.029
	C506.785,48.076,509.639,44.398,514.532,45.479z"/>
<path fill="#023135" stroke="#000000" stroke-width="0.25" stroke-miterlimit="10" d="M521.023,73.027
	c1.855,1.082,4.471-3.462,2.563-6.43c-1.388-2.294-4.43-3.259-6.862-4.266c-3.854-2.212-7.559-8.324-9.803-12.057
	c1.628,4.456,5.078,10.634,9.238,13.097l1.002,0.433c1.028,0.415,4.159,1.259,5.67,3.295c1.218,1.6,0.636,4.083-0.173,5.259
	C522.313,72.866,521.684,73.266,521.023,73.027z"/>
<path fill="#E6E6E6" stroke="#000000" stroke-width="0.25" stroke-miterlimit="10" d="M503.109,66.925c0,0-1.361-5.9-3.626-4.474
	c-2.263,1.425,0.167,7.958,2.278,7.958C503.871,70.409,503.109,66.925,503.109,66.925z"/>
<path fill="#E6E6E6" stroke="#000000" stroke-width="0.25" stroke-miterlimit="10" d="M500.909,63.691c0,0,3.343,5.363,1.048,4.772
	C499.665,67.873,498.758,62.694,500.909,63.691z"/>
<path fill="#292C47" stroke="#000000" stroke-width="0.25" stroke-miterlimit="10" d="M445.89,239.045
	c0,0,11.454,117.081,14.316,129.576v7.896h21.962c0,0-1.328-2.632-3.809-2.632c-2.482,0-8.755-2.852-10.473-4.825
	c-1.719-1.972,1.082-163.779,1.082-163.779H441.69L445.89,239.045z"/>
<path fill="#292C47" stroke="#000000" stroke-width="0.25" stroke-miterlimit="10" d="M464.406,215.345l-7.249,12.153
	c0,0-27.109,108.397-25.773,143.958c0,0,2.571,4.216,11.644,6.712c0.489,0.132,0.954,1.786,0.954,1.786h-23.669l1.338-7.156
	c0,0,0.763-120.997,0.763-135.089c0-14.088,3.817-32.429,3.817-32.429h39.703L464.406,215.345z"/>
<path fill="#FD7C05" stroke="#000000" stroke-width="0.25" stroke-miterlimit="10" d="M423.652,96.563c0,0-4.764,1.472-6.785,8.896
	c-2.889,10.601-0.668,56.964,10.858,64.736c0.451,0.305,19.288-11.521,19.288-11.521l-10.984-12.199l6.417-8.249L423.652,96.563z"/>
<path fill="#FD7C05" stroke="#000000" stroke-width="0.25" stroke-miterlimit="10" d="M472.552,100.026c0,0,3.581,2.29,6.276,13.229
	c2.695,10.94,5.867,47.645,4.282,49.231c-1.586,1.584-9.831,0-9.831,0l-3.886-52.006L472.552,100.026z"/>
<path fill="#FD7C05" stroke="#000000" stroke-width="0.25" stroke-miterlimit="10" d="M427.141,112.542
	c0,0,6.977,31.708,5.391,39.955c-1.586,8.244-11.734,55.81-11.734,55.81h54.543c0,0,1.902-52.321,0-64.372
	c-1.903-12.05-0.951-38.053-2.537-43.444c-1.587-5.39-45.209-6.073-49.151-3.928L427.141,112.542z"/>
<path fill="#E6E6E6" stroke="#000000" stroke-width="0.25" stroke-miterlimit="10" d="M460.328,147.112l6.661,0.206
	c0,0,1.585-2.219,2.538-2.59c0.951-0.371,3.699,0.105,4.809,2.034c1.11,1.929,1.533,4.928,1.85,6.091
	c0.317,1.162-2.697,0.595-4.545,0.595c-1.851,0-12.739,1.274-12.739,1.274L460.328,147.112z"/>
<path fill="#E6E6E6" stroke="#000000" stroke-width="0.25" stroke-miterlimit="10" d="M437.049,149.961c0,0-0.169-0.145-0.463-0.402
	c-1.125-0.981-4.094-3.601-6.515-6.021c-3.052-3.052-7.293-6.579-7.293-4.994c0,1.585,7.997,7.563,7.293,8.266
	c-0.702,0.703-9.115-4.536-8.561-2.754c0.555,1.782,9.092,5.032,7.755,5.587c-1.333,0.554-6.09-2.22-6.09-0.793
	c0,1.428,9.353,4.598,12.129,4.598C438.079,153.447,437.049,149.961,437.049,149.961z"/>
<path fill="#FD7C05" stroke="#000000" stroke-width="0.25" stroke-miterlimit="10" d="M451.241,160.741
	c0.95,0,29.648,5.075,31.869,1.746c0,0,1.539-6.501,0.294-9.039c-1.247-2.536-22.967-1.188-22.967-1.188L451.241,160.741z"/>
<path fill="#FD7C05" stroke="#000000" stroke-width="0.25" stroke-miterlimit="10" d="M424.308,156.859c0,0,0.056-0.2,0.181-0.54
	c0.624-1.696,2.974-6.877,8.698-8.022c6.87-1.375,28.75-3.277,28.75-3.277v9.935c0,0-28.434,15.546-33.084,15.546
	C424.202,170.5,424.308,156.859,424.308,156.859z"/>
<path fill="#E6E6E6" stroke="#000000" stroke-width="0.25" stroke-miterlimit="10" d="M459.877,81.918l-1.705,17.329
	c-0.35,3.561-2.912,6.171-5.869,6.015c-0.747-0.041-1.531-0.114-2.32-0.234c-3.955-0.601-7.653-3.95-6.852-8.68
	c1.028-6.066,3.377-16.155,3.334-21.48C446.396,66.153,459.877,77.472,459.877,81.918z"/>
<path fill="#808080" stroke="#000000" stroke-width="0.25" stroke-miterlimit="10" d="M446.466,74.867
	c-0.07-8.714,13.411,2.604,13.411,7.051l-0.997,10.13c-1.359-0.226-4.266-0.798-6.913-1.896c-3.607-1.497-6.185-7.447-6.299-7.546
	C446.147,79.655,446.482,76.91,446.466,74.867z"/>
<path fill="#0F1D5B" stroke="#000000" stroke-width="0.25" stroke-miterlimit="10" d="M477.204,53.227
	c-3.906,2.454-11.555,6.005-14.4,2.415c2.536,4.108,10.996,1.404,15.407-0.64L477.204,53.227z"/>
<path fill="#E6E6E6" stroke="#000000" stroke-width="0.25" stroke-miterlimit="10" d="M465.056,64.225c0,0,4.806-3.547,3.996-0.438
	c-0.809,3.108-3.218,9.788-5.745,7.153C460.78,68.306,465.056,64.225,465.056,64.225z"/>
<path fill="#E6E6E6" stroke="#000000" stroke-width="0.25" stroke-miterlimit="10" d="M456.126,49.124
	c0.646,0.642,7.778,0.135,10.11,7.455c2.333,7.32-0.346,24.079-4.883,28.574c-4.537,4.495-9.721,1.67-13.741-5.908
	c-4.018-7.579-11.833-17.319-6.092-24.532C444.572,50.882,456.126,49.124,456.126,49.124z"/>
<path fill="#0F1D5B" stroke="#000000" stroke-width="0.25" stroke-miterlimit="10" d="M457.236,52.377
	c0.648,3.853,4.506,9.143,13.71,3.364c9.202-5.779,7.388-13.1,7.388-13.1s-4.666,6.036-7.517,4.751
	c-2.853-1.284-0.779-8.476-0.779-8.476s-10.369-0.771-12.314-0.771c-1.943,0-3.921,6.038-3.921,6.038s1.329-2.697-8.911-3.595
	c-10.242-0.901-4.24,14.315-5.407,19.582c-1.165,5.266,5.795,14.582,5.795,17.664c0,3.083-1.685,5.009-1.685,5.009
	s2.205,0.514,4.149-4.88c1.943-5.394-1.61-13.35-1.61-17.46c0-4.994,2.359-6.787,4.455-8.328
	C452.148,51.023,456.588,48.524,457.236,52.377z"/>
<path fill="#E6E6E6" stroke="#000000" stroke-width="0.25" stroke-miterlimit="10" d="M446.786,66.319c0,0,3.124,6.103,0.912,5.628
	c-2.211-0.476-6.573-3.619-5.611-7.968C443.049,59.63,446.786,66.319,446.786,66.319z"/>
<path fill="#E6E6E6" stroke="#000000" stroke-width="0.25" stroke-miterlimit="10" d="M446.612,66.84
	c-0.469-0.707-2.312-2.182-3.084-1.418c-1.798,1.783,4.104,6.875,4.104,5.518C447.632,69.58,447.195,67.72,446.612,66.84z"/>
<ellipse fill="#2F499F" stroke="#000000" stroke-width="0.25" stroke-miterlimit="10" cx="457.155" cy="64.039" rx="1.397" ry="1.895"/>
<ellipse fill="#2F499F" stroke="#000000" stroke-width="0.25" stroke-miterlimit="10" cx="465.303" cy="64.039" rx="1.399" ry="1.895"/>
<path fill="#2F499F" stroke="#000000" stroke-width="0.25" stroke-miterlimit="10" d="M457.191,78.414
	c-1.731-0.895-2.543-2.511-2.497-2.447c-0.231-0.383-0.845-0.031-0.583,0.34c0.78,1.095,1.649,1.897,2.903,2.431
	c1.805,0.789,3.788,0.743,3.782,0.635c-0.001-0.022-0.02-0.041-0.043-0.041C460.342,79.274,458.953,79.351,457.191,78.414z"/>
<path fill="#2F499F" stroke="#000000" stroke-width="0.25" stroke-miterlimit="10" d="M457.154,57.507l0.426,1.21
	c0,0-2.068-0.685-3.481,1.007C454.099,59.724,455.456,57.225,457.154,57.507z"/>
<path fill="#2F499F" stroke="#000000" stroke-width="0.25" stroke-miterlimit="10" d="M466.702,60.168c0,0-1.499-0.967-2.527-0.967
	l0.551-0.917C464.726,58.283,466.702,59.121,466.702,60.168z"/>
<path fill="#2F499F" stroke="#000000" stroke-width="0.25" stroke-miterlimit="10" d="M463.051,74.942
	c-0.003-0.065,1.874-5.366-0.486-13.671c-0.117-0.411-0.778-0.247-0.662,0.165c0.021,0.075,2.049,7.357,0.651,12.747
	c-2.011-0.3-2.756-0.805-2.881-0.251C459.546,74.491,460.441,74.303,463.051,74.942z"/>
<polygon fill="#D24307" stroke="#000000" stroke-width="0.25" stroke-miterlimit="10" points="680.593,158.255 690.668,156.946 
	692.888,166.865 682.055,169.263 "/>
<path fill="#FD7C05" stroke="#000000" stroke-width="0.25" stroke-miterlimit="10" d="M628.811,91.046
	c-4.226,1.267-11.72,19.108-9.701,29.242c2.019,10.136,17.024,47.082,21.515,51.571c4.487,4.489,46.494-3.051,46.494-3.051
	l-1.558-12.754c0,0-27.262,0-27.905-1.546C654.609,147.196,633.035,89.78,628.811,91.046z"/>
</svg>
