<?xml version="1.0" encoding="utf-8"?>
<!-- Generator: Adobe Illustrator 16.0.0, SVG Export Plug-In . SVG Version: 6.00 Build 0)  -->
<!DOCTYPE svg PUBLIC "-//W3C//DTD SVG 1.1//EN" "http://www.w3.org/Graphics/SVG/1.1/DTD/svg11.dtd">
<svg version="1.1" id="Layer_1" xmlns="http://www.w3.org/2000/svg" xmlns:xlink="http://www.w3.org/1999/xlink" x="0px" y="0px"
	 width="80px" height="45px" viewBox="0 0 80 45" enable-background="new 0 0 80 45" xml:space="preserve">
<path fill="#FD7C05" stroke="#000000" stroke-width="0.25" stroke-miterlimit="10" d="M-175.983-24.397
	c-0.509,0-0.931-0.022-1.325-0.069c-1.674-0.199-2.88-1.629-2.933-3.477l-0.001-0.074c-0.06-2.119-0.123-4.31,0.583-6.481
	c0.369-1.135,0.466-2.406,0.53-3.508c0.093-1.63,0.919-2.796,2.388-3.373c1.548-0.607,3.356-1.289,5.222-1.692
	c2.765-0.598,5.181-1.734,7.389-3.475c4.681-3.69,10.248-5.587,16.549-5.639c0.205-0.001,0.41-0.002,0.615-0.002
	c7.82,0,14.376,1.301,20.04,3.979c2.363,1.117,4.783,2.578,7.616,4.598c1.527,1.089,3.197,1.754,5.415,2.155
	c3.582,0.648,7.095,1.596,10.061,2.439c2.029,0.576,3.413,1.686,4.113,3.298c0.024,0.055,0.056,0.109,0.087,0.164
	c0.096,0.168,0.213,0.377,0.245,0.64c0.076,0.643,0.18,1.3,0.282,1.937c0.317,1.995,0.646,4.058,0.197,6.183
	c-0.409,1.942-0.955,2.389-2.922,2.39h-4.617l0.095-0.678c0.555-3.97-0.786-6.859-4.097-8.831c-2.641-1.572-5.416-1.541-8.019,0.089
	c-3.188,1.996-4.465,4.915-3.799,8.676l0.124,0.699h-17.671h-17.671l0.105-0.686c0.507-3.297-0.687-5.555-1.777-6.868
	c-1.478-1.779-3.706-2.926-5.815-2.994c-2.654-0.084-5.141,1.044-6.778,3.072c-1.539,1.905-2.125,4.373-1.609,6.769l0.154,0.721
	h-0.736c-0.337,0-0.673,0.01-1.008,0.019C-175.298-24.407-175.642-24.397-175.983-24.397z M-146.966-50.996
	c-0.202,0-0.404,0.001-0.606,0.002c-6.115,0.05-11.29,1.811-15.822,5.384c-2.353,1.854-4.928,3.066-7.874,3.703
	c-1.779,0.385-3.534,1.047-5.039,1.637c-1.033,0.405-1.567,1.168-1.633,2.333c-0.068,1.176-0.175,2.538-0.587,3.807
	c-0.642,1.976-0.585,3.969-0.525,6.079l0.002,0.075c0.036,1.262,0.793,2.198,1.884,2.328c0.345,0.041,0.721,0.061,1.183,0.061
	c0.331,0,0.663-0.01,0.996-0.02c0.112-0.003,0.224-0.006,0.335-0.009c-0.344-2.522,0.357-5.059,1.972-7.059
	c1.872-2.317,4.701-3.606,7.743-3.513c2.438,0.078,5.002,1.39,6.692,3.424c1.168,1.407,2.442,3.757,2.123,7.123h16.288h16.288
	c-0.471-3.905,1.056-7.073,4.444-9.194c2.979-1.865,6.237-1.902,9.259-0.103c3.524,2.098,5.119,5.239,4.745,9.341h3.266
	c1.399,0,1.464-0.054,1.757-1.444c0.403-1.909,0.106-3.775-0.208-5.75c-0.103-0.648-0.209-1.318-0.289-1.984
	c-0.007-0.032-0.061-0.128-0.098-0.191c-0.052-0.092-0.103-0.184-0.144-0.278c-0.558-1.287-1.653-2.146-3.346-2.627
	c-2.937-0.834-6.415-1.774-9.946-2.413c-2.399-0.434-4.217-1.161-5.895-2.358c-2.773-1.978-5.135-3.404-7.433-4.491
	C-133.013-49.769-139.22-50.996-146.966-50.996z M-123.828-40.358L-123.828-40.358c-1.803-0.041-3.605-0.115-5.35-0.187
	l-0.791-0.033c-0.966-0.039-1.934-0.082-2.901-0.125c-2.227-0.099-4.529-0.201-6.792-0.257c-1.137-0.028-1.695-0.547-1.807-1.685
	c-0.113-1.128-0.271-2.277-0.423-3.388c-0.076-0.552-0.152-1.103-0.223-1.655c-0.024-0.188-0.03-0.368-0.039-0.619
	c-0.004-0.137-0.01-0.3-0.02-0.503l-0.033-0.718l0.711,0.1c0.65,0.093,1.289,0.17,1.919,0.247c1.396,0.169,2.715,0.33,4.036,0.624
	c4.224,0.938,8.293,2.844,12.094,5.665c0.028,0.021,0.06,0.041,0.09,0.061c0.132,0.086,0.312,0.204,0.442,0.404
	c0.138,0.214,0.242,0.431,0.342,0.641c0.038,0.078,0.074,0.157,0.114,0.234l0.292,0.578l-0.601,0.243
	c-0.073,0.03-0.146,0.068-0.219,0.107C-123.211-40.505-123.494-40.358-123.828-40.358z M-140.956-48.151
	c0.004,0.125,0.01,0.223,0.022,0.313c0.071,0.549,0.146,1.097,0.221,1.645c0.154,1.122,0.314,2.282,0.429,3.433
	c0.054,0.542,0.115,0.599,0.653,0.612c2.273,0.056,4.583,0.159,6.815,0.257c0.965,0.043,1.931,0.085,2.896,0.125l0.792,0.033
	c1.738,0.071,3.536,0.145,5.301,0.186c0.01-0.001,0.025-0.005,0.042-0.011c-0.037-0.07-0.074-0.137-0.114-0.201
	c-0.023-0.019-0.072-0.051-0.106-0.073c-0.05-0.033-0.101-0.066-0.147-0.101c-3.667-2.72-7.583-4.557-11.644-5.459
	c-1.265-0.281-2.555-0.438-3.922-0.604C-140.127-48.047-140.54-48.097-140.956-48.151z M-143.3-41.482h-19.208l-0.385-1.032
	l0.224-0.265c0.066-0.079,0.13-0.159,0.194-0.239c0.154-0.193,0.314-0.393,0.505-0.58c2.753-2.695,6.246-4.407,10.681-5.235
	c1.594-0.298,3.232-0.414,4.815-0.526l0.793-0.054c0.496,0,1.334,0.443,1.43,1.032c0.262,1.615,0.475,3.255,0.68,4.842
	c0.06,0.463,0.12,0.925,0.18,1.385L-143.3-41.482z M-161.21-42.672h16.552c-0.031-0.238-0.062-0.476-0.092-0.715
	c-0.2-1.542-0.406-3.134-0.657-4.695c-0.074-0.058-0.208-0.127-0.277-0.14l-0.705,0.051c-1.55,0.11-3.154,0.224-4.682,0.509
	c-4.195,0.783-7.487,2.391-10.066,4.916C-161.162-42.724-161.186-42.698-161.21-42.672z"/>
<g>
	<g>
		<g>
			<path fill-rule="evenodd" clip-rule="evenodd" fill="#FD7C05" d="M77.396-74.319c-0.273-0.422-0.378-1.11-0.639-1.513
				c1.069-0.565,2.415-0.532,3.64-0.767c4.404-0.847,8.079,0.031,11.536,2.885c0.256,0.211,0.747,0.135,0.977-0.057
				c2.798-2.341,5.88-3.965,9.521-3.812c6.533,0.276,11.687,5.671,12.524,12.157c0.59,4.566-0.569,8.337-3.813,11.6
				c-5.852,5.885-11.557,11.913-17.446,17.76c-0.777,0.77-1.652,0.67-2.42-0.092c-4.172-4.14-8.257-8.365-12.426-12.506
				c-0.067-0.066-0.315,0.247-0.385,0.175c0.823,0.156,1.7-0.103,2.508,0.066c0.114,0.023-0.095,0.601-0.003,0.692
				c3.618,3.59,7.274,7.141,10.89,10.732c0.339,0.336,0.735,0.274,1.064-0.054c5.838-5.796,11.444-11.824,17.282-17.62
				c1.136-1.129,1.807-2.487,2.449-3.953c0.043-0.099,0.431-0.052,0.467-0.153c0.007-0.019-0.049-0.428-0.059-0.478
				c-0.568,0-1.171,0.256-1.743,0.256c-1.404,0-2.803,0.247-4.205,0.283c-0.69,0.018-1.5-0.264-1.809-0.821
				c-0.307-0.554-0.496-1.199-0.762-1.775c-0.069-0.151,0.474-0.229,0.379-0.44c-0.311,0.84-0.61,1.531-0.899,2.316
				c-0.416,1.136-1.355,2.079-1.774,3.214c-0.223,0.608-0.38,0.604-0.93,0.546c-0.493-0.051-0.776-0.073-0.89-0.675
				c-0.46-2.472-1.294-4.863-1.772-7.425c-0.059,0.169,0.335,0.229,0.313,0.315c-0.261,1.071-0.936,2.04-1.197,3.11
				c-0.198,0.813-0.653,1.711-1.48,1.713c-1.463,0.003-2.927-0.265-4.39-0.266c-0.096,0-0.275,0.037-0.395,0.031
				c-0.095-0.468-0.172-1.074-0.271-1.572c0.84,0,1.713,0.372,2.514,0.372c0.792,0,1.581-0.069,2.372-0.057
				c0.318,0.004,0.255-0.382,0.327-0.695c0.396-1.679,0.727-3.375,1.132-5.051c0.158-0.655,0.904-1.368,1.449-1.342
				c0.542,0.026,0.512,0.893,0.633,1.542c0.478,2.568,1.537,5.027,2.018,7.594c0.006,0.031-0.384-0.25-0.344-0.136
				c0.07-0.181,0.497,0.117,0.539,0.001c0.617-1.675,1.434-3.276,2.053-4.949c0.194-0.526,0.194-0.585,0.675-0.542
				c0.463,0.042,1.146-0.215,1.328,0.206c0.369,0.858,0.287,1.909,0.648,2.771c0.13,0.311,0.406,0.005,0.775,0.001
				c1.955-0.021,3.911,0.721,5.865,0.734c0.283,0.001,0.712-0.344,0.778-0.62c1.687-7.065-3.32-14.304-10.529-15.303
				c-3.669-0.508-6.961,0.711-9.809,3.068c-0.884,0.732-1.766,0.975-2.666,0.256c-4.09-3.256-8.278-3.974-13.081-1.893
				C77.84-74.453,77.449-74.342,77.396-74.319z"/>
			<path fill="none" stroke="#000000" stroke-width="0.25" stroke-miterlimit="10" d="M77.396-74.319
				c-0.273-0.422-0.378-1.11-0.639-1.513c1.069-0.565,2.415-0.532,3.64-0.767c4.404-0.847,8.079,0.031,11.536,2.885
				c0.256,0.211,0.747,0.135,0.977-0.057c2.798-2.341,5.88-3.965,9.521-3.812c6.533,0.276,11.687,5.671,12.524,12.157
				c0.59,4.566-0.569,8.337-3.813,11.6c-5.852,5.885-11.557,11.913-17.446,17.76c-0.777,0.77-1.652,0.67-2.42-0.092
				c-4.172-4.14-8.257-8.365-12.426-12.506c-0.067-0.066-0.315,0.247-0.385,0.175c0.823,0.156,1.7-0.103,2.508,0.066
				c0.114,0.023-0.095,0.601-0.003,0.692c3.618,3.59,7.274,7.141,10.89,10.732c0.339,0.336,0.735,0.274,1.064-0.054
				c5.838-5.796,11.444-11.824,17.282-17.62c1.136-1.129,1.807-2.487,2.449-3.953c0.043-0.099,0.431-0.052,0.467-0.153
				c0.007-0.019-0.049-0.428-0.059-0.478c-0.568,0-1.171,0.256-1.743,0.256c-1.404,0-2.803,0.247-4.205,0.283
				c-0.69,0.018-1.5-0.264-1.809-0.821c-0.307-0.554-0.496-1.199-0.762-1.775c-0.069-0.151,0.474-0.229,0.379-0.44
				c-0.311,0.84-0.61,1.531-0.899,2.316c-0.416,1.136-1.355,2.079-1.774,3.214c-0.223,0.608-0.38,0.604-0.93,0.546
				c-0.493-0.051-0.776-0.073-0.89-0.675c-0.46-2.472-1.294-4.863-1.772-7.425c-0.059,0.169,0.335,0.229,0.313,0.315
				c-0.261,1.071-0.936,2.04-1.197,3.11c-0.198,0.813-0.653,1.711-1.48,1.713c-1.463,0.003-2.927-0.265-4.39-0.266
				c-0.096,0-0.275,0.037-0.395,0.031c-0.095-0.468-0.172-1.074-0.271-1.572c0.84,0,1.713,0.372,2.514,0.372
				c0.792,0,1.581-0.069,2.372-0.057c0.318,0.004,0.255-0.382,0.327-0.695c0.396-1.679,0.727-3.375,1.132-5.051
				c0.158-0.655,0.904-1.368,1.449-1.342c0.542,0.026,0.512,0.893,0.633,1.542c0.478,2.568,1.537,5.027,2.018,7.594
				c0.006,0.031-0.384-0.25-0.344-0.136c0.07-0.181,0.497,0.117,0.539,0.001c0.617-1.675,1.434-3.276,2.053-4.949
				c0.194-0.526,0.194-0.585,0.675-0.542c0.463,0.042,1.146-0.215,1.328,0.206c0.369,0.858,0.287,1.909,0.648,2.771
				c0.13,0.311,0.406,0.005,0.775,0.001c1.955-0.021,3.911,0.721,5.865,0.734c0.283,0.001,0.712-0.344,0.778-0.62
				c1.687-7.065-3.32-14.304-10.529-15.303c-3.669-0.508-6.961,0.711-9.809,3.068c-0.884,0.732-1.766,0.975-2.666,0.256
				c-4.09-3.256-8.278-3.974-13.081-1.893C77.84-74.453,77.449-74.342,77.396-74.319z"/>
		</g>
		<g>
			<path fill-rule="evenodd" clip-rule="evenodd" fill="#002F64" d="M69.393-63.877c0.051-2.188,0.592-4.613,2.081-6.812
				c0.991-1.465,2.233-2.658,3.578-3.786c0.267-0.224,0.445-0.207,0.742-0.014c0.28,0.182,0.719,0.395,0.651,0.724
				c-0.338,1.642,0.143,2.708,1.348,3.803c1.184,1.073,2.434,1.911,3.865,2.563c1.273,0.581,2.564,1.142,3.766,1.847
				c2.137,1.254,3.863,2.968,4.59,5.392c0.586,1.959,0.602,4.04,0.153,6.005c-0.187,0.823-0.581,1.625-0.874,2.421
				c-0.074,0.203-0.059,0.037,0.102,0.183c1.125,1.013,1.747,2.474,1.789,3.994c0.015,0.544-0.426,1.012-0.865,1.032
				c-0.463,0.022-0.723-0.433-0.742-0.981c-0.035-1.031-0.288-2.069-1.002-2.81c-0.228-0.236-0.606-0.138-0.935-0.03
				c-4.131,1.355-8.048,0.938-11.813-1.258c-2.957-1.727-4.898-4.274-5.941-7.459C69.424-60.475,69.387-61.985,69.393-63.877z
				 M86.447-51.41c-0.176-0.119-0.209-0.264-0.297-0.322c-0.73-0.501-1.486-0.963-2.197-1.491c-1.322-0.985-2.465-2.118-3.459-3.442
				c-0.299-0.399-0.526-0.965-0.183-1.223c0.326-0.246,1.132-0.144,1.401,0.209c1.625,2.123,3.52,3.826,5.791,5.174
				c0.088,0.052,0.184,0.115,0.286,0.167c0.043-0.089-0.082-0.239-0.052-0.304c0.54-1.169,0.69-2.362,0.803-3.634
				c0.233-2.637-0.289-4.825-2.297-6.653c-0.641-0.584-1.363-1.013-2.125-1.423c-1.146-0.617-2.31-1.171-3.5-1.705
				c-1.435-0.644-2.859-1.399-4.057-2.446c-0.955-0.833-1.52-1.948-1.793-3.205c-0.037-0.169-0.243-0.534-0.287-0.758
				c-1.17,1.101-2.053,2.448-2.663,3.88c-1.199,2.816-1.421,5.766-0.604,8.696c0.76,2.725,2.35,4.918,4.702,6.58
				c2.683,1.894,5.585,2.357,8.804,1.982C85.262-51.392,85.822-51.295,86.447-51.41z"/>
			<path fill="none" stroke="#000000" stroke-width="0.25" stroke-miterlimit="10" d="M69.393-63.877
				c0.051-2.188,0.592-4.613,2.081-6.812c0.991-1.465,2.233-2.658,3.578-3.786c0.267-0.224,0.445-0.207,0.742-0.014
				c0.28,0.182,0.719,0.395,0.651,0.724c-0.338,1.642,0.143,2.708,1.348,3.803c1.184,1.073,2.434,1.911,3.865,2.563
				c1.273,0.581,2.564,1.142,3.766,1.847c2.137,1.254,3.863,2.968,4.59,5.392c0.586,1.959,0.602,4.04,0.153,6.005
				c-0.187,0.823-0.581,1.625-0.874,2.421c-0.074,0.203-0.059,0.037,0.102,0.183c1.125,1.013,1.747,2.474,1.789,3.994
				c0.015,0.544-0.426,1.012-0.865,1.032c-0.463,0.022-0.723-0.433-0.742-0.981c-0.035-1.031-0.288-2.069-1.002-2.81
				c-0.228-0.236-0.606-0.138-0.935-0.03c-4.131,1.355-8.048,0.938-11.813-1.258c-2.957-1.727-4.898-4.274-5.941-7.459
				C69.424-60.475,69.387-61.985,69.393-63.877z M86.447-51.41c-0.176-0.119-0.209-0.264-0.297-0.322
				c-0.73-0.501-1.486-0.963-2.197-1.491c-1.322-0.985-2.465-2.118-3.459-3.442c-0.299-0.399-0.526-0.965-0.183-1.223
				c0.326-0.246,1.132-0.144,1.401,0.209c1.625,2.123,3.52,3.826,5.791,5.174c0.088,0.052,0.184,0.115,0.286,0.167
				c0.043-0.089-0.082-0.239-0.052-0.304c0.54-1.169,0.69-2.362,0.803-3.634c0.233-2.637-0.289-4.825-2.297-6.653
				c-0.641-0.584-1.363-1.013-2.125-1.423c-1.146-0.617-2.31-1.171-3.5-1.705c-1.435-0.644-2.859-1.399-4.057-2.446
				c-0.955-0.833-1.52-1.948-1.793-3.205c-0.037-0.169-0.243-0.534-0.287-0.758c-1.17,1.101-2.053,2.448-2.663,3.88
				c-1.199,2.816-1.421,5.766-0.604,8.696c0.76,2.725,2.35,4.918,4.702,6.58c2.683,1.894,5.585,2.357,8.804,1.982
				C85.262-51.392,85.822-51.295,86.447-51.41z"/>
		</g>
	</g>
</g>
<g>
	<g>
		<g>
			<g>
				<path fill-rule="evenodd" clip-rule="evenodd" fill="#002F64" d="M60.123,15.114c0.194-0.01,0.075-0.226,0.312-0.237
					c0-0.559,0.401-1.054,0.407-1.605c0.021-2.162-0.481-4.288-0.87-6.424c-0.167-0.919-0.068-1.936-0.558-2.745
					c-0.416-0.687-1.122-1.213-1.957-1.231c-0.165-0.003-0.296,0.192-0.278,0.398c0.005,0.073-0.052,0.134-0.11,0.177
					c-0.992,0.729-1.89,1.748-3.097,2.085c-0.604,0.168-1.322-0.144-1.688-0.661c-0.592-0.839-0.774-1.897-0.659-2.909
					c0.065-0.573,0.53-0.864,1.1-0.966c0.564-0.1,1.116-0.345,1.688-0.369c0.603-0.027,1.212,0.236,1.815,0.237
					c0.343,0,0.81-0.144,0.789,0.284c0.233-0.022,0.201,0.06,0.406,0.048c1.619-0.087,2.61,0.795,3.36,2.144
					c0.69,1.241,0.903,2.574,1.101,3.965c0.344,2.424,0.64,4.839,0.567,7.278c-0.002,0.098-0.271,0.291-0.271,0.427
					c0.097,0.004,0.365,0.184,0.457,0.172c0.271-0.031,0.081-0.177,0.08,0.093c-0.002,1.996-0.18,3.885-0.898,5.757
					c-1.338,3.489-3.606,5.773-7.26,6.726c-0.544,0.143-1.1,0.172-1.657,0.249c-0.231,0.032-0.307,0.276-0.351,0.509
					c-0.051,0.261-0.17,0.506-0.269,0.752c-0.187,0.476-0.439,0.43-0.952,0.429c-0.862-0.001-1.72,0.001-2.582-0.014
					c-0.412-0.007-0.612-0.063-0.75-0.408c-0.109-0.274-0.479-0.487-0.551-0.774c-0.038-0.152,0.152-0.081-0.021-0.101
					c-1.571-0.173-3.161-0.592-4.543-1.378c-2.49-1.42-3.839-3.801-4.726-6.49c-0.59-1.786-1.113-3.593-1.093-5.468
					c0-0.038,0.277,0.142,0.284,0.078c0.177,0,0.105-0.278,0.284-0.278c0-0.499,0.356-0.91,0.351-1.381
					c-0.028-2.341,0.083-4.628,0.509-6.941c0.24-1.304,0.31-2.625,1.072-3.737c0.746-1.09,1.76-1.427,3.096-1.374
					c0.069,0.002,0.151-0.059,0.222-0.061c0.018,0,0.3-0.147,0.351-0.162c-0.012-0.374-0.021-0.272,0.293-0.286
					c1.14-0.051,2.29-0.38,3.415-0.119c0.771,0.179,1.206,0.608,1.251,1.398c0.047,0.812-0.365,1.547-0.765,2.252
					c-0.445,0.786-0.874,0.972-1.728,0.699c-1.119-0.358-2.268-0.728-3.188-1.438c-0.104-0.081,0.028-0.457-0.048-0.625
					c-0.502,0.029-1.052,0.156-1.402,0.556c-0.545,0.623-0.703,1.485-0.904,2.266c-0.466,1.817-0.498,3.685-0.523,5.549
					c-0.016,1.148,0.113,2.263,0.113,3.44c0.25,0.012,0.219,0.083,0.477,0.096c0,0.483-0.18,0.938-0.153,1.408
					c0.1,1.74,0.602,3.45,1.461,4.984c1.163,2.075,3.049,3.176,5.368,3.632c0.074,0.016,0.236,0.092,0.291,0.036
					c0.257-0.268,0.506-0.594,0.874-0.594c1.388,0.002,2.775,0.2,4.163,0.201c0.352,0,0.851-0.117,1.095,0.159
					c0.052,0.061-0.021,0.182,0.065,0.164c2.511-0.5,4.256-1.867,5.373-4.174c0.834-1.72,1.483-3.514,1.508-5.404
					C60.27,15.271,60.123,15.284,60.123,15.114z"/>
				<path fill="none" stroke="#000000" stroke-width="0.25" stroke-miterlimit="10" d="M60.123,15.114
					c0.194-0.01,0.075-0.226,0.312-0.237c0-0.559,0.401-1.054,0.407-1.605c0.021-2.162-0.481-4.288-0.87-6.424
					c-0.167-0.919-0.068-1.936-0.558-2.745c-0.416-0.687-1.122-1.213-1.957-1.231c-0.165-0.003-0.296,0.192-0.278,0.398
					c0.005,0.073-0.052,0.134-0.11,0.177c-0.992,0.729-1.89,1.748-3.097,2.085c-0.604,0.168-1.322-0.144-1.688-0.661
					c-0.592-0.839-0.774-1.897-0.659-2.909c0.065-0.573,0.53-0.864,1.1-0.966c0.564-0.1,1.116-0.345,1.688-0.369
					c0.603-0.027,1.212,0.236,1.815,0.237c0.343,0,0.81-0.144,0.789,0.284c0.233-0.022,0.201,0.06,0.406,0.048
					c1.619-0.087,2.61,0.795,3.36,2.144c0.69,1.241,0.903,2.574,1.101,3.965c0.344,2.424,0.64,4.839,0.567,7.278
					c-0.002,0.098-0.271,0.291-0.271,0.427c0.097,0.004,0.365,0.184,0.457,0.172c0.271-0.031,0.081-0.177,0.08,0.093
					c-0.002,1.996-0.18,3.885-0.898,5.757c-1.338,3.489-3.606,5.773-7.26,6.726c-0.544,0.143-1.1,0.172-1.657,0.249
					c-0.231,0.032-0.307,0.276-0.351,0.509c-0.051,0.261-0.17,0.506-0.269,0.752c-0.187,0.476-0.439,0.43-0.952,0.429
					c-0.862-0.001-1.72,0.001-2.582-0.014c-0.412-0.007-0.612-0.063-0.75-0.408c-0.109-0.274-0.479-0.487-0.551-0.774
					c-0.038-0.152,0.152-0.081-0.021-0.101c-1.571-0.173-3.161-0.592-4.543-1.378c-2.49-1.42-3.839-3.801-4.726-6.49
					c-0.59-1.786-1.113-3.593-1.093-5.468c0-0.038,0.277,0.142,0.284,0.078c0.177,0,0.105-0.278,0.284-0.278
					c0-0.499,0.356-0.91,0.351-1.381c-0.028-2.341,0.083-4.628,0.509-6.941c0.24-1.304,0.31-2.625,1.072-3.737
					c0.746-1.09,1.76-1.427,3.096-1.374c0.069,0.002,0.151-0.059,0.222-0.061c0.018,0,0.3-0.147,0.351-0.162
					c-0.012-0.374-0.021-0.272,0.293-0.286c1.14-0.051,2.29-0.38,3.415-0.119c0.771,0.179,1.206,0.608,1.251,1.398
					c0.047,0.812-0.365,1.547-0.765,2.252c-0.445,0.786-0.874,0.972-1.728,0.699c-1.119-0.358-2.268-0.728-3.188-1.438
					c-0.104-0.081,0.028-0.457-0.048-0.625c-0.502,0.029-1.052,0.156-1.402,0.556c-0.545,0.623-0.703,1.485-0.904,2.266
					c-0.466,1.817-0.498,3.685-0.523,5.549c-0.016,1.148,0.113,2.263,0.113,3.44c0.25,0.012,0.219,0.083,0.477,0.096
					c0,0.483-0.18,0.938-0.153,1.408c0.1,1.74,0.602,3.45,1.461,4.984c1.163,2.075,3.049,3.176,5.368,3.632
					c0.074,0.016,0.236,0.092,0.291,0.036c0.257-0.268,0.506-0.594,0.874-0.594c1.388,0.002,2.775,0.2,4.163,0.201
					c0.352,0,0.851-0.117,1.095,0.159c0.052,0.061-0.021,0.182,0.065,0.164c2.511-0.5,4.256-1.867,5.373-4.174
					c0.834-1.72,1.483-3.514,1.508-5.404C60.27,15.271,60.123,15.284,60.123,15.114z"/>
			</g>
		</g>
		<g>
			<g>
				<path fill-rule="evenodd" clip-rule="evenodd" fill="#FD7C05" d="M30.672,38.82c0.408,0.332,1.042,0.826,1.472,1.121
					c2.867,1.965,5.955,2.604,9.376,1.816c2.915-0.671,4.772-2.429,6.038-5.108c0.812-1.725,1.252-3.48,1.413-5.363
					c0.006-0.067,0.137,0.018,0.15-0.08c0.678,0.045,1.276,0.04,1.996,0.088c-0.029,0.357,0.306,0.637,0.268,0.973
					c-0.229,2.066-1.192,3.938-2.177,5.783c-1.82,3.414-4.447,5.652-8.291,6.163c-3.962,0.527-7.552-0.561-10.666-3.085
					c-0.691-0.561-1.454-1.083-2.082-1.723c-0.112-0.114-0.052-0.522-0.202-0.548c-3.089-0.504-5.553-1.962-7.136-4.638
					c-1.748-2.954-1.558-6.156-0.864-9.434c0.009-0.043-0.186-0.298-0.156-0.386c0.672,0.157,1.482,0.431,2.167,0.59
					c-0.29,1.213-0.565,2.437-0.488,3.627c0.194,3.009,1.34,5.488,3.927,7.188c0.453,0.298,1.111,0.656,1.64,0.926
					c-0.145-0.728-0.419-1.498-0.508-2.143c-0.165-1.186-0.028-2.332,0.24-3.503c0.45-1.966,1.377-3.598,3.004-4.756
					c1.449-1.032,3.073-1.345,4.796-0.711c1.854,0.684,2.693,2.071,3.113,3.997c0.696,3.195-0.659,6.923-4.491,8.517
					C32.478,38.438,31.487,38.54,30.672,38.82z M28.227,33.259c0.009,1.108,0.486,2.121,0.915,3.08
					c0.312,0.696,0.09,0.486,0.918,0.402c1.105-0.112,2.037-0.523,3.009-1.052c1.98-1.073,3.167-3.255,2.814-5.479
					c-0.125-0.784-0.23-1.611-0.847-2.136c-1.277-1.083-2.865-1.082-4.223-0.022C29.131,29.368,28.272,31.249,28.227,33.259z"/>
				<path fill="none" stroke="#000000" stroke-width="0.25" stroke-miterlimit="10" d="M30.672,38.82
					c0.408,0.332,1.042,0.826,1.472,1.121c2.867,1.965,5.955,2.604,9.376,1.816c2.915-0.671,4.772-2.429,6.038-5.108
					c0.812-1.725,1.252-3.48,1.413-5.363c0.006-0.067,0.137,0.018,0.15-0.08c0.678,0.045,1.276,0.04,1.996,0.088
					c-0.029,0.357,0.306,0.637,0.268,0.973c-0.229,2.066-1.192,3.938-2.177,5.783c-1.82,3.414-4.447,5.652-8.291,6.163
					c-3.962,0.527-7.552-0.561-10.666-3.085c-0.691-0.561-1.454-1.083-2.082-1.723c-0.112-0.114-0.052-0.522-0.202-0.548
					c-3.089-0.504-5.553-1.962-7.136-4.638c-1.748-2.954-1.558-6.156-0.864-9.434c0.009-0.043-0.186-0.298-0.156-0.386
					c0.672,0.157,1.482,0.431,2.167,0.59c-0.29,1.213-0.565,2.437-0.488,3.627c0.194,3.009,1.34,5.488,3.927,7.188
					c0.453,0.298,1.111,0.656,1.64,0.926c-0.145-0.728-0.419-1.498-0.508-2.143c-0.165-1.186-0.028-2.332,0.24-3.503
					c0.45-1.966,1.377-3.598,3.004-4.756c1.449-1.032,3.073-1.345,4.796-0.711c1.854,0.684,2.693,2.071,3.113,3.997
					c0.696,3.195-0.659,6.923-4.491,8.517C32.478,38.438,31.487,38.54,30.672,38.82z M28.227,33.259
					c0.009,1.108,0.486,2.121,0.915,3.08c0.312,0.696,0.09,0.486,0.918,0.402c1.105-0.112,2.037-0.523,3.009-1.052
					c1.98-1.073,3.167-3.255,2.814-5.479c-0.125-0.784-0.23-1.611-0.847-2.136c-1.277-1.083-2.865-1.082-4.223-0.022
					C29.131,29.368,28.272,31.249,28.227,33.259z"/>
			</g>
		</g>
		<g>
			<g>
				<path fill-rule="evenodd" clip-rule="evenodd" fill="#FD7C05" d="M28.459,18.405c0.042,3.038-2.513,5.692-5.528,5.742
					c-3.229,0.055-5.766-2.451-5.811-5.592c-0.047-3.195,2.36-5.849,5.489-5.882C25.858,12.64,28.414,15.15,28.459,18.405z
					 M22.772,21.298c1.647-0.047,2.915-1.368,2.855-2.978c-0.058-1.591-1.396-2.964-2.97-2.911
					c-1.603,0.054-2.833,1.469-2.804,3.059C19.882,20.057,21.203,21.342,22.772,21.298z"/>
				<path fill="none" stroke="#000000" stroke-width="0.25" stroke-miterlimit="10" d="M28.459,18.405
					c0.042,3.038-2.513,5.692-5.528,5.742c-3.229,0.055-5.766-2.451-5.811-5.592c-0.047-3.195,2.36-5.849,5.489-5.882
					C25.858,12.64,28.414,15.15,28.459,18.405z M22.772,21.298c1.647-0.047,2.915-1.368,2.855-2.978
					c-0.058-1.591-1.396-2.964-2.97-2.911c-1.603,0.054-2.833,1.469-2.804,3.059C19.882,20.057,21.203,21.342,22.772,21.298z"/>
			</g>
		</g>
	</g>
</g>
<g>
	<g>
		<g>
			<path fill-rule="evenodd" clip-rule="evenodd" fill="#FD7C05" d="M239.151-36.432c-2.72,2.407-5.127,4.896-7.767,7.069
				c-1.151,0.95-1.528,1.83-1.261,3.342c0.368,2.095,0.269,4.264,0.458,6.39c0.095,1.053-0.318,1.822-1.248,2.13
				c-0.945,0.313-1.885-0.035-2.468-0.869c-1.41-2.015-2.606-4.184-4.074-6.154c-0.564-0.76-1.145-1.666-1.902-2.232
				c-1.969-1.469-4.386-2.322-6.401-3.728c-0.809-0.564-0.741-1.474-0.441-2.461c0.322-1.055,0.758-1.657,1.876-1.556
				c2.488,0.226,5.006,0.105,7.496,0.312c0.414,0.034,0.806,0.096,1.063-0.19c2.436-2.69,5.077-5.194,7.468-7.923
				c0.154-0.176,0.051-0.31,0.308-0.682c-1.807-0.833-3.448-1.72-5.173-2.533c-3.826-1.804-7.737-3.431-11.544-5.274
				c-1.345-0.651-1.03-1.338-0.264-2.668c1.402-2.431,3.135-3.2,5.926-2.944c6.983,0.641,13.994,0.989,20.975,1.662
				c1.304,0.126,1.888-0.838,2.825-1.656c2.634-2.3,5.747-4.036,8.536-6.139c1.155-0.872,2.59-1.236,4-1.651
				c2.564-0.754,4.032,0.43,3.309,3.017c-0.761,2.725-2.531,4.89-4.354,7.016c-1.651,1.928-3.435,3.742-5.098,5.662
				c-0.322,0.371-0.271,1.165-0.23,1.655c0.612,7.43,1.571,14.831,2.212,22.259c0.221,2.556-1.779,5.084-4.162,6.035
				c-0.794,0.317-1.636,0.342-2.047-0.442c-0.579-1.104-0.531-2.513-1.059-3.641C244.135-26.863,239.401-35.931,239.151-36.432z
				 M228.388-19.232c0.196-0.541,0.38-0.704,0.372-0.772c-0.278-2.482-0.599-4.958-0.895-7.438
				c-0.098-0.816-0.049-1.455,0.729-2.103c9.55-7.954,18.48-16.557,26.582-26c1.463-1.707,2.36-3.871,3.457-5.874
				c0.196-0.358,0.248-0.907,0.266-1.362c-0.461,0.038-1.169-0.255-1.568-0.08c-1.213,0.535-2.189,1.539-3.203,2.349
				c-2.797,2.233-5.936,4.079-8.571,6.498c-7.23,6.634-13.532,14.179-19.919,21.608c-0.322,0.374-0.984,1.035-1.482,1.006
				c-1.484-0.086-2.96-0.495-4.439-0.658c-1.246-0.137-2.475-0.567-3.723-0.673c-0.067,0.133-0.036,0.216-0.104,0.348
				C221.419-29.496,225.355-24.997,228.388-19.232z M216.6-52.407c5.606,2.566,11.218,4.919,16.687,7.464
				c0.697,0.325,0.888-0.109,1.241-0.475c2.129-2.199,4.364-4.294,6.492-6.494c0.286-0.296,0.37-0.648,0.771-1.07
				c-0.437-0.08-0.503-0.007-0.695-0.023c-3.771-0.329-7.52-0.895-11.29-1.211c-3.127-0.263-6.241-0.749-9.372-0.963
				C218.783-55.294,217.456-54.083,216.6-52.407z M249.223-45.889c-2.774,2.652-5.388,5.294-7.938,7.805
				c-0.206,0.202-0.159,0.775-0.021,1.098c0.854,1.999,1.625,4.036,2.537,6.01c1.604,3.47,3.382,6.788,4.996,10.256
				c1.819-0.892,2.281-2.07,2.101-4.091c-0.358-3.974-0.476-7.969-0.824-11.943C249.816-39.678,249.492-42.761,249.223-45.889z"/>
			<path fill="none" stroke="#000000" stroke-width="0.25" stroke-miterlimit="10" d="M239.151-36.432
				c-2.72,2.407-5.127,4.896-7.767,7.069c-1.151,0.95-1.528,1.83-1.261,3.342c0.368,2.095,0.269,4.264,0.458,6.39
				c0.095,1.053-0.318,1.822-1.248,2.13c-0.945,0.313-1.885-0.035-2.468-0.869c-1.41-2.015-2.606-4.184-4.074-6.154
				c-0.564-0.76-1.145-1.666-1.902-2.232c-1.969-1.469-4.386-2.322-6.401-3.728c-0.809-0.564-0.741-1.474-0.441-2.461
				c0.322-1.055,0.758-1.657,1.876-1.556c2.488,0.226,5.006,0.105,7.496,0.312c0.414,0.034,0.806,0.096,1.063-0.19
				c2.436-2.69,5.077-5.194,7.468-7.923c0.154-0.176,0.051-0.31,0.308-0.682c-1.807-0.833-3.448-1.72-5.173-2.533
				c-3.826-1.804-7.737-3.431-11.544-5.274c-1.345-0.651-1.03-1.338-0.264-2.668c1.402-2.431,3.135-3.2,5.926-2.944
				c6.983,0.641,13.994,0.989,20.975,1.662c1.304,0.126,1.888-0.838,2.825-1.656c2.634-2.3,5.747-4.036,8.536-6.139
				c1.155-0.872,2.59-1.236,4-1.651c2.564-0.754,4.032,0.43,3.309,3.017c-0.761,2.725-2.531,4.89-4.354,7.016
				c-1.651,1.928-3.435,3.742-5.098,5.662c-0.322,0.371-0.271,1.165-0.23,1.655c0.612,7.43,1.571,14.831,2.212,22.259
				c0.221,2.556-1.779,5.084-4.162,6.035c-0.794,0.317-1.636,0.342-2.047-0.442c-0.579-1.104-0.531-2.513-1.059-3.641
				C244.135-26.863,239.401-35.931,239.151-36.432z M228.388-19.232c0.196-0.541,0.38-0.704,0.372-0.772
				c-0.278-2.482-0.599-4.958-0.895-7.438c-0.098-0.816-0.049-1.455,0.729-2.103c9.55-7.954,18.48-16.557,26.582-26
				c1.463-1.707,2.36-3.871,3.457-5.874c0.196-0.358,0.248-0.907,0.266-1.362c-0.461,0.038-1.169-0.255-1.568-0.08
				c-1.213,0.535-2.189,1.539-3.203,2.349c-2.797,2.233-5.936,4.079-8.571,6.498c-7.23,6.634-13.532,14.179-19.919,21.608
				c-0.322,0.374-0.984,1.035-1.482,1.006c-1.484-0.086-2.96-0.495-4.439-0.658c-1.246-0.137-2.475-0.567-3.723-0.673
				c-0.067,0.133-0.036,0.216-0.104,0.348C221.419-29.496,225.355-24.997,228.388-19.232z M216.6-52.407
				c5.606,2.566,11.218,4.919,16.687,7.464c0.697,0.325,0.888-0.109,1.241-0.475c2.129-2.199,4.364-4.294,6.492-6.494
				c0.286-0.296,0.37-0.648,0.771-1.07c-0.437-0.08-0.503-0.007-0.695-0.023c-3.771-0.329-7.52-0.895-11.29-1.211
				c-3.127-0.263-6.241-0.749-9.372-0.963C218.783-55.294,217.456-54.083,216.6-52.407z M249.223-45.889
				c-2.774,2.652-5.388,5.294-7.938,7.805c-0.206,0.202-0.159,0.775-0.021,1.098c0.854,1.999,1.625,4.036,2.537,6.01
				c1.604,3.47,3.382,6.788,4.996,10.256c1.819-0.892,2.281-2.07,2.101-4.091c-0.358-3.974-0.476-7.969-0.824-11.943
				C249.816-39.678,249.492-42.761,249.223-45.889z"/>
		</g>
		<g>
			<path fill-rule="evenodd" clip-rule="evenodd" fill="#002F64" d="M230.824-19.653c-0.189-2.126-0.096-4.315-0.464-6.41
				c-0.268-1.512-0.238-2.485,0.913-3.435c2.64-2.173,5.082-4.605,7.802-7.012c0.12,0.243,1.931-1.55,2.084-1.702
				c2.55-2.512,4.959-5.191,7.733-7.844c0.011,0.126,2.511-1.946,2.752-2.223c1.663-1.919,3.603-3.603,5.254-5.531
				c1.822-2.126,3.005-4.689,3.766-7.414c0.724-2.587-0.579-3.782-3.144-3.028c-1.41,0.416-3.116,0.456-4.272,1.328
				c-2.157,1.627-5.092,3.306-7.141,5.075c-7.417,7.46-7.047,7.825-14.333,15.413c-2.325,2.656-4.455,5.859-6.823,8.477
				c-0.258,0.287-1.18,0.544-1.594,0.51c-2.49-0.207-4.979-0.464-7.468-0.689c-1.118-0.101-1.528,0.134-1.851,1.189
				c-0.3,0.988-0.351,1.888,0.458,2.452c2.016,1.406,4.491,2.18,6.46,3.649c0.759,0.566,1.245,1.582,1.81,2.342
				c1.468,1.97,3.139,3.807,4.549,5.821c0.582,0.834,0.903,0.982,1.849,0.668C230.094-18.324,230.919-18.601,230.824-19.653z
				 M215.866-32.343c0.068-0.132,0.068,0.176,0.137,0.043c1.247,0.106,2.509-0.274,3.755-0.137c1.479,0.163,2.949,0.319,4.434,0.405
				c0.498,0.029,1.052-0.064,1.374-0.438c6.388-7.43,12.657-15.024,19.888-21.658c2.636-2.419,5.72-4.35,8.517-6.583
				c1.014-0.81,2.391-1.065,3.604-1.6c0.398-0.176,0.857-0.425,1.318-0.463c-0.018,0.455,0.349,1.221,0.152,1.579
				c-1.097,2.003-2.473,3.885-3.936,5.59c-8.102,9.443-17.237,17.776-26.788,25.73c-0.778,0.648-0.333,1.59-0.236,2.406
				c0.296,2.479,0.818,4.935,1.097,7.417c0.008,0.068-0.784,0.395-0.98,0.935C225.169-24.882,221.396-29.456,215.866-32.343z"/>
			<path fill="none" stroke="#000000" stroke-width="0.25" stroke-miterlimit="10" d="M230.824-19.653
				c-0.189-2.126-0.096-4.315-0.464-6.41c-0.268-1.512-0.238-2.485,0.913-3.435c2.64-2.173,5.082-4.605,7.802-7.012
				c0.12,0.243,1.931-1.55,2.084-1.702c2.55-2.512,4.959-5.191,7.733-7.844c0.011,0.126,2.511-1.946,2.752-2.223
				c1.663-1.919,3.603-3.603,5.254-5.531c1.822-2.126,3.005-4.689,3.766-7.414c0.724-2.587-0.579-3.782-3.144-3.028
				c-1.41,0.416-3.116,0.456-4.272,1.328c-2.157,1.627-5.092,3.306-7.141,5.075c-7.417,7.46-7.047,7.825-14.333,15.413
				c-2.325,2.656-4.455,5.859-6.823,8.477c-0.258,0.287-1.18,0.544-1.594,0.51c-2.49-0.207-4.979-0.464-7.468-0.689
				c-1.118-0.101-1.528,0.134-1.851,1.189c-0.3,0.988-0.351,1.888,0.458,2.452c2.016,1.406,4.491,2.18,6.46,3.649
				c0.759,0.566,1.245,1.582,1.81,2.342c1.468,1.97,3.139,3.807,4.549,5.821c0.582,0.834,0.903,0.982,1.849,0.668
				C230.094-18.324,230.919-18.601,230.824-19.653z M215.866-32.343c0.068-0.132,0.068,0.176,0.137,0.043
				c1.247,0.106,2.509-0.274,3.755-0.137c1.479,0.163,2.949,0.319,4.434,0.405c0.498,0.029,1.052-0.064,1.374-0.438
				c6.388-7.43,12.657-15.024,19.888-21.658c2.636-2.419,5.72-4.35,8.517-6.583c1.014-0.81,2.391-1.065,3.604-1.6
				c0.398-0.176,0.857-0.425,1.318-0.463c-0.018,0.455,0.349,1.221,0.152,1.579c-1.097,2.003-2.473,3.885-3.936,5.59
				c-8.102,9.443-17.237,17.776-26.788,25.73c-0.778,0.648-0.333,1.59-0.236,2.406c0.296,2.479,0.818,4.935,1.097,7.417
				c0.008,0.068-0.784,0.395-0.98,0.935C225.169-24.882,221.396-29.456,215.866-32.343z"/>
		</g>
	</g>
</g>
<g>
	<g>
		<g>
			<path fill-rule="evenodd" clip-rule="evenodd" fill="#002F64" d="M-138.502,101.993c-5.765,0-11.53,0-17.295-0.001
				c-0.199,0-0.4,0.009-0.597-0.013c-0.451-0.05-0.753-0.365-0.79-0.813c-0.012-0.142-0.005-0.285-0.005-0.428
				c0-5.623,0-11.245,0-16.868c0-2.188-0.001-4.377,0.002-6.566c0-0.57,0.244-0.89,0.736-0.999c0.593-0.134,1.141,0.261,1.155,0.868
				c0.016,0.64-0.021,1.28-0.019,1.92c0.008,6.875,0.019,13.749,0.029,20.623c0,0.591,0.002,0.594,0.587,0.594
				c4.154,0,8.309-0.005,12.463-0.001c3.266,0.002,6.533,0.018,9.799,0.018c3.416,0,6.833-0.018,10.248-0.008
				c0.445,0.001,0.543-0.155,0.542-0.571c-0.013-5.238-0.008-10.478-0.008-15.715c0-2.248-0.004-4.496,0.003-6.743
				c0.003-0.813,0.764-1.264,1.452-0.875c0.354,0.2,0.451,0.52,0.45,0.902c-0.005,1.465-0.002,2.932-0.002,4.397
				c0,6.319,0,12.64,0,18.958c0,0.156,0.007,0.313-0.004,0.47c-0.032,0.472-0.338,0.793-0.811,0.839
				c-0.197,0.02-0.398,0.012-0.597,0.012C-126.944,101.993-132.723,101.993-138.502,101.993z"/>
			<path fill="none" stroke="#000000" stroke-width="0.25" stroke-miterlimit="10" d="M-138.502,101.993
				c-5.765,0-11.53,0-17.295-0.001c-0.199,0-0.4,0.009-0.597-0.013c-0.451-0.05-0.753-0.365-0.79-0.813
				c-0.012-0.142-0.005-0.285-0.005-0.428c0-5.623,0-11.245,0-16.868c0-2.188-0.001-4.377,0.002-6.566
				c0-0.57,0.244-0.89,0.736-0.999c0.593-0.134,1.141,0.261,1.155,0.868c0.016,0.64-0.021,1.28-0.019,1.92
				c0.008,6.875,0.019,13.749,0.029,20.623c0,0.591,0.002,0.594,0.587,0.594c4.154,0,8.309-0.005,12.463-0.001
				c3.266,0.002,6.533,0.018,9.799,0.018c3.416,0,6.833-0.018,10.248-0.008c0.445,0.001,0.543-0.155,0.542-0.571
				c-0.013-5.238-0.008-10.478-0.008-15.715c0-2.248-0.004-4.496,0.003-6.743c0.003-0.813,0.764-1.264,1.452-0.875
				c0.354,0.2,0.451,0.52,0.45,0.902c-0.005,1.465-0.002,2.932-0.002,4.397c0,6.319,0,12.64,0,18.958
				c0,0.156,0.007,0.313-0.004,0.47c-0.032,0.472-0.338,0.793-0.811,0.839c-0.197,0.02-0.398,0.012-0.597,0.012
				C-126.944,101.993-132.723,101.993-138.502,101.993z"/>
		</g>
		<g>
			<path fill-rule="evenodd" clip-rule="evenodd" fill="#FD7C05" d="M-138.429,78.79c2.335,0,4.669-0.002,7.004,0
				c0.921,0.001,1.204,0.285,1.207,1.243c0.014,3.671,0.021,7.343,0.029,11.014c0.002,1.039,0.004,2.079-0.002,3.118
				c-0.004,0.829-0.337,1.157-1.175,1.158c-4.74,0.001-9.48,0.001-14.221-0.001c-0.833,0-1.167-0.33-1.167-1.166
				c-0.003-4.071-0.001-8.142-0.001-12.213c0-0.653-0.004-1.308,0-1.962c0.006-0.852,0.343-1.19,1.194-1.19
				C-143.183,78.787-140.806,78.79-138.429,78.79z M-138.496,86.093c1.977,0,3.953-0.009,5.93,0.008
				c0.377,0.003,0.486-0.114,0.482-0.486c-0.02-1.493-0.017-2.986-0.004-4.479c0.002-0.324-0.083-0.451-0.429-0.451
				c-3.967,0.01-7.934,0.009-11.901,0c-0.337,0-0.438,0.113-0.436,0.445c0.014,1.465,0.004,2.929,0.004,4.394
				c0,0.569,0.001,0.569,0.553,0.57C-142.363,86.094-140.43,86.093-138.496,86.093z M-142.144,93.422
				c0.769,0,1.538-0.01,2.306,0.006c0.31,0.006,0.426-0.087,0.423-0.41c-0.015-1.538-0.013-3.075-0.004-4.612
				c0.002-0.285-0.078-0.414-0.383-0.411c-1.565,0.009-3.131,0.007-4.697,0.001c-0.25,0-0.356,0.082-0.355,0.346
				c0.009,1.565,0.011,3.132,0.002,4.697c-0.002,0.302,0.113,0.395,0.402,0.39C-143.681,93.413-142.913,93.422-142.144,93.422z
				 M-137.519,90.729c-0.001,0-0.002,0-0.002,0c0,0.755,0.015,1.51-0.008,2.264c-0.01,0.343,0.115,0.438,0.443,0.435
				c1.523-0.012,3.046-0.012,4.569,0c0.307,0.002,0.431-0.083,0.428-0.408c-0.012-1.552-0.01-3.103,0-4.655
				c0.002-0.281-0.101-0.371-0.374-0.369c-1.551,0.007-3.103,0.009-4.654-0.003c-0.323-0.002-0.415,0.124-0.408,0.432
				C-137.508,89.192-137.519,89.961-137.519,90.729z"/>
			<path fill="none" stroke="#000000" stroke-miterlimit="10" d="M-138.429,78.79c2.335,0,4.669-0.002,7.004,0
				c0.921,0.001,1.204,0.285,1.207,1.243c0.014,3.671,0.021,7.343,0.029,11.014c0.002,1.039,0.004,2.079-0.002,3.118
				c-0.004,0.829-0.337,1.157-1.175,1.158c-4.74,0.001-9.48,0.001-14.221-0.001c-0.833,0-1.167-0.33-1.167-1.166
				c-0.003-4.071-0.001-8.142-0.001-12.213c0-0.653-0.004-1.308,0-1.962c0.006-0.852,0.343-1.19,1.194-1.19
				C-143.183,78.787-140.806,78.79-138.429,78.79z M-138.496,86.093c1.977,0,3.953-0.009,5.93,0.008
				c0.377,0.003,0.486-0.114,0.482-0.486c-0.02-1.493-0.017-2.986-0.004-4.479c0.002-0.324-0.083-0.451-0.429-0.451
				c-3.967,0.01-7.934,0.009-11.901,0c-0.337,0-0.438,0.113-0.436,0.445c0.014,1.465,0.004,2.929,0.004,4.394
				c0,0.569,0.001,0.569,0.553,0.57C-142.363,86.094-140.43,86.093-138.496,86.093z M-142.144,93.422
				c0.769,0,1.538-0.01,2.306,0.006c0.31,0.006,0.426-0.087,0.423-0.41c-0.015-1.538-0.013-3.075-0.004-4.612
				c0.002-0.285-0.078-0.414-0.383-0.411c-1.565,0.009-3.131,0.007-4.697,0.001c-0.25,0-0.356,0.082-0.355,0.346
				c0.009,1.565,0.011,3.132,0.002,4.697c-0.002,0.302,0.113,0.395,0.402,0.39C-143.681,93.413-142.913,93.422-142.144,93.422z
				 M-137.519,90.729c-0.001,0-0.002,0-0.002,0c0,0.755,0.015,1.51-0.008,2.264c-0.01,0.343,0.115,0.438,0.443,0.435
				c1.523-0.012,3.046-0.012,4.569,0c0.307,0.002,0.431-0.083,0.428-0.408c-0.012-1.552-0.01-3.103,0-4.655
				c0.002-0.281-0.101-0.371-0.374-0.369c-1.551,0.007-3.103,0.009-4.654-0.003c-0.323-0.002-0.415,0.124-0.408,0.432
				C-137.508,89.192-137.519,89.961-137.519,90.729z"/>
		</g>
		<g>
			<path fill-rule="evenodd" clip-rule="evenodd" fill="#FD7C05" d="M-138.463,56.301c0.328,0.194,0.652,0.334,0.912,0.552
				c1.746,1.463,3.476,2.942,5.213,4.414c6.47,5.483,12.941,10.968,19.411,16.451c0.559,0.473,0.672,0.867,0.355,1.259
				c-0.361,0.444-1.01,0.476-1.525,0.042c-1.916-1.614-3.823-3.236-5.733-4.856c-3.777-3.202-7.554-6.406-11.331-9.609
				c-2.289-1.94-4.584-3.875-6.861-5.83c-0.333-0.287-0.537-0.313-0.883-0.016c-1.389,1.199-2.815,2.354-4.213,3.543
				c-5.747,4.882-11.487,9.77-17.23,14.656c-0.824,0.7-1.633,1.421-2.484,2.085c-0.245,0.19-0.614,0.294-0.93,0.302
				c-0.352,0.01-0.646-0.218-0.75-0.594c-0.096-0.345,0.061-0.607,0.317-0.824c0.934-0.791,1.869-1.582,2.802-2.373
				c5.416-4.594,10.831-9.188,16.246-13.779c1.942-1.646,3.88-3.296,5.83-4.93C-139.091,56.601-138.796,56.488-138.463,56.301z"/>
			<path fill="none" stroke="#000000" stroke-width="0.25" stroke-miterlimit="10" d="M-138.463,56.301
				c0.328,0.194,0.652,0.334,0.912,0.552c1.746,1.463,3.476,2.942,5.213,4.414c6.47,5.483,12.941,10.968,19.411,16.451
				c0.559,0.473,0.672,0.867,0.355,1.259c-0.361,0.444-1.01,0.476-1.525,0.042c-1.916-1.614-3.823-3.236-5.733-4.856
				c-3.777-3.202-7.554-6.406-11.331-9.609c-2.289-1.94-4.584-3.875-6.861-5.83c-0.333-0.287-0.537-0.313-0.883-0.016
				c-1.389,1.199-2.815,2.354-4.213,3.543c-5.747,4.882-11.487,9.77-17.23,14.656c-0.824,0.7-1.633,1.421-2.484,2.085
				c-0.245,0.19-0.614,0.294-0.93,0.302c-0.352,0.01-0.646-0.218-0.75-0.594c-0.096-0.345,0.061-0.607,0.317-0.824
				c0.934-0.791,1.869-1.582,2.802-2.373c5.416-4.594,10.831-9.188,16.246-13.779c1.942-1.646,3.88-3.296,5.83-4.93
				C-139.091,56.601-138.796,56.488-138.463,56.301z"/>
		</g>
	</g>
</g>
<g>
	<g>
		<g>
			<path fill-rule="evenodd" clip-rule="evenodd" fill="#FD7C05" d="M-29.842,108.645c0-1.193,0.066-1.354,0.066-2.591
				c3.766,0,7.313-0.442,11.252-0.442c0-2.162,0.153-4.344,0.153-6.532c-7.086,0-14.227,0.712-21.255,0.721
				c-4.602,0.005-4.224-0.335-4.224-4.926c0.001-10.983-0.347-21.967-0.45-32.95c-0.022-2.435,0.771-3.528,3.247-3.517
				C-24.8,58.483-8.55,59.12,7.702,59.124c3.449,0.001,3.98-0.272,3.987,3.18c0.021,11.161,0.042,22.324,0.026,33.487
				c-0.005,3.348-0.692,4.082-4.047,4.088c-7.309,0.015-14.508-0.003-22.011-0.003c0,2.033-0.242,3.682-0.242,5.872
				c3.724,0,7.695-0.393,11.618-0.393c0,1.374-0.055,2.58-0.055,3.739C-11.972,109.095-20.725,108.645-29.842,108.645z
				 M-40.884,61.841c0,11.31,0.024,23.075,0.024,34.237c16.229,0,32.422-0.389,48.588-0.389c0-11.247,0.267-22.594,0.267-33.813
				C-8.162,61.876-24.653,61.841-40.884,61.841z"/>
			<path fill="none" stroke="#000000" stroke-width="0.25" stroke-miterlimit="10" d="M-29.842,108.645
				c0-1.193,0.066-1.354,0.066-2.591c3.766,0,7.313-0.442,11.252-0.442c0-2.162,0.153-4.344,0.153-6.532
				c-7.086,0-14.227,0.712-21.255,0.721c-4.602,0.005-4.224-0.335-4.224-4.926c0.001-10.983-0.347-21.967-0.45-32.95
				c-0.022-2.435,0.771-3.528,3.247-3.517C-24.8,58.483-8.55,59.12,7.702,59.124c3.449,0.001,3.98-0.272,3.987,3.18
				c0.021,11.161,0.042,22.324,0.026,33.487c-0.005,3.348-0.692,4.082-4.047,4.088c-7.309,0.015-14.508-0.003-22.011-0.003
				c0,2.033-0.242,3.682-0.242,5.872c3.724,0,7.695-0.393,11.618-0.393c0,1.374-0.055,2.58-0.055,3.739
				C-11.972,109.095-20.725,108.645-29.842,108.645z M-40.884,61.841c0,11.31,0.024,23.075,0.024,34.237
				c16.229,0,32.422-0.389,48.588-0.389c0-11.247,0.267-22.594,0.267-33.813C-8.162,61.876-24.653,61.841-40.884,61.841z"/>
		</g>
		<g>
			<path fill-rule="evenodd" clip-rule="evenodd" fill="#002F64" d="M4.062,74.442c-0.374,2.276-1.652,3.636-3.94,3.816
				c-2.399,0.19-6.094,3.418-6.565,5.723c-0.408,1.994-1.677,3.511-3.771,3.631c-2.059,0.118-3.671-1.076-4.308-3.071
				c-0.238-0.748-0.384-1.83-1.048-2.292c-1.828-1.271-3.837-2.297-5.731-3.47c-3.51-2.175-8.302,0.218-8.455,4.401
				c-0.073,2.012-0.29,3.685-2.312,4.233c-2.071,0.562-3.882-0.833-4.459-2.837c-0.563-1.955,0.24-4.331,2.299-4.813
				c3.271-0.764,5.235-2.306,5.361-5.749c0.069-1.9,1.101-3.137,3.019-3.432c1.969-0.305,3.589,0.578,4.382,2.266
				c1.671,3.559,8.602,8.341,12.088,7.157c2.728-0.926,5.479-3.019,6.222-6.341c0.476-2.127,1.572-3.272,3.793-2.987
				C2.818,70.959,3.84,72.367,4.062,74.442z"/>
			<path fill="none" stroke="#000000" stroke-width="0.25" stroke-miterlimit="10" d="M4.062,74.442
				c-0.374,2.276-1.652,3.636-3.94,3.816c-2.399,0.19-6.094,3.418-6.565,5.723c-0.408,1.994-1.677,3.511-3.771,3.631
				c-2.059,0.118-3.671-1.076-4.308-3.071c-0.238-0.748-0.384-1.83-1.048-2.292c-1.828-1.271-3.837-2.297-5.731-3.47
				c-3.51-2.175-8.302,0.218-8.455,4.401c-0.073,2.012-0.29,3.685-2.312,4.233c-2.071,0.562-3.882-0.833-4.459-2.837
				c-0.563-1.955,0.24-4.331,2.299-4.813c3.271-0.764,5.235-2.306,5.361-5.749c0.069-1.9,1.101-3.137,3.019-3.432
				c1.969-0.305,3.589,0.578,4.382,2.266c1.671,3.559,8.602,8.341,12.088,7.157c2.728-0.926,5.479-3.019,6.222-6.341
				c0.476-2.127,1.572-3.272,3.793-2.987C2.818,70.959,3.84,72.367,4.062,74.442z"/>
		</g>
	</g>
</g>
</svg>
