<?xml version="1.0" encoding="utf-8"?>
<!-- Generator: Adobe Illustrator 16.0.0, SVG Export Plug-In . SVG Version: 6.00 Build 0)  -->
<!DOCTYPE svg PUBLIC "-//W3C//DTD SVG 1.1//EN" "http://www.w3.org/Graphics/SVG/1.1/DTD/svg11.dtd">
<svg version="1.1" id="Layer_1" xmlns="http://www.w3.org/2000/svg" xmlns:xlink="http://www.w3.org/1999/xlink" x="0px" y="0px"
	 width="80px" height="45px" viewBox="0 0 80 45" enable-background="new 0 0 80 45" xml:space="preserve">
<path fill="#FD7C05" stroke="#000000" stroke-width="0.25" stroke-miterlimit="10" d="M-175.983-24.397
	c-0.509,0-0.931-0.022-1.325-0.069c-1.674-0.199-2.88-1.629-2.933-3.477l-0.001-0.074c-0.06-2.119-0.123-4.31,0.583-6.481
	c0.369-1.135,0.466-2.406,0.53-3.508c0.093-1.63,0.919-2.796,2.388-3.373c1.548-0.607,3.356-1.289,5.222-1.692
	c2.765-0.598,5.181-1.734,7.389-3.475c4.681-3.69,10.248-5.587,16.549-5.639c0.205-0.001,0.41-0.002,0.615-0.002
	c7.82,0,14.376,1.301,20.04,3.979c2.363,1.117,4.783,2.578,7.616,4.598c1.527,1.089,3.197,1.754,5.415,2.155
	c3.582,0.648,7.095,1.596,10.061,2.439c2.029,0.576,3.413,1.686,4.113,3.298c0.024,0.055,0.056,0.109,0.087,0.164
	c0.096,0.168,0.213,0.377,0.245,0.64c0.076,0.643,0.18,1.3,0.282,1.937c0.317,1.995,0.646,4.058,0.197,6.183
	c-0.409,1.942-0.955,2.389-2.922,2.39h-4.617l0.095-0.678c0.555-3.97-0.786-6.859-4.097-8.831c-2.641-1.572-5.416-1.541-8.019,0.089
	c-3.188,1.996-4.465,4.915-3.799,8.676l0.124,0.699h-17.671h-17.671l0.105-0.686c0.507-3.297-0.687-5.555-1.777-6.868
	c-1.478-1.779-3.706-2.926-5.815-2.994c-2.654-0.084-5.141,1.044-6.778,3.072c-1.539,1.905-2.125,4.373-1.609,6.769l0.154,0.721
	h-0.736c-0.337,0-0.673,0.01-1.008,0.019C-175.298-24.407-175.642-24.397-175.983-24.397z M-146.966-50.996
	c-0.202,0-0.404,0.001-0.606,0.002c-6.115,0.05-11.29,1.811-15.822,5.384c-2.353,1.854-4.928,3.066-7.874,3.703
	c-1.779,0.385-3.534,1.047-5.039,1.637c-1.033,0.405-1.567,1.168-1.633,2.333c-0.068,1.176-0.175,2.538-0.587,3.807
	c-0.642,1.976-0.585,3.969-0.525,6.079l0.002,0.075c0.036,1.262,0.793,2.198,1.884,2.328c0.345,0.041,0.721,0.061,1.183,0.061
	c0.331,0,0.663-0.01,0.996-0.02c0.112-0.003,0.224-0.006,0.335-0.009c-0.344-2.522,0.357-5.059,1.972-7.059
	c1.872-2.317,4.701-3.606,7.743-3.513c2.438,0.078,5.002,1.39,6.692,3.424c1.168,1.407,2.442,3.757,2.123,7.123h16.288h16.288
	c-0.471-3.905,1.056-7.073,4.444-9.194c2.979-1.865,6.237-1.902,9.259-0.103c3.524,2.098,5.119,5.239,4.745,9.341h3.266
	c1.399,0,1.464-0.054,1.757-1.444c0.403-1.909,0.106-3.775-0.208-5.75c-0.103-0.648-0.209-1.318-0.289-1.984
	c-0.007-0.032-0.061-0.128-0.098-0.191c-0.052-0.092-0.103-0.184-0.144-0.278c-0.558-1.287-1.653-2.146-3.346-2.627
	c-2.937-0.834-6.415-1.774-9.946-2.413c-2.399-0.434-4.217-1.161-5.895-2.358c-2.773-1.978-5.135-3.404-7.433-4.491
	C-133.013-49.769-139.22-50.996-146.966-50.996z M-123.828-40.358L-123.828-40.358c-1.803-0.041-3.605-0.115-5.35-0.187
	l-0.791-0.033c-0.966-0.039-1.934-0.082-2.901-0.125c-2.227-0.099-4.529-0.201-6.792-0.257c-1.137-0.028-1.695-0.547-1.807-1.685
	c-0.113-1.128-0.271-2.277-0.423-3.388c-0.076-0.552-0.152-1.103-0.223-1.655c-0.024-0.188-0.03-0.368-0.039-0.619
	c-0.004-0.137-0.01-0.3-0.02-0.503l-0.033-0.718l0.711,0.1c0.65,0.093,1.289,0.17,1.919,0.247c1.396,0.169,2.715,0.33,4.036,0.624
	c4.224,0.938,8.293,2.844,12.094,5.665c0.028,0.021,0.06,0.041,0.09,0.061c0.132,0.086,0.312,0.204,0.442,0.404
	c0.138,0.214,0.242,0.431,0.342,0.641c0.038,0.078,0.074,0.157,0.114,0.234l0.292,0.578l-0.601,0.243
	c-0.073,0.03-0.146,0.068-0.219,0.107C-123.211-40.505-123.494-40.358-123.828-40.358z M-140.956-48.151
	c0.004,0.125,0.01,0.223,0.022,0.313c0.071,0.549,0.146,1.097,0.221,1.645c0.154,1.122,0.314,2.282,0.429,3.433
	c0.054,0.542,0.115,0.599,0.653,0.612c2.273,0.056,4.583,0.159,6.815,0.257c0.965,0.043,1.931,0.085,2.896,0.125l0.792,0.033
	c1.738,0.071,3.536,0.145,5.301,0.186c0.01-0.001,0.025-0.005,0.042-0.011c-0.037-0.07-0.074-0.137-0.114-0.201
	c-0.023-0.019-0.072-0.051-0.106-0.073c-0.05-0.033-0.101-0.066-0.147-0.101c-3.667-2.72-7.583-4.557-11.644-5.459
	c-1.265-0.281-2.555-0.438-3.922-0.604C-140.127-48.047-140.54-48.097-140.956-48.151z M-143.3-41.482h-19.208l-0.385-1.032
	l0.224-0.265c0.066-0.079,0.13-0.159,0.194-0.239c0.154-0.193,0.314-0.393,0.505-0.58c2.753-2.695,6.246-4.407,10.681-5.235
	c1.594-0.298,3.232-0.414,4.815-0.526l0.793-0.054c0.496,0,1.334,0.443,1.43,1.032c0.262,1.615,0.475,3.255,0.68,4.842
	c0.06,0.463,0.12,0.925,0.18,1.385L-143.3-41.482z M-161.21-42.672h16.552c-0.031-0.238-0.062-0.476-0.092-0.715
	c-0.2-1.542-0.406-3.134-0.657-4.695c-0.074-0.058-0.208-0.127-0.277-0.14l-0.705,0.051c-1.55,0.11-3.154,0.224-4.682,0.509
	c-4.195,0.783-7.487,2.391-10.066,4.916C-161.162-42.724-161.186-42.698-161.21-42.672z"/>
<g>
	<g>
		<g>
			<path fill-rule="evenodd" clip-rule="evenodd" fill="#FD7C05" d="M239.151-36.432c-2.72,2.407-5.127,4.896-7.767,7.069
				c-1.151,0.95-1.528,1.83-1.261,3.342c0.368,2.095,0.269,4.264,0.458,6.39c0.095,1.053-0.318,1.822-1.248,2.13
				c-0.945,0.313-1.885-0.035-2.468-0.869c-1.41-2.015-2.606-4.184-4.074-6.154c-0.564-0.76-1.145-1.666-1.902-2.232
				c-1.969-1.469-4.386-2.322-6.401-3.728c-0.809-0.564-0.741-1.474-0.441-2.461c0.322-1.055,0.758-1.657,1.876-1.556
				c2.488,0.226,5.006,0.105,7.496,0.312c0.414,0.034,0.806,0.096,1.063-0.19c2.436-2.69,5.077-5.194,7.468-7.923
				c0.154-0.176,0.051-0.31,0.308-0.682c-1.807-0.833-3.448-1.72-5.173-2.533c-3.826-1.804-7.737-3.431-11.544-5.274
				c-1.345-0.651-1.03-1.338-0.264-2.668c1.402-2.431,3.135-3.2,5.926-2.944c6.983,0.641,13.994,0.989,20.975,1.662
				c1.304,0.126,1.888-0.838,2.825-1.656c2.634-2.3,5.747-4.036,8.536-6.139c1.155-0.872,2.59-1.236,4-1.651
				c2.564-0.754,4.032,0.43,3.309,3.017c-0.761,2.725-2.531,4.89-4.354,7.016c-1.651,1.928-3.435,3.742-5.098,5.662
				c-0.322,0.371-0.271,1.165-0.23,1.655c0.612,7.43,1.571,14.831,2.212,22.259c0.221,2.556-1.779,5.084-4.162,6.035
				c-0.794,0.317-1.636,0.342-2.047-0.442c-0.579-1.104-0.531-2.513-1.059-3.641C244.135-26.863,239.401-35.931,239.151-36.432z
				 M228.388-19.232c0.196-0.541,0.38-0.704,0.372-0.772c-0.278-2.482-0.599-4.958-0.895-7.438
				c-0.098-0.816-0.049-1.455,0.729-2.103c9.55-7.954,18.48-16.557,26.582-26c1.463-1.707,2.36-3.871,3.457-5.874
				c0.196-0.358,0.248-0.907,0.266-1.362c-0.461,0.038-1.169-0.255-1.568-0.08c-1.213,0.535-2.189,1.539-3.203,2.349
				c-2.797,2.233-5.936,4.079-8.571,6.498c-7.23,6.634-13.532,14.179-19.919,21.608c-0.322,0.374-0.984,1.035-1.482,1.006
				c-1.484-0.086-2.96-0.495-4.439-0.658c-1.246-0.137-2.475-0.567-3.723-0.673c-0.067,0.133-0.036,0.216-0.104,0.348
				C221.419-29.496,225.355-24.997,228.388-19.232z M216.6-52.407c5.606,2.566,11.218,4.919,16.687,7.464
				c0.697,0.325,0.888-0.109,1.241-0.475c2.129-2.199,4.364-4.294,6.492-6.494c0.286-0.296,0.37-0.648,0.771-1.07
				c-0.437-0.08-0.503-0.007-0.695-0.023c-3.771-0.329-7.52-0.895-11.29-1.211c-3.127-0.263-6.241-0.749-9.372-0.963
				C218.783-55.294,217.456-54.083,216.6-52.407z M249.223-45.889c-2.774,2.652-5.388,5.294-7.938,7.805
				c-0.206,0.202-0.159,0.775-0.021,1.098c0.854,1.999,1.625,4.036,2.537,6.01c1.604,3.47,3.382,6.788,4.996,10.256
				c1.819-0.892,2.281-2.07,2.101-4.091c-0.358-3.974-0.476-7.969-0.824-11.943C249.816-39.678,249.492-42.761,249.223-45.889z"/>
			<path fill="none" stroke="#000000" stroke-width="0.25" stroke-miterlimit="10" d="M239.151-36.432
				c-2.72,2.407-5.127,4.896-7.767,7.069c-1.151,0.95-1.528,1.83-1.261,3.342c0.368,2.095,0.269,4.264,0.458,6.39
				c0.095,1.053-0.318,1.822-1.248,2.13c-0.945,0.313-1.885-0.035-2.468-0.869c-1.41-2.015-2.606-4.184-4.074-6.154
				c-0.564-0.76-1.145-1.666-1.902-2.232c-1.969-1.469-4.386-2.322-6.401-3.728c-0.809-0.564-0.741-1.474-0.441-2.461
				c0.322-1.055,0.758-1.657,1.876-1.556c2.488,0.226,5.006,0.105,7.496,0.312c0.414,0.034,0.806,0.096,1.063-0.19
				c2.436-2.69,5.077-5.194,7.468-7.923c0.154-0.176,0.051-0.31,0.308-0.682c-1.807-0.833-3.448-1.72-5.173-2.533
				c-3.826-1.804-7.737-3.431-11.544-5.274c-1.345-0.651-1.03-1.338-0.264-2.668c1.402-2.431,3.135-3.2,5.926-2.944
				c6.983,0.641,13.994,0.989,20.975,1.662c1.304,0.126,1.888-0.838,2.825-1.656c2.634-2.3,5.747-4.036,8.536-6.139
				c1.155-0.872,2.59-1.236,4-1.651c2.564-0.754,4.032,0.43,3.309,3.017c-0.761,2.725-2.531,4.89-4.354,7.016
				c-1.651,1.928-3.435,3.742-5.098,5.662c-0.322,0.371-0.271,1.165-0.23,1.655c0.612,7.43,1.571,14.831,2.212,22.259
				c0.221,2.556-1.779,5.084-4.162,6.035c-0.794,0.317-1.636,0.342-2.047-0.442c-0.579-1.104-0.531-2.513-1.059-3.641
				C244.135-26.863,239.401-35.931,239.151-36.432z M228.388-19.232c0.196-0.541,0.38-0.704,0.372-0.772
				c-0.278-2.482-0.599-4.958-0.895-7.438c-0.098-0.816-0.049-1.455,0.729-2.103c9.55-7.954,18.48-16.557,26.582-26
				c1.463-1.707,2.36-3.871,3.457-5.874c0.196-0.358,0.248-0.907,0.266-1.362c-0.461,0.038-1.169-0.255-1.568-0.08
				c-1.213,0.535-2.189,1.539-3.203,2.349c-2.797,2.233-5.936,4.079-8.571,6.498c-7.23,6.634-13.532,14.179-19.919,21.608
				c-0.322,0.374-0.984,1.035-1.482,1.006c-1.484-0.086-2.96-0.495-4.439-0.658c-1.246-0.137-2.475-0.567-3.723-0.673
				c-0.067,0.133-0.036,0.216-0.104,0.348C221.419-29.496,225.355-24.997,228.388-19.232z M216.6-52.407
				c5.606,2.566,11.218,4.919,16.687,7.464c0.697,0.325,0.888-0.109,1.241-0.475c2.129-2.199,4.364-4.294,6.492-6.494
				c0.286-0.296,0.37-0.648,0.771-1.07c-0.437-0.08-0.503-0.007-0.695-0.023c-3.771-0.329-7.52-0.895-11.29-1.211
				c-3.127-0.263-6.241-0.749-9.372-0.963C218.783-55.294,217.456-54.083,216.6-52.407z M249.223-45.889
				c-2.774,2.652-5.388,5.294-7.938,7.805c-0.206,0.202-0.159,0.775-0.021,1.098c0.854,1.999,1.625,4.036,2.537,6.01
				c1.604,3.47,3.382,6.788,4.996,10.256c1.819-0.892,2.281-2.07,2.101-4.091c-0.358-3.974-0.476-7.969-0.824-11.943
				C249.816-39.678,249.492-42.761,249.223-45.889z"/>
		</g>
		<g>
			<path fill-rule="evenodd" clip-rule="evenodd" fill="#002F64" d="M230.824-19.653c-0.189-2.126-0.096-4.315-0.464-6.41
				c-0.268-1.512-0.238-2.485,0.913-3.435c2.64-2.173,5.082-4.605,7.802-7.012c0.12,0.243,1.931-1.55,2.084-1.702
				c2.55-2.512,4.959-5.191,7.733-7.844c0.011,0.126,2.511-1.946,2.752-2.223c1.663-1.919,3.603-3.603,5.254-5.531
				c1.822-2.126,3.005-4.689,3.766-7.414c0.724-2.587-0.579-3.782-3.144-3.028c-1.41,0.416-3.116,0.456-4.272,1.328
				c-2.157,1.627-5.092,3.306-7.141,5.075c-7.417,7.46-7.047,7.825-14.333,15.413c-2.325,2.656-4.455,5.859-6.823,8.477
				c-0.258,0.287-1.18,0.544-1.594,0.51c-2.49-0.207-4.979-0.464-7.468-0.689c-1.118-0.101-1.528,0.134-1.851,1.189
				c-0.3,0.988-0.351,1.888,0.458,2.452c2.016,1.406,4.491,2.18,6.46,3.649c0.759,0.566,1.245,1.582,1.81,2.342
				c1.468,1.97,3.139,3.807,4.549,5.821c0.582,0.834,0.903,0.982,1.849,0.668C230.094-18.324,230.919-18.601,230.824-19.653z
				 M215.866-32.343c0.068-0.132,0.068,0.176,0.137,0.043c1.247,0.106,2.509-0.274,3.755-0.137c1.479,0.163,2.949,0.319,4.434,0.405
				c0.498,0.029,1.052-0.064,1.374-0.438c6.388-7.43,12.657-15.024,19.888-21.658c2.636-2.419,5.72-4.35,8.517-6.583
				c1.014-0.81,2.391-1.065,3.604-1.6c0.398-0.176,0.857-0.425,1.318-0.463c-0.018,0.455,0.349,1.221,0.152,1.579
				c-1.097,2.003-2.473,3.885-3.936,5.59c-8.102,9.443-17.237,17.776-26.788,25.73c-0.778,0.648-0.333,1.59-0.236,2.406
				c0.296,2.479,0.818,4.935,1.097,7.417c0.008,0.068-0.784,0.395-0.98,0.935C225.169-24.882,221.396-29.456,215.866-32.343z"/>
			<path fill="none" stroke="#000000" stroke-width="0.25" stroke-miterlimit="10" d="M230.824-19.653
				c-0.189-2.126-0.096-4.315-0.464-6.41c-0.268-1.512-0.238-2.485,0.913-3.435c2.64-2.173,5.082-4.605,7.802-7.012
				c0.12,0.243,1.931-1.55,2.084-1.702c2.55-2.512,4.959-5.191,7.733-7.844c0.011,0.126,2.511-1.946,2.752-2.223
				c1.663-1.919,3.603-3.603,5.254-5.531c1.822-2.126,3.005-4.689,3.766-7.414c0.724-2.587-0.579-3.782-3.144-3.028
				c-1.41,0.416-3.116,0.456-4.272,1.328c-2.157,1.627-5.092,3.306-7.141,5.075c-7.417,7.46-7.047,7.825-14.333,15.413
				c-2.325,2.656-4.455,5.859-6.823,8.477c-0.258,0.287-1.18,0.544-1.594,0.51c-2.49-0.207-4.979-0.464-7.468-0.689
				c-1.118-0.101-1.528,0.134-1.851,1.189c-0.3,0.988-0.351,1.888,0.458,2.452c2.016,1.406,4.491,2.18,6.46,3.649
				c0.759,0.566,1.245,1.582,1.81,2.342c1.468,1.97,3.139,3.807,4.549,5.821c0.582,0.834,0.903,0.982,1.849,0.668
				C230.094-18.324,230.919-18.601,230.824-19.653z M215.866-32.343c0.068-0.132,0.068,0.176,0.137,0.043
				c1.247,0.106,2.509-0.274,3.755-0.137c1.479,0.163,2.949,0.319,4.434,0.405c0.498,0.029,1.052-0.064,1.374-0.438
				c6.388-7.43,12.657-15.024,19.888-21.658c2.636-2.419,5.72-4.35,8.517-6.583c1.014-0.81,2.391-1.065,3.604-1.6
				c0.398-0.176,0.857-0.425,1.318-0.463c-0.018,0.455,0.349,1.221,0.152,1.579c-1.097,2.003-2.473,3.885-3.936,5.59
				c-8.102,9.443-17.237,17.776-26.788,25.73c-0.778,0.648-0.333,1.59-0.236,2.406c0.296,2.479,0.818,4.935,1.097,7.417
				c0.008,0.068-0.784,0.395-0.98,0.935C225.169-24.882,221.396-29.456,215.866-32.343z"/>
		</g>
	</g>
</g>
<g>
	<g>
		<g>
			<path fill-rule="evenodd" clip-rule="evenodd" fill="#002F64" d="M39.974,41.063c-4.684,0-9.368,0-14.053-0.001
				c-0.162,0-0.325,0.008-0.485-0.01c-0.366-0.041-0.612-0.297-0.642-0.661c-0.01-0.115-0.004-0.231-0.004-0.348
				c0-4.569,0-9.137,0-13.706c0-1.778-0.001-3.557,0.001-5.336c0-0.463,0.198-0.723,0.598-0.812
				c0.482-0.108,0.927,0.212,0.939,0.706c0.013,0.52-0.017,1.041-0.016,1.56c0.007,5.586,0.015,11.172,0.024,16.757
				c0,0.48,0.001,0.482,0.477,0.482c3.376,0,6.751-0.004,10.127,0c2.654,0.001,5.308,0.014,7.962,0.014
				c2.775,0,5.551-0.014,8.327-0.006c0.36,0,0.441-0.127,0.44-0.465c-0.011-4.256-0.007-8.513-0.007-12.769
				c0-1.827-0.003-3.654,0.003-5.48c0.002-0.661,0.62-1.026,1.179-0.711c0.287,0.163,0.367,0.422,0.366,0.733
				c-0.005,1.19-0.002,2.382-0.002,3.574c0,5.135,0,10.271,0,15.404c0,0.127,0.006,0.255-0.003,0.382
				c-0.026,0.383-0.275,0.644-0.659,0.682c-0.16,0.016-0.323,0.009-0.485,0.009C49.365,41.063,44.67,41.063,39.974,41.063z"/>
			<path fill="none" stroke="#000000" stroke-width="0.25" stroke-miterlimit="10" d="M39.974,41.063c-4.684,0-9.368,0-14.053-0.001
				c-0.162,0-0.325,0.008-0.485-0.01c-0.366-0.041-0.612-0.297-0.642-0.661c-0.01-0.115-0.004-0.231-0.004-0.348
				c0-4.569,0-9.137,0-13.706c0-1.778-0.001-3.557,0.001-5.336c0-0.463,0.198-0.723,0.598-0.812
				c0.482-0.108,0.927,0.212,0.939,0.706c0.013,0.52-0.017,1.041-0.016,1.56c0.007,5.586,0.015,11.172,0.024,16.757
				c0,0.48,0.001,0.482,0.477,0.482c3.376,0,6.751-0.004,10.127,0c2.654,0.001,5.308,0.014,7.962,0.014
				c2.775,0,5.551-0.014,8.327-0.006c0.36,0,0.441-0.127,0.44-0.465c-0.011-4.256-0.007-8.513-0.007-12.769
				c0-1.827-0.003-3.654,0.003-5.48c0.002-0.661,0.62-1.026,1.179-0.711c0.287,0.163,0.367,0.422,0.366,0.733
				c-0.005,1.19-0.002,2.382-0.002,3.574c0,5.135,0,10.271,0,15.404c0,0.127,0.006,0.255-0.003,0.382
				c-0.026,0.383-0.275,0.644-0.659,0.682c-0.16,0.016-0.323,0.009-0.485,0.009C49.365,41.063,44.67,41.063,39.974,41.063z"/>
		</g>
		<g>
			<path fill-rule="evenodd" clip-rule="evenodd" fill="#FD7C05" d="M40.034,22.209c1.898,0,3.794-0.001,5.692,0
				c0.748,0.001,0.978,0.232,0.98,1.01c0.011,2.983,0.017,5.967,0.023,8.949c0.002,0.845,0.003,1.689-0.001,2.534
				c-0.004,0.674-0.274,0.94-0.955,0.94c-3.852,0.001-7.704,0.001-11.555,0c-0.677,0-0.948-0.269-0.948-0.948
				c-0.002-3.308-0.001-6.615-0.001-9.923c0-0.531-0.003-1.063,0-1.595c0.005-0.692,0.279-0.967,0.97-0.967
				C36.17,22.207,38.103,22.209,40.034,22.209z M39.979,28.144c1.606,0,3.212-0.007,4.819,0.007
				c0.306,0.002,0.395-0.093,0.391-0.396c-0.016-1.213-0.014-2.427-0.003-3.64c0.002-0.264-0.067-0.367-0.349-0.367
				c-3.224,0.009-6.447,0.008-9.67,0c-0.274,0-0.356,0.093-0.354,0.362c0.011,1.19,0.003,2.38,0.003,3.57
				c0,0.463,0.001,0.463,0.45,0.463C36.837,28.145,38.408,28.144,39.979,28.144z M37.015,34.099c0.625,0,1.25-0.008,1.874,0.005
				c0.251,0.005,0.346-0.07,0.344-0.333c-0.012-1.25-0.01-2.499-0.003-3.748c0.002-0.231-0.063-0.336-0.312-0.334
				c-1.272,0.008-2.544,0.006-3.816,0.001c-0.204,0-0.29,0.066-0.289,0.281c0.007,1.271,0.009,2.545,0.001,3.816
				c-0.002,0.245,0.092,0.32,0.327,0.316C35.766,34.092,36.391,34.099,37.015,34.099z M40.773,31.911c-0.001,0-0.001,0-0.001,0
				c0,0.613,0.012,1.227-0.006,1.84c-0.008,0.278,0.093,0.356,0.36,0.353c1.237-0.009,2.476-0.009,3.712,0
				c0.25,0.002,0.351-0.067,0.349-0.331c-0.011-1.261-0.008-2.521,0-3.783c0.002-0.229-0.082-0.301-0.304-0.3
				c-1.261,0.006-2.521,0.007-3.782-0.002c-0.262-0.002-0.337,0.101-0.332,0.351C40.782,30.662,40.773,31.287,40.773,31.911z"/>
			<path fill="none" stroke="#000000" stroke-miterlimit="10" d="M40.034,22.209c1.898,0,3.794-0.001,5.692,0
				c0.748,0.001,0.978,0.232,0.98,1.01c0.011,2.983,0.017,5.967,0.023,8.949c0.002,0.845,0.003,1.689-0.001,2.534
				c-0.004,0.674-0.274,0.94-0.955,0.94c-3.852,0.001-7.704,0.001-11.555,0c-0.677,0-0.948-0.269-0.948-0.948
				c-0.002-3.308-0.001-6.615-0.001-9.923c0-0.531-0.003-1.063,0-1.595c0.005-0.692,0.279-0.967,0.97-0.967
				C36.17,22.207,38.103,22.209,40.034,22.209z M39.979,28.144c1.606,0,3.212-0.007,4.819,0.007
				c0.306,0.002,0.395-0.093,0.391-0.396c-0.016-1.213-0.014-2.427-0.003-3.64c0.002-0.264-0.067-0.367-0.349-0.367
				c-3.224,0.009-6.447,0.008-9.67,0c-0.274,0-0.356,0.093-0.354,0.362c0.011,1.19,0.003,2.38,0.003,3.57
				c0,0.463,0.001,0.463,0.45,0.463C36.837,28.145,38.408,28.144,39.979,28.144z M37.015,34.099c0.625,0,1.25-0.008,1.874,0.005
				c0.251,0.005,0.346-0.07,0.344-0.333c-0.012-1.25-0.01-2.499-0.003-3.748c0.002-0.231-0.063-0.336-0.312-0.334
				c-1.272,0.008-2.544,0.006-3.816,0.001c-0.204,0-0.29,0.066-0.289,0.281c0.007,1.271,0.009,2.545,0.001,3.816
				c-0.002,0.245,0.092,0.32,0.327,0.316C35.766,34.092,36.391,34.099,37.015,34.099z M40.773,31.911c-0.001,0-0.001,0-0.001,0
				c0,0.613,0.012,1.227-0.006,1.84c-0.008,0.278,0.093,0.356,0.36,0.353c1.237-0.009,2.476-0.009,3.712,0
				c0.25,0.002,0.351-0.067,0.349-0.331c-0.011-1.261-0.008-2.521,0-3.783c0.002-0.229-0.082-0.301-0.304-0.3
				c-1.261,0.006-2.521,0.007-3.782-0.002c-0.262-0.002-0.337,0.101-0.332,0.351C40.782,30.662,40.773,31.287,40.773,31.911z"/>
		</g>
		<g>
			<path fill-rule="evenodd" clip-rule="evenodd" fill="#FD7C05" d="M40.005,3.936c0.267,0.158,0.53,0.271,0.741,0.448
				c1.419,1.189,2.824,2.391,4.236,3.587c5.257,4.455,10.515,8.912,15.772,13.367c0.454,0.384,0.546,0.705,0.289,1.023
				c-0.294,0.361-0.82,0.386-1.239,0.034c-1.558-1.312-3.107-2.629-4.659-3.946c-3.069-2.602-6.138-5.206-9.207-7.808
				c-1.86-1.577-3.726-3.148-5.575-4.737c-0.271-0.233-0.437-0.254-0.718-0.013c-1.128,0.975-2.287,1.913-3.423,2.879
				c-4.669,3.967-9.333,7.938-14,11.909c-0.669,0.569-1.327,1.155-2.019,1.694c-0.199,0.155-0.499,0.239-0.755,0.245
				c-0.286,0.008-0.525-0.177-0.61-0.482c-0.078-0.28,0.05-0.494,0.258-0.67c0.758-0.643,1.518-1.285,2.277-1.928
				c4.4-3.733,8.8-7.465,13.201-11.196c1.578-1.338,3.153-2.678,4.737-4.006C39.496,4.18,39.735,4.088,40.005,3.936z"/>
			<path fill="none" stroke="#000000" stroke-width="0.25" stroke-miterlimit="10" d="M40.005,3.936
				c0.267,0.158,0.53,0.271,0.741,0.448c1.419,1.189,2.824,2.391,4.236,3.587c5.257,4.455,10.515,8.912,15.772,13.367
				c0.454,0.384,0.546,0.705,0.289,1.023c-0.294,0.361-0.82,0.386-1.239,0.034c-1.558-1.312-3.107-2.629-4.659-3.946
				c-3.069-2.602-6.138-5.206-9.207-7.808c-1.86-1.577-3.726-3.148-5.575-4.737c-0.271-0.233-0.437-0.254-0.718-0.013
				c-1.128,0.975-2.287,1.913-3.423,2.879c-4.669,3.967-9.333,7.938-14,11.909c-0.669,0.569-1.327,1.155-2.019,1.694
				c-0.199,0.155-0.499,0.239-0.755,0.245c-0.286,0.008-0.525-0.177-0.61-0.482c-0.078-0.28,0.05-0.494,0.258-0.67
				c0.758-0.643,1.518-1.285,2.277-1.928c4.4-3.733,8.8-7.465,13.201-11.196c1.578-1.338,3.153-2.678,4.737-4.006
				C39.496,4.18,39.735,4.088,40.005,3.936z"/>
		</g>
	</g>
</g>
</svg>
