<?xml version="1.0" encoding="utf-8"?>
<!-- Generator: Adobe Illustrator 16.0.0, SVG Export Plug-In . SVG Version: 6.00 Build 0)  -->
<!DOCTYPE svg PUBLIC "-//W3C//DTD SVG 1.1//EN" "http://www.w3.org/Graphics/SVG/1.1/DTD/svg11.dtd">
<svg version="1.1" id="Layer_1" xmlns="http://www.w3.org/2000/svg" xmlns:xlink="http://www.w3.org/1999/xlink" x="0px" y="0px"
	 width="400px" height="340px" viewBox="0 0 400 340" enable-background="new 0 0 400 340" xml:space="preserve">
<g>
	<g>
		<g>
			<polygon fill="#2B3D54" points="58.191,231.485 2.517,278.114 397.305,278.114 335.234,231.485 			"/>
			<path fill="#010101" d="M399.579,278.873H0.421l57.494-48.146h277.577L399.579,278.873z M4.605,277.356h390.423l-60.044-45.111
				H58.468L4.605,277.356z"/>
		</g>
		<g>
			<path fill="#FFFFFF" d="M342.146,221.96c0,6.646-5.228,12.023-11.676,12.023H65.703c-6.449,0-11.677-5.378-11.677-12.023V27.023
				c0-6.646,5.228-12.025,11.677-12.025h264.768c6.448,0,11.676,5.378,11.676,12.025V221.96z"/>
			<path fill="#010101" d="M330.471,234.751H65.703c-6.86,0-12.436-5.737-12.436-12.791V27.023c0-7.048,5.576-12.784,12.436-12.784
				h264.768c6.859,0,12.443,5.736,12.443,12.784V221.96C342.914,229.014,337.33,234.751,330.471,234.751z M65.703,15.756
				c-6.021,0-10.919,5.059-10.919,11.267V221.96c0,6.217,4.899,11.266,10.919,11.266h264.768c6.021,0,10.918-5.049,10.918-11.266
				V27.023c0-6.208-4.897-11.267-10.918-11.267H65.703z"/>
		</g>
		<g>
			<path fill="#303A45" d="M337.589,216.303c0,6.423-5.066,11.633-11.313,11.633H69.896c-6.245,0-11.302-5.21-11.302-11.633V32.679
				c0-6.423,5.057-11.633,11.302-11.633h256.381c6.246,0,11.313,5.21,11.313,11.633V216.303z"/>
			<path fill="#010101" d="M326.276,228.702H69.896c-6.655,0-12.07-5.566-12.07-12.399V32.679c0-6.833,5.416-12.4,12.07-12.4
				h256.381c6.655,0,12.07,5.567,12.07,12.4v183.624C338.347,223.136,332.932,228.702,326.276,228.702z M69.896,21.803
				c-5.816,0-10.554,4.881-10.554,10.875v183.624c0,5.995,4.737,10.885,10.554,10.885h256.381c5.818,0,10.546-4.89,10.546-10.885
				V32.679c0-5.995-4.728-10.875-10.546-10.875H69.896z"/>
		</g>
		<g>
			<path fill="#FFFFFF" d="M319.48,201.833c0,5.077-3.997,9.188-8.921,9.188H85.613c-4.932,0-8.929-4.11-8.929-9.188V47.148
				c0-5.085,3.997-9.189,8.929-9.189H310.56c4.924,0,8.921,4.104,8.921,9.189V201.833z"/>
			<path fill="#010101" d="M310.56,211.781H85.613c-5.343,0-9.687-4.462-9.687-9.948V47.148c0-5.487,4.344-9.956,9.687-9.956H310.56
				c5.334,0,9.678,4.469,9.678,9.956v154.685C320.237,207.319,315.894,211.781,310.56,211.781z M85.613,38.717
				c-4.504,0-8.162,3.783-8.162,8.431v154.685c0,4.649,3.658,8.43,8.162,8.43H310.56c4.495,0,8.162-3.78,8.162-8.43V47.148
				c0-4.648-3.667-8.431-8.162-8.431H85.613z"/>
		</g>
		<g>
			<rect x="2.517" y="278.114" fill="#7A7C7E" width="394.788" height="15.014"/>
			<path fill="#010101" d="M398.063,293.886H1.75v-16.529h396.313V293.886z M3.267,292.369h393.279v-13.496H3.267V292.369z"/>
		</g>
		<g>
			<polygon fill="#D1D2D3" points="85.31,239.31 61.563,260.112 334.609,260.112 308.132,239.31 			"/>
			<path fill="#010101" d="M336.805,260.871H59.547l25.478-22.328H308.4L336.805,260.871z M63.58,259.354h268.835l-24.542-19.296
				H85.596L63.58,259.354z"/>
		</g>
		<g>
			<polygon fill="#D1D2D3" points="236.231,272.671 163.091,272.671 174.037,263.074 224.02,263.074 			"/>
			<path fill="#010101" d="M238.426,273.431h-77.352l12.677-11.114h50.536L238.426,273.431z M165.107,271.905h68.929l-10.276-8.072
				h-49.438L165.107,271.905z"/>
		</g>
		<g>
			<g>
				<rect x="98.808" y="55.096" fill="#F47C20" width="33.979" height="33.989"/>
				<path fill="#010101" d="M133.545,89.842H98.041V54.338h35.504V89.842z M99.566,88.326h32.462V55.855H99.566V88.326z"/>
			</g>
			<g>
				<path fill="#F47C20" d="M136.382,92.679H95.204V51.501h41.179V92.679z M96.443,91.439h38.698V52.741H96.443V91.439z"/>
				<path fill="#010101" d="M137.149,93.437H94.446V50.743h42.704V93.437z M97.203,90.681h37.181V53.509H97.203V90.681z"/>
			</g>
			<g>
				<rect x="98.808" y="107.175" fill="#F47C20" width="33.979" height="33.98"/>
				<path fill="#010101" d="M133.545,141.914H98.041v-35.505h35.504V141.914z M99.566,140.396h32.462v-32.463H99.566V140.396z"/>
			</g>
			<g>
				<path fill="#F47C20" d="M136.382,144.759H95.204v-41.187h41.179V144.759z M96.443,143.509h38.698v-38.698H96.443V143.509z"/>
				<path fill="#010101" d="M137.149,145.508H94.446v-42.696h42.704V145.508z M97.203,142.75h37.181v-37.181H97.203V142.75z"/>
			</g>
			<g>
				<rect x="98.808" y="159.246" fill="#F47C20" width="33.979" height="33.978"/>
				<path fill="#010101" d="M133.545,193.982H98.041v-35.496h35.504V193.982z M99.566,192.467h32.462v-32.463H99.566V192.467z"/>
			</g>
			<g>
				<path fill="#F47C20" d="M136.382,196.82H95.204v-41.179h41.179V196.82z M96.443,195.58h38.698v-38.689H96.443V195.58z"/>
				<path fill="#010101" d="M137.149,197.588H94.446v-42.704h42.704V197.588z M97.203,194.821h37.181v-37.181H97.203V194.821z"/>
			</g>
			<g>
				<rect x="148.684" y="60.189" fill="#F47C20" width="150.395" height="4.104"/>
				<path fill="#010101" d="M299.837,65.051h-151.92v-5.619h151.92V65.051z M149.441,63.526h148.878v-2.578H149.441V63.526z"/>
			</g>
			<g>
				<rect x="148.684" y="70.038" fill="#F47C20" width="150.395" height="4.103"/>
				<path fill="#010101" d="M299.837,74.9h-151.92v-5.62h151.92V74.9z M149.441,73.384h148.878v-2.587H149.441V73.384z"/>
			</g>
			<g>
				<rect x="148.684" y="79.887" fill="#F47C20" width="46.495" height="4.104"/>
				<path fill="#010101" d="M195.937,84.749h-48.02v-5.619h48.02V84.749z M149.441,83.232h44.979v-2.587h-44.979V83.232z"/>
			</g>
			<g>
				<rect x="148.684" y="111.601" fill="#F47C20" width="150.395" height="4.103"/>
				<path fill="#010101" d="M299.837,116.471h-151.92v-5.62h151.92V116.471z M149.441,114.954h148.878v-2.587H149.441V114.954z"/>
			</g>
			<g>
				<rect x="148.684" y="121.457" fill="#F47C20" width="150.395" height="4.104"/>
				<path fill="#010101" d="M299.837,126.319h-151.92v-5.629h151.92V126.319z M149.441,124.793h148.878v-2.577H149.441V124.793z"/>
			</g>
			<g>
				<rect x="148.684" y="131.306" fill="#F47C20" width="98.271" height="4.103"/>
				<path fill="#010101" d="M247.713,136.168h-99.796v-5.621h99.796V136.168z M149.441,134.652h96.756v-2.587h-96.756V134.652z"/>
			</g>
			<g>
				<rect x="148.684" y="163.019" fill="#F47C20" width="150.395" height="4.104"/>
				<path fill="#010101" d="M299.837,167.881h-151.92v-5.621h151.92V167.881z M149.441,166.364h148.878v-2.577H149.441V166.364z"/>
			</g>
			<g>
				<rect x="148.684" y="172.868" fill="#F47C20" width="128.637" height="4.104"/>
				<path fill="#010101" d="M278.079,177.729H147.917v-5.619h130.163V177.729z M149.441,176.213h127.121v-2.577H149.441V176.213z"/>
			</g>
			<g>
				<rect x="148.684" y="182.716" fill="#F47C20" width="46.495" height="4.112"/>
				<path fill="#010101" d="M195.937,187.578h-48.02v-5.62h48.02V187.578z M149.441,186.062h44.979v-2.588h-44.979V186.062z"/>
			</g>
		</g>
	</g>
	<g>
		<g>
			<g>
				<path fill="#171717" d="M95.204,312.995c0,6.6-4.666,12.007-10.366,12.007H23.205c-5.7,0-10.357-5.407-10.357-12.007V186.409
					c0-6.602,4.657-11.998,10.357-11.998h61.633c5.701,0,10.366,5.396,10.366,11.998V312.995z"/>
				<path fill="#010101" d="M84.837,325.761H23.205c-6.128,0-11.116-5.727-11.116-12.766V186.409
					c0-7.029,4.987-12.757,11.116-12.757h61.633c6.139,0,11.125,5.728,11.125,12.757v126.586
					C95.962,320.034,90.976,325.761,84.837,325.761z M23.205,175.17c-5.29,0-9.599,5.048-9.599,11.239v126.586
					c0,6.199,4.309,11.248,9.599,11.248h61.633c5.299,0,9.608-5.049,9.608-11.248V186.409c0-6.191-4.309-11.239-9.608-11.239H23.205
					z"/>
			</g>
			<g>
				<g>
					<defs>
						<path id="SVGID_1_" d="M84.837,174.411H48.317l4.843,15.539h35.237v59.172l6.807,21.864v-84.577
							C95.204,179.808,90.538,174.411,84.837,174.411z"/>
					</defs>
					<clipPath id="SVGID_2_">
						<use xlink:href="#SVGID_1_"  overflow="visible"/>
					</clipPath>
					<polygon clip-path="url(#SVGID_2_)" fill="#535454" points="59.708,173 47,179.853 47,173 					"/>
					<polygon clip-path="url(#SVGID_2_)" fill="#535454" points="62.742,173 47,181.288 47,179.853 59.708,173 					"/>
					<polygon clip-path="url(#SVGID_2_)" fill="#535353" points="65.774,173 47,182.743 47,181.288 62.742,173 					"/>
					<polygon clip-path="url(#SVGID_2_)" fill="#525252" points="68.799,173 47,184.196 47,182.743 65.774,173 					"/>
					<polygon clip-path="url(#SVGID_2_)" fill="#515151" points="71.831,173 47,185.642 47,184.196 68.799,173 					"/>
					<polygon clip-path="url(#SVGID_2_)" fill="#505050" points="74.864,173 47.742,186.338 47,186.864 47,185.642 71.831,173 					
						"/>
					<polygon clip-path="url(#SVGID_2_)" fill="#4F4F4F" points="77.888,173 48.967,187.514 48.405,185.976 74.864,173 					"/>
					<polygon clip-path="url(#SVGID_2_)" fill="#4E4E4E" points="80.921,173 49.54,188.686 48.967,187.155 77.888,173 					"/>
					<polygon clip-path="url(#SVGID_2_)" fill="#4D4D4D" points="83.955,173 50.092,189.869 49.54,188.329 80.921,173 					"/>
					<polygon clip-path="url(#SVGID_2_)" fill="#4C4C4C" points="86.978,173 50.653,191.049 50.092,189.527 83.955,173 					"/>
					<polygon clip-path="url(#SVGID_2_)" fill="#4B4B4B" points="90.003,173 51.216,192.225 50.653,190.687 86.978,173 					"/>
					<polygon clip-path="url(#SVGID_2_)" fill="#4A4A4A" points="93.045,173 51.778,193.402 51.216,191.863 90.003,173 					"/>
					<polygon clip-path="url(#SVGID_2_)" fill="#494949" points="94,174.82 51.742,195.285 51.479,193.402 93.045,173 94,173 					
						"/>
					<polygon clip-path="url(#SVGID_2_)" fill="#484848" points="94,176.275 52.313,196.473 51.443,195.285 94,174.82 					"/>
					<polygon clip-path="url(#SVGID_2_)" fill="#474747" points="94,177.721 52.868,197.649 52.005,196.473 94,176.275 					"/>
					<polygon clip-path="url(#SVGID_2_)" fill="#464646" points="94,179.176 53.436,198.817 52.576,197.649 94,177.721 					"/>
					<polygon clip-path="url(#SVGID_2_)" fill="#454545" points="94,180.611 53.992,200.005 53.138,198.817 94,179.176 					"/>
					<polygon clip-path="url(#SVGID_2_)" fill="#444444" points="94,182.065 54.561,201.183 53.691,200.005 94,180.611 					"/>
					<polygon clip-path="url(#SVGID_2_)" fill="#434343" points="94,183.511 55.114,202.359 54.262,201.183 94,182.065 					"/>
					<polygon clip-path="url(#SVGID_2_)" fill="#424242" points="94,184.956 55.685,203.538 54.815,202.359 94,183.511 					"/>
					<polygon clip-path="url(#SVGID_2_)" fill="#414141" points="94,186.4 56.238,204.715 55.386,203.538 94,184.956 					"/>
					<polygon clip-path="url(#SVGID_2_)" fill="#404040" points="94,187.846 56.81,205.901 55.947,204.715 94,186.4 					"/>
					<polygon clip-path="url(#SVGID_2_)" fill="#3F3F3F" points="94,189.3 57.378,207.069 56.51,205.901 94,187.846 					"/>
					<polygon clip-path="url(#SVGID_2_)" fill="#3E3E3E" points="94,190.745 57.933,208.247 57.072,207.069 94,189.3 					"/>
					<polygon clip-path="url(#SVGID_2_)" fill="#3D3D3D" points="94,192.189 58.503,209.433 57.634,208.247 94,190.745 					"/>
					<polygon clip-path="url(#SVGID_2_)" fill="#3C3C3B" points="94,193.635 59.057,210.601 58.196,209.433 94,192.189 					"/>
					<polygon clip-path="url(#SVGID_2_)" fill="#3A3B3B" points="94,195.08 59.629,211.788 58.758,210.601 94,193.635 					"/>
					<polygon clip-path="url(#SVGID_2_)" fill="#3A3A39" points="94,196.534 60.181,212.967 59.32,211.788 94,195.08 					"/>
					<polygon clip-path="url(#SVGID_2_)" fill="#383938" points="94,197.979 60.753,214.135 59.882,212.967 94,196.534 					"/>
					<polygon clip-path="url(#SVGID_2_)" fill="#373737" points="94,199.424 61.306,215.322 60.444,214.135 94,197.979 					"/>
					<polygon clip-path="url(#SVGID_2_)" fill="#373636" points="94,200.869 61.858,216.499 61.006,215.322 94,199.424 					"/>
					<polygon clip-path="url(#SVGID_2_)" fill="#353635" points="94,202.323 62.429,217.677 61.568,216.499 94,200.869 					"/>
					<polygon clip-path="url(#SVGID_2_)" fill="#333333" points="94,203.77 63,218.854 62.139,217.677 94,202.323 					"/>
					<polygon clip-path="url(#SVGID_2_)" fill="#333332" points="94,205.206 63.553,220.04 62.692,218.854 94,203.77 					"/>
					<polygon clip-path="url(#SVGID_2_)" fill="#313131" points="94,206.658 64.125,221.218 63.254,220.04 94,205.206 					"/>
					<polygon clip-path="url(#SVGID_2_)" fill="#303030" points="94,208.105 64.677,222.387 63.816,221.218 94,206.658 					"/>
					<polygon clip-path="url(#SVGID_2_)" fill="#302F2F" points="94,209.55 65.25,223.572 64.387,222.387 94,208.105 					"/>
					<polygon clip-path="url(#SVGID_2_)" fill="#2E2E2E" points="94,210.994 65.802,224.75 64.949,223.572 94,209.55 					"/>
					<polygon clip-path="url(#SVGID_2_)" fill="#2D2E2D" points="94,212.438 66.372,225.919 65.511,224.75 94,210.994 					"/>
					<polygon clip-path="url(#SVGID_2_)" fill="#2D2C2C" points="94,213.895 66.924,227.106 66.073,225.919 94,212.438 					"/>
					<polygon clip-path="url(#SVGID_2_)" fill="#2B2C2B" points="94,215.34 67.496,228.282 66.625,227.106 94,213.895 					"/>
					<polygon clip-path="url(#SVGID_2_)" fill="#2A2A2A" points="94,216.783 68.068,229.453 67.197,228.282 94,215.34 					"/>
					<polygon clip-path="url(#SVGID_2_)" fill="#292929" points="94,218.23 68.62,230.638 67.759,229.453 94,216.783 					"/>
					<polygon clip-path="url(#SVGID_2_)" fill="#282828" points="94,219.675 69.192,231.816 68.321,230.638 94,218.23 					"/>
					<polygon clip-path="url(#SVGID_2_)" fill="#272727" points="94,221.128 69.746,232.993 68.883,231.816 94,219.675 					"/>
					<polygon clip-path="url(#SVGID_2_)" fill="#272626" points="94,222.575 70.315,234.172 69.445,232.993 94,221.128 					"/>
					<polygon clip-path="url(#SVGID_2_)" fill="#252525" points="94,224.019 70.868,235.358 70.016,234.172 94,222.575 					"/>
					<polygon clip-path="url(#SVGID_2_)" fill="#242424" points="94,225.464 71.439,236.526 70.569,235.358 94,224.019 					"/>
					<polygon clip-path="url(#SVGID_2_)" fill="#232323" points="94,226.919 71.992,237.703 71.131,236.526 94,225.464 					"/>
					<polygon clip-path="url(#SVGID_2_)" fill="#222222" points="94,228.363 72.564,238.89 71.702,237.703 94,226.919 					"/>
					<polygon clip-path="url(#SVGID_2_)" fill="#212121" points="94,229.809 73.117,240.058 72.264,238.89 94,228.363 					"/>
					<polygon clip-path="url(#SVGID_2_)" fill="#202020" points="94,231.253 73.687,241.245 72.826,240.058 94,229.809 					"/>
					<polygon clip-path="url(#SVGID_2_)" fill="#1F2020" points="94,232.699 74.241,242.424 73.388,241.245 94,231.253 					"/>
					<polygon clip-path="url(#SVGID_2_)" fill="#1E1E1E" points="94,234.152 74.811,243.6 73.95,242.424 94,232.699 					"/>
					<polygon clip-path="url(#SVGID_2_)" fill="#1D1D1D" points="94,235.598 75.364,244.778 74.512,243.6 94,234.152 					"/>
					<polygon clip-path="url(#SVGID_2_)" fill="#1C1C1C" points="94,237.044 75.936,245.955 75.074,244.778 94,235.598 					"/>
					<polygon clip-path="url(#SVGID_2_)" fill="#1B1B1B" points="94,238.489 76.507,247.134 75.636,245.955 94,237.044 					"/>
					<polygon clip-path="url(#SVGID_2_)" fill="#1A1A1A" points="96,239.933 78.055,248.31 77.697,247.134 96,238.489 					"/>
					<polygon clip-path="url(#SVGID_2_)" fill="#191919" points="96,241.388 78.626,249.489 78.258,248.31 96,239.933 					"/>
					<polygon clip-path="url(#SVGID_2_)" fill="#191918" points="96,242.824 79.187,250.665 78.821,249.489 96,241.388 					"/>
					<polygon clip-path="url(#SVGID_2_)" fill="#181818" points="96,244.277 79.75,251.853 79.383,250.665 96,242.824 					"/>
					<polygon clip-path="url(#SVGID_2_)" fill="#171717" points="96,245.725 80.303,253.028 79.944,251.853 96,244.277 					"/>
					<polygon clip-path="url(#SVGID_2_)" fill="#171717" points="88.486,274 79.307,254.537 94,245.725 94,274 					"/>
				</g>
				<path fill="#010101" d="M95.962,275.972l-8.332-26.85v-58.413H52.599l-5.309-17.057h37.547c6.139,0,11.125,5.728,11.125,12.757
					V275.972z M89.156,249.007l5.29,16.983v-79.581c0-6.191-4.309-11.239-9.608-11.239H49.351l4.362,14.022h35.443V249.007z"/>
			</g>
			<g>
				<rect x="19.654" y="189.95" fill="#FFFFFF" width="68.743" height="119.504"/>
				<path fill="#010101" d="M89.156,310.22h-70.26V189.192h70.26V310.22z M20.413,308.695H87.63V190.709H20.413V308.695z"/>
			</g>
		</g>
		<g>
			<g>
				<path fill="#171717" d="M66.31,180.253c0,1.054-0.732,1.893-1.633,1.893H45.489c-0.901,0-1.632-0.839-1.632-1.893l0,0
					c0-1.043,0.731-1.891,1.632-1.891h19.188C65.578,178.362,66.31,179.21,66.31,180.253L66.31,180.253z"/>
				<path fill="#010101" d="M64.677,182.903H45.489c-1.321,0-2.392-1.186-2.392-2.65c0-1.462,1.071-2.649,2.392-2.649h19.188
					c1.312,0,2.392,1.188,2.392,2.649C67.068,181.718,65.988,182.903,64.677,182.903z M45.489,179.13
					c-0.473,0-0.874,0.509-0.874,1.123c0,0.625,0.392,1.134,0.874,1.134h19.188c0.482,0,0.874-0.509,0.874-1.134
					c0-0.614-0.401-1.123-0.874-1.123H45.489z"/>
			</g>
			<g>
				<path fill="#010101" d="M64.677,182.653H45.489c-1.177,0-2.15-1.078-2.15-2.4c0-1.319,0.973-2.397,2.15-2.397h19.188
					c1.178,0,2.141,1.078,2.141,2.397C66.818,181.575,65.854,182.653,64.677,182.653z M45.489,178.881
					c-0.616,0-1.115,0.615-1.115,1.372c0,0.759,0.499,1.375,1.115,1.375h19.188c0.616,0,1.115-0.616,1.115-1.375
					c0-0.757-0.499-1.372-1.115-1.372H45.489z"/>
				<path fill="#010101" d="M64.677,183.413H45.489c-1.597,0-2.909-1.411-2.909-3.16c0-1.738,1.312-3.157,2.909-3.157h19.188
					c1.598,0,2.9,1.419,2.9,3.157C67.577,182.002,66.274,183.413,64.677,183.413z M45.489,179.639c-0.144,0-0.357,0.241-0.357,0.614
					c0,0.377,0.214,0.617,0.357,0.617h19.188c0.144,0,0.357-0.24,0.357-0.617c0-0.373-0.214-0.614-0.357-0.614H45.489z"/>
			</g>
		</g>
	</g>
	<g>
		<g>
			<rect x="24.301" y="228.836" fill="#F47C20" width="10.188" height="10.198"/>
			<path fill="#010101" d="M34.525,239.068H24.256V228.8h10.269V239.068z M24.337,238.998h10.116v-10.117H24.337V238.998z"/>
		</g>
		<g>
			<path fill="#F47C20" d="M35.568,240.111H23.223v-12.354h12.346V240.111z M23.597,239.738h11.598v-11.607H23.597V239.738z"/>
			<path fill="#010101" d="M35.613,240.147H23.178v-12.426h12.436V240.147z M23.257,240.068h12.275v-12.266H23.257V240.068z
				 M35.238,239.773H23.552v-11.678h11.686V239.773z M23.633,239.702h11.525v-11.533H23.633V239.702z"/>
		</g>
		<g>
			<rect x="24.301" y="244.456" fill="#F47C20" width="10.188" height="10.196"/>
			<path fill="#010101" d="M34.525,254.69H24.256v-10.27h10.269V254.69z M24.337,254.609h10.116v-10.117H24.337V254.609z"/>
		</g>
		<g>
			<path fill="#F47C20" d="M35.568,255.733H23.223v-12.355h12.346V255.733z M23.597,255.357h11.598v-11.605H23.597V255.357z"/>
			<path fill="#010101" d="M35.613,255.769H23.178v-12.427h12.436V255.769z M23.257,255.687h12.275v-12.265H23.257V255.687z
				 M35.238,255.395H23.552v-11.687h11.686V255.395z M23.633,255.313h11.525v-11.525H23.633V255.313z"/>
		</g>
		<g>
			<rect x="24.301" y="260.077" fill="#F47C20" width="10.188" height="10.188"/>
			<path fill="#010101" d="M34.525,270.309H24.256v-10.277h10.269V270.309z M24.337,270.229h10.116v-10.117H24.337V270.229z"/>
		</g>
		<g>
			<path fill="#F47C20" d="M35.568,271.343H23.223v-12.354h12.346V271.343z M23.597,270.978h11.598v-11.615H23.597V270.978z"/>
			<path fill="#010101" d="M35.613,271.387H23.178v-12.434h12.436V271.387z M23.257,271.3h12.275v-12.275H23.257V271.3z
				 M35.238,271.014H23.552v-11.687h11.686V271.014z M23.633,270.934h11.525v-11.525H23.633V270.934z"/>
		</g>
		<g>
			<rect x="24.301" y="275.688" fill="#F47C20" width="10.188" height="10.195"/>
			<path fill="#010101" d="M34.525,285.922H24.256v-10.27h10.269V285.922z M24.337,285.841h10.116v-10.109H24.337V285.841z"/>
		</g>
		<g>
			<path fill="#F47C20" d="M35.568,286.954H23.223v-12.345h12.346V286.954z M23.597,286.589h11.598v-11.605H23.597V286.589z"/>
			<path fill="#010101" d="M35.613,287H23.178v-12.427h12.436V287z M23.257,286.918h12.275v-12.265H23.257V286.918z M35.238,286.626
				H23.552v-11.678h11.686V286.626z M23.633,286.545h11.525v-11.526H23.633V286.545z"/>
		</g>
		<g>
			<rect x="24.301" y="291.309" fill="#F47C20" width="10.188" height="10.188"/>
			<path fill="#010101" d="M34.525,301.539H24.256v-10.267h10.269V301.539z M24.337,301.461h10.116v-10.117H24.337V301.461z"/>
		</g>
		<g>
			<path fill="#F47C20" d="M35.568,302.575H23.223v-12.347h12.346V302.575z M23.597,302.201h11.598v-11.607H23.597V302.201z"/>
			<path fill="#010101" d="M35.613,302.61H23.178v-12.426h12.436V302.61z M23.257,302.54h12.275v-12.274H23.257V302.54z
				 M35.238,302.245H23.552v-11.687h11.686V302.245z M23.633,302.165h11.525V290.64H23.633V302.165z"/>
		</g>
		<g>
			<rect x="39.262" y="230.36" fill="#F47C20" width="45.102" height="1.233"/>
			<path fill="#010101" d="M84.401,231.637H39.218v-1.311h45.183V231.637z M39.297,231.556H84.33v-1.148H39.297V231.556z"/>
		</g>
		<g>
			<rect x="39.262" y="233.323" fill="#F47C20" width="45.102" height="1.231"/>
			<path fill="#010101" d="M84.401,234.592H39.218v-1.313h45.183V234.592z M39.297,234.511H84.33v-1.151H39.297V234.511z"/>
		</g>
		<g>
			<rect x="39.262" y="236.277" fill="#F47C20" width="13.943" height="1.23"/>
			<path fill="#010101" d="M53.241,237.542H39.218v-1.301h14.023V237.542z M39.297,237.461H53.16v-1.148H39.297V237.461z"/>
		</g>
		<g>
			<rect x="39.262" y="245.786" fill="#F47C20" width="45.102" height="1.231"/>
			<path fill="#010101" d="M84.401,247.053H39.218v-1.304h45.183V247.053z M39.297,246.981H84.33v-1.159H39.297V246.981z"/>
		</g>
		<g>
			<rect x="39.262" y="248.738" fill="#F47C20" width="45.102" height="1.23"/>
			<path fill="#010101" d="M84.401,250.005H39.218v-1.303h45.183V250.005z M39.297,249.934H84.33v-1.15H39.297V249.934z"/>
		</g>
		<g>
			<rect x="39.262" y="251.691" fill="#F47C20" width="29.474" height="1.231"/>
			<path fill="#010101" d="M68.771,252.967H39.218v-1.313h29.554V252.967z M39.297,252.887h29.395v-1.151H39.297V252.887z"/>
		</g>
		<g>
			<rect x="39.262" y="261.21" fill="#F47C20" width="45.102" height="1.231"/>
			<path fill="#010101" d="M84.401,262.476H39.218v-1.311h45.183V262.476z M39.297,262.397H84.33v-1.151H39.297V262.397z"/>
		</g>
		<g>
			<rect x="39.262" y="264.162" fill="#F47C20" width="38.582" height="1.23"/>
			<path fill="#010101" d="M77.879,265.431H39.218v-1.304h38.662V265.431z M39.297,265.35h38.501v-1.152H39.297V265.35z"/>
		</g>
		<g>
			<rect x="39.262" y="267.115" fill="#F47C20" width="13.943" height="1.231"/>
			<path fill="#010101" d="M53.241,268.381H39.218v-1.301h14.023V268.381z M39.297,268.311H53.16v-1.159H39.297V268.311z"/>
		</g>
		<g>
			<rect x="39.262" y="276.625" fill="#F47C20" width="45.102" height="1.231"/>
			<path fill="#010101" d="M84.401,277.9H39.218v-1.313h45.183V277.9z M39.297,277.82H84.33v-1.151H39.297V277.82z"/>
		</g>
		<g>
			<rect x="39.262" y="279.585" fill="#F47C20" width="22.729" height="1.222"/>
			<path fill="#010101" d="M62.027,280.854h-22.81v-1.313h22.81V280.854z M39.297,280.772h22.659v-1.15H39.297V280.772z"/>
		</g>
		<g>
			<rect x="39.262" y="292.048" fill="#F47C20" width="45.102" height="1.231"/>
			<path fill="#010101" d="M84.401,293.314H39.218v-1.301h45.183V293.314z M39.297,293.235H84.33v-1.151H39.297V293.235z"/>
		</g>
		<g>
			<rect x="39.262" y="295" fill="#F47C20" width="45.102" height="1.232"/>
			<path fill="#010101" d="M84.401,296.269H39.218v-1.303h45.183V296.269z M39.297,296.188H84.33v-1.149H39.297V296.188z"/>
		</g>
		<g>
			<rect x="39.262" y="297.953" fill="#F47C20" width="32.89" height="1.231"/>
			<path fill="#010101" d="M72.188,299.22h-32.97v-1.301h32.97V299.22z M39.297,299.148h32.811v-1.159H39.297V299.148z"/>
		</g>
	</g>
	<g>
		<g>
			<path fill="#192E35" d="M64.953,199.585c0,0.634-0.445,1.151-1.008,1.151c-0.562,0-1.007-0.518-1.007-1.151
				s0.579-2.114,1.007-2.114C64.302,197.471,64.953,198.951,64.953,199.585z"/>
			<path fill="#010101" d="M63.945,200.924c-0.66,0-1.203-0.598-1.203-1.339c0-0.623,0.588-2.292,1.203-2.292
				c0.545,0,1.197,1.642,1.197,2.292C65.142,200.326,64.606,200.924,63.945,200.924z M63.937,197.668
				c-0.206,0-0.811,1.213-0.811,1.917c0,0.535,0.366,0.964,0.819,0.964c0.456,0,0.821-0.429,0.821-0.964
				C64.766,198.979,64.151,197.729,63.937,197.668z"/>
		</g>
		<g>
			<path fill="#192E35" d="M60.618,201.994c0,0.473-0.338,0.856-0.75,0.856c-0.418,0-0.759-0.384-0.759-0.856
				s0.438-1.579,0.759-1.579C60.127,200.415,60.618,201.521,60.618,201.994z"/>
			<path fill="#010101" d="M59.869,203.037c-0.527,0-0.945-0.463-0.945-1.043c0-0.438,0.418-1.768,0.945-1.768
				c0.464,0,0.937,1.313,0.937,1.768C60.805,202.574,60.386,203.037,59.869,203.037z M59.842,200.603
				c-0.143,0.053-0.543,0.945-0.543,1.392c0,0.365,0.257,0.669,0.57,0.669c0.312,0,0.562-0.304,0.562-0.669
				C60.431,201.566,60.002,200.683,59.842,200.603z"/>
		</g>
		<g>
			<path fill="#192E35" d="M50.725,201.53c0,0.731-0.518,1.32-1.16,1.32c-0.643,0-1.16-0.589-1.16-1.32s0.669-2.427,1.16-2.427
				C49.975,199.104,50.725,200.799,50.725,201.53z"/>
			<path fill="#010101" d="M49.565,203.037c-0.74,0-1.347-0.678-1.347-1.507c0-0.714,0.652-2.613,1.347-2.613
				c0.598,0,1.347,1.891,1.347,2.613C50.912,202.359,50.314,203.037,49.565,203.037z M49.565,199.301
				c-0.276,0-0.972,1.462-0.972,2.229c0,0.624,0.437,1.133,0.972,1.133s0.973-0.509,0.973-1.133
				C50.538,200.799,49.806,199.345,49.565,199.301z"/>
		</g>
		<g>
			<path fill="#192E35" d="M55.408,198.122c0,0.829-0.588,1.507-1.319,1.507c-0.732,0-1.32-0.678-1.32-1.507s0.757-2.766,1.32-2.766
				C54.561,195.356,55.408,197.293,55.408,198.122z"/>
			<path fill="#010101" d="M54.088,199.817c-0.83,0-1.508-0.759-1.508-1.695c0-0.785,0.749-2.952,1.508-2.952
				c0.677,0,1.516,2.141,1.516,2.952C55.604,199.059,54.918,199.817,54.088,199.817z M54.088,195.554
				c-0.375,0-1.133,1.729-1.133,2.568c0,0.723,0.509,1.32,1.133,1.32s1.133-0.598,1.133-1.32
				C55.221,197.266,54.365,195.58,54.088,195.554z"/>
		</g>
		<g>
			<g>
				<polygon fill="#989898" points="56.916,224.491 56.55,224.491 56.55,213.921 56.747,214.251 56.916,214.037 				"/>
				<polygon fill="#010101" points="57.112,224.68 56.354,224.68 56.354,213.244 56.764,213.921 57.112,213.502 				"/>
			</g>
			<g>
				<path fill="#333333" d="M56.515,223.849v0.616c0,0.224-0.089,0.446-0.259,0.598c-0.518,0.474-0.918-0.035-1.088-0.313
					c-0.044-0.081-0.151-0.115-0.232-0.062h-0.008c-0.081,0.055-0.117,0.179-0.063,0.268c0.696,1.142,1.615,0.633,1.891,0.177
					c0.117-0.177,0.197-0.409,0.197-0.623v-0.661c0-0.017-0.018-0.044-0.044-0.044h-0.349
					C56.533,223.805,56.515,223.832,56.515,223.849z"/>
				<path fill="#010101" d="M55.863,225.838c-0.312,0-0.759-0.133-1.16-0.783c-0.053-0.089-0.063-0.197-0.044-0.295
					c0.027-0.099,0.089-0.18,0.169-0.23c0.179-0.108,0.402-0.047,0.51,0.125c0.07,0.123,0.267,0.417,0.49,0.417
					c0.098,0,0.197-0.052,0.303-0.152c0.125-0.105,0.196-0.276,0.196-0.454v-0.616c0-0.125,0.099-0.23,0.232-0.23h0.349
					c0.124,0,0.231,0.105,0.231,0.23v0.661c0,0.233-0.08,0.49-0.214,0.724C56.747,225.525,56.336,225.838,55.863,225.838z
					 M55.631,225.42c0.374,0.133,0.802-0.115,0.963-0.385c0.107-0.168,0.169-0.366,0.169-0.525v-0.509h-0.062v0.464
					c0,0.285-0.116,0.563-0.313,0.741C56.14,225.428,55.863,225.491,55.631,225.42z"/>
			</g>
		</g>
		<g>
			<g>
				<path fill="#F47C20" d="M50.501,214.117L50.501,214.117c0.554-0.812,1.74-1.123,3.141-1.123c1.32,0,2.453,0.339,3.042,1.043
					v-9.885C55.936,204.661,50.52,208.471,50.501,214.117z"/>
				<path fill="#010101" d="M50.314,214.731v-0.614c0.01-5.583,5.219-9.411,6.263-10.117l0.294-0.203v10.775l-0.339-0.41
					c-0.518-0.634-1.543-0.981-2.891-0.981c-1.035,0-2.391,0.178-2.979,1.045L50.314,214.731z M56.496,204.519
					c-1.409,1.017-5.504,4.371-5.789,9.091c0.625-0.537,1.623-0.813,2.935-0.813c1.222,0,2.212,0.275,2.854,0.786V204.519z"/>
			</g>
			<g>
				<path fill="#F47C20" d="M56.791,204.152v10.01c0.536-0.793,1.704-1.187,3.06-1.187c1.392,0,2.578,0.428,3.087,1.266
					c0-0.008-0.009-0.008-0.009-0.008C62.919,208.596,57.531,204.67,56.791,204.152z"/>
				<path fill="#010101" d="M63.125,214.93l-0.358-0.589c0-0.01-0.008-0.019-0.017-0.037l-0.008-0.009
					c-0.464-0.712-1.544-1.132-2.891-1.132c-1.374,0-2.436,0.4-2.899,1.104l-0.349,0.518v-10.999L56.899,204
					c1.033,0.715,6.172,4.578,6.217,10.162l0.01,0.079V214.93z M59.851,212.777c1.24,0,2.249,0.331,2.873,0.911
					c-0.313-4.745-4.488-8.215-5.746-9.16v9.125C57.603,213.092,58.62,212.777,59.851,212.777z"/>
			</g>
			<g>
				<path fill="#F47C20" d="M51.332,210.005c0.598-1.223,1.399-2.327,2.31-3.328c0.687-0.75,1.437-1.437,2.239-2.068
					c0.223-0.17,0.42-0.384,0.669-0.527c0.018-0.009,0.036-0.018,0.044-0.026c-6.816,0.054-12.346,4.506-12.489,10.019
					c0,0.052,0.054,0.071,0.081,0.035c0.571-0.75,1.73-1.053,3.086-1.078c2.221-0.055,3.123,1.051,3.123,1.051
					C50.376,212.566,50.672,211.361,51.332,210.005z"/>
				<path fill="#010101" d="M50.591,214.618l-0.338-0.42c-0.009,0-0.848-0.981-2.829-0.981h-0.142
					c-1.446,0.027-2.472,0.383-2.944,1.009l-0.053,0.069l-0.214,0.02l-0.143-0.125l-0.01-0.116
					c0.143-5.664,5.719-10.152,12.677-10.215h0.67l-0.617,0.384c-0.152,0.089-0.285,0.205-0.419,0.321
					c-0.08,0.07-0.151,0.133-0.232,0.196c-0.794,0.625-1.535,1.311-2.212,2.042c-0.963,1.054-1.73,2.16-2.275,3.283
					c-0.668,1.355-0.945,2.551-0.927,3.996L50.591,214.618z M56.005,204.259c-6.315,0.295-11.32,4.326-11.694,9.438
					c0.605-0.534,1.596-0.829,2.961-0.865h0.151c1.454,0,2.347,0.482,2.783,0.821c0.037-1.32,0.331-2.461,0.955-3.737
					c0.562-1.151,1.355-2.293,2.346-3.363c0.687-0.76,1.446-1.455,2.257-2.089c0.071-0.062,0.143-0.123,0.215-0.187
					C55.988,204.269,55.997,204.269,56.005,204.259z"/>
			</g>
			<g>
				<path fill="#F47C20" d="M56.836,204.055c0.025,0.018,0.044,0.026,0.071,0.054c0.214,0.16,0.437,0.312,0.642,0.481
					c0.784,0.624,1.525,1.32,2.195,2.068c0.909,1.009,1.695,2.124,2.283,3.347c0.321,0.659,0.57,1.356,0.74,2.061
					c0.045,0.16,0.277,1.669,0.296,2.148c0,0.012,0,0.02,0,0.027c0.517-0.838,1.739-1.238,3.157-1.238
					c1.222,0,2.302,0.303,2.9,0.926c0.089,0.099,0.249,0.027,0.249-0.098C69.066,208.417,63.58,204.1,56.836,204.055z"/>
				<path fill="#010101" d="M62.714,215.151l0.152-0.938c-0.009-0.452-0.241-1.943-0.277-2.104c-0.169-0.68-0.41-1.357-0.731-2.016
					c-0.544-1.144-1.302-2.25-2.248-3.312c-0.669-0.74-1.401-1.426-2.176-2.05c-0.152-0.117-0.313-0.232-0.465-0.35l-0.749-0.525
					h0.617c6.814,0.053,12.408,4.426,12.72,9.965c0,0.089-0.035,0.177-0.089,0.24c-0.125,0.135-0.357,0.135-0.482,0
					c-0.535-0.562-1.516-0.866-2.765-0.866c-1.454,0-2.551,0.412-3.006,1.144L62.714,215.151z M57.434,204.259
					c0.08,0.055,0.151,0.117,0.232,0.18c0.803,0.643,1.543,1.339,2.221,2.096c0.981,1.08,1.757,2.23,2.31,3.39
					c0.331,0.688,0.589,1.394,0.759,2.098c0.035,0.142,0.187,1.087,0.258,1.729c0.615-0.598,1.677-0.936,3.006-0.936
					c1.294,0,2.347,0.32,2.961,0.909C68.834,208.623,63.75,204.536,57.434,204.259z"/>
			</g>
		</g>
	</g>
</g>
</svg>
