<?xml version="1.0" encoding="utf-8"?>
<!-- Generator: Adobe Illustrator 16.0.0, SVG Export Plug-In . SVG Version: 6.00 Build 0)  -->
<!DOCTYPE svg PUBLIC "-//W3C//DTD SVG 1.1//EN" "http://www.w3.org/Graphics/SVG/1.1/DTD/svg11.dtd">
<svg version="1.1" id="Layer_1" xmlns="http://www.w3.org/2000/svg" xmlns:xlink="http://www.w3.org/1999/xlink" x="0px" y="0px"
	 width="22px" height="22px" viewBox="0 0 22 22" enable-background="new 0 0 22 22" xml:space="preserve">
<g>
	<path fill-rule="evenodd" clip-rule="evenodd" fill="#666666" d="M-21.667-63.833c0.026-1.828,0.66-3.197,1.743-4.368
		c0.193-0.21,0.481-0.371,0.755-0.459c0.505-0.158,1.029-0.257,1.549-0.363c0.431-0.09,0.736,0.09,0.943,0.474
		c0.322,0.601,0.65,1.198,0.992,1.788c0.351,0.605,0.719,1.2,1.08,1.801c0.023,0.039,0.05,0.078,0.074,0.117
		c0.383,0.633,0.365,0.927-0.171,1.432c-0.522,0.491-1.081,0.944-1.624,1.415c-0.015,0.013-0.029,0.024-0.042,0.036
		c-0.597,0.543-0.637,0.806-0.243,1.508c0.878,1.573,1.876,3.055,3.219,4.281c1.099,1.003,2.343,1.79,3.645,2.491
		c0.551,0.298,0.751,0.259,1.188-0.197c0.349-0.362,0.654-0.765,0.983-1.146c0.184-0.212,0.37-0.421,0.566-0.62
		c0.558-0.563,0.864-0.588,1.526-0.176c0.714,0.44,1.436,0.87,2.16,1.293c0.501,0.292,1.01,0.568,1.52,0.842
		c0.368,0.198,0.531,0.498,0.446,0.902c-0.123,0.583-0.214,1.184-0.433,1.73c-0.141,0.352-0.443,0.675-0.748,0.915
		c-1.438,1.132-3.063,1.737-4.89,1.272c-2.841-0.72-5.449-1.924-7.638-3.938c-1.357-1.249-2.641-2.561-3.737-4.05
		c-0.89-1.207-1.538-2.533-2.02-3.948c-0.197-0.584-0.427-1.157-0.592-1.749C-21.55-63.033-21.61-63.536-21.667-63.833z"/>
</g>
<g>
	<path fill-rule="evenodd" clip-rule="evenodd" fill="#333333" d="M-33.652,1.32c-2.484,0-4.969,0-7.453,0
		c-1.096,0-1.753-0.672-1.752-1.77c0.005-3.509,0.005-7.018,0-10.525c-0.001-1.103,0.651-1.771,1.752-1.771
		c4.969-0.001,9.937-0.001,14.906,0c1.08,0,1.74,0.675,1.74,1.755c-0.002,3.527-0.002,7.055,0,10.58c0,1.037-0.678,1.73-1.713,1.73
		C-28.667,1.32-31.161,1.32-33.652,1.32z M-33.692-11.722c-2.492,0-4.985-0.002-7.479,0.005c-0.153,0-0.325,0.027-0.457,0.1
		c-0.225,0.122-0.229,0.282-0.05,0.462c2.134,2.123,4.265,4.247,6.403,6.363c0.891,0.879,2.266,0.882,3.149,0.003
		c2.131-2.115,4.246-4.241,6.367-6.362c0.227-0.228,0.174-0.434-0.141-0.534c-0.098-0.031-0.211-0.034-0.314-0.034
		C-28.706-11.722-31.2-11.722-33.692-11.722z M-36.929-5.045c-0.098,0.061-0.123,0.07-0.142,0.088
		c-1.549,1.549-3.096,3.098-4.648,4.643c-0.158,0.156-0.098,0.289,0.032,0.377c0.123,0.084,0.287,0.143,0.436,0.148
		c0.436,0.02,0.873,0.008,1.309,0.008c4.566,0,9.133,0,13.7-0.002c0.123,0,0.254-0.004,0.367-0.045
		c0.305-0.109,0.344-0.297,0.119-0.523c-1.504-1.505-3.008-3.009-4.512-4.513c-0.055-0.054-0.117-0.1-0.207-0.176
		c-0.299,0.31-0.586,0.601-0.867,0.896c-1.367,1.433-3.348,1.44-4.73,0.016C-36.362-4.428-36.643-4.737-36.929-5.045z M-25.551-9.85
		c-1.391,1.385-2.762,2.75-4.059,4.042c1.354,1.366,2.715,2.742,4.059,4.097C-25.551-4.392-25.551-7.119-25.551-9.85z
		 M-41.846-1.683c1.379-1.375,2.736-2.729,4.036-4.025c-1.343-1.348-2.696-2.706-4.036-4.052
		C-41.846-7.102-41.846-4.401-41.846-1.683z"/>
	<path fill-rule="evenodd" clip-rule="evenodd" fill="#FFFFFF" d="M-33.692-11.722c2.493,0,4.987,0,7.479,0.002
		c0.104,0,0.217,0.003,0.314,0.034c0.314,0.101,0.367,0.307,0.141,0.534c-2.121,2.121-4.236,4.247-6.367,6.362
		c-0.883,0.879-2.258,0.876-3.149-0.003c-2.139-2.116-4.27-4.24-6.403-6.363c-0.18-0.18-0.175-0.34,0.05-0.462
		c0.132-0.072,0.304-0.1,0.457-0.1C-38.678-11.724-36.185-11.722-33.692-11.722z"/>
	<path fill-rule="evenodd" clip-rule="evenodd" fill="#FFFFFF" d="M-36.929-5.045c0.286,0.308,0.566,0.617,0.856,0.916
		c1.382,1.425,3.363,1.417,4.73-0.016c0.281-0.295,0.568-0.586,0.867-0.896c0.09,0.076,0.152,0.122,0.207,0.176
		c1.504,1.504,3.008,3.008,4.512,4.513c0.225,0.227,0.186,0.414-0.119,0.523c-0.113,0.041-0.244,0.045-0.367,0.045
		c-4.566,0.002-9.133,0.002-13.7,0.002c-0.436,0-0.873,0.012-1.309-0.008c-0.148-0.006-0.313-0.064-0.436-0.148
		c-0.13-0.088-0.19-0.221-0.032-0.377c1.553-1.545,3.1-3.094,4.648-4.643C-37.052-4.975-37.026-4.984-36.929-5.045z"/>
	<path fill-rule="evenodd" clip-rule="evenodd" fill="#FFFFFF" d="M-25.551-9.85c0,2.73,0,5.458,0,8.139
		c-1.344-1.354-2.705-2.73-4.059-4.097C-28.313-7.1-26.942-8.465-25.551-9.85z"/>
	<path fill-rule="evenodd" clip-rule="evenodd" fill="#FFFFFF" d="M-41.846-1.683c0-2.719,0-5.419,0-8.077
		c1.34,1.346,2.693,2.704,4.036,4.052C-39.109-4.411-40.467-3.058-41.846-1.683z"/>
</g>
<g>
	<path fill-rule="evenodd" clip-rule="evenodd" fill="#666666" d="M-11.5,69.385c5.967-0.018,10.839,4.848,10.838,10.824
		c0,5.965-4.867,10.83-10.839,10.836c-5.958,0.008-10.832-4.867-10.84-10.838C-22.35,74.236-17.506,69.402-11.5,69.385z
		 M-2.359,81.025c-0.615-0.104-1.398,0.059-1.407-0.834c-0.009-0.936,0.844-0.725,1.389-0.857c0.08-4.012-4.602-8.635-8.29-8.215
		c-0.092,0.529,0.068,1.27-0.757,1.328c-1.01,0.068-0.77-0.854-0.956-1.395c-4.16,0.119-8.348,4.332-8.239,8.291
		c0.529,0.117,1.336-0.098,1.385,0.775c0.056,1.008-0.865,0.758-1.414,0.934c0.211,4.924,4.947,8.387,8.309,8.264
		c0.121-0.535-0.104-1.344,0.764-1.406c1.064-0.078,0.73,0.936,0.974,1.467C-6.284,89.09-2.382,85.148-2.359,81.025z"/>
	<path fill-rule="evenodd" clip-rule="evenodd" fill="#666666" d="M-16.146,76.783c0.294,0.182,0.532,0.307,0.745,0.465
		c1.102,0.824,2.208,1.641,3.286,2.494c0.411,0.326,0.672,0.303,1.029-0.082c1.386-1.492,2.801-2.955,4.207-4.426
		c0.307-0.32,0.641-0.736,1.096-0.281c0.454,0.451,0.028,0.795-0.272,1.107c-1.287,1.357-2.593,2.697-3.865,4.066
		c-0.309,0.33-0.546,0.736-0.765,1.137c-0.321,0.58-0.977,0.713-1.444,0.277c-0.752-0.703-1.501-1.41-2.286-2.076
		c-0.628-0.533-1.327-0.98-1.953-1.516c-0.166-0.143-0.245-0.473-0.23-0.711C-16.59,77.092-16.332,76.959-16.146,76.783z"/>
</g>
<g>
	<path fill-rule="evenodd" clip-rule="evenodd" fill="#666666" d="M11.003,21.172c-0.218-0.313-0.418-0.598-0.615-0.885
		c-1.451-2.119-2.814-4.295-4.017-6.565c-0.751-1.419-1.437-2.867-1.878-4.419C3.892,7.188,4.283,5.239,5.607,3.531
		c1.722-2.222,4.041-3.089,6.8-2.545c2.759,0.545,4.833,2.768,5.292,5.487c0.211,1.239-0.002,2.419-0.41,3.583
		c-0.49,1.391-1.13,2.711-1.829,4.005c-1.289,2.386-2.747,4.669-4.295,6.892C11.122,21.014,11.076,21.072,11.003,21.172z
		 M14.055,7.011c-0.012-1.711-1.367-3.066-3.061-3.057C9.308,3.964,7.95,5.332,7.956,7.013c0.005,1.672,1.403,3.061,3.063,3.043
		C12.697,10.038,14.064,8.667,14.055,7.011z"/>
</g>
<g>
	<path fill="#666666" d="M50.527,18.224c-0.701,0.317-1.667,0.51-2.424,0.637c0.359-0.061,0.792-0.711,1.004-0.974
		c0.323-0.401,0.542-0.859,0.693-1.353c0.02-0.039,0.01-0.087-0.028-0.116c-0.049-0.02-0.093-0.01-0.131,0.01
		c-0.845,0.453-1.725,0.781-2.655,1.014c-0.076,0.02-0.137,0-0.186-0.049c-0.077-0.086-0.151-0.169-0.233-0.236
		c-0.392-0.332-0.812-0.594-1.284-0.787c-0.621-0.253-1.3-0.359-1.969-0.316c-0.65,0.043-1.29,0.227-1.867,0.527
		c-0.579,0.303-1.096,0.724-1.507,1.23c-0.425,0.525-0.738,1.146-0.899,1.803c-0.154,0.634-0.143,1.261-0.048,1.902
		c0.015,0.105,0.005,0.12-0.091,0.105c-3.639-0.541-6.655-1.844-9.104-4.633c-0.105-0.121-0.163-0.121-0.25,0.009
		c-1.072,1.605-0.552,4.187,0.786,5.454c0.179,0.17,0.362,0.338,0.56,0.492c-0.071,0.016-0.963-0.082-1.756-0.492
		c-0.106-0.067-0.16-0.028-0.17,0.092c-0.01,0.174,0.005,0.334,0.029,0.521c0.205,1.629,1.333,3.135,2.877,3.722
		c0.184,0.077,0.386,0.145,0.584,0.179c-0.353,0.077-0.715,0.133-1.724,0.053c-0.125-0.023-0.174,0.039-0.125,0.16
		c0.758,2.066,2.395,2.681,3.62,3.03c0.164,0.029,0.328,0.029,0.492,0.067c-0.01,0.016-0.02,0.016-0.029,0.029
		c-0.406,0.62-1.815,1.081-2.472,1.311c-1.193,0.417-2.493,0.604-3.755,0.48c-0.202-0.03-0.244-0.027-0.299,0
		c-0.056,0.034-0.007,0.082,0.058,0.135c0.256,0.169,0.517,0.319,0.782,0.464c0.801,0.425,1.637,0.763,2.51,1.004
		c4.511,1.246,9.591,0.33,12.978-3.035c2.66-2.642,3.592-6.286,3.592-9.935c0-0.143,0.169-0.222,0.27-0.297
		c0.691-0.52,1.631-1.143,2.146-1.838C50.617,18.438,51,18.3,51,18.242c0-0.01,0-0.019,0-0.019
		C51,18.165,50.617,18.183,50.527,18.224z"/>
	<path fill="#666666" d="M-19.161,19.287c-3.225,0-5.85,2.624-5.85,5.85s2.625,5.85,5.85,5.85c3.226,0,5.85-2.624,5.85-5.85
		S-15.935,19.287-19.161,19.287z M-19.161,28.884c-2.066,0-3.747-1.681-3.747-3.747s1.681-3.748,3.747-3.748
		c2.066,0,3.748,1.682,3.748,3.748S-17.094,28.884-19.161,28.884z"/>
	<path fill="#666666" d="M-14.516,37.014H-24c-3.934,0-7.135-3.201-7.135-7.135v-9.484c0-3.934,3.201-7.135,7.135-7.135h9.484
		c3.934,0,7.135,3.201,7.135,7.135v9.484C-7.381,33.813-10.582,37.014-14.516,37.014z M-24,15.494c-2.702,0-4.899,2.198-4.899,4.9
		v9.484c0,2.702,2.197,4.9,4.899,4.9h9.484c2.702,0,4.901-2.198,4.901-4.9v-9.484c0-2.702-2.199-4.9-4.901-4.9H-24z"/>
	<path fill-rule="evenodd" clip-rule="evenodd" fill="#666666" d="M-81.746,25.34v10.979c0,0.158,0.128,0.286,0.286,0.286h4.078
		c0.158,0,0.286-0.128,0.286-0.286V25.16h2.956c0.149,0,0.272-0.113,0.286-0.261l0.284-3.362c0.014-0.167-0.118-0.311-0.286-0.311
		h-3.24v-2.385c0-0.56,0.454-1.012,1.012-1.012h2.278c0.158,0,0.286-0.129,0.286-0.286v-3.362c0-0.158-0.128-0.285-0.286-0.285
		h-3.85c-2.258,0-4.09,1.83-4.09,4.09v3.24h-2.039c-0.158,0-0.286,0.129-0.286,0.287v3.361c0,0.158,0.128,0.285,0.286,0.285h2.039
		V25.34z"/>
	<g>
		<g>
			<path fill="#666666" d="M93.35,21.967h3.758v1.724h0.052c0.524-0.991,1.802-2.036,3.71-2.036c3.967,0,4.698,2.609,4.698,6.004
				v6.913h-3.915v-6.129c0-1.462-0.028-3.342-2.036-3.342c-2.04,0-2.351,1.593-2.351,3.235v6.235H93.35V21.967z"/>
		</g>
		<path fill="#666666" d="M86.968,21.967h3.924v12.604h-3.924V21.967z M88.931,15.703c1.254,0,2.271,1.018,2.271,2.27
			c0,1.254-1.018,2.273-2.271,2.273c-1.258,0-2.275-1.02-2.275-2.273C86.655,16.721,87.673,15.703,88.931,15.703"/>
	</g>
</g>
</svg>
