<?xml version="1.0" encoding="utf-8"?>
<!-- Generator: Adobe Illustrator 16.0.0, SVG Export Plug-In . SVG Version: 6.00 Build 0)  -->
<!DOCTYPE svg PUBLIC "-//W3C//DTD SVG 1.1//EN" "http://www.w3.org/Graphics/SVG/1.1/DTD/svg11.dtd">
<svg version="1.1" id="Layer_1" xmlns="http://www.w3.org/2000/svg" xmlns:xlink="http://www.w3.org/1999/xlink" x="0px" y="0px"
	 width="80px" height="80px" viewBox="0 0 80 80" enable-background="new 0 0 80 80" xml:space="preserve">
<g>
	<g>
		<g>
			<path fill="#1A2E35" d="M60.774,12.049c0,1.623-1.157,2.938-2.582,2.938c-1.426,0-2.581-1.314-2.581-2.938
				c0-1.622,1.479-5.4,2.581-5.4C59.107,6.648,60.774,10.427,60.774,12.049z"/>
		</g>
		<g>
			<path d="M58.192,15.111c-1.492,0-2.706-1.374-2.706-3.063c0-1.561,1.474-5.525,2.706-5.525c1.047,0,2.707,3.965,2.707,5.525
				C60.899,13.737,59.685,15.111,58.192,15.111z M58.192,6.773c-0.938,0-2.456,3.551-2.456,5.275c0,1.551,1.102,2.813,2.456,2.813
				s2.457-1.262,2.457-2.813C60.649,10.373,58.973,6.773,58.192,6.773z"/>
		</g>
	</g>
	<g>
		<g>
			<path fill="#1A2E35" d="M49.679,18.196c0,1.212-0.864,2.194-1.929,2.194s-1.928-0.982-1.928-2.194s1.105-4.034,1.928-4.034
				C48.434,14.162,49.679,16.984,49.679,18.196z"/>
		</g>
		<g>
			<path d="M47.75,20.516c-1.132,0-2.053-1.041-2.053-2.319c0-1.207,1.096-4.159,2.053-4.159c0.816,0,2.054,2.953,2.054,4.159
				C49.804,19.475,48.883,20.516,47.75,20.516z M47.75,14.287c-0.671,0-1.803,2.664-1.803,3.909c0,1.141,0.809,2.069,1.803,2.069
				s1.804-0.929,1.804-2.069C49.554,16.99,48.307,14.287,47.75,14.287z"/>
		</g>
	</g>
	<g>
		<g>
			<path fill="#1A2E35" d="M24.366,17.018c0,1.862-1.326,3.373-2.963,3.373c-1.638,0-2.964-1.511-2.964-3.373
				c0-1.863,1.699-6.201,2.964-6.201C22.454,10.816,24.366,15.154,24.366,17.018z"/>
		</g>
		<g>
			<path d="M21.403,20.516c-1.703,0-3.089-1.57-3.089-3.498c0-1.787,1.683-6.326,3.089-6.326c1.193,0,3.088,4.539,3.088,6.326
				C24.491,18.945,23.106,20.516,21.403,20.516z M21.403,10.941c-1.159,0-2.839,4.267-2.839,6.076c0,1.791,1.273,3.248,2.839,3.248
				c1.564,0,2.838-1.457,2.838-3.248C24.241,15.086,22.305,10.941,21.403,10.941z"/>
		</g>
	</g>
	<g>
		<g>
			<path fill="#1A2E35" d="M36.356,8.305c0,2.125-1.515,3.848-3.383,3.848c-1.869,0-3.383-1.723-3.383-3.848
				c0-2.126,1.94-7.077,3.383-7.077C34.174,1.228,36.356,6.179,36.356,8.305z"/>
		</g>
		<g>
			<path d="M32.974,12.277c-1.935,0-3.508-1.782-3.508-3.973c0-2.035,1.91-7.202,3.508-7.202c1.356,0,3.508,5.169,3.508,7.202
				C36.481,10.495,34.908,12.277,32.974,12.277z M32.974,1.353c-1.33,0-3.258,4.882-3.258,6.952c0,2.053,1.462,3.723,3.258,3.723
				s3.258-1.67,3.258-3.723C36.231,6.096,34.009,1.353,32.974,1.353z"/>
		</g>
	</g>
	<g>
		<g>
			<g>
				<polygon fill="#999999" points="40.215,75.775 39.263,75.775 39.263,48.732 39.768,49.564 40.215,49.009 				"/>
			</g>
			<g>
				<path d="M40.34,75.9h-1.202V48.285l0.645,1.062l0.558-0.692V75.9z M39.388,75.65h0.702V49.363l-0.337,0.418l-0.365-0.603V75.65z
					"/>
			</g>
		</g>
		<g>
			<g>
				<path fill="#333333" d="M39.177,74.131v1.554c0,0.587-0.226,1.159-0.647,1.538c-1.352,1.215-2.374-0.084-2.794-0.795
					c-0.129-0.218-0.394-0.291-0.603-0.166l-0.008,0.004c-0.223,0.135-0.299,0.443-0.16,0.674c1.78,2.935,4.125,1.635,4.841,0.47
					c0.288-0.47,0.489-1.046,0.489-1.606v-1.672c0-0.061-0.045-0.11-0.104-0.11h-0.911C39.224,74.021,39.177,74.07,39.177,74.131z"
					/>
			</g>
			<g>
				<path d="M37.521,78.852c-0.704,0-1.737-0.32-2.663-1.848c-0.174-0.287-0.081-0.674,0.202-0.845
					c0.285-0.173,0.623-0.064,0.782,0.204c0.272,0.461,0.839,1.232,1.581,1.232c0.334,0,0.678-0.156,1.021-0.467
					c0.386-0.346,0.606-0.872,0.606-1.444v-1.554c0-0.13,0.103-0.235,0.228-0.235h0.911c0.129,0,0.229,0.104,0.229,0.235v1.672
					c0,0.544-0.181,1.139-0.508,1.672C39.505,78.138,38.582,78.852,37.521,78.852z M35.351,76.326c-0.054,0-0.105,0.014-0.153,0.043
					c-0.172,0.104-0.227,0.338-0.125,0.506c0.685,1.129,1.532,1.727,2.449,1.727c0.965,0,1.806-0.652,2.178-1.258
					c0.304-0.495,0.471-1.043,0.471-1.541v-1.672l-0.891,0.015l0.022,1.539c0,0.644-0.251,1.237-0.688,1.63
					c-0.392,0.354-0.792,0.531-1.189,0.531c-0.866,0-1.497-0.849-1.796-1.355C35.566,76.388,35.463,76.326,35.351,76.326z"/>
			</g>
		</g>
	</g>
	<g>
		<g>
			<g>
				<path fill="#FD7C05" d="M23.805,49.219L23.805,49.219c1.407-2.064,4.442-2.883,8.032-2.883c3.381,0,6.275,0.859,7.776,2.686
					V23.73C37.697,25.029,23.83,34.787,23.805,49.219z"/>
			</g>
			<g>
				<path d="M23.679,49.625l0.001-0.406c0.024-14.146,13.219-23.8,15.863-25.592l0.195-0.132v25.876l-0.222-0.27
					c-1.399-1.703-4.127-2.641-7.68-2.641c-3.926,0-6.667,0.979-7.929,2.828L23.679,49.625z M39.488,23.968
					c-2.991,2.063-15.303,11.372-15.555,24.869c1.395-1.72,4.114-2.626,7.903-2.626c3.452,0,6.15,0.877,7.651,2.479V23.968z"/>
			</g>
		</g>
		<g>
			<g>
				<path fill="#FD7C05" d="M39.89,23.734v25.602c1.371-2.042,4.367-3.047,7.819-3.047c3.569,0,6.599,1.119,7.902,3.257
					c-0.009-0.021-0.017-0.036-0.017-0.036C55.561,35.094,41.783,25.045,39.89,23.734z"/>
			</g>
			<g>
				<path d="M39.765,49.747V23.496l0.196,0.136c1.608,1.113,15.705,11.294,15.759,25.85c0.002,0.005,0.005,0.011,0.007,0.017
					l-0.007,0.003c0,0.003,0,0.007,0,0.009h-0.018l-0.197,0.102c-1.222-2.002-4.136-3.197-7.796-3.197
					c-3.627,0-6.439,1.091-7.716,2.992L39.765,49.747z M47.709,46.164c3.518,0,6.371,1.092,7.756,2.943
					c-0.28-13.758-13.166-23.512-15.45-25.133v24.979C41.425,47.176,44.198,46.164,47.709,46.164z"/>
			</g>
		</g>
		<g>
			<g>
				<path fill="#FD7C05" d="M25.924,38.691c1.523-3.111,3.577-5.947,5.912-8.5c1.753-1.918,3.671-3.689,5.718-5.291
					c0.575-0.449,1.088-0.98,1.719-1.355c0.048-0.029,0.086-0.048,0.127-0.068C21.941,23.627,7.803,34.998,7.425,49.119
					c-0.004,0.117,0.148,0.172,0.22,0.078c1.453-1.917,4.417-2.689,7.903-2.77c5.664-0.133,7.971,2.699,7.971,2.699
					C23.474,45.258,24.227,42.156,25.924,38.691z"/>
			</g>
			<g>
				<path d="M23.647,49.482l-0.226-0.275c-0.022-0.027-2.344-2.771-7.871-2.654c-3.88,0.09-6.507,1.004-7.807,2.72
					c-0.088,0.115-0.275,0.126-0.376,0.021c-0.046-0.048-0.07-0.111-0.068-0.178c0.184-6.871,3.604-13.318,9.629-18.154
					c6.022-4.834,14.003-7.537,22.47-7.609l0.528-0.005l-0.471,0.241c-0.045,0.022-0.078,0.039-0.119,0.064
					c-0.403,0.24-0.768,0.554-1.119,0.857c-0.193,0.166-0.387,0.332-0.587,0.489c-2.049,1.603-3.967,3.378-5.703,5.276
					c-2.49,2.723-4.473,5.572-5.892,8.472c-1.721,3.513-2.437,6.616-2.393,10.379L23.647,49.482z M38.944,23.607
					C21.68,23.947,7.931,35.082,7.55,49.115c1.351-1.775,4.041-2.721,7.995-2.813c0.13-0.003,0.259-0.004,0.386-0.004
					c4.493,0,6.776,1.838,7.461,2.51c-0.001-3.661,0.729-6.722,2.42-10.172c1.43-2.92,3.426-5.79,5.933-8.53
					c1.744-1.909,3.673-3.694,5.732-5.305c0.198-0.153,0.388-0.317,0.578-0.481C38.338,24.076,38.628,23.826,38.944,23.607z"/>
			</g>
		</g>
		<g>
			<g>
				<path fill="#FD7C05" d="M39.999,23.475c0.057,0.035,0.118,0.076,0.188,0.131c0.547,0.41,1.103,0.807,1.638,1.232
					c2.016,1.604,3.9,3.377,5.62,5.293c2.315,2.578,4.343,5.438,5.843,8.568c0.808,1.688,1.458,3.453,1.902,5.273
					c0.1,0.406,0.708,4.265,0.736,5.488c0,0.023-0.005,0.046-0.009,0.068c1.334-2.121,4.456-3.148,8.08-3.148
					c3.154,0,5.902,0.762,7.443,2.365c0.229,0.238,0.63,0.072,0.611-0.256C71.276,34.634,57.244,23.58,39.999,23.475z"/>
			</g>
			<g>
				<path d="M55.683,50.138l0.114-0.642c0.002-0.012,0.005-0.023,0.005-0.035c-0.028-1.202-0.64-5.078-0.732-5.459
					c-0.428-1.75-1.064-3.516-1.894-5.249c-1.401-2.924-3.36-5.797-5.823-8.539c-1.707-1.901-3.593-3.679-5.605-5.278
					c-0.366-0.292-0.75-0.575-1.12-0.849c-0.172-0.127-0.344-0.254-0.515-0.382c-0.067-0.052-0.126-0.09-0.18-0.124l-0.376-0.233
					L40,23.35c17.26,0.105,31.394,11.146,32.178,25.135c0.007,0.131-0.037,0.256-0.125,0.349c-0.091,0.096-0.219,0.151-0.353,0.151
					l0,0c-0.131,0-0.255-0.055-0.349-0.15c-1.441-1.502-4.053-2.328-7.354-2.328c-3.833,0-6.739,1.126-7.975,3.09L55.683,50.138z
					 M40.396,23.604c0.126,0.094,0.253,0.188,0.38,0.281c0.372,0.274,0.758,0.56,1.128,0.854c2.022,1.608,3.919,3.395,5.635,5.307
					c2.479,2.76,4.451,5.652,5.862,8.598c0.837,1.75,1.48,3.531,1.911,5.298c0.089,0.362,0.623,3.704,0.725,5.195
					c1.385-1.837,4.254-2.882,7.962-2.882c3.369,0,6.045,0.854,7.533,2.404c0.06,0.061,0.125,0.074,0.169,0.074
					c0.064,0,0.128-0.027,0.171-0.073c0.028-0.03,0.062-0.083,0.057-0.163C71.157,34.748,57.343,23.875,40.396,23.604z"/>
			</g>
		</g>
	</g>
</g>
</svg>
