<?xml version="1.0" encoding="utf-8"?>
<!-- Generator: Adobe Illustrator 16.0.0, SVG Export Plug-In . SVG Version: 6.00 Build 0)  -->
<!DOCTYPE svg PUBLIC "-//W3C//DTD SVG 1.1//EN" "http://www.w3.org/Graphics/SVG/1.1/DTD/svg11.dtd">
<svg version="1.1" id="Layer_1" xmlns="http://www.w3.org/2000/svg" xmlns:xlink="http://www.w3.org/1999/xlink" x="0px" y="0px"
	 width="80px" height="80px" viewBox="0 0 80 80" enable-background="new 0 0 80 80" xml:space="preserve">
<g>
	<g>
		<path fill-rule="evenodd" clip-rule="evenodd" fill="#1A2E35" d="M5.479,12.161C19.236,13.757,30.653,8.65,41.09,0.646
			c10.431,8.013,21.826,13.083,35.525,11.528c0.086,0.778,0.217,1.574,0.254,2.375c0.627,13.346-1.035,26.322-6.486,38.631
			c-4.023,9.085-10.034,16.545-18.557,21.838c-3.154,1.96-6.506,3.512-10.034,4.658c-0.456,0.148-1.051,0.129-1.511-0.026
			C27.97,75.484,19.023,67.438,13.11,55.943c-3.551-6.902-5.675-14.258-6.839-21.914C5.41,28.368,5.01,22.681,5.19,16.957
			C5.239,15.377,5.377,13.801,5.479,12.161z M72.879,16.559c-11.904,0.193-22.244-4.141-31.788-10.805
			c-9.54,6.717-19.896,10.996-31.814,10.801C9.25,17.104,9.21,17.6,9.202,18.098c-0.087,5.059,0.297,10.085,1.042,15.09
			c1.105,7.422,3.163,14.545,6.667,21.207c5.201,9.885,12.849,17.063,23.41,20.963c0.446,0.164,1.053,0.173,1.498,0.014
			c4.256-1.532,8.188-3.672,11.742-6.48C60.416,63.477,65,56.443,68.029,48.348c3.771-10.084,5.137-20.563,4.906-31.283
			C72.932,16.912,72.902,16.761,72.879,16.559z"/>
	</g>
	<g>
		<path d="M41.098,79.902c-0.3,0-0.596-0.047-0.856-0.135C28.177,75.687,19.012,67.689,12.999,56
			c-3.356-6.523-5.597-13.703-6.851-21.952c-0.891-5.858-1.255-11.61-1.083-17.095c0.034-1.084,0.108-2.143,0.186-3.266
			c0.036-0.506,0.071-1.018,0.103-1.534l0.008-0.132l0.131,0.016c1.665,0.193,3.337,0.291,4.973,0.291
			c10.361,0,20.068-3.744,30.547-11.781l0.076-0.059l0.076,0.059C51.63,8.585,61.34,12.329,71.724,12.329
			c1.604,0,3.245-0.095,4.878-0.279l0.125-0.015l0.014,0.125c0.026,0.246,0.059,0.492,0.09,0.742
			c0.067,0.535,0.138,1.088,0.164,1.641c0.687,14.611-1.439,27.267-6.498,38.688c-4.189,9.463-10.449,16.829-18.604,21.894
			c-3.137,1.948-6.523,3.521-10.063,4.671C41.614,79.865,41.361,79.902,41.098,79.902z M5.596,12.301
			c-0.03,0.473-0.063,0.94-0.095,1.404c-0.078,1.119-0.152,2.178-0.186,3.256c-0.172,5.47,0.191,11.205,1.08,17.05
			c1.25,8.222,3.483,15.376,6.827,21.875c5.982,11.63,15.1,19.585,27.1,23.646c0.436,0.146,1.024,0.159,1.433,0.025
			c3.52-1.145,6.887-2.707,10.007-4.645c8.11-5.037,14.337-12.366,18.507-21.783c5.043-11.385,7.161-24.002,6.477-38.574
			c-0.025-0.542-0.096-1.091-0.162-1.621c-0.027-0.209-0.053-0.416-0.076-0.621c-1.602,0.177-3.209,0.267-4.782,0.267
			c-10.417,0-20.153-3.743-30.634-11.776C30.594,8.836,20.86,12.578,10.466,12.578C8.864,12.578,7.226,12.484,5.596,12.301z
			 M41.098,75.61L41.098,75.61c-0.295,0-0.579-0.047-0.82-0.136C30.052,71.699,22.153,64.627,16.8,54.453
			c-3.3-6.273-5.485-13.223-6.68-21.248C9.333,27.92,8.992,22.979,9.077,18.096c0.006-0.338,0.025-0.672,0.046-1.025
			c0.01-0.17,0.02-0.343,0.029-0.521l0.006-0.121l0.121,0.002c0.262,0.004,0.521,0.006,0.782,0.006
			c10.526,0,20.653-3.527,30.959-10.784l0.07-0.051l0.072,0.05c10.397,7.261,20.521,10.789,30.951,10.789
			c0.254,0,0.509-0.002,0.764-0.006l0.113-0.002l0.014,0.113c0.008,0.068,0.016,0.131,0.023,0.189
			c0.018,0.119,0.031,0.223,0.033,0.326c0.248,11.577-1.359,21.826-4.914,31.332c-3.266,8.728-8.012,15.465-14.508,20.597
			c-3.488,2.755-7.451,4.942-11.777,6.499C41.639,75.568,41.374,75.61,41.098,75.61z M9.396,16.682
			c-0.007,0.137-0.015,0.271-0.023,0.403c-0.021,0.351-0.04,0.683-0.046,1.015c-0.084,4.869,0.256,9.798,1.041,15.068
			c1.191,7.997,3.368,14.921,6.655,21.169c5.323,10.117,13.176,17.149,23.342,20.903c0.211,0.077,0.471,0.12,0.733,0.12l0,0
			c0.248,0,0.482-0.037,0.678-0.107c4.303-1.548,8.241-3.722,11.707-6.46c6.461-5.103,11.181-11.805,14.43-20.488
			c3.543-9.477,5.146-19.693,4.898-31.238c-0.002-0.095-0.016-0.189-0.03-0.299c-0.004-0.026-0.007-0.054-0.011-0.082
			c-0.22,0.003-0.438,0.004-0.656,0.004c-10.459,0-20.607-3.527-31.021-10.783c-10.325,7.253-20.476,10.779-31.031,10.779
			C9.839,16.686,9.618,16.685,9.396,16.682z"/>
	</g>
</g>
<g>
	<g>
		<path fill-rule="evenodd" clip-rule="evenodd" fill="#FD7C05" d="M50.557,38.785c0.861,0,1.623-0.012,2.383,0.002
			c0.92,0.016,1.291,0.385,1.293,1.313c0.005,4.758,0.006,9.516-0.002,14.275c-0.001,0.884-0.362,1.242-1.262,1.242
			c-7.93,0.006-15.86,0.006-23.79,0c-0.876-0.002-1.256-0.375-1.258-1.268c-0.011-4.758-0.012-9.516,0.002-14.274
			c0.002-0.919,0.405-1.276,1.333-1.288c0.759-0.011,1.519-0.002,2.368-0.002c0-1.422-0.025-2.766,0.007-4.107
			c0.041-1.713-0.073-3.463,0.234-5.131c0.882-4.807,5.327-7.931,10.342-7.452c4.571,0.438,8.276,4.499,8.345,9.195
			C50.586,33.746,50.557,36.203,50.557,38.785z M46.828,38.768c0-2.656,0.139-5.225-0.033-7.772
			c-0.216-3.19-2.914-5.424-6.032-5.255c-3.097,0.166-5.422,2.686-5.444,5.898c-0.008,1.16-0.018,2.32-0.021,3.481
			c-0.004,1.202-0.001,2.405-0.001,3.647C39.201,38.768,42.973,38.768,46.828,38.768z M41.03,49.869c1.903,0,2.026-0.125,1.374-1.85
			c-0.38-1.008-0.381-1.818,0.391-2.686c0.708-0.798,0.481-2.055-0.299-2.699c-0.84-0.693-2.026-0.682-2.809,0.027
			c-0.787,0.713-1.006,1.939-0.287,2.711c0.811,0.871,0.729,1.693,0.361,2.684C39.141,49.723,39.268,49.868,41.03,49.869z"/>
	</g>
	<g>
		<path d="M41.617,55.871c-4.146,0-8.292-0.002-12.438-0.004c-1.012-0.002-1.505-0.498-1.508-1.518
			c-0.011-4.758-0.012-9.517,0.002-14.275c0.003-1.034,0.505-1.523,1.58-1.537c0.291-0.004,0.582-0.006,0.878-0.006l1.243,0.003
			c0-0.353-0.002-0.701-0.004-1.046c-0.005-0.957-0.01-1.887,0.012-2.816c0.011-0.459,0.011-0.92,0.011-1.383
			c0-1.251-0.001-2.545,0.227-3.788c0.833-4.536,4.772-7.704,9.579-7.704c0.342,0,0.689,0.016,1.033,0.049
			c4.734,0.453,8.5,4.601,8.57,9.441c0.024,1.682,0.018,3.334,0.012,5.084c-0.002,0.713-0.006,1.433-0.006,2.163l1.24-0.003
			c0.303,0,0.6,0.001,0.897,0.006c1.062,0.018,1.536,0.5,1.538,1.563c0.005,4.758,0.006,9.516-0.002,14.275
			c-0.001,1.018-0.481,1.492-1.512,1.492C49.186,55.87,45.4,55.871,41.617,55.871z M30.13,39.031c-0.293,0-0.583,0.002-0.871,0.006
			c-0.81,0.011-1.084,0.273-1.086,1.039c-0.014,4.758-0.013,9.516-0.002,14.273c0.002,0.75,0.266,1.016,1.009,1.018
			c7.93,0.006,15.859,0.006,23.789,0c0.766,0,1.011-0.241,1.012-0.993c0.008-4.759,0.007-9.517,0.002-14.274
			c-0.002-0.791-0.256-1.049-1.047-1.063c-0.295-0.005-0.589-0.006-0.889-0.006l-1.74,0.004v-0.25c0-0.816,0.003-1.621,0.006-2.416
			c0.006-1.748,0.013-3.398-0.012-5.076c-0.067-4.588-3.633-8.52-8.119-8.949c-0.327-0.031-0.658-0.047-0.984-0.047
			c-4.562,0-8.298,3-9.087,7.295c-0.22,1.197-0.22,2.469-0.219,3.697c0,0.467,0,0.932-0.011,1.395
			c-0.022,0.925-0.017,1.85-0.012,2.802c0.002,0.427,0.005,0.859,0.005,1.3v0.25L30.13,39.031z M41.03,50.119
			c-0.911,0-1.482-0.027-1.736-0.393c-0.255-0.367-0.073-0.934,0.233-1.757c0.353-0.946,0.415-1.647-0.31-2.427
			c-0.346-0.371-0.524-0.865-0.502-1.393c0.026-0.623,0.319-1.234,0.804-1.674c0.846-0.767,2.23-0.782,3.136-0.035
			c0.467,0.387,0.762,0.96,0.81,1.574c0.043,0.559-0.129,1.085-0.483,1.484c-0.637,0.717-0.732,1.398-0.343,2.431
			c0.327,0.866,0.508,1.42,0.252,1.789C42.643,50.08,42.107,50.119,41.03,50.119z M41.091,42.372c-0.459,0-0.897,0.169-1.235,0.475
			c-0.381,0.346-0.62,0.841-0.64,1.325c-0.012,0.277,0.042,0.682,0.368,1.03c0.946,1.018,0.757,2.015,0.412,2.942
			c-0.201,0.54-0.406,1.131-0.291,1.297c0.113,0.164,0.717,0.178,1.325,0.178c0.558,0,1.322,0,1.449-0.184
			c0.125-0.181-0.146-0.898-0.309-1.328c-0.321-0.85-0.52-1.863,0.437-2.939c0.264-0.297,0.391-0.692,0.358-1.113
			c-0.036-0.474-0.271-0.932-0.629-1.228C41.981,42.533,41.539,42.372,41.091,42.372z M47.078,39.018h-12.03l0-1.381
			c-0.001-0.848-0.001-1.684,0.001-2.518c0.002-1.008,0.01-2.015,0.017-3.021l0.003-0.461c0.022-3.331,2.464-5.973,5.68-6.146
			c3.338-0.188,6.075,2.242,6.294,5.488c0.12,1.768,0.091,3.505,0.062,5.344c-0.014,0.809-0.027,1.623-0.027,2.445V39.018z
			 M35.548,38.518h11.031c0.003-0.74,0.015-1.475,0.026-2.203c0.029-1.828,0.058-3.556-0.061-5.303
			c-0.2-2.971-2.712-5.177-5.768-5.022c-2.948,0.159-5.187,2.589-5.208,5.65l-0.003,0.462c-0.007,1.006-0.015,2.012-0.017,3.02
			c-0.003,0.834-0.002,1.668-0.001,2.516L35.548,38.518z"/>
	</g>
</g>
</svg>
