<?xml version="1.0" encoding="utf-8"?>
<!-- Generator: Adobe Illustrator 16.0.0, SVG Export Plug-In . SVG Version: 6.00 Build 0)  -->
<!DOCTYPE svg PUBLIC "-//W3C//DTD SVG 1.1//EN" "http://www.w3.org/Graphics/SVG/1.1/DTD/svg11.dtd">
<svg version="1.1" id="Layer_1" xmlns="http://www.w3.org/2000/svg" xmlns:xlink="http://www.w3.org/1999/xlink" x="0px" y="0px"
	 width="80px" height="45px" viewBox="0 0 80 45" enable-background="new 0 0 80 45" xml:space="preserve">
<g>
	<g>
		<g>
			<path fill-rule="evenodd" clip-rule="evenodd" fill="#FD7C05" d="M33.764,13.433c2.127,0,4.125,0.066,6.117-0.011
				c8.59-0.329,16.123,2.235,22.545,8.021c0.438,0.393,1.236,0.533,1.867,0.541c4.336,0.046,8.672-0.016,13.004,0.065
				c0.742,0.015,1.873,0.375,2.111,0.9c0.289,0.631,0.039,1.745-0.369,2.413c-1.426,2.343-2.912,4.664-4.57,6.848
				c-4.166,5.488-9.627,8.604-16.648,8.609c-12.688,0.014-25.373,0.005-38.06,0.005c-0.37,0-0.812,0.113-1.093-0.045
				c-0.438-0.252-0.77-0.692-1.146-1.053c0.367-0.376,0.675-0.877,1.121-1.091c0.389-0.187,0.933-0.054,1.407-0.054
				c12.528,0,25.058-0.004,37.585,0.001c6.871,0.002,11.965-3.231,15.811-8.701c1.209-1.72,2.303-3.52,3.574-5.467
				c-0.596-0.073-0.979-0.163-1.363-0.163c-19.189-0.008-38.377-0.004-57.565-0.011c-1.93,0-3.445,0.702-4.726,2.711
				c1.21,0,2.129,0.002,3.047-0.002c6.919-0.023,13.841-0.068,20.761-0.038c0.692,0.004,1.383,0.469,2.073,0.721
				c-0.323,0.665-0.559,1.393-0.982,1.986c-1.587,2.225-3.573,3.209-6.514,3.075c-6.476-0.293-12.974-0.074-19.46-0.165
				c-3.095-0.046-6.786,2.44-8.415,6.04c1.304,0,2.531,0.005,3.758-0.001c0.876-0.003,1.886-0.009,1.88,1.151
				c-0.006,1.182-1.025,1.106-1.896,1.102c-1.849-0.01-3.7,0.035-5.547-0.003c-1.591-0.032-2.043-0.822-1.153-2.113
				c1.256-1.824,2.51-3.672,3.968-5.33c1.566-1.777,3.727-2.612,6.074-2.704c3.951-0.15,7.907-0.192,11.862-0.241
				c3.581-0.046,7.163-0.013,10.743-0.088c0.576-0.012,1.143-0.414,1.716-0.636c-0.033-0.14-0.065-0.279-0.097-0.421
				c-0.392-0.046-0.786-0.132-1.178-0.131c-6.546,0.019-13.092,0.06-19.64,0.067c-1.159,0.002-2.318-0.086-3.473-0.188
				c-1.062-0.093-1.496-0.715-0.843-1.602c0.998-1.358,1.963-2.863,3.293-3.818c1.209-0.872,2.854-1.359,4.364-1.537
				c2.139-0.253,4.33-0.014,6.494-0.102c0.646-0.027,1.276-0.448,1.914-0.688c-0.054-0.206-0.106-0.411-0.16-0.617
				c-2.142,0-4.286,0.054-6.424-0.032c-0.66-0.027-1.305-0.435-1.956-0.67c0.254-0.647,0.396-1.372,0.78-1.931
				c2.256-3.285,5.224-5.217,9.706-4.482c0-1.769-0.002-3.326,0-4.882c0-0.739-0.025-1.482,0.011-2.22
				c0.078-1.647,1.119-2.746,2.634-2.82c1.581-0.079,2.811,0.978,2.914,2.694c0.104,1.74,0.032,3.489,0.053,5.231
				C33.676,12.126,33.726,12.691,33.764,13.433z M59.395,21.978c-0.518-0.462-0.758-0.715-1.035-0.918
				c-3.549-2.619-7.484-4.664-11.855-4.932c-7.106-0.436-14.247-0.36-21.371-0.37c-1.612-0.002-2.953,0.932-3.899,2.541
				c0.386,0.053,0.631,0.116,0.877,0.117c2.061,0.01,4.124-0.039,6.18,0.043c0.549,0.022,1.281,0.31,1.552,0.721
				c0.187,0.284-0.227,1.018-0.461,1.506c-0.189,0.397-0.511,0.729-0.811,1.141c2.74,0.559,5.045,0.388,6.414-2.345
				c0.529-1.055,1.451-1.353,2.638-1.324c3.063,0.076,6.127,0.034,9.191,0.026c2.311-0.006,4.602,0.518,6.09,2.221
				C54.752,22.521,56.885,21.926,59.395,21.978z M50.793,21.95c0.049-0.188,0.098-0.378,0.148-0.566
				c-1.33-0.317-2.648-0.845-3.99-0.91c-2.891-0.143-5.793-0.012-8.69-0.063c-1.112-0.021-1.758,0.386-2.069,1.539
				C41.131,21.95,45.961,21.95,50.793,21.95z M31.127,5.91c-0.152-0.012-0.306-0.022-0.458-0.032
				c-0.089,0.126-0.255,0.252-0.257,0.381c-0.045,2.196-0.083,4.392-0.07,6.588c0.001,0.177,0.382,0.352,0.588,0.527
				c0.155-0.292,0.439-0.583,0.447-0.879c0.045-1.73,0.045-3.462,0.015-5.19C31.385,6.836,31.221,6.374,31.127,5.91z"/>
			<path fill="none" stroke="#000000" stroke-width="0.25" stroke-miterlimit="10" d="M33.764,13.433
				c2.127,0,4.125,0.066,6.117-0.011c8.59-0.329,16.123,2.235,22.545,8.021c0.438,0.393,1.236,0.533,1.867,0.541
				c4.336,0.046,8.672-0.016,13.004,0.065c0.742,0.015,1.873,0.375,2.111,0.9c0.289,0.631,0.039,1.745-0.369,2.413
				c-1.426,2.343-2.912,4.664-4.57,6.848c-4.166,5.488-9.627,8.604-16.648,8.609c-12.688,0.014-25.373,0.005-38.06,0.005
				c-0.37,0-0.812,0.113-1.093-0.045c-0.438-0.252-0.77-0.692-1.146-1.053c0.367-0.376,0.675-0.877,1.121-1.091
				c0.389-0.187,0.933-0.054,1.407-0.054c12.528,0,25.058-0.004,37.585,0.001c6.871,0.002,11.965-3.231,15.811-8.701
				c1.209-1.72,2.303-3.52,3.574-5.467c-0.596-0.073-0.979-0.163-1.363-0.163c-19.189-0.008-38.377-0.004-57.565-0.011
				c-1.93,0-3.445,0.702-4.726,2.711c1.21,0,2.129,0.002,3.047-0.002c6.919-0.023,13.841-0.068,20.761-0.038
				c0.692,0.004,1.383,0.469,2.073,0.721c-0.323,0.665-0.559,1.393-0.982,1.986c-1.587,2.225-3.573,3.209-6.514,3.075
				c-6.476-0.293-12.974-0.074-19.46-0.165c-3.095-0.046-6.786,2.44-8.415,6.04c1.304,0,2.531,0.005,3.758-0.001
				c0.876-0.003,1.886-0.009,1.88,1.151c-0.006,1.182-1.025,1.106-1.896,1.102c-1.849-0.01-3.7,0.035-5.547-0.003
				c-1.591-0.032-2.043-0.822-1.153-2.113c1.256-1.824,2.51-3.672,3.968-5.33c1.566-1.777,3.727-2.612,6.074-2.704
				c3.951-0.15,7.907-0.192,11.862-0.241c3.581-0.046,7.163-0.013,10.743-0.088c0.576-0.012,1.143-0.414,1.716-0.636
				c-0.033-0.14-0.065-0.279-0.097-0.421c-0.392-0.046-0.786-0.132-1.178-0.131c-6.546,0.019-13.092,0.06-19.64,0.067
				c-1.159,0.002-2.318-0.086-3.473-0.188c-1.062-0.093-1.496-0.715-0.843-1.602c0.998-1.358,1.963-2.863,3.293-3.818
				c1.209-0.872,2.854-1.359,4.364-1.537c2.139-0.253,4.33-0.014,6.494-0.102c0.646-0.027,1.276-0.448,1.914-0.688
				c-0.054-0.206-0.106-0.411-0.16-0.617c-2.142,0-4.286,0.054-6.424-0.032c-0.66-0.027-1.305-0.435-1.956-0.67
				c0.254-0.647,0.396-1.372,0.78-1.931c2.256-3.285,5.224-5.217,9.706-4.482c0-1.769-0.002-3.326,0-4.882
				c0-0.739-0.025-1.482,0.011-2.22c0.078-1.647,1.119-2.746,2.634-2.82c1.581-0.079,2.811,0.978,2.914,2.694
				c0.104,1.74,0.032,3.489,0.053,5.231C33.676,12.126,33.726,12.691,33.764,13.433z M59.395,21.978
				c-0.518-0.462-0.758-0.715-1.035-0.918c-3.549-2.619-7.484-4.664-11.855-4.932c-7.106-0.436-14.247-0.36-21.371-0.37
				c-1.612-0.002-2.953,0.932-3.899,2.541c0.386,0.053,0.631,0.116,0.877,0.117c2.061,0.01,4.124-0.039,6.18,0.043
				c0.549,0.022,1.281,0.31,1.552,0.721c0.187,0.284-0.227,1.018-0.461,1.506c-0.189,0.397-0.511,0.729-0.811,1.141
				c2.74,0.559,5.045,0.388,6.414-2.345c0.529-1.055,1.451-1.353,2.638-1.324c3.063,0.076,6.127,0.034,9.191,0.026
				c2.311-0.006,4.602,0.518,6.09,2.221C54.752,22.521,56.885,21.926,59.395,21.978z M50.793,21.95
				c0.049-0.188,0.098-0.378,0.148-0.566c-1.33-0.317-2.648-0.845-3.99-0.91c-2.891-0.143-5.793-0.012-8.69-0.063
				c-1.112-0.021-1.758,0.386-2.069,1.539C41.131,21.95,45.961,21.95,50.793,21.95z M31.127,5.91
				c-0.152-0.012-0.306-0.022-0.458-0.032c-0.089,0.126-0.255,0.252-0.257,0.381c-0.045,2.196-0.083,4.392-0.07,6.588
				c0.001,0.177,0.382,0.352,0.588,0.527c0.155-0.292,0.439-0.583,0.447-0.879c0.045-1.73,0.045-3.462,0.015-5.19
				C31.385,6.836,31.221,6.374,31.127,5.91z"/>
		</g>
		<g>
			<path fill-rule="evenodd" clip-rule="evenodd" fill="#F7931E" d="M53.402,33.139c-3.904,0-7.807,0.021-11.711-0.025
				c-0.449-0.006-1.107-0.278-1.284-0.624c-0.171-0.336-0.001-1.051,0.28-1.381c1.055-1.244,2.17-2.45,3.367-3.557
				c0.408-0.381,1.123-0.601,1.701-0.606c4.332-0.047,8.668-0.058,13.004-0.013c3.348,0.038,5.949,1.591,7.941,4.216
				c0.75,0.986,0.377,1.845-0.947,1.93c-1.895,0.124-3.799,0.069-5.697,0.077c-2.219,0.01-4.436,0.003-6.654,0.003
				C53.402,33.151,53.402,33.145,53.402,33.139z M62.863,30.881c0.043-0.211,0.084-0.423,0.127-0.636
				c-1.391-0.359-2.77-0.983-4.17-1.033c-3.902-0.143-7.816,0.009-11.725-0.072c-1.377-0.026-2.213,0.535-3.002,1.741
				C50.482,30.881,56.674,30.881,62.863,30.881z"/>
			<path fill="none" stroke="#000000" stroke-width="0.25" stroke-miterlimit="10" d="M53.402,33.139
				c-3.904,0-7.807,0.021-11.711-0.025c-0.449-0.006-1.107-0.278-1.284-0.624c-0.171-0.336-0.001-1.051,0.28-1.381
				c1.055-1.244,2.17-2.45,3.367-3.557c0.408-0.381,1.123-0.601,1.701-0.606c4.332-0.047,8.668-0.058,13.004-0.013
				c3.348,0.038,5.949,1.591,7.941,4.216c0.75,0.986,0.377,1.845-0.947,1.93c-1.895,0.124-3.799,0.069-5.697,0.077
				c-2.219,0.01-4.436,0.003-6.654,0.003C53.402,33.151,53.402,33.145,53.402,33.139z M62.863,30.881
				c0.043-0.211,0.084-0.423,0.127-0.636c-1.391-0.359-2.77-0.983-4.17-1.033c-3.902-0.143-7.816,0.009-11.725-0.072
				c-1.377-0.026-2.213,0.535-3.002,1.741C50.482,30.881,56.674,30.881,62.863,30.881z"/>
		</g>
		<g>
			<path fill-rule="evenodd" clip-rule="evenodd" fill="#F7931E" d="M54.494,35.906c-0.803,0.501-1.234,0.974-1.674,0.981
				c-0.338,0.005-1.016-0.658-0.961-0.874c0.113-0.448,0.578-1.06,0.971-1.117C53.215,34.84,53.688,35.386,54.494,35.906z"/>
			<path fill="none" stroke="#000000" stroke-width="0.25" stroke-miterlimit="10" d="M54.494,35.906
				c-0.803,0.501-1.234,0.974-1.674,0.981c-0.338,0.005-1.016-0.658-0.961-0.874c0.113-0.448,0.578-1.06,0.971-1.117
				C53.215,34.84,53.688,35.386,54.494,35.906z"/>
		</g>
		<g>
			<path fill-rule="evenodd" clip-rule="evenodd" fill="#F7931E" d="M60.291,35.941c-0.785,0.489-1.223,0.972-1.662,0.972
				c-0.336,0-1-0.696-0.938-0.923c0.123-0.448,0.611-1.04,1.018-1.097C59.08,34.839,59.541,35.412,60.291,35.941z"/>
			<path fill="none" stroke="#000000" stroke-width="0.25" stroke-miterlimit="10" d="M60.291,35.941
				c-0.785,0.489-1.223,0.972-1.662,0.972c-0.336,0-1-0.696-0.938-0.923c0.123-0.448,0.611-1.04,1.018-1.097
				C59.08,34.839,59.541,35.412,60.291,35.941z"/>
		</g>
		<g>
			<path fill-rule="evenodd" clip-rule="evenodd" fill="#F7931E" d="M36.797,35.91c-0.676,0.463-1.082,0.946-1.507,0.967
				c-0.351,0.017-0.728-0.514-1.094-0.803c0.391-0.416,0.719-0.966,1.2-1.185C35.6,34.799,36.122,35.396,36.797,35.91z"/>
			<path fill="none" stroke="#000000" stroke-width="0.25" stroke-miterlimit="10" d="M36.797,35.91
				c-0.676,0.463-1.082,0.946-1.507,0.967c-0.351,0.017-0.728-0.514-1.094-0.803c0.391-0.416,0.719-0.966,1.2-1.185
				C35.6,34.799,36.122,35.396,36.797,35.91z"/>
		</g>
		<g>
			<path fill-rule="evenodd" clip-rule="evenodd" fill="#F7931E" d="M41.096,34.261c0.516,0.823,0.984,1.249,0.982,1.674
				c0,0.359-0.549,0.715-0.854,1.073c-0.385-0.34-1.019-0.638-1.081-1.028C40.082,35.592,40.594,35.111,41.096,34.261z"/>
			<path fill="none" stroke="#000000" stroke-width="0.25" stroke-miterlimit="10" d="M41.096,34.261
				c0.516,0.823,0.984,1.249,0.982,1.674c0,0.359-0.549,0.715-0.854,1.073c-0.385-0.34-1.019-0.638-1.081-1.028
				C40.082,35.592,40.594,35.111,41.096,34.261z"/>
		</g>
		<g>
			<path fill-rule="evenodd" clip-rule="evenodd" fill="#F7931E" d="M48.551,35.928c-0.701,0.499-1.15,1.062-1.51,1.009
				c-0.41-0.061-0.74-0.669-1.104-1.038c0.389-0.326,0.744-0.84,1.18-0.917C47.434,34.925,47.854,35.442,48.551,35.928z"/>
			<path fill="none" stroke="#000000" stroke-width="0.25" stroke-miterlimit="10" d="M48.551,35.928
				c-0.701,0.499-1.15,1.062-1.51,1.009c-0.41-0.061-0.74-0.669-1.104-1.038c0.389-0.326,0.744-0.84,1.18-0.917
				C47.434,34.925,47.854,35.442,48.551,35.928z"/>
		</g>
		<g>
			<path fill-rule="evenodd" clip-rule="evenodd" fill="#F7931E" d="M13.335,41.37c-0.43-0.885-0.846-1.35-0.796-1.76
				c0.043-0.362,0.605-0.663,0.938-0.992c0.345,0.382,0.922,0.739,0.962,1.148C14.476,40.138,13.922,40.565,13.335,41.37z"/>
			<path fill="none" stroke="#000000" stroke-width="0.25" stroke-miterlimit="10" d="M13.335,41.37
				c-0.43-0.885-0.846-1.35-0.796-1.76c0.043-0.362,0.605-0.663,0.938-0.992c0.345,0.382,0.922,0.739,0.962,1.148
				C14.476,40.138,13.922,40.565,13.335,41.37z"/>
		</g>
		<g>
			<path fill-rule="evenodd" clip-rule="evenodd" fill="#002F64" d="M31.127,5.91c0.094,0.464,0.257,0.927,0.265,1.394
				c0.03,1.729,0.03,3.46-0.015,5.19c-0.008,0.297-0.292,0.588-0.447,0.879c-0.206-0.175-0.587-0.35-0.588-0.527
				c-0.013-2.196,0.025-4.392,0.07-6.588c0.002-0.129,0.168-0.255,0.257-0.381C30.822,5.887,30.975,5.898,31.127,5.91z"/>
			<path fill="none" stroke="#000000" stroke-width="0.25" stroke-miterlimit="10" d="M31.127,5.91
				c0.094,0.464,0.257,0.927,0.265,1.394c0.03,1.729,0.03,3.46-0.015,5.19c-0.008,0.297-0.292,0.588-0.447,0.879
				c-0.206-0.175-0.587-0.35-0.588-0.527c-0.013-2.196,0.025-4.392,0.07-6.588c0.002-0.129,0.168-0.255,0.257-0.381
				C30.822,5.887,30.975,5.898,31.127,5.91z"/>
		</g>
		<g>
			<path fill-rule="evenodd" clip-rule="evenodd" fill="#002F64" d="M62.863,30.881c-6.189,0-12.381,0-18.77,0
				c0.789-1.206,1.625-1.768,3.002-1.741c3.908,0.081,7.822-0.07,11.725,0.072c1.4,0.05,2.779,0.674,4.17,1.033
				C62.947,30.458,62.906,30.67,62.863,30.881z"/>
			<path fill="none" stroke="#000000" stroke-width="0.25" stroke-miterlimit="10" d="M62.863,30.881c-6.189,0-12.381,0-18.77,0
				c0.789-1.206,1.625-1.768,3.002-1.741c3.908,0.081,7.822-0.07,11.725,0.072c1.4,0.05,2.779,0.674,4.17,1.033
				C62.947,30.458,62.906,30.67,62.863,30.881z"/>
		</g>
	</g>
</g>
</svg>
