<?xml version="1.0" encoding="utf-8"?>
<!-- Generator: Adobe Illustrator 16.0.0, SVG Export Plug-In . SVG Version: 6.00 Build 0)  -->
<!DOCTYPE svg PUBLIC "-//W3C//DTD SVG 1.1//EN" "http://www.w3.org/Graphics/SVG/1.1/DTD/svg11.dtd">
<svg version="1.1" id="Layer_1" xmlns="http://www.w3.org/2000/svg" xmlns:xlink="http://www.w3.org/1999/xlink" x="0px" y="0px"
	 width="80px" height="80px" viewBox="0 0 80 80" enable-background="new 0 0 80 80" xml:space="preserve">
<g>
	<g>
		<g>
			<g>
				<path fill="#1A2E35" d="M26.309,9.675l-0.139-0.173c0.981-0.791,2.008-1.537,3.053-2.217l0.121,0.187
					C28.305,8.146,27.285,8.888,26.309,9.675z"/>
				<path d="M26.292,9.828l-0.276-0.343l0.085-0.068c0.99-0.798,2.02-1.547,3.062-2.225l0.092-0.06l0.239,0.371l-0.091,0.059
					c-1.032,0.673-2.05,1.411-3.026,2.197L26.292,9.828z M26.323,9.518l0.003,0.003c0.926-0.742,1.889-1.441,2.867-2.081
					L29.19,7.437C28.215,8.074,27.252,8.774,26.323,9.518z"/>
			</g>
		</g>
		<g>
			<g>
				<path d="M26.305,9.706l-0.167-0.208l0.017-0.014c0.987-0.796,2.015-1.542,3.055-2.218l0.019-0.012l0.144,0.224L29.355,7.49
					c-1.035,0.674-2.055,1.415-3.033,2.202L26.305,9.706z M26.2,9.505l0.112,0.139c0.968-0.778,1.978-1.512,3.001-2.179l-0.098-0.15
					C28.19,7.983,27.175,8.72,26.2,9.505z"/>
				<path d="M26.305,9.845L26.22,9.774l-0.235-0.293l0.085-0.068c1.006-0.811,2.037-1.56,3.081-2.238l0.092-0.06l0.079,0.081
					l0.201,0.314l-0.089,0.06c-1.048,0.682-2.065,1.421-3.043,2.208L26.305,9.845z"/>
			</g>
		</g>
	</g>
	<g>
		<g>
			<g>
				<path fill="#1A2E35" d="M24.666,11.082l-0.15-0.166c0.298-0.27,0.604-0.54,0.91-0.799l0.145,0.17
					C25.266,10.545,24.961,10.813,24.666,11.082z"/>
				<path d="M24.658,11.235l-0.297-0.328l0.081-0.073c0.315-0.284,0.622-0.553,0.914-0.801l0.083-0.071l0.285,0.337l-0.083,0.07
					c-0.315,0.268-0.618,0.534-0.902,0.792L24.658,11.235z M24.67,10.923l0.003,0.004c0.236-0.214,0.486-0.433,0.744-0.652
					l-0.004-0.004C25.174,10.476,24.925,10.694,24.67,10.923z"/>
			</g>
		</g>
		<g>
			<g>
				<path d="M24.664,11.112l-0.179-0.198l0.016-0.015c0.314-0.284,0.621-0.551,0.911-0.799l0.017-0.014l0.015,0.017l0.158,0.187
					l-0.017,0.014c-0.315,0.268-0.62,0.536-0.904,0.793L24.664,11.112z M24.546,10.918l0.121,0.133
					c0.274-0.251,0.568-0.508,0.872-0.767l-0.116-0.137C25.143,10.386,24.849,10.645,24.546,10.918z"/>
				<path d="M24.672,11.252l-0.089-0.066l-0.253-0.28l0.082-0.073c0.331-0.299,0.638-0.568,0.929-0.816l0.082-0.07l0.088,0.068
					l0.243,0.287l-0.081,0.07c-0.323,0.274-0.626,0.541-0.919,0.807L24.672,11.252z"/>
			</g>
		</g>
	</g>
	<g>
		<g>
			<g>
				<path fill="#1A2E35" d="M59.355,22.883c-3.207,11.948-15.626,22.428-27.74,23.41c-12.113,0.98-19.336-7.912-16.129-19.859
					c3.205-11.949,15.625-22.429,27.739-23.41C55.339,2.043,62.561,10.934,59.355,22.883z"/>
				<path d="M29.818,46.476c-5.235,0-9.611-1.945-12.321-5.479c-2.881-3.757-3.633-8.939-2.117-14.592
					c3.211-11.969,15.698-22.507,27.835-23.49c0.609-0.049,1.218-0.074,1.809-0.074c5.233,0,9.609,1.945,12.32,5.479
					c2.881,3.757,3.633,8.938,2.116,14.591c-3.212,11.971-15.7,22.509-27.837,23.491C31.016,46.45,30.408,46.476,29.818,46.476z
					 M45.024,3.06c-0.585,0-1.188,0.025-1.791,0.073C31.181,4.109,18.781,14.574,15.592,26.461
					c-1.5,5.586-0.762,10.701,2.078,14.403c2.667,3.478,6.982,5.394,12.147,5.394c0.584,0,1.187-0.025,1.789-0.073
					c12.052-0.977,24.452-11.442,27.642-23.331c1.499-5.586,0.761-10.701-2.079-14.401C54.502,4.975,50.189,3.06,45.024,3.06z"/>
			</g>
		</g>
		<g>
			<g>
				<path d="M29.818,46.389c-5.208,0-9.559-1.934-12.251-5.446c-2.865-3.735-3.611-8.889-2.102-14.515
					C17.017,20.645,20.758,15.023,26,10.6c5.243-4.424,11.36-7.123,17.223-7.597c0.606-0.049,1.212-0.075,1.801-0.075
					c5.206,0,9.558,1.935,12.249,5.445c2.866,3.735,3.612,8.89,2.103,14.516c-1.552,5.783-5.293,11.404-10.536,15.829
					c-5.243,4.425-11.359,7.123-17.223,7.598C31.011,46.363,30.406,46.389,29.818,46.389z M45.024,2.973
					c-0.587,0-1.192,0.023-1.797,0.073C31.14,4.024,18.705,14.519,15.507,26.439c-1.506,5.612-0.763,10.753,2.094,14.479
					c2.685,3.5,7.023,5.427,12.217,5.427c0.586,0,1.19-0.023,1.795-0.073c12.086-0.979,24.521-11.473,27.72-23.394
					c1.507-5.612,0.763-10.755-2.094-14.479C54.556,4.9,50.218,2.973,45.024,2.973z"/>
				<path d="M29.818,46.498c-5.242,0-9.625-1.949-12.338-5.488c-2.886-3.763-3.639-8.952-2.121-14.61
					c1.558-5.804,5.312-11.445,10.571-15.884c5.26-4.438,11.399-7.146,17.284-7.622c0.609-0.05,1.218-0.075,1.811-0.075
					c5.242,0,9.623,1.949,12.336,5.486c2.887,3.762,3.64,8.951,2.121,14.611C57.924,28.721,54.169,34.362,48.91,38.8
					c-5.26,4.44-11.398,7.146-17.284,7.623C31.018,46.473,30.409,46.498,29.818,46.498z M45.024,3.082
					c-0.585,0-1.188,0.024-1.789,0.073C31.191,4.13,18.8,14.588,15.613,26.467c-1.498,5.579-0.761,10.687,2.075,14.383
					c2.663,3.473,6.971,5.385,12.129,5.385c0.584,0,1.186-0.023,1.787-0.073c12.044-0.976,24.436-11.433,27.623-23.313
					c1.497-5.579,0.76-10.687-2.075-14.384C54.489,4.994,50.182,3.082,45.024,3.082z"/>
			</g>
		</g>
	</g>
	<g>
		<g>
			<g>
				<path fill="#FFFFFF" d="M56.448,23.118c-2.782,10.365-13.555,19.458-24.063,20.307c-10.509,0.852-16.773-6.862-13.991-17.227
					c2.78-10.365,13.555-19.457,24.063-20.307C52.965,5.041,59.228,12.752,56.448,23.118z"/>
				<path d="M30.822,43.598c-4.544,0-8.344-1.689-10.696-4.757c-2.502-3.263-3.155-7.762-1.838-12.669
					c2.787-10.39,13.625-19.537,24.161-20.389c0.528-0.043,1.056-0.065,1.568-0.065c4.545,0,8.344,1.69,10.696,4.758
					c2.504,3.262,3.157,7.762,1.841,12.67c-2.788,10.39-13.627,19.535-24.161,20.387C31.864,43.576,31.335,43.598,30.822,43.598z
					 M44.017,5.936c-0.507,0-1.028,0.022-1.551,0.064C32.015,6.846,21.263,15.919,18.5,26.227c-1.299,4.84-0.66,9.273,1.8,12.48
					c2.311,3.012,6.048,4.671,10.523,4.671c0.507,0,1.03-0.021,1.554-0.063c10.449-0.846,21.2-9.919,23.966-20.227
					c1.299-4.841,0.659-9.274-1.802-12.481C52.229,7.595,48.492,5.936,44.017,5.936z"/>
			</g>
		</g>
		<g>
			<g>
				<path d="M30.822,43.511c-4.517,0-8.291-1.678-10.627-4.724c-2.486-3.24-3.132-7.713-1.823-12.594
					c1.346-5.018,4.592-9.895,9.141-13.733c4.548-3.838,9.854-6.179,14.942-6.59c0.526-0.042,1.052-0.064,1.562-0.064
					c4.517,0,8.291,1.677,10.628,4.723c2.485,3.24,3.134,7.714,1.824,12.595c-1.346,5.018-4.592,9.894-9.141,13.732
					c-4.549,3.838-9.855,6.178-14.942,6.589C31.859,43.489,31.333,43.511,30.822,43.511z M44.017,5.849
					c-0.509,0-1.033,0.021-1.559,0.064c-10.484,0.847-21.27,9.951-24.043,20.291c-1.306,4.868-0.662,9.327,1.815,12.557
					c2.328,3.034,6.089,4.705,10.592,4.705c0.51,0,1.035-0.021,1.561-0.063c10.483-0.849,21.27-9.952,24.043-20.292
					c1.307-4.867,0.662-9.328-1.816-12.557C52.281,7.521,48.52,5.849,44.017,5.849z"/>
				<path d="M30.822,43.62c-4.551,0-8.356-1.692-10.714-4.767c-2.506-3.267-3.159-7.773-1.841-12.688
					c1.352-5.039,4.611-9.937,9.176-13.789c4.566-3.853,9.895-6.203,15.004-6.616c0.525-0.043,1.054-0.064,1.57-0.064
					c4.552,0,8.357,1.692,10.715,4.766c2.507,3.269,3.161,7.776,1.843,12.689c-1.351,5.04-4.61,9.936-9.176,13.789
					s-9.894,6.202-15.004,6.615C31.865,43.598,31.335,43.62,30.822,43.62z M44.017,5.958c-0.508,0-1.03,0.022-1.55,0.063
					c-10.442,0.845-21.184,9.912-23.946,20.211c-1.298,4.833-0.66,9.26,1.797,12.462c2.306,3.006,6.038,4.662,10.505,4.662
					c0.509,0,1.031-0.02,1.552-0.063c10.441-0.844,21.184-9.909,23.946-20.208c1.298-4.834,0.659-9.261-1.798-12.463
					C52.216,7.614,48.484,5.958,44.017,5.958z"/>
			</g>
		</g>
	</g>
	<g>
		<g>
			<g>
				<path fill="#FD7C05" d="M42.041,7.437c-9.643,0.781-19.529,9.124-22.081,18.636l34.921-2.827
					C57.433,13.734,51.684,6.656,42.041,7.437z"/>
				<path d="M19.813,26.193l0.041-0.15c2.559-9.536,12.508-17.932,22.178-18.715c0.484-0.039,0.971-0.059,1.44-0.059
					c4.174,0,7.662,1.552,9.825,4.369c2.298,2.998,2.897,7.129,1.689,11.635l-0.021,0.074l-0.076,0.007L19.813,26.193z
					 M43.473,7.488c-0.465,0-0.943,0.019-1.424,0.058c-9.533,0.772-19.342,9.012-21.943,18.404l34.69-2.808
					c1.164-4.411,0.571-8.446-1.673-11.372C51.004,9.009,47.577,7.488,43.473,7.488z"/>
			</g>
		</g>
		<g>
			<g>
				<path d="M19.931,26.096l0.008-0.03c1.236-4.604,4.215-9.08,8.389-12.603c4.174-3.522,9.044-5.67,13.712-6.048
					c0.483-0.04,0.966-0.059,1.434-0.059c4.146,0,7.61,1.54,9.754,4.335c2.283,2.975,2.877,7.08,1.677,11.559l-0.005,0.015
					l-0.016,0.002L19.931,26.096z M43.473,7.4c-0.467,0-0.947,0.02-1.43,0.059c-9.609,0.778-19.495,9.113-22.054,18.588
					l34.875-2.823c1.193-4.461,0.6-8.546-1.671-11.506C51.057,8.934,47.605,7.4,43.473,7.4z"/>
				<path d="M19.787,26.217l0.046-0.179c1.242-4.627,4.234-9.122,8.424-12.659c4.191-3.537,9.083-5.694,13.773-6.073
					c0.484-0.039,0.97-0.06,1.442-0.06c4.182,0,7.677,1.555,9.842,4.378c2.303,3.001,2.904,7.14,1.694,11.654l-0.021,0.074
					l-0.081,0.022L19.787,26.217z M43.473,7.509c-0.46,0-0.939,0.02-1.422,0.059c-9.508,0.77-19.305,8.988-21.915,18.357
					l34.643-2.803c1.157-4.397,0.564-8.421-1.673-11.337C50.991,9.028,47.569,7.509,43.473,7.509z"/>
			</g>
		</g>
	</g>
	<g opacity="0.7">
		<g>
			<g>
				<path fill="#FFFFFF" d="M19.96,26.072l17.461-1.415L28.342,13.48C24.346,16.853,21.236,21.317,19.96,26.072z"/>
				<path d="M19.813,26.193l0.041-0.15c1.24-4.62,4.229-9.112,8.417-12.647l0.085-0.071l0.07,0.087l9.21,11.338L19.813,26.193z
					 M28.327,13.635c-4.063,3.457-6.977,7.82-8.221,12.315l17.099-1.385L28.327,13.635z"/>
			</g>
		</g>
		<g>
			<g>
				<path d="M19.931,26.096l0.008-0.03c1.236-4.604,4.215-9.08,8.389-12.603l0.017-0.014l0.015,0.017l9.105,11.209l-0.042,0.004
					L19.931,26.096z M28.339,13.512c-4.15,3.507-7.114,7.958-8.351,12.536l17.388-1.408L28.339,13.512z"/>
				<path d="M19.787,26.217l0.046-0.179c1.242-4.627,4.234-9.122,8.424-12.659l0.084-0.07l0.088,0.07l9.25,11.388L19.787,26.217z
					 M28.325,13.667c-4.042,3.442-6.943,7.787-8.189,12.258l17.025-1.378L28.325,13.667z"/>
			</g>
		</g>
	</g>
	<g opacity="0.4">
		<g>
			<g>
				<path fill="#FFFFFF" d="M42.041,7.437c-4.822,0.391-9.704,2.672-13.699,6.043l9.079,11.177L42.041,7.437L42.041,7.437z"/>
				<path d="M37.471,24.892l-0.135-0.166l-9.146-11.26l0.082-0.07c4.188-3.533,9.075-5.689,13.761-6.068l0.154-0.013L37.471,24.892z
					 M28.495,13.495l8.875,10.928L41.895,7.56C37.331,7.966,32.582,10.069,28.495,13.495z"/>
			</g>
		</g>
		<g>
			<g>
				<path d="M37.431,24.705l-0.027-0.033l-9.092-11.194l0.016-0.014c4.174-3.522,9.043-5.67,13.712-6.048l0.031-0.003l-0.009,0.03
					L37.431,24.705z M28.373,13.483l9.038,11.127l4.603-17.149C37.368,7.845,32.526,9.982,28.373,13.483z"/>
				<path d="M37.481,24.938l-0.163-0.198l-9.16-11.278l0.083-0.069c4.207-3.551,9.098-5.708,13.789-6.087l0.184-0.015L42.168,7.47
					L37.481,24.938z M28.525,13.498l8.835,10.877l4.505-16.792C37.323,7.997,32.595,10.091,28.525,13.498z"/>
			</g>
		</g>
	</g>
	<g opacity="0.1">
		<g>
			<g>
				<path fill="#FFFFFF" d="M42.041,7.437l-4.62,17.221l15.613-13.176C50.71,8.622,46.862,7.048,42.041,7.437z"/>
				<path d="M37.225,24.966l0.09-0.336l4.64-17.295l0.077-0.006c0.484-0.039,0.97-0.059,1.439-0.059
					c4.049,0,7.476,1.472,9.647,4.144l0.068,0.083L37.225,24.966z M42.126,7.54l-4.51,16.81l15.265-12.882
					C50.511,8.613,46.643,7.197,42.126,7.54z"/>
			</g>
		</g>
		<g>
			<g>
				<path d="M37.381,24.719l0.018-0.067l4.625-17.235l0.015,0c0.482-0.04,0.965-0.059,1.433-0.059c4.023,0,7.424,1.459,9.58,4.111
					l0.013,0.017l-0.016,0.014L37.381,24.719z M42.059,7.457L37.46,24.596l15.543-13.119C50.856,8.849,47.472,7.4,43.472,7.4
					C43.01,7.4,42.534,7.419,42.059,7.457z"/>
				<path d="M37.186,25.027l0.107-0.403l4.646-17.311l0.075-0.006c0.499-0.04,0.984-0.061,1.457-0.061
					c4.057,0,7.487,1.475,9.664,4.152l0.068,0.083l-0.069,0.086L37.186,25.027z M42.144,7.561l-4.488,16.728l15.195-12.824
					c-2.129-2.551-5.454-3.955-9.379-3.955C43.041,7.509,42.594,7.526,42.144,7.561z"/>
			</g>
		</g>
	</g>
	<g>
		<g>
			<g>
				<path fill="#FFFFFF" d="M45.182,24.03c-1.134,4.229-5.529,7.937-9.815,8.285c-4.288,0.347-6.843-2.8-5.709-7.028
					c1.135-4.229,5.53-7.938,9.818-8.286C43.762,16.655,46.317,19.8,45.182,24.03z"/>
				<path d="M34.73,32.45c-1.875,0-3.443-0.698-4.417-1.967c-1.034-1.347-1.304-3.203-0.762-5.225
					c1.145-4.263,5.592-8.016,9.915-8.366c2.155-0.174,3.98,0.529,5.061,1.94c1.033,1.348,1.304,3.204,0.76,5.225
					c-1.143,4.263-5.59,8.016-9.913,8.366C35.158,32.441,34.941,32.45,34.73,32.45z M40.11,17.083c-0.205,0-0.415,0.009-0.627,0.026
					c-4.237,0.345-8.598,4.026-9.72,8.206c-0.524,1.956-0.267,3.744,0.724,5.036c1.035,1.35,2.795,2.021,4.871,1.855
					c4.237-0.343,8.597-4.024,9.719-8.205c0.526-1.955,0.27-3.744-0.722-5.036C43.424,17.753,41.916,17.083,40.11,17.083z"/>
			</g>
		</g>
		<g>
			<g>
				<path d="M34.73,32.363c-1.847,0-3.391-0.686-4.346-1.933c-1.018-1.325-1.282-3.154-0.748-5.148
					c1.136-4.23,5.549-7.955,9.838-8.302c0.214-0.018,0.428-0.026,0.637-0.026c1.848,0,3.392,0.686,4.348,1.932
					c1.017,1.326,1.282,3.154,0.745,5.15c-1.135,4.23-5.547,7.953-9.835,8.301C35.152,32.354,34.938,32.363,34.73,32.363z
					 M40.11,16.997c-0.207,0-0.42,0.009-0.634,0.026c-4.271,0.347-8.667,4.056-9.798,8.27c-0.532,1.982-0.269,3.798,0.739,5.112
					c0.948,1.235,2.479,1.915,4.313,1.915c0.208,0,0.421-0.008,0.634-0.026c4.271-0.345,8.666-4.054,9.797-8.268
					c0.532-1.982,0.271-3.798-0.737-5.112C43.477,17.677,41.944,16.997,40.11,16.997z"/>
				<path d="M34.73,32.472c-1.882,0-3.457-0.702-4.434-1.976c-1.037-1.352-1.309-3.214-0.767-5.244
					c1.147-4.27,5.604-8.03,9.935-8.382c0.214-0.017,0.431-0.027,0.646-0.027c1.883,0,3.458,0.702,4.435,1.975
					c1.037,1.354,1.309,3.216,0.765,5.245c-1.146,4.271-5.602,8.031-9.933,8.381C35.161,32.463,34.944,32.472,34.73,32.472z
					 M40.11,17.106c-0.202,0-0.412,0.008-0.625,0.025c-4.229,0.343-8.581,4.017-9.701,8.189c-0.523,1.948-0.268,3.73,0.72,5.017
					c0.926,1.208,2.427,1.872,4.225,1.872c0.202,0,0.412-0.008,0.625-0.025c4.23-0.341,8.581-4.015,9.699-8.188
					c0.524-1.949,0.27-3.73-0.719-5.018C43.41,17.772,41.91,17.106,40.11,17.106z"/>
			</g>
		</g>
	</g>
	<g>
		<g>
			<g>
				<path fill="#1A2E35" d="M39.261,27.955c-2.38,1.678-5.134,1.562-6.15-0.26c-1.019-1.821,0.089-4.657,2.469-6.335
					c2.379-1.678,5.133-1.561,6.15,0.261C42.747,23.442,41.642,26.278,39.261,27.955z"/>
				<path d="M35.856,29.25c-1.273,0-2.308-0.548-2.841-1.502c-1.042-1.864,0.081-4.77,2.501-6.477
					c1.103-0.779,2.335-1.206,3.468-1.206c1.272,0,2.308,0.547,2.842,1.502c1.041,1.866-0.082,4.771-2.502,6.476
					C38.221,28.822,36.99,29.25,35.856,29.25z M38.984,20.284c-1.089,0-2.275,0.414-3.342,1.166
					c-2.333,1.646-3.425,4.423-2.436,6.193c0.492,0.883,1.458,1.39,2.649,1.39c1.088,0,2.276-0.415,3.342-1.166
					c2.333-1.644,3.426-4.421,2.437-6.192C41.142,20.791,40.175,20.284,38.984,20.284z"/>
			</g>
		</g>
		<g>
			<g>
				<path d="M35.856,29.164c-1.24,0-2.248-0.531-2.764-1.458c-1.021-1.826,0.089-4.681,2.475-6.363
					c1.089-0.767,2.302-1.189,3.418-1.189c1.24,0,2.247,0.531,2.765,1.457c1.021,1.828-0.09,4.682-2.475,6.363
					C38.186,28.74,36.972,29.164,35.856,29.164z M38.984,20.197c-1.107,0-2.312,0.419-3.392,1.181
					c-2.369,1.671-3.473,4.499-2.463,6.308c0.51,0.911,1.503,1.434,2.727,1.434c1.106,0,2.312-0.42,3.392-1.182
					c2.368-1.667,3.474-4.496,2.464-6.305C41.202,20.72,40.208,20.197,38.984,20.197z"/>
				<path d="M35.856,29.273c-1.281,0-2.323-0.551-2.859-1.513c-1.048-1.874,0.077-4.792,2.507-6.507
					c1.107-0.78,2.343-1.208,3.481-1.208c1.28,0,2.322,0.551,2.86,1.512c1.048,1.876-0.077,4.793-2.508,6.506
					C38.231,28.843,36.995,29.273,35.856,29.273z M38.984,20.306c-1.085,0-2.267,0.413-3.329,1.162
					c-2.324,1.639-3.414,4.404-2.43,6.164c0.49,0.877,1.448,1.379,2.63,1.379c1.085,0,2.267-0.413,3.329-1.163
					c2.324-1.636,3.415-4.401,2.431-6.163C41.127,20.809,40.167,20.306,38.984,20.306z"/>
			</g>
		</g>
	</g>
	<g>
		<g>
			<g>
				<path fill="#1A2E35" d="M50.488,15.447c0,0-5.702,1.971-11.723,6.214l1.643,2.941C46.429,20.358,50.488,15.447,50.488,15.447z"
					/>
				<path d="M40.372,24.761l-0.06-0.106l-1.69-3.027l0.08-0.057c5.963-4.203,11.692-6.208,11.75-6.227l0.367-0.128l-0.246,0.3
					c-0.042,0.05-4.138,4.971-10.102,9.174L40.372,24.761z M38.909,21.693l1.535,2.75c5.018-3.556,8.69-7.602,9.689-8.749
					C48.752,16.218,43.924,18.174,38.909,21.693z"/>
			</g>
		</g>
		<g>
			<g>
				<path d="M40.401,24.635l-0.012-0.022l-1.653-2.958l0.016-0.012c5.955-4.195,11.671-6.195,11.729-6.216l0.073-0.025l-0.05,0.061
					c-0.041,0.048-4.129,4.962-10.084,9.158L40.401,24.635z M38.795,21.667l1.62,2.903c5.579-3.935,9.512-8.494,10.005-9.076
					C49.724,15.745,44.365,17.745,38.795,21.667z"/>
				<path d="M40.385,24.779l-0.091-0.113l-1.7-3.045l0.08-0.056c6.02-4.243,11.716-6.223,11.772-6.242l0.441-0.154l-0.298,0.361
					c-0.171,0.205-4.229,5.037-10.105,9.179L40.385,24.779z M38.938,21.7l1.513,2.711c4.897-3.475,8.542-7.452,9.607-8.664
					C48.601,16.305,43.851,18.256,38.938,21.7z"/>
			</g>
		</g>
	</g>
	<g>
		<g>
			<g>
				<path fill="#FD7C05" d="M21.968,32.645c-0.23,0-0.383-0.177-0.344-0.41c0.04-0.246,0.275-0.46,0.525-0.48l19.183-1.523
					c0.251-0.019,0.421,0.163,0.38,0.409c-0.041,0.246-0.275,0.46-0.524,0.479l-19.184,1.522
					C21.993,32.643,21.98,32.645,21.968,32.645z"/>
				<path d="M21.968,32.754c-0.144,0-0.271-0.055-0.356-0.155c-0.085-0.101-0.119-0.238-0.096-0.383
					c0.047-0.295,0.321-0.546,0.624-0.57l19.183-1.523c0.168-0.015,0.308,0.043,0.401,0.154c0.085,0.102,0.119,0.237,0.094,0.38
					c-0.047,0.297-0.321,0.548-0.622,0.572l-19.184,1.522C21.994,32.753,21.981,32.754,21.968,32.754z M41.367,30.34l-0.027,0.001
					l-19.182,1.522c-0.2,0.017-0.395,0.194-0.426,0.389c-0.013,0.08,0.003,0.153,0.047,0.205c0.043,0.051,0.11,0.078,0.189,0.078
					l0.021-0.001l19.19-1.522c0.198-0.016,0.393-0.193,0.426-0.389c0.013-0.081-0.004-0.153-0.047-0.204S41.447,30.34,41.367,30.34z
					"/>
			</g>
		</g>
		<g>
			<g>
				<path d="M21.968,32.667c-0.118,0-0.221-0.044-0.29-0.125c-0.068-0.082-0.095-0.192-0.076-0.311
					c0.04-0.254,0.285-0.478,0.544-0.499L41.33,30.21c0.138-0.009,0.253,0.035,0.327,0.123c0.069,0.082,0.097,0.191,0.075,0.311
					c-0.04,0.254-0.284,0.478-0.543,0.499L22,32.665C21.99,32.665,21.979,32.667,21.968,32.667z M41.367,30.253
					c-0.011,0-0.021,0-0.033,0.001l-19.183,1.523c-0.24,0.019-0.468,0.226-0.505,0.461c-0.017,0.106,0.007,0.204,0.067,0.275
					c0.061,0.071,0.151,0.109,0.256,0.109c0.01,0,0.019,0,0.027-0.002h0.007l19.183-1.523c0.239-0.019,0.467-0.225,0.505-0.461
					c0.017-0.106-0.007-0.204-0.066-0.275C41.564,30.292,41.473,30.253,41.367,30.253z"/>
				<path d="M21.968,32.776c-0.151,0-0.284-0.059-0.372-0.165c-0.09-0.105-0.125-0.247-0.101-0.399
					c0.048-0.304,0.331-0.564,0.644-0.589L41.363,30.1c0.154,0,0.289,0.057,0.379,0.163c0.089,0.107,0.124,0.249,0.099,0.4
					c-0.05,0.304-0.331,0.563-0.644,0.588l-19.188,1.523C21.996,32.774,21.981,32.776,21.968,32.776z M41.367,30.362h-0.026
					L22.16,31.885c-0.19,0.015-0.377,0.185-0.407,0.371c-0.012,0.074,0.004,0.142,0.043,0.188c0.039,0.045,0.099,0.07,0.172,0.07
					l0.027-0.002l19.182-1.522c0.188-0.015,0.374-0.184,0.405-0.371c0.012-0.074-0.004-0.141-0.042-0.187
					C41.502,30.387,41.44,30.362,41.367,30.362z"/>
			</g>
		</g>
	</g>
	<g>
		<g>
			<g>
				<path fill="#FD7C05" d="M38.563,34.471c-0.228,0-0.38-0.176-0.342-0.41c0.04-0.246,0.275-0.46,0.524-0.48l6.245-0.496
					c0.25-0.02,0.42,0.163,0.38,0.408c-0.039,0.245-0.273,0.46-0.523,0.48l-6.245,0.496C38.59,34.471,38.577,34.471,38.563,34.471z"
					/>
				<path d="M38.563,34.58c-0.142,0-0.268-0.054-0.353-0.155c-0.086-0.101-0.121-0.236-0.097-0.382
					c0.047-0.296,0.321-0.547,0.623-0.57l6.245-0.496c0.158-0.01,0.306,0.042,0.401,0.154c0.086,0.1,0.119,0.235,0.095,0.38
					c-0.047,0.295-0.321,0.546-0.622,0.572l-6.245,0.496C38.598,34.58,38.581,34.58,38.563,34.58z M45.028,33.193l-0.029,0.001
					l-6.245,0.497c-0.199,0.016-0.394,0.193-0.425,0.388c-0.013,0.081,0.004,0.153,0.047,0.205c0.043,0.05,0.109,0.078,0.187,0.078
					c0.011,0,0.019,0,0.026-0.002l6.247-0.495c0.199-0.016,0.394-0.195,0.426-0.389c0.013-0.081-0.004-0.154-0.048-0.205
					C45.173,33.222,45.105,33.193,45.028,33.193z"/>
			</g>
		</g>
		<g>
			<g>
				<path d="M38.563,34.493c-0.117,0-0.218-0.043-0.286-0.124c-0.07-0.081-0.098-0.191-0.078-0.311
					c0.04-0.254,0.284-0.478,0.543-0.498l6.245-0.496c0.013-0.001,0.026-0.001,0.04-0.001c0.117,0,0.22,0.044,0.287,0.125
					c0.069,0.081,0.096,0.191,0.076,0.31c-0.041,0.254-0.285,0.477-0.544,0.5l-6.244,0.495
					C38.592,34.493,38.578,34.493,38.563,34.493z M45.028,33.106c-0.013,0-0.024,0.001-0.036,0.001l-6.245,0.497
					c-0.241,0.019-0.467,0.225-0.504,0.461c-0.018,0.105,0.007,0.205,0.067,0.276c0.06,0.07,0.15,0.108,0.253,0.108
					c0.012-0.004,0.025,0,0.036-0.002l6.246-0.495c0.24-0.02,0.467-0.227,0.504-0.462c0.017-0.106-0.006-0.204-0.066-0.274
					C45.223,33.145,45.132,33.106,45.028,33.106z"/>
				<path d="M38.563,34.602c-0.149,0-0.281-0.057-0.369-0.163c-0.091-0.104-0.128-0.247-0.102-0.398
					c0.048-0.306,0.33-0.564,0.643-0.589l6.246-0.497c0.013-0.001,0.031-0.001,0.048-0.001c0.15,0,0.282,0.058,0.37,0.163
					c0.091,0.107,0.127,0.249,0.101,0.399c-0.048,0.303-0.331,0.563-0.642,0.589L38.612,34.6
					C38.6,34.601,38.582,34.602,38.563,34.602z M45.028,33.216l-0.028,0l-6.245,0.497c-0.19,0.014-0.375,0.183-0.405,0.369
					c-0.012,0.075,0.003,0.142,0.043,0.188c0.039,0.045,0.098,0.07,0.17,0.07l0.029-0.001l6.242-0.495
					c0.19-0.017,0.377-0.186,0.406-0.371c0.009-0.053,0.008-0.128-0.043-0.187C45.16,33.24,45.1,33.216,45.028,33.216z"/>
			</g>
		</g>
	</g>
	<g>
		<g>
			<g>
				<path fill="#FD7C05" d="M6.846,42.449c-0.23,0-0.382-0.176-0.344-0.408c0.04-0.244,0.275-0.46,0.524-0.48l6.244-0.495
					c0.25-0.021,0.422,0.162,0.382,0.409c-0.04,0.243-0.274,0.459-0.525,0.479l-6.244,0.496C6.87,42.449,6.858,42.449,6.846,42.449z
					"/>
				<path d="M6.846,42.559c-0.145,0-0.271-0.055-0.356-0.155c-0.085-0.102-0.12-0.236-0.096-0.381
					c0.049-0.295,0.323-0.546,0.624-0.57l6.244-0.496c0.16-0.014,0.307,0.043,0.401,0.153c0.086,0.102,0.121,0.236,0.097,0.382
					c-0.049,0.296-0.323,0.547-0.625,0.571l-6.244,0.496C6.875,42.559,6.861,42.559,6.846,42.559z M13.308,41.173l-0.029,0.001
					L7.035,41.67c-0.198,0.016-0.394,0.194-0.425,0.388c-0.014,0.08,0.003,0.153,0.046,0.204c0.043,0.051,0.11,0.078,0.189,0.078
					l0.03-0.001l6.242-0.494c0.199-0.016,0.394-0.194,0.426-0.389c0.012-0.081-0.004-0.153-0.048-0.205
					C13.454,41.201,13.386,41.173,13.308,41.173z"/>
			</g>
		</g>
		<g>
			<g>
				<path d="M6.846,42.471c-0.118,0-0.221-0.044-0.289-0.125c-0.069-0.08-0.096-0.189-0.077-0.309
					c0.042-0.253,0.286-0.478,0.544-0.498l6.244-0.495c0.014-0.002,0.026-0.002,0.039-0.002c0.118,0,0.22,0.045,0.289,0.125
					c0.069,0.08,0.097,0.19,0.077,0.311c-0.042,0.254-0.286,0.477-0.545,0.497l-6.244,0.496C6.871,42.471,6.859,42.471,6.846,42.471
					z M13.308,41.086c-0.011,0-0.024,0.001-0.036,0.001l-6.244,0.495c-0.239,0.021-0.465,0.228-0.504,0.462
					c-0.018,0.105,0.006,0.203,0.066,0.275c0.06,0.069,0.151,0.109,0.256,0.109h0.001c0.012,0,0.022,0,0.035-0.002l6.243-0.495
					c0.24-0.019,0.467-0.227,0.506-0.461c0.017-0.107-0.007-0.205-0.067-0.276C13.503,41.124,13.413,41.086,13.308,41.086z"/>
				<path d="M6.846,42.58c-0.151,0-0.283-0.058-0.373-0.162c-0.09-0.105-0.125-0.247-0.101-0.397
					c0.05-0.306,0.333-0.565,0.643-0.591l6.245-0.496c0.155-0.018,0.321,0.045,0.419,0.161c0.09,0.106,0.127,0.249,0.102,0.399
					c-0.05,0.306-0.333,0.565-0.644,0.589l-6.244,0.496C6.875,42.58,6.861,42.58,6.846,42.58z M13.308,41.195H13.28L7.037,41.69
					c-0.189,0.017-0.374,0.187-0.404,0.371c-0.013,0.075,0.002,0.141,0.041,0.186c0.039,0.046,0.1,0.072,0.173,0.072l6.271-0.497
					c0.189-0.016,0.375-0.185,0.406-0.37c0.012-0.074-0.003-0.141-0.043-0.187C13.441,41.22,13.38,41.195,13.308,41.195z"/>
			</g>
		</g>
	</g>
	<g>
		<g>
			<g>
				<path fill="#FD7C05" d="M12.402,38.804c-0.231,0-0.383-0.176-0.344-0.41c0.039-0.245,0.275-0.459,0.525-0.48l18.709-1.485
					c0.251-0.021,0.42,0.163,0.381,0.408c-0.04,0.246-0.274,0.459-0.526,0.479l-18.708,1.485
					C12.426,38.803,12.413,38.804,12.402,38.804z"/>
				<path d="M12.402,38.913c-0.145,0-0.271-0.055-0.356-0.155s-0.12-0.236-0.096-0.381c0.047-0.295,0.321-0.546,0.624-0.571
					l18.708-1.485c0.167-0.018,0.307,0.042,0.4,0.153c0.086,0.101,0.121,0.235,0.097,0.381c-0.047,0.297-0.322,0.548-0.625,0.571
					L12.402,38.913z M31.329,36.537l-0.028,0.001l-18.709,1.485c-0.2,0.017-0.395,0.194-0.426,0.389
					c-0.013,0.081,0.004,0.153,0.047,0.205s0.11,0.079,0.189,0.079v0.109l0.018-0.109l18.719-1.487
					c0.2-0.015,0.395-0.193,0.427-0.388c0.013-0.08-0.004-0.153-0.048-0.204C31.475,36.564,31.407,36.537,31.329,36.537z"/>
			</g>
		</g>
		<g>
			<g>
				<path d="M12.402,38.826c-0.119,0-0.221-0.044-0.29-0.125c-0.068-0.082-0.095-0.191-0.076-0.311
					c0.041-0.253,0.285-0.477,0.545-0.498l18.708-1.485c0.013-0.001,0.026-0.002,0.039-0.002c0.118,0,0.22,0.044,0.289,0.125
					c0.069,0.081,0.097,0.191,0.078,0.311c-0.041,0.254-0.286,0.478-0.545,0.498l-18.723,1.486
					C12.417,38.825,12.41,38.826,12.402,38.826z M31.329,36.45c-0.012,0-0.023,0-0.035,0.001l-18.709,1.485
					c-0.241,0.02-0.468,0.227-0.505,0.462c-0.017,0.106,0.006,0.204,0.067,0.275c0.06,0.071,0.151,0.109,0.256,0.109
					c0.007,0,0.014,0,0.022,0l0.014,0l18.708-1.486c0.24-0.019,0.467-0.225,0.506-0.461c0.017-0.107-0.007-0.205-0.068-0.276
					C31.524,36.488,31.434,36.45,31.329,36.45z"/>
				<path d="M12.402,38.935c-0.151,0-0.284-0.058-0.373-0.164c-0.09-0.106-0.125-0.247-0.101-0.398
					c0.048-0.305,0.331-0.564,0.644-0.59l18.709-1.485c0.178-0.012,0.321,0.046,0.418,0.161c0.092,0.107,0.127,0.249,0.103,0.399
					c-0.048,0.306-0.332,0.565-0.644,0.589L12.402,38.935z M31.329,36.559h-0.027l-18.708,1.485c-0.19,0.016-0.377,0.186-0.407,0.37
					c-0.012,0.075,0.003,0.142,0.043,0.188c0.039,0.045,0.1,0.07,0.172,0.07l18.735-1.487c0.19-0.015,0.377-0.184,0.407-0.37
					c0.012-0.074-0.003-0.141-0.043-0.187C31.461,36.584,31.401,36.559,31.329,36.559z"/>
			</g>
		</g>
	</g>
	<g>
		<g>
			<g>
				<polygon fill="#E6E6E6" points="52.563,58.807 53.356,60.41 57.279,59 56.486,57.396 				"/>
				<path d="M53.301,60.545l-0.889-1.8l4.13-1.484l0.89,1.801L53.301,60.545z M52.716,58.868l0.694,1.405l3.717-1.335l-0.694-1.406
					L52.716,58.868z"/>
			</g>
		</g>
		<g>
			<g>
				<path d="M53.346,60.438l-0.01-0.019l-0.803-1.624l0.023-0.009l3.941-1.417l0.009,0.018l0.803,1.625l-0.023,0.008L53.346,60.438z
					 M52.595,58.819l0.772,1.563l3.881-1.396l-0.772-1.563L52.595,58.819z"/>
				<path d="M53.289,60.573l-0.051-0.106l-0.858-1.735l0.118-0.04l4.056-1.459l0.043,0.089l0.866,1.753l-0.118,0.04L53.289,60.573z
					 M52.746,58.88l0.676,1.365l3.675-1.319l-0.676-1.366L52.746,58.88z"/>
			</g>
		</g>
	</g>
	<g>
		<g>
			<g>
				<polygon fill="#E6E6E6" points="33.491,71.978 34.683,73.313 37.713,69.871 36.245,68.85 				"/>
				<path d="M34.684,73.477l-1.339-1.498l2.882-3.273l1.649,1.145L34.684,73.477z M33.637,71.978l1.045,1.17l2.869-3.258
					l-1.288-0.895L33.637,71.978z"/>
			</g>
		</g>
		<g>
			<g>
				<path d="M34.683,73.346l-0.016-0.02l-1.206-1.349l0.013-0.014l2.767-3.144l0.016,0.012l1.488,1.034l-0.017,0.019L34.683,73.346z
					 M33.52,71.978l1.163,1.302l2.998-3.404l-1.432-0.996L33.52,71.978z"/>
				<path d="M34.683,73.511l-1.367-1.532l2.908-3.302l1.685,1.17L34.683,73.511z M33.666,71.978l1.017,1.137l2.836-3.221
					l-1.251-0.869L33.666,71.978z"/>
			</g>
		</g>
	</g>
	<g>
		<g>
			<g>
				<path fill="#1A2E35" d="M34.956,73.178l-0.811-2.023c-0.026-0.067-0.097-0.105-0.168-0.09l-1.583,0.322
					c-0.165,0.034-0.259,0.218-0.192,0.374c0.272,0.646,0.499,1.104,0.827,1.924c0.202,0.505,0.761,2.049,1.039,2.745
					c0.273,0.682,0.993,0.485,0.939,0.171c-0.235-1.403-0.242-2.535-0.044-3.107C34.998,73.39,34.995,73.277,34.956,73.178z"/>
				<path d="M34.651,76.997L34.651,76.997c-0.297,0-0.553-0.197-0.685-0.526c-0.149-0.374-0.374-0.977-0.591-1.559
					c-0.185-0.494-0.355-0.953-0.449-1.188c-0.199-0.499-0.362-0.864-0.519-1.218c-0.102-0.228-0.201-0.451-0.308-0.705
					c-0.044-0.104-0.039-0.223,0.015-0.326c0.054-0.103,0.148-0.174,0.258-0.195l1.582-0.324c0.118-0.025,0.247,0.043,0.292,0.159
					l0.811,2.021c0.048,0.124,0.052,0.263,0.009,0.392c-0.196,0.565-0.178,1.707,0.048,3.055c0.015,0.089-0.01,0.18-0.072,0.253
					C34.957,76.937,34.81,76.997,34.651,76.997z M34.007,71.17l-1.591,0.324c-0.046,0.009-0.085,0.039-0.107,0.083
					c-0.024,0.044-0.027,0.096-0.007,0.14c0.106,0.252,0.205,0.476,0.305,0.701c0.158,0.355,0.322,0.724,0.522,1.226
					c0.094,0.235,0.266,0.696,0.451,1.191c0.206,0.556,0.44,1.184,0.589,1.555c0.141,0.351,0.384,0.39,0.482,0.39l0,0
					c0.093,0,0.181-0.034,0.224-0.085c0.02-0.024,0.028-0.049,0.024-0.075c-0.236-1.403-0.25-2.556-0.041-3.162
					c0.026-0.078,0.025-0.163-0.005-0.239l-0.811-2.022C34.037,71.18,34.023,71.17,34.007,71.17z"/>
			</g>
		</g>
		<g>
			<g>
				<path d="M34.651,76.91L34.651,76.91c-0.259,0-0.486-0.177-0.604-0.473c-0.148-0.371-0.374-0.974-0.59-1.557
					c-0.183-0.49-0.356-0.954-0.45-1.188c-0.199-0.499-0.363-0.866-0.52-1.222c-0.103-0.23-0.201-0.45-0.307-0.701
					c-0.034-0.081-0.03-0.174,0.012-0.253c0.041-0.079,0.113-0.134,0.197-0.15l1.583-0.324c0.011-0.002,0.023-0.003,0.035-0.003
					c0.07,0,0.133,0.042,0.158,0.107l0.811,2.022c0.042,0.105,0.044,0.223,0.007,0.331c-0.2,0.579-0.184,1.736,0.045,3.097
					c0.011,0.065-0.007,0.128-0.053,0.184C34.907,76.861,34.786,76.91,34.651,76.91z M34.007,71.083c-0.008,0-0.018,0-0.026,0.002
					l-1.583,0.323c-0.071,0.014-0.133,0.061-0.167,0.129c-0.036,0.067-0.04,0.146-0.01,0.215c0.106,0.251,0.203,0.47,0.306,0.701
					c0.158,0.355,0.32,0.723,0.521,1.224c0.094,0.234,0.267,0.698,0.45,1.189c0.217,0.582,0.441,1.184,0.59,1.556
					c0.112,0.278,0.322,0.444,0.563,0.444l0,0c0.12,0,0.231-0.044,0.291-0.115c0.038-0.044,0.052-0.094,0.043-0.147
					c-0.229-1.367-0.246-2.533-0.043-3.118c0.033-0.098,0.031-0.204-0.007-0.299l-0.811-2.023
					C34.105,71.113,34.059,71.083,34.007,71.083z"/>
				<path d="M34.651,77.02c-0.305,0-0.569-0.203-0.706-0.54c-0.151-0.383-0.385-1.008-0.59-1.561
					c-0.183-0.489-0.355-0.952-0.449-1.187c-0.193-0.483-0.351-0.841-0.505-1.185l-0.014-0.033
					c-0.103-0.231-0.201-0.451-0.308-0.702c-0.047-0.111-0.041-0.238,0.017-0.347c0.055-0.107,0.155-0.183,0.272-0.207l1.582-0.323
					c0.017-0.005,0.037-0.006,0.057-0.006c0.115,0,0.218,0.069,0.26,0.177l0.811,2.022c0.05,0.131,0.054,0.274,0.008,0.405
					c-0.194,0.565-0.176,1.702,0.049,3.045c0.017,0.096-0.01,0.191-0.076,0.271C34.97,76.955,34.817,77.02,34.651,77.02z
					 M34.005,71.148l-0.003,0.044l-1.582,0.323c-0.04,0.008-0.073,0.034-0.093,0.072c-0.021,0.038-0.022,0.082-0.006,0.12
					c0.095,0.227,0.183,0.424,0.273,0.629l0.032,0.072c0.149,0.335,0.318,0.716,0.523,1.226c0.094,0.236,0.268,0.7,0.45,1.194
					c0.194,0.52,0.436,1.168,0.589,1.553c0.095,0.235,0.268,0.375,0.462,0.375c0.087,0,0.167-0.03,0.207-0.076
					c0.022-0.025,0.021-0.047,0.02-0.06c-0.233-1.383-0.247-2.569-0.039-3.171c0.024-0.073,0.023-0.153-0.005-0.226l-0.827-2.032
					v-0.044H34.005z"/>
			</g>
		</g>
	</g>
	<g>
		<g>
			<g>
				<path fill="#1A2E35" d="M53.537,60.306l-0.865-1.749c-0.033-0.065-0.107-0.101-0.179-0.083l-1.58,0.388
					c-0.165,0.041-0.249,0.222-0.171,0.372c0.323,0.627,0.813,1.52,1.204,2.313c0.458,0.93,0.521,0.956,1.061,2.046
					c0.324,0.657,1.08,0.511,1.005,0.207c-0.348-1.39-0.541-1.631-0.408-3.046C53.617,60.601,53.604,60.443,53.537,60.306z"/>
				<path d="M53.68,64.166L53.68,64.166c-0.247,0-0.58-0.139-0.771-0.526c-0.275-0.557-0.426-0.833-0.569-1.1
					c-0.138-0.252-0.267-0.492-0.491-0.945c-0.25-0.505-0.543-1.059-0.801-1.547c-0.147-0.278-0.285-0.539-0.401-0.765
					c-0.053-0.101-0.057-0.217-0.01-0.319c0.048-0.104,0.139-0.181,0.252-0.208l1.579-0.388c0.122-0.032,0.248,0.028,0.304,0.14
					l0.864,1.75c0.069,0.14,0.095,0.311,0.076,0.505c-0.104,1.116-0.002,1.487,0.22,2.3c0.055,0.203,0.118,0.434,0.188,0.709
					c0.021,0.085,0.001,0.168-0.052,0.237C53.989,64.106,53.846,64.166,53.68,64.166z M52.53,58.577l-1.591,0.392
					c-0.047,0.011-0.085,0.041-0.104,0.085c-0.019,0.041-0.018,0.087,0.004,0.129c0.116,0.227,0.254,0.485,0.401,0.763
					c0.258,0.49,0.552,1.044,0.804,1.554c0.223,0.449,0.351,0.686,0.486,0.938c0.146,0.268,0.297,0.546,0.574,1.106
					c0.185,0.375,0.486,0.404,0.575,0.404l0,0c0.108,0,0.186-0.037,0.215-0.073c0.012-0.016,0.016-0.031,0.012-0.05
					c-0.069-0.273-0.131-0.502-0.187-0.704c-0.229-0.839-0.333-1.222-0.226-2.377c0.015-0.154-0.004-0.286-0.056-0.389l-0.865-1.749
					C52.565,58.589,52.549,58.577,52.53,58.577z"/>
			</g>
		</g>
		<g>
			<g>
				<path d="M53.68,64.078L53.68,64.078c-0.107,0-0.475-0.034-0.692-0.477c-0.277-0.56-0.427-0.836-0.572-1.102
					c-0.136-0.254-0.266-0.491-0.489-0.942c-0.249-0.509-0.543-1.063-0.802-1.551c-0.146-0.277-0.285-0.537-0.401-0.764
					c-0.04-0.076-0.043-0.165-0.007-0.243c0.036-0.08,0.105-0.139,0.191-0.159l1.581-0.388c0.013-0.004,0.027-0.006,0.042-0.006
					c0.069,0,0.131,0.039,0.161,0.1l0.865,1.749c0.063,0.126,0.084,0.28,0.067,0.46c-0.105,1.131-0.003,1.506,0.222,2.329
					c0.056,0.203,0.118,0.434,0.188,0.708c0.014,0.058,0.001,0.114-0.036,0.161C53.937,64.032,53.817,64.078,53.68,64.078z
					 M52.53,58.491c-0.011,0-0.021,0.001-0.032,0.004l-1.58,0.388c-0.072,0.018-0.132,0.067-0.162,0.134s-0.028,0.142,0.006,0.207
					c0.116,0.225,0.254,0.486,0.401,0.763c0.259,0.489,0.552,1.044,0.803,1.551c0.223,0.451,0.351,0.689,0.487,0.94
					c0.146,0.268,0.296,0.545,0.574,1.104c0.206,0.42,0.551,0.453,0.652,0.453l0,0c0.123,0,0.231-0.041,0.283-0.106
					c0.03-0.037,0.038-0.079,0.027-0.125c-0.068-0.273-0.131-0.503-0.187-0.706c-0.226-0.827-0.328-1.207-0.223-2.346
					c0.017-0.171-0.005-0.317-0.063-0.435l-0.866-1.751C52.629,58.52,52.583,58.491,52.53,58.491z"/>
				<path d="M53.68,64.188c-0.123,0-0.545-0.039-0.79-0.537c-0.286-0.575-0.438-0.854-0.57-1.1c-0.138-0.253-0.266-0.49-0.491-0.944
					c-0.24-0.49-0.525-1.027-0.775-1.5l-0.115-0.218c-0.113-0.215-0.22-0.417-0.313-0.596c-0.055-0.105-0.059-0.23-0.008-0.339
					c0.049-0.11,0.146-0.191,0.265-0.22l1.58-0.389c0.125-0.03,0.269,0.033,0.327,0.153l0.865,1.748
					c0.071,0.145,0.098,0.317,0.078,0.519c-0.103,1.111-0.002,1.48,0.219,2.29c0.057,0.204,0.119,0.436,0.188,0.71
					c0.022,0.091,0.004,0.182-0.054,0.256C54.003,64.125,53.852,64.188,53.68,64.188z M52.53,58.601c-0.002,0-0.003,0-0.007,0.001
					l-1.579,0.388c-0.04,0.01-0.073,0.036-0.09,0.073c-0.016,0.034-0.014,0.075,0.004,0.109c0.104,0.202,0.224,0.429,0.352,0.671
					l0.049,0.093c0.272,0.512,0.558,1.055,0.805,1.553c0.223,0.451,0.351,0.687,0.486,0.938c0.146,0.271,0.296,0.547,0.575,1.106
					c0.178,0.365,0.469,0.393,0.555,0.393c0.101,0,0.173-0.032,0.196-0.063c0.01-0.012,0.012-0.018,0.009-0.032
					c-0.06-0.237-0.114-0.44-0.164-0.622l-0.022-0.081c-0.229-0.84-0.334-1.225-0.226-2.385c0.014-0.15-0.004-0.276-0.053-0.377
					l-0.866-1.749C52.549,58.605,52.541,58.601,52.53,58.601z"/>
			</g>
		</g>
	</g>
	<g>
		<g>
			<g>
				<path fill="#E6E6E6" d="M68.953,30.012c-0.082,0.577-0.171,1.203-0.241,1.806c-0.067,0.611-0.137,1.22-0.188,1.828
					c-0.104,1.211-0.172,2.428-0.107,3.577c0.005,0.144,0.014,0.289,0.03,0.425l0.039,0.396c0.015,0.143,0.038,0.213,0.078,0.288
					c0.042,0.074,0.138,0.165,0.305,0.245c0.164,0.082,0.387,0.149,0.633,0.191c0.496,0.087,1.073,0.094,1.657,0.062
					c0.293-0.02,0.592-0.042,0.891-0.077c0.292-0.034,0.604-0.082,0.882-0.124l0.431,1.271c-0.323,0.153-0.622,0.271-0.942,0.386
					c-0.318,0.115-0.639,0.219-0.971,0.302c-0.33,0.087-0.671,0.159-1.023,0.208c-0.35,0.049-0.716,0.082-1.099,0.071
					c-0.383-0.012-0.788-0.053-1.22-0.186c-0.427-0.135-0.894-0.373-1.278-0.769c-0.391-0.393-0.638-0.92-0.739-1.398
					c-0.018-0.066-0.021-0.106-0.031-0.15l-0.022-0.129l-0.044-0.262c-0.035-0.176-0.057-0.348-0.076-0.517
					c-0.168-1.373-0.151-2.694-0.086-4.003c0.043-0.654,0.09-1.306,0.168-1.952c0.081-0.651,0.161-1.281,0.284-1.951L68.953,30.012z
					"/>
				<path d="M69.47,40.979c-0.049,0-0.097-0.001-0.145-0.001c-0.301-0.009-0.755-0.039-1.25-0.191
					c-0.52-0.164-0.977-0.439-1.323-0.797c-0.37-0.371-0.651-0.9-0.77-1.449c-0.011-0.043-0.017-0.077-0.021-0.107l-0.077-0.439
					c-0.035-0.174-0.056-0.347-0.075-0.514c-0.182-1.479-0.146-2.867-0.087-4.032c0.047-0.73,0.094-1.341,0.168-1.959
					c0.078-0.625,0.158-1.27,0.286-1.958l0.019-0.106l2.882,0.497l-0.015,0.106c-0.079,0.55-0.169,1.189-0.241,1.805l-0.019,0.171
					c-0.061,0.542-0.122,1.103-0.168,1.652c-0.087,1.007-0.177,2.323-0.108,3.562c0.007,0.17,0.016,0.302,0.03,0.417l0.039,0.399
					c0.014,0.128,0.034,0.186,0.065,0.248c0.017,0.028,0.078,0.111,0.256,0.196c0.156,0.078,0.37,0.144,0.604,0.183
					c0.442,0.078,1.029,0.094,1.634,0.06c0.281-0.019,0.584-0.041,0.884-0.075c0.29-0.036,0.603-0.083,0.877-0.126l0.092-0.014
					l0.491,1.451l-0.088,0.042c-0.292,0.139-0.585,0.26-0.952,0.391c-0.378,0.135-0.689,0.233-0.98,0.305
					c-0.358,0.095-0.697,0.164-1.036,0.209C70.086,40.954,69.769,40.979,69.47,40.979z M66.371,29.678
					c-0.115,0.642-0.191,1.25-0.265,1.837c-0.073,0.613-0.12,1.222-0.167,1.945c-0.058,1.154-0.094,2.53,0.085,3.983
					c0.02,0.173,0.041,0.341,0.075,0.51l0.076,0.439c0.004,0.027,0.01,0.057,0.02,0.096c0.11,0.515,0.37,1.005,0.712,1.347
					c0.407,0.421,0.896,0.636,1.232,0.742c0.471,0.145,0.905,0.173,1.19,0.181c0.332,0.01,0.68-0.015,1.08-0.071
					c0.33-0.045,0.661-0.113,1.011-0.206c0.286-0.071,0.591-0.166,0.963-0.298c0.321-0.116,0.587-0.223,0.844-0.341l-0.371-1.093
					c-0.254,0.039-0.531,0.081-0.794,0.112c-0.304,0.035-0.61,0.058-0.896,0.077c-0.208,0.011-0.415,0.018-0.616,0.018
					c-0.41,0-0.759-0.027-1.068-0.082c-0.253-0.042-0.488-0.114-0.662-0.201c-0.165-0.08-0.291-0.183-0.351-0.289
					c-0.046-0.085-0.075-0.168-0.092-0.33l-0.039-0.397c-0.015-0.119-0.026-0.256-0.031-0.432c-0.07-1.25,0.021-2.576,0.108-3.59
					c0.046-0.551,0.108-1.114,0.168-1.657l0.02-0.172c0.067-0.579,0.15-1.178,0.227-1.706L66.371,29.678z"/>
			</g>
		</g>
		<g>
			<g>
				<path d="M69.47,40.892c-0.048,0-0.096-0.001-0.143-0.002c-0.294-0.008-0.741-0.037-1.227-0.187
					c-0.352-0.111-0.861-0.334-1.286-0.773c-0.359-0.36-0.632-0.874-0.746-1.408c-0.012-0.042-0.017-0.075-0.022-0.104
					c-0.003-0.015-0.005-0.031-0.008-0.046l-0.068-0.393c-0.035-0.172-0.055-0.343-0.074-0.509l-0.001-0.011
					c-0.18-1.461-0.145-2.846-0.086-4.007c0.048-0.726,0.095-1.336,0.169-1.953c0.077-0.624,0.156-1.267,0.284-1.951l0.003-0.022
					l0.021,0.004l2.692,0.463l-0.004,0.021c-0.078,0.55-0.169,1.191-0.241,1.807l-0.019,0.171c-0.06,0.543-0.122,1.104-0.168,1.654
					c-0.087,1.011-0.178,2.33-0.108,3.574c0.007,0.171,0.016,0.305,0.03,0.423l0.04,0.397c0.014,0.142,0.037,0.208,0.075,0.279
					c0.026,0.048,0.102,0.143,0.294,0.235c0.163,0.083,0.386,0.149,0.627,0.19c0.298,0.052,0.649,0.079,1.046,0.079
					c0.188,0,0.393-0.006,0.607-0.018c0.283-0.019,0.588-0.041,0.889-0.076c0.28-0.033,0.577-0.079,0.881-0.125l0.019-0.002
					l0.005,0.018l0.438,1.29l-0.019,0.008c-0.288,0.138-0.58,0.257-0.943,0.387c-0.375,0.135-0.685,0.23-0.974,0.304
					c-0.354,0.093-0.689,0.161-1.025,0.208C70.078,40.867,69.765,40.892,69.47,40.892z M66.3,29.577
					c-0.124,0.676-0.203,1.312-0.28,1.927c-0.073,0.616-0.12,1.225-0.167,1.951c-0.059,1.158-0.094,2.541,0.084,3.999l0.002,0.01
					c0.02,0.164,0.041,0.334,0.074,0.506l0.067,0.392c0.004,0.015,0.006,0.031,0.01,0.047c0.005,0.028,0.011,0.059,0.021,0.102
					c0.112,0.528,0.381,1.033,0.733,1.388c0.421,0.432,0.922,0.654,1.271,0.763c0.479,0.148,0.922,0.176,1.213,0.185
					c0.047,0.002,0.095,0.002,0.142,0.002c0.292,0,0.604-0.024,0.952-0.073c0.334-0.046,0.668-0.114,1.021-0.207
					c0.288-0.073,0.596-0.168,0.969-0.302c0.354-0.127,0.642-0.245,0.923-0.377l-0.418-1.236c-0.299,0.046-0.59,0.09-0.864,0.123
					c-0.303,0.035-0.607,0.058-0.893,0.077c-0.215,0.012-0.421,0.017-0.609,0.017c-0.398,0-0.754-0.026-1.053-0.079
					c-0.246-0.042-0.474-0.11-0.639-0.194c-0.204-0.097-0.284-0.2-0.314-0.252c-0.039-0.076-0.065-0.149-0.08-0.296l-0.039-0.397
					c-0.016-0.118-0.024-0.254-0.031-0.426c-0.069-1.247,0.022-2.568,0.108-3.58c0.046-0.55,0.108-1.112,0.168-1.655l0.02-0.172
					c0.071-0.609,0.16-1.24,0.238-1.787L66.3,29.577z"/>
				<path d="M69.47,41.001c-0.049,0-0.098-0.001-0.146-0.002c-0.301-0.009-0.757-0.039-1.256-0.191
					c-0.364-0.115-0.893-0.347-1.332-0.803c-0.374-0.374-0.656-0.906-0.774-1.46c-0.012-0.042-0.018-0.078-0.023-0.108l-0.076-0.438
					c-0.035-0.176-0.057-0.357-0.076-0.516c-0.181-1.48-0.146-2.87-0.087-4.034c0.049-0.731,0.096-1.344,0.17-1.961
					c0.072-0.589,0.155-1.257,0.284-1.958l0.021-0.106l0.11-0.003l2.819,0.487l-0.019,0.106c-0.089,0.631-0.173,1.229-0.243,1.822
					l-0.025,0.226c-0.057,0.524-0.116,1.067-0.16,1.598c-0.087,1.008-0.178,2.324-0.108,3.56c0.007,0.171,0.016,0.302,0.029,0.416
					l0.039,0.401c0.015,0.134,0.037,0.186,0.063,0.239c0.012,0.02,0.067,0.101,0.245,0.187c0.156,0.078,0.369,0.141,0.599,0.181
					c0.433,0.076,0.972,0.097,1.629,0.059c0.265-0.017,0.576-0.039,0.882-0.075c0.278-0.034,0.574-0.079,0.877-0.125l0.09-0.015
					l0.048,0.084l0.476,1.402l-0.09,0.041c-0.309,0.146-0.604,0.267-0.971,0.399c-0.38,0.136-0.693,0.233-0.983,0.306
					c-0.356,0.094-0.697,0.163-1.036,0.21C70.086,40.977,69.768,41.001,69.47,41.001z M66.389,29.702
					c-0.113,0.633-0.188,1.232-0.26,1.812c-0.074,0.625-0.121,1.231-0.167,1.948c-0.059,1.148-0.095,2.521,0.083,3.979
					c0.021,0.163,0.041,0.338,0.075,0.508l0.08,0.453c0.003,0.022,0.008,0.048,0.017,0.081c0.109,0.511,0.366,0.997,0.706,1.337
					c0.404,0.417,0.89,0.631,1.224,0.737c0.467,0.144,0.899,0.171,1.185,0.18c0.328,0.008,0.679-0.014,1.076-0.07
					c0.327-0.045,0.657-0.112,1.008-0.205c0.29-0.073,0.594-0.167,0.96-0.299c0.315-0.113,0.574-0.217,0.825-0.333l-0.358-1.056
					c-0.267,0.041-0.528,0.079-0.776,0.109c-0.314,0.037-0.63,0.059-0.897,0.077c-0.685,0.039-1.239,0.017-1.689-0.063
					c-0.254-0.042-0.492-0.115-0.667-0.203c-0.218-0.104-0.317-0.219-0.361-0.298c-0.047-0.086-0.077-0.172-0.093-0.338l-0.04-0.397
					c-0.016-0.112-0.024-0.246-0.032-0.432c-0.069-1.245,0.022-2.574,0.108-3.594c0.045-0.534,0.104-1.079,0.163-1.606l0.025-0.225
					c0.064-0.561,0.146-1.139,0.224-1.684L66.389,29.702z"/>
			</g>
		</g>
	</g>
	<g>
		<g>
			<g>
				<path fill="#FD7C05" d="M66.105,28.39c-1.171,1.244-0.699,4.387-0.699,4.387l3.292,0.532c0,0,0.765-1.792,0.478-3.619
					C68.824,27.449,67.388,27.029,66.105,28.39z"/>
				<path d="M68.766,33.431l-3.455-0.559l-0.013-0.079c-0.019-0.131-0.466-3.21,0.729-4.478c0.5-0.532,1.034-0.813,1.542-0.813
					c0.86,0,1.502,0.811,1.715,2.17c0.289,1.836-0.453,3.605-0.484,3.679L68.766,33.431z M65.504,32.682l3.126,0.505
					c0.138-0.364,0.684-1.92,0.439-3.481c-0.196-1.243-0.757-1.985-1.501-1.985c-0.446,0-0.925,0.257-1.383,0.744
					C65.165,29.548,65.442,32.191,65.504,32.682z"/>
			</g>
		</g>
		<g>
			<g>
				<path d="M68.712,33.333l-0.018-0.003l-3.307-0.535l-0.002-0.016c-0.006-0.031-0.46-3.167,0.704-4.404
					c0.483-0.514,0.995-0.786,1.479-0.786c0.813,0,1.423,0.784,1.629,2.097c0.285,1.811-0.471,3.614-0.479,3.631L68.712,33.333z
					 M65.427,32.757l3.258,0.527c0.073-0.181,0.738-1.883,0.471-3.592c-0.204-1.289-0.797-2.059-1.587-2.059
					c-0.471,0-0.972,0.267-1.446,0.771C65.014,29.582,65.393,32.515,65.427,32.757z"/>
				<path d="M68.695,33.442l-0.017-0.003l-3.392-0.548l-0.008-0.083c-0.007-0.041-0.481-3.218,0.73-4.506
					c0.506-0.537,1.045-0.82,1.559-0.82c0.872,0,1.521,0.819,1.737,2.188c0.291,1.849-0.479,3.674-0.486,3.691l-0.033,0.078
					L68.695,33.442z M65.525,32.663l3.09,0.5c0.15-0.395,0.671-1.925,0.433-3.453c-0.195-1.232-0.748-1.967-1.479-1.967
					c-0.44,0-0.912,0.254-1.366,0.736C65.196,29.548,65.463,32.162,65.525,32.663z"/>
			</g>
		</g>
	</g>
	<g opacity="0.2">
		<g>
			<g>
				<path d="M67.184,29.778c-0.545-0.701-1.116-0.949-1.417-0.893c-0.729,1.427-0.36,3.891-0.36,3.891l2.332,0.379
					C68.002,32.433,68.037,30.873,67.184,29.778z"/>
				<path d="M67.811,33.277l-2.5-0.405l-0.013-0.079c-0.016-0.102-0.365-2.515,0.371-3.957l0.024-0.048l0.053-0.01
					c0.034-0.006,0.069-0.009,0.108-0.009c0.33,0,0.875,0.248,1.415,0.942c0.865,1.111,0.855,2.704,0.572,3.482L67.811,33.277z
					 M65.504,32.682l2.16,0.35c0.238-0.756,0.217-2.182-0.566-3.187c-0.492-0.634-0.979-0.858-1.243-0.858
					c-0.006,0-0.012,0-0.017,0.001C65.237,30.231,65.451,32.259,65.504,32.682z"/>
			</g>
		</g>
		<g>
			<g>
				<path d="M67.753,33.179l-0.018-0.002l-2.348-0.381l-0.002-0.016c-0.005-0.024-0.362-2.486,0.361-3.904l0.005-0.01l0.01-0.001
					c0.029-0.006,0.061-0.008,0.093-0.008c0.295,0,0.825,0.237,1.347,0.908c0.844,1.084,0.835,2.639,0.559,3.397L67.753,33.179z
					 M65.427,32.757l2.297,0.373c0.269-0.755,0.271-2.277-0.557-3.339c-0.512-0.658-1.027-0.892-1.313-0.892
					c-0.026,0-0.051,0.002-0.073,0.006C65.1,30.252,65.396,32.544,65.427,32.757z"/>
				<path d="M67.737,33.286l-0.017-0.001l-2.434-0.395l-0.008-0.083c-0.006-0.033-0.374-2.527,0.37-3.982l0.025-0.048l0.06-0.02
					c0.043-0.007,0.08-0.01,0.12-0.01c0.32,0,0.887,0.249,1.433,0.951c0.87,1.117,0.859,2.719,0.574,3.501l-0.029,0.083
					L67.737,33.286z M65.525,32.663l2.124,0.345c0.228-0.752,0.2-2.162-0.568-3.149c-0.522-0.671-1.017-0.85-1.227-0.85
					c-0.001,0-0.002,0-0.003,0C65.268,30.234,65.472,32.233,65.525,32.663z"/>
			</g>
		</g>
	</g>
	<g>
		<g>
			<g>
				<path fill="#E6E6E6" d="M72.511,38.821l1.907-1.251l0.425,1.938c0,0-1.187,1.201-2.177,0.354L72.511,38.821z"/>
				<path d="M73.455,40.274c-0.315,0-0.605-0.11-0.86-0.328l-0.031-0.027l-0.171-1.151l2.099-1.378l0.471,2.153l-0.041,0.042
					C74.893,39.613,74.23,40.274,73.455,40.274z M72.767,39.806c0.207,0.166,0.438,0.25,0.688,0.25c0.581,0,1.116-0.446,1.268-0.583
					l-0.377-1.725l-1.717,1.126L72.767,39.806z"/>
			</g>
		</g>
		<g>
			<g>
				<path d="M73.455,40.187c-0.295,0-0.565-0.103-0.804-0.307l-0.007-0.006v-0.008l-0.157-1.055l0.012-0.009l1.934-1.269
					l0.435,1.981l-0.009,0.009C74.853,39.53,74.194,40.187,73.455,40.187z M72.687,39.851c0.229,0.194,0.487,0.292,0.769,0.292
					c0.676,0,1.285-0.566,1.364-0.643l-0.416-1.895l-1.868,1.226L72.687,39.851z"/>
				<path d="M73.455,40.296c-0.322,0-0.615-0.113-0.874-0.333l-0.034-0.029l-0.01-0.048l-0.168-1.13l0.06-0.038l2.077-1.364
					l0.48,2.195l-0.041,0.043C74.935,39.603,74.249,40.296,73.455,40.296z M72.788,39.794c0.2,0.159,0.425,0.24,0.667,0.24
					c0.56,0,1.083-0.426,1.244-0.571l-0.368-1.68l-1.677,1.102L72.788,39.794z"/>
			</g>
		</g>
	</g>
	<g>
		<g>
			<g>
				<polygon fill="#E6E6E6" points="75.595,37.151 75.814,38.828 74.843,39.508 74.418,37.57 				"/>
				<path d="M74.771,39.691l-0.48-2.193l1.394-0.495l0.247,1.876L74.771,39.691z M74.545,37.64l0.37,1.685l0.782-0.549L75.504,37.3
					L74.545,37.64z"/>
			</g>
		</g>
		<g>
			<g>
				<path d="M74.828,39.545l-0.006-0.033l-0.43-1.957l1.22-0.433l0.003,0.025l0.223,1.69l-0.011,0.007L74.828,39.545z
					 M74.444,37.583l0.413,1.888l0.935-0.654l-0.216-1.637L74.444,37.583z"/>
				<path d="M74.756,39.729l-0.041-0.194l-0.449-2.051l1.438-0.511l0.25,1.913l-0.051,0.039L74.756,39.729z M74.57,37.654
					l0.359,1.634l0.744-0.522l-0.188-1.437L74.57,37.654z"/>
			</g>
		</g>
	</g>
	<g opacity="0.2">
		<g>
			<g>
				<polygon points="57.277,59 55.256,59.727 54.463,58.123 56.483,57.396 				"/>
				<path d="M55.201,59.862l-0.89-1.8l2.227-0.803l0.892,1.802L55.201,59.862z M54.615,58.185l0.695,1.406l1.814-0.652l-0.696-1.406
					L54.615,58.185z"/>
			</g>
		</g>
		<g>
			<g>
				<path d="M55.245,59.754l-0.009-0.019l-0.804-1.625l0.022-0.007l2.04-0.735l0.008,0.019l0.806,1.625l-0.024,0.008L55.245,59.754z
					 M54.494,58.136l0.773,1.563l1.979-0.712l-0.774-1.563L54.494,58.136z"/>
				<path d="M55.189,59.89l-0.052-0.106l-0.858-1.734l0.117-0.041l2.153-0.775l0.043,0.088l0.868,1.754l-0.116,0.041L55.189,59.89z
					 M54.646,58.197l0.675,1.365l1.773-0.637l-0.677-1.367L54.646,58.197z"/>
			</g>
		</g>
	</g>
	<g opacity="0.2">
		<g>
			<g>
				<polygon points="36.244,68.852 37.712,69.872 36.292,71.482 34.824,70.463 				"/>
				<path d="M36.31,71.629l-1.649-1.146l1.564-1.775l1.65,1.145L36.31,71.629z M34.987,70.442l1.288,0.896l1.275-1.446l-1.288-0.895
					L34.987,70.442z"/>
			</g>
		</g>
		<g>
			<g>
				<path d="M36.295,71.513l-0.016-0.012l-1.488-1.034l0.017-0.019l1.432-1.626l0.016,0.01l1.489,1.035l-0.017,0.02L36.295,71.513z
					 M34.856,70.458l1.432,0.996l1.391-1.578l-1.433-0.995L34.856,70.458z"/>
				<path d="M36.313,71.656l-1.685-1.171l1.594-1.808l1.686,1.171L36.313,71.656z M35.02,70.438l1.251,0.871l1.247-1.415
					l-1.252-0.868L35.02,70.438z"/>
			</g>
		</g>
	</g>
	<g>
		<g>
			<g>
				<path fill="#FD7C05" d="M59.321,24.104c-1.352,6.927-4.959,13.181-5.461,14.562c1.293,0.541,6.167,2.573,8.824,3.68
					c4.957-7.378,5.717-12.712,5.83-14.004c0.018-0.189-0.064-0.368-0.216-0.479c-0.213-0.155-0.551-0.396-0.963-0.659
					c-0.221-0.143-0.462-0.292-0.717-0.438c-0.141-0.082-0.285-0.162-0.432-0.24c-0.954-0.504-2.604-1.147-3.753-1.566
					c-0.242-0.085-0.489-0.168-0.73-0.246c-0.226-0.069-0.449-0.135-0.658-0.194C60.089,24.254,59.321,24.104,59.321,24.104z"/>
				<path d="M62.726,42.482l-1.624-0.677c-2.688-1.122-6.213-2.591-7.284-3.039l-0.096-0.041l0.035-0.097
					c0.115-0.314,0.379-0.861,0.746-1.619c1.281-2.643,3.664-7.561,4.711-12.928l0.021-0.107l0.108,0.021
					c0.007,0.002,0.781,0.155,1.73,0.42c0.21,0.058,0.435,0.125,0.662,0.195c0.243,0.077,0.492,0.161,0.735,0.248
					c0.595,0.216,2.624,0.968,3.767,1.571c0.148,0.08,0.294,0.16,0.436,0.242c0.241,0.138,0.485,0.287,0.722,0.44
					c0.316,0.204,0.634,0.42,0.967,0.663c0.185,0.135,0.282,0.352,0.261,0.577c-0.127,1.444-0.924,6.727-5.848,14.056L62.726,42.482
					z M53.999,38.606c1.175,0.491,4.573,1.909,7.187,2.998l1.459,0.607c4.85-7.246,5.637-12.452,5.761-13.879
					c0.014-0.15-0.05-0.292-0.171-0.382c-0.33-0.239-0.644-0.454-0.957-0.654c-0.234-0.152-0.475-0.298-0.713-0.435
					c-0.141-0.082-0.283-0.161-0.429-0.239c-1.13-0.596-3.147-1.343-3.738-1.558c-0.24-0.085-0.487-0.168-0.727-0.245
					c-0.224-0.068-0.446-0.135-0.654-0.192c-0.736-0.205-1.366-0.344-1.609-0.394c-1.063,5.351-3.432,10.238-4.708,12.873
					C54.372,37.782,54.126,38.29,53.999,38.606z"/>
			</g>
		</g>
		<g>
			<g>
				<path d="M62.693,42.374l-0.017-0.007l-1.541-0.643c-2.623-1.094-6.214-2.591-7.285-3.04l-0.019-0.008l0.007-0.02
					c0.113-0.309,0.378-0.854,0.743-1.609c1.281-2.646,3.669-7.572,4.718-12.95l0.005-0.021l0.021,0.003
					c0.007,0.001,0.779,0.154,1.726,0.418c0.191,0.054,0.406,0.118,0.658,0.195c0.257,0.082,0.504,0.165,0.732,0.246
					c0.594,0.216,2.617,0.967,3.755,1.566c0.158,0.084,0.299,0.163,0.434,0.241c0.24,0.137,0.481,0.285,0.717,0.438
					c0.316,0.202,0.632,0.418,0.965,0.66c0.158,0.117,0.242,0.303,0.224,0.499c-0.126,1.439-0.921,6.703-5.833,14.015L62.693,42.374
					z M53.887,38.654c1.095,0.458,4.659,1.943,7.265,3.03l1.525,0.637c4.897-7.296,5.69-12.545,5.816-13.98
					c0.016-0.18-0.061-0.353-0.207-0.46c-0.331-0.241-0.646-0.456-0.962-0.658c-0.235-0.153-0.476-0.3-0.717-0.437
					c-0.132-0.077-0.272-0.156-0.431-0.24c-1.136-0.6-3.156-1.348-3.75-1.563c-0.228-0.081-0.474-0.165-0.729-0.246
					c-0.251-0.077-0.466-0.14-0.657-0.193c-0.857-0.239-1.57-0.388-1.701-0.413c-1.053,5.374-3.437,10.294-4.718,12.938
					C54.264,37.806,54.003,38.343,53.887,38.654z"/>
				<path d="M62.744,42.493l-0.109-0.025l-2.337-0.976c-2.507-1.044-5.522-2.301-6.488-2.706l-0.095-0.041l0.014-0.104
					c0.121-0.33,0.378-0.864,0.735-1.601l0.02-0.04c1.28-2.642,3.663-7.56,4.71-12.922l0.021-0.108h0.112
					c0.023,0.005,0.806,0.16,1.755,0.424c0.191,0.054,0.408,0.117,0.66,0.194c0.26,0.083,0.509,0.167,0.738,0.249
					c0.595,0.217,2.624,0.968,3.77,1.572c0.159,0.085,0.302,0.164,0.436,0.242c0.238,0.137,0.481,0.285,0.723,0.44
					c0.314,0.201,0.632,0.418,0.968,0.664c0.191,0.139,0.292,0.362,0.27,0.597c-0.126,1.445-0.923,6.73-5.852,14.066L62.744,42.493z
					 M54.027,38.594c1.069,0.447,3.927,1.639,6.33,2.641l2.277,0.95c4.843-7.241,5.625-12.432,5.749-13.854
					c0.014-0.143-0.048-0.278-0.163-0.363c-0.329-0.24-0.643-0.453-0.955-0.654c-0.239-0.155-0.478-0.301-0.711-0.435
					c-0.133-0.077-0.272-0.154-0.429-0.238c-1.131-0.596-3.146-1.343-3.736-1.557c-0.227-0.081-0.47-0.163-0.727-0.245
					c-0.247-0.075-0.462-0.139-0.652-0.192c-0.72-0.201-1.339-0.337-1.586-0.39c-1.065,5.345-3.43,10.225-4.704,12.854
					C54.397,37.779,54.156,38.277,54.027,38.594z"/>
			</g>
		</g>
	</g>
	<g>
		<g>
			<g>
				<path fill="#E6E6E6" d="M64.57,20.926c-0.268,1.306-0.952,3.617-2.133,4.071c0.385,0.925,0.928,2.037,2.342,2.685
					c1.411,0.648,1.572-0.443,1.411-1.122c-1.213-0.882-0.762-1.867-0.136-2.707L64.57,20.926z"/>
				<path d="M65.525,27.989L65.525,27.989c-0.226,0-0.491-0.07-0.792-0.208c-1.435-0.658-1.989-1.761-2.396-2.744l-0.044-0.103
					l0.105-0.04c0.998-0.384,1.721-2.313,2.064-3.99l0.062-0.307l1.656,3.268l-0.04,0.054c-0.32,0.43-0.677,0.996-0.592,1.56
					c0.055,0.363,0.285,0.689,0.703,0.994l0.033,0.024l0.01,0.038c0.087,0.364,0.092,0.864-0.155,1.178
					C65.997,27.894,65.785,27.989,65.525,27.989z M62.581,25.053c0.388,0.918,0.929,1.926,2.243,2.529
					c0.272,0.125,0.507,0.188,0.701,0.188l0,0c0.193,0,0.343-0.065,0.443-0.194c0.191-0.241,0.187-0.655,0.123-0.952
					c-0.441-0.331-0.696-0.704-0.759-1.114c-0.094-0.618,0.258-1.21,0.593-1.668l-1.313-2.593
					C64.374,22.287,63.74,24.497,62.581,25.053z"/>
			</g>
		</g>
		<g>
			<g>
				<path d="M65.525,27.902L65.525,27.902c-0.213,0-0.467-0.068-0.757-0.2c-1.404-0.645-1.95-1.73-2.351-2.696l-0.009-0.022
					l0.021-0.008c1.298-0.499,1.949-3.229,2.118-4.054l0.013-0.062l0.028,0.056l1.489,2.939l-0.008,0.011
					c-0.331,0.444-0.698,1.03-0.607,1.625c0.059,0.388,0.3,0.733,0.738,1.052l0.007,0.005l0.002,0.007
					c0.082,0.344,0.089,0.814-0.14,1.103C65.944,27.82,65.761,27.902,65.525,27.902z M62.467,25.008
					c0.397,0.954,0.939,2.02,2.321,2.653c0.591,0.273,1.021,0.259,1.25-0.031c0.216-0.274,0.207-0.739,0.132-1.057
					c-0.438-0.321-0.69-0.683-0.75-1.076c-0.092-0.607,0.274-1.197,0.608-1.646l-1.449-2.859
					C64.392,21.883,63.741,24.493,62.467,25.008z"/>
				<path d="M65.525,28.012c-0.229,0-0.498-0.072-0.802-0.21c-1.44-0.662-1.998-1.769-2.407-2.755l-0.043-0.104l0.098-0.06
					c1.266-0.487,1.905-3.172,2.071-3.983l0.076-0.368l1.688,3.333l-0.038,0.054c-0.327,0.44-0.683,1-0.598,1.557
					c0.055,0.358,0.282,0.679,0.695,0.979l0.033,0.025l0.016,0.045c0.09,0.375,0.095,0.882-0.158,1.202
					C66.009,27.915,65.796,28.012,65.525,28.012z M62.608,25.065c0.385,0.904,0.92,1.899,2.225,2.498
					c0.268,0.123,0.5,0.186,0.692,0.186l0,0c0.188,0,0.329-0.061,0.426-0.184c0.175-0.22,0.187-0.616,0.12-0.927
					c-0.441-0.333-0.697-0.711-0.759-1.124c-0.095-0.625,0.255-1.217,0.588-1.673l-1.281-2.527
					C64.355,22.45,63.735,24.506,62.608,25.065z"/>
			</g>
		</g>
	</g>
	<g opacity="0.2">
		<g>
			<g>
				<path d="M65.176,22.12l0.877,1.731c-0.149,0.199-0.285,0.406-0.392,0.618c-0.484-0.289-0.955-1.148-0.786-1.708
					C64.961,22.48,65.079,22.228,65.176,22.12z"/>
				<path d="M65.706,24.624l-0.103-0.061c-0.528-0.316-1.018-1.224-0.834-1.835c0.093-0.3,0.218-0.562,0.325-0.681l0.106-0.118
					l0.979,1.934l-0.04,0.054c-0.162,0.218-0.287,0.415-0.382,0.602L65.706,24.624z M65.162,22.337
					c-0.063,0.119-0.13,0.284-0.183,0.455c-0.139,0.463,0.229,1.201,0.642,1.518c0.082-0.148,0.182-0.304,0.303-0.469L65.162,22.337
					z"/>
			</g>
		</g>
		<g>
			<g>
				<path d="M65.67,24.5l-0.021-0.012c-0.492-0.293-0.966-1.169-0.796-1.734c0.087-0.285,0.207-0.539,0.307-0.647l0.021-0.024
					l0.897,1.771l-0.009,0.011c-0.166,0.222-0.293,0.422-0.39,0.614L65.67,24.5z M65.172,22.159
					c-0.091,0.116-0.196,0.348-0.276,0.607c-0.162,0.541,0.284,1.375,0.756,1.672c0.096-0.184,0.218-0.377,0.375-0.589
					L65.172,22.159z"/>
				<path d="M65.725,24.632l-0.13-0.05c-0.537-0.32-1.032-1.242-0.846-1.861c0.093-0.303,0.219-0.567,0.329-0.689l0.128-0.143
					l1.001,1.976l-0.043,0.055c-0.169,0.226-0.293,0.42-0.387,0.608L65.725,24.632z M65.162,22.385
					c-0.057,0.113-0.114,0.259-0.162,0.413c-0.136,0.454,0.216,1.16,0.614,1.48c0.079-0.143,0.173-0.287,0.284-0.438L65.162,22.385z
					"/>
			</g>
		</g>
	</g>
	<g>
		<g>
			<g>
				<path fill="#1A2E35" d="M68.131,20.975c1.396,0.102,2.633-3.38,0.597-3.787c-1.375-0.273-1.361,0.55-1.509,1.448
					C67.072,19.534,67.245,20.911,68.131,20.975z"/>
				<path d="M68.191,21.086L68.191,21.086c-0.022,0-0.046-0.001-0.067-0.003c-0.265-0.019-0.487-0.141-0.661-0.362
					c-0.398-0.503-0.464-1.419-0.353-2.104c0.013-0.08,0.024-0.157,0.036-0.234c0.1-0.668,0.203-1.359,1.104-1.359
					c0.146,0,0.313,0.019,0.499,0.056c0.814,0.162,1.244,0.83,1.149,1.787C69.796,19.916,69.043,21.086,68.191,21.086z
					 M68.25,17.243c-0.679,0-0.774,0.424-0.888,1.173c-0.011,0.077-0.022,0.157-0.036,0.236c-0.101,0.618-0.046,1.485,0.308,1.934
					c0.135,0.171,0.306,0.266,0.506,0.28c0.018,0,0.035,0.001,0.052,0.001c0.727,0,1.396-1.087,1.489-2.022
					c0.04-0.399,0.024-1.353-0.975-1.551C68.535,17.261,68.382,17.243,68.25,17.243z"/>
			</g>
		</g>
		<g>
			<g>
				<path d="M68.191,20.999L68.191,20.999c-0.021,0-0.041,0-0.062-0.002c-0.238-0.017-0.439-0.128-0.6-0.33
					c-0.379-0.479-0.438-1.391-0.334-2.035c0.013-0.08,0.025-0.158,0.036-0.236c0.104-0.689,0.193-1.284,1.018-1.284
					c0.14,0,0.303,0.017,0.481,0.053c0.766,0.153,1.17,0.786,1.08,1.693C69.711,19.869,68.998,20.999,68.191,20.999z M68.25,17.156
					c-0.786,0-0.87,0.551-0.974,1.248c-0.012,0.077-0.023,0.157-0.037,0.236c-0.104,0.635-0.045,1.532,0.326,2
					c0.151,0.191,0.341,0.297,0.567,0.313c0.02,0,0.04,0.002,0.059,0.002c0.783,0,1.479-1.109,1.576-2.101
					c0.042-0.423,0.024-1.433-1.045-1.646C68.546,17.174,68.388,17.156,68.25,17.156z"/>
				<path d="M68.191,21.107c-0.024,0-0.047,0-0.071-0.002c-0.268-0.019-0.495-0.144-0.675-0.37c-0.4-0.505-0.466-1.455-0.356-2.121
					c0.013-0.078,0.024-0.156,0.035-0.233c0.102-0.678,0.206-1.378,1.126-1.378c0.148,0,0.318,0.019,0.503,0.056
					c0.826,0.165,1.264,0.842,1.166,1.811C69.815,19.928,69.08,21.107,68.191,21.107z M68.25,17.265
					c-0.662,0-0.753,0.396-0.865,1.154l-0.012,0.071c-0.008,0.054-0.017,0.111-0.026,0.167c-0.099,0.611-0.047,1.471,0.304,1.914
					c0.134,0.169,0.294,0.258,0.49,0.272c0.737,0.041,1.424-1.054,1.52-2.001c0.047-0.49-0.013-1.338-0.958-1.528
					C68.532,17.282,68.379,17.265,68.25,17.265z"/>
			</g>
		</g>
	</g>
	<g>
		<g>
			<g>
				<path fill="#E6E6E6" d="M64.73,19.211c-0.358,1.738-0.659,2.736-0.034,3.848c0.941,1.673,3.263,1.464,4.134-0.131
					c0.785-1.437,1.241-4.037-0.245-5.171C67.118,16.638,65.09,17.473,64.73,19.211z"/>
				<path d="M66.664,24.332L66.664,24.332c-0.876,0-1.627-0.445-2.063-1.22c-0.586-1.044-0.383-2.004-0.075-3.459l0.099-0.464
					c0.245-1.188,1.293-2.05,2.489-2.05c0.55,0,1.082,0.184,1.538,0.53c1.546,1.181,1.092,3.817,0.274,5.311
					C68.472,23.813,67.604,24.332,66.664,24.332z M67.113,17.358c-1.094,0-2.051,0.789-2.275,1.875l-0.098,0.466
					c-0.309,1.455-0.495,2.333,0.052,3.307c0.396,0.703,1.079,1.106,1.872,1.106l0,0c0.86,0,1.653-0.474,2.071-1.236
					c0.756-1.385,1.211-3.943-0.217-5.033C68.102,17.526,67.615,17.358,67.113,17.358z"/>
			</g>
		</g>
		<g>
			<g>
				<path d="M66.664,24.245L66.664,24.245c-0.842-0.001-1.566-0.428-1.986-1.176c-0.571-1.016-0.38-1.912-0.066-3.397
					c0.032-0.149,0.065-0.304,0.098-0.464c0.238-1.148,1.248-1.981,2.404-1.981c0.532,0,1.045,0.177,1.485,0.513
					c0.85,0.649,1.003,1.713,0.982,2.491c-0.024,0.902-0.299,1.916-0.731,2.709C68.41,23.744,67.572,24.245,66.664,24.245z
					 M67.113,17.27c-1.135,0-2.128,0.818-2.361,1.946c-0.033,0.16-0.065,0.315-0.097,0.464c-0.313,1.476-0.502,2.366,0.061,3.368
					c0.412,0.732,1.122,1.152,1.948,1.152l0,0c0.892,0,1.715-0.492,2.148-1.284c0.43-0.787,0.701-1.792,0.726-2.688
					c0.021-0.768-0.131-1.816-0.968-2.455C68.14,17.444,67.635,17.27,67.113,17.27z"/>
				<path d="M66.664,24.354L66.664,24.354c-0.884-0.001-1.642-0.449-2.081-1.231c-0.591-1.051-0.398-1.961-0.079-3.47l0.099-0.467
					c0.248-1.199,1.304-2.068,2.511-2.068c0.555,0,1.092,0.186,1.552,0.535c0.887,0.678,1.047,1.778,1.025,2.582
					c-0.025,0.917-0.303,1.947-0.745,2.757C68.486,23.832,67.613,24.354,66.664,24.354z M67.113,17.379
					c-1.083,0-2.031,0.782-2.255,1.859l-0.097,0.465c-0.308,1.45-0.494,2.325,0.05,3.291c0.392,0.697,1.067,1.097,1.853,1.097
					c0.852,0,1.638-0.471,2.053-1.227c0.422-0.774,0.688-1.76,0.711-2.639c0.021-0.742-0.122-1.755-0.923-2.366
					C68.092,17.546,67.611,17.379,67.113,17.379z"/>
			</g>
		</g>
	</g>
	<g>
		<g>
			<g>
				<path fill="#1A2E35" d="M64.431,20.454c1.397,0.103,2.332-3.083,0.295-3.489c-1.374-0.274-1.49,0.529-1.47,1.39
					C63.279,19.262,63.546,20.389,64.431,20.454z"/>
				<path d="M64.496,20.566L64.496,20.566c-0.024,0-0.049-0.001-0.073-0.003c-0.766-0.056-1.243-0.882-1.276-2.207
					c-0.012-0.487,0.018-0.98,0.313-1.28c0.258-0.266,0.686-0.339,1.288-0.219c1.04,0.208,1.332,1.093,1.257,1.853
					C65.915,19.602,65.313,20.566,64.496,20.566z M64.232,17.019c-0.278,0-0.479,0.068-0.617,0.208
					c-0.237,0.243-0.26,0.684-0.25,1.124c0.011,0.451,0.123,1.924,1.072,1.994c0.021,0.001,0.04,0.002,0.059,0.002l0,0
					c0.674,0,1.211-0.858,1.289-1.659c0.032-0.322,0.049-1.393-1.08-1.617C64.53,17.036,64.372,17.019,64.232,17.019z"/>
			</g>
		</g>
		<g>
			<g>
				<path d="M64.496,20.478L64.496,20.478c-0.022,0-0.046,0-0.067-0.001c-1.061-0.079-1.183-1.644-1.195-2.122
					c-0.011-0.468,0.017-0.94,0.288-1.218c0.163-0.167,0.396-0.249,0.711-0.249c0.147,0,0.314,0.019,0.498,0.055
					c0.834,0.167,1.278,0.825,1.187,1.759C65.832,19.556,65.266,20.478,64.496,20.478z M64.232,16.932
					c-0.303,0-0.525,0.077-0.68,0.235c-0.26,0.266-0.285,0.728-0.274,1.187c0.012,0.469,0.129,2.003,1.154,2.078
					c0.021,0.002,0.042,0.003,0.063,0.003l0,0c0.722,0,1.294-0.898,1.377-1.738c0.09-0.91-0.341-1.549-1.151-1.711
					C64.541,16.949,64.376,16.932,64.232,16.932z"/>
				<path d="M64.496,20.587c-0.024,0-0.051,0-0.076-0.003c-1.149-0.084-1.282-1.727-1.296-2.227
					c-0.012-0.494,0.02-0.991,0.318-1.297c0.269-0.275,0.699-0.348,1.31-0.225c0.896,0.179,1.372,0.88,1.272,1.875
					C65.936,19.614,65.326,20.587,64.496,20.587z M64.232,17.041c-0.271,0-0.469,0.065-0.601,0.201
					c-0.232,0.238-0.255,0.673-0.244,1.108c0.011,0.445,0.121,1.903,1.052,1.973c0.021,0.001,0.038,0.002,0.057,0.002
					c0.662,0,1.19-0.848,1.269-1.64c0.082-0.848-0.315-1.443-1.064-1.593C64.527,17.058,64.371,17.041,64.232,17.041z"/>
			</g>
		</g>
	</g>
	<g>
		<g>
			<g>
				<path fill="#1A2E35" d="M65.559,18.016c0.941,0.459,5.481,1.436,5.223-0.519s-2.685-2.858-2.685-2.858s1.411,1.547,0.247,1.174
					c-1.163-0.37-1.5-0.644-2.896-0.891c0,0,1.373,1.138-0.223,0.817c-1.594-0.323-2.71,0.432-2.71,0.432s1.287,0.737,1.177,2.51
					C63.584,20.4,65.559,18.016,65.559,18.016z"/>
				<path d="M63.969,19.414L63.969,19.414c-0.101,0-0.188-0.037-0.252-0.105c-0.11-0.117-0.153-0.324-0.135-0.633
					c0.105-1.681-1.071-2.379-1.121-2.408L62.31,16.18l0.144-0.098c0.032-0.021,0.8-0.531,1.979-0.531
					c0.271,0,0.544,0.027,0.813,0.082c0.183,0.037,0.33,0.055,0.443,0.055c0.147,0,0.192-0.032,0.196-0.043
					c0.032-0.086-0.211-0.39-0.509-0.637l-0.318-0.264l0.407,0.072c0.939,0.167,1.41,0.347,1.954,0.555
					c0.28,0.105,0.57,0.216,0.957,0.339c0.192,0.062,0.316,0.044,0.315,0.042c0.053-0.097-0.27-0.593-0.677-1.039l-0.305-0.334
					l0.424,0.158c0.102,0.037,2.49,0.949,2.754,2.945c0.043,0.315-0.028,0.58-0.21,0.786c-0.296,0.338-0.881,0.511-1.736,0.511
					c-1.207,0-2.736-0.36-3.354-0.629C65.346,18.434,64.474,19.414,63.969,19.414z M62.72,16.18c0.351,0.262,1.172,1.04,1.08,2.509
					c-0.02,0.318,0.039,0.432,0.075,0.471c0.024,0.024,0.053,0.036,0.094,0.036c0.344,0,1.105-0.767,1.506-1.25l0.055-0.066
					l0.077,0.038c0.461,0.225,2.012,0.643,3.336,0.643c0.779,0,1.323-0.151,1.572-0.436c0.141-0.16,0.19-0.36,0.158-0.613
					c-0.18-1.362-1.479-2.208-2.176-2.568c0.245,0.313,0.484,0.696,0.395,0.897c-0.042,0.097-0.197,0.199-0.58,0.076
					c-0.394-0.124-0.698-0.241-0.969-0.344c-0.457-0.174-0.861-0.328-1.545-0.472c0.182,0.191,0.357,0.437,0.294,0.617
					c-0.071,0.196-0.353,0.236-0.888,0.129c-0.256-0.052-0.516-0.078-0.771-0.078C63.604,15.77,62.987,16.039,62.72,16.18z"/>
			</g>
		</g>
		<g>
			<g>
				<path d="M63.969,19.326L63.969,19.326c-0.077,0-0.141-0.026-0.188-0.078c-0.093-0.098-0.129-0.284-0.111-0.567
					c0.109-1.74-1.152-2.482-1.165-2.491l-0.03-0.017l0.029-0.019c0.008-0.006,0.777-0.518,1.93-0.518
					c0.265,0,0.532,0.028,0.797,0.081c0.438,0.088,0.696,0.071,0.738-0.044c0.066-0.184-0.364-0.592-0.534-0.734l-0.064-0.053
					l0.081,0.015c0.932,0.164,1.398,0.343,1.939,0.549c0.281,0.107,0.572,0.218,0.961,0.343c0.239,0.077,0.386,0.077,0.422-0.005
					c0.092-0.208-0.469-0.889-0.692-1.135l-0.061-0.067l0.084,0.033c0.024,0.009,2.441,0.93,2.698,2.875
					c0.039,0.289-0.024,0.53-0.188,0.718c-0.279,0.319-0.843,0.481-1.672,0.481c-1.238,0-2.814-0.382-3.378-0.648
					C65.444,18.187,64.473,19.326,63.969,19.326z M62.556,16.172c0.195,0.127,1.258,0.897,1.157,2.511
					c-0.017,0.269,0.017,0.447,0.1,0.536c0.04,0.043,0.092,0.063,0.156,0.063c0.506,0,1.563-1.268,1.572-1.281l0.012-0.013
					l0.016,0.007c0.546,0.266,2.13,0.651,3.374,0.651c0.816,0,1.368-0.157,1.639-0.466c0.154-0.177,0.215-0.406,0.179-0.682
					c-0.227-1.71-2.151-2.621-2.584-2.805c0.19,0.218,0.74,0.876,0.637,1.111c-0.046,0.104-0.204,0.115-0.476,0.029
					c-0.39-0.125-0.681-0.236-0.963-0.343c-0.522-0.2-0.977-0.373-1.852-0.534c0.157,0.14,0.561,0.524,0.486,0.73
					c-0.052,0.144-0.315,0.169-0.788,0.072c-0.261-0.052-0.527-0.079-0.788-0.079C63.418,15.682,62.705,16.082,62.556,16.172z"/>
				<path d="M63.969,19.436c-0.106,0-0.199-0.039-0.269-0.112c-0.114-0.123-0.159-0.33-0.141-0.649
					c0.103-1.646-1.063-2.359-1.11-2.39l-0.182-0.103l0.174-0.118c0.006-0.003,0.795-0.536,1.991-0.536
					c0.273,0,0.548,0.028,0.818,0.083c0.179,0.036,0.325,0.054,0.437,0.054c0.146,0,0.179-0.032,0.179-0.032
					c0.02-0.069-0.2-0.358-0.503-0.61l-0.388-0.318l0.494,0.089c0.938,0.166,1.409,0.345,1.954,0.553
					c0.284,0.107,0.572,0.218,0.961,0.342c0.246,0.079,0.295,0.045,0.295,0.045c0.026-0.096-0.3-0.59-0.681-1.006l-0.362-0.401
					l0.506,0.189c0.024,0.008,2.503,0.959,2.769,2.964c0.042,0.321-0.03,0.59-0.216,0.802c-0.3,0.344-0.89,0.519-1.753,0.519
					c-1.209,0-2.715-0.354-3.348-0.625C65.324,18.492,64.474,19.436,63.969,19.436z M62.759,16.184
					c0.366,0.289,1.152,1.079,1.063,2.506c-0.02,0.31,0.036,0.417,0.069,0.454c0.014,0.014,0.033,0.03,0.077,0.03
					c0.354,0,1.17-0.853,1.488-1.241l0.055-0.067l0.089,0.026c0.552,0.268,2.114,0.646,3.342,0.646c0.783,0,1.308-0.144,1.556-0.428
					c0.133-0.152,0.185-0.353,0.153-0.596c-0.172-1.296-1.375-2.125-2.079-2.505c0.298,0.396,0.412,0.678,0.341,0.84
					c-0.031,0.07-0.104,0.153-0.279,0.153c-0.089,0-0.196-0.021-0.33-0.063c-0.383-0.122-0.668-0.231-0.945-0.336
					c-0.462-0.177-0.856-0.327-1.499-0.465c0.221,0.244,0.306,0.44,0.252,0.587c-0.072,0.209-0.362,0.254-0.913,0.143
					c-0.254-0.051-0.512-0.077-0.766-0.077C63.64,15.792,63.037,16.042,62.759,16.184z"/>
			</g>
		</g>
	</g>
	<g>
		<g>
			<g>
				<path fill="#E6E6E6" d="M63.622,20.536c0.065,0.439,0.316,0.805,0.604,1.014c0.428,0.314,0.817-0.048,0.847-0.568
					c0.025-0.47-0.169-1.199-0.67-1.306C63.909,19.571,63.548,20.032,63.622,20.536z"/>
				<path d="M64.545,21.775C64.544,21.775,64.544,21.775,64.545,21.775c-0.13,0-0.258-0.046-0.383-0.138
					c-0.342-0.248-0.585-0.654-0.648-1.085c-0.04-0.272,0.036-0.551,0.203-0.745c0.177-0.207,0.437-0.294,0.709-0.237
					c0.567,0.12,0.783,0.901,0.757,1.417C65.157,21.444,64.889,21.775,64.545,21.775z M64.265,19.77
					c-0.148,0-0.283,0.064-0.383,0.18c-0.126,0.145-0.183,0.358-0.151,0.569c0.055,0.375,0.265,0.727,0.56,0.941
					c0.087,0.064,0.173,0.096,0.254,0.096h0.001c0.221,0,0.401-0.249,0.419-0.582c0.022-0.425-0.148-1.1-0.584-1.192
					C64.341,19.774,64.301,19.77,64.265,19.77z"/>
			</g>
		</g>
		<g>
			<g>
				<path d="M64.545,21.688C64.544,21.688,64.545,21.688,64.545,21.688c-0.11,0-0.222-0.042-0.331-0.122
					c-0.324-0.234-0.553-0.619-0.612-1.029c-0.037-0.248,0.03-0.5,0.182-0.674c0.125-0.145,0.296-0.224,0.481-0.224
					c0.047,0,0.095,0.005,0.143,0.015c0.518,0.109,0.714,0.842,0.688,1.328C65.072,21.391,64.841,21.688,64.545,21.688z
					 M64.265,19.682c-0.173,0-0.332,0.075-0.449,0.21c-0.142,0.166-0.206,0.404-0.172,0.64c0.059,0.398,0.281,0.771,0.596,1
					c0.103,0.074,0.205,0.113,0.305,0.113h0.001c0.268,0,0.485-0.286,0.506-0.665c0.024-0.456-0.166-1.179-0.652-1.282
					C64.354,19.688,64.308,19.682,64.265,19.682z"/>
				<path d="M64.545,21.797L64.545,21.797c-0.135,0-0.268-0.048-0.396-0.143c-0.347-0.252-0.593-0.663-0.656-1.101
					c-0.041-0.278,0.036-0.563,0.207-0.761c0.185-0.213,0.459-0.305,0.731-0.246c0.611,0.13,0.8,0.952,0.774,1.441
					C65.178,21.458,64.901,21.797,64.545,21.797z M64.265,19.792c-0.141,0-0.271,0.062-0.366,0.172
					c-0.122,0.142-0.176,0.348-0.146,0.553c0.055,0.369,0.26,0.716,0.551,0.927c0.084,0.061,0.165,0.091,0.241,0.091
					c0.207,0,0.381-0.247,0.397-0.562c0.023-0.435-0.159-1.083-0.566-1.17C64.339,19.796,64.301,19.792,64.265,19.792z"/>
			</g>
		</g>
	</g>
	<g>
		<g>
			<g>
				<path fill="#1A2E35" d="M56.913,39.941l-1.858,5.98l9.563,6.017c-1.651,2.751-10.036,5.492-10.036,5.492l1.34,2.714
					c0,0,11.679-0.898,14.046-6.054c2.28-4.958-7.283-11.744-7.283-11.744L56.913,39.941z"/>
				<path d="M55.858,60.258l-0.034-0.066l-1.396-2.826l0.12-0.039c0.083-0.026,8.181-2.699,9.92-5.354l-9.542-6.003l1.918-6.175
					l5.883,2.452c0.415,0.29,9.632,6.906,7.341,11.891c-2.366,5.153-13.656,6.078-14.136,6.116L55.858,60.258z M54.735,57.494
					l1.252,2.534c0.994-0.089,11.666-1.157,13.883-5.983c2.214-4.82-7.153-11.541-7.249-11.608l-5.64-2.349l-1.798,5.785
					l9.584,6.028l-0.056,0.092C63.147,54.603,55.809,57.136,54.735,57.494z"/>
			</g>
		</g>
		<g>
			<g>
				<path d="M55.91,60.167l-0.007-0.014l-1.353-2.736l0.023-0.008c0.085-0.028,8.36-2.758,10.014-5.466l-9.56-6.013l0.006-0.016
					l1.865-6.004l0.021,0.009l5.772,2.406c0.028,0.02,2.421,1.727,4.504,4.019c1.225,1.346,2.104,2.628,2.614,3.811
					c0.64,1.479,0.698,2.807,0.177,3.944c-0.542,1.18-1.619,2.233-3.202,3.13c-1.265,0.717-2.854,1.336-4.723,1.842
					c-3.181,0.859-6.11,1.092-6.14,1.095L55.91,60.167z M54.612,57.442l1.323,2.679c0.229-0.02,3.057-0.265,6.118-1.092
					c1.865-0.504,3.449-1.122,4.712-1.838c1.574-0.893,2.646-1.938,3.183-3.11c0.518-1.124,0.458-2.441-0.177-3.909
					c-0.508-1.178-1.386-2.455-2.606-3.799c-2.079-2.287-4.47-3.991-4.493-4.008l-5.745-2.395l-1.847,5.943l9.567,6.016
					l-0.011,0.019C63.044,54.604,55.111,57.276,54.612,57.442z"/>
				<path d="M55.86,60.28l-0.055-0.077l-1.407-2.85l0.117-0.04c0.106-0.035,8.159-2.688,9.921-5.336l-9.538-5.999l0.026-0.081
					l1.905-6.134l0.111,0.047l5.794,2.415c0.042,0.026,2.438,1.73,4.544,4.046c1.229,1.354,2.116,2.646,2.633,3.84
					c0.652,1.511,0.711,2.867,0.175,4.033c-0.551,1.202-1.644,2.272-3.247,3.181c-1.274,0.722-2.871,1.345-4.748,1.853
					c-3.188,0.86-6.131,1.094-6.159,1.096L55.86,60.28z M54.767,57.506L56,60.005c0.486-0.044,3.172-0.311,6.025-1.081
					c1.856-0.502,3.433-1.117,4.686-1.828c1.555-0.881,2.61-1.91,3.139-3.061c0.504-1.095,0.444-2.381-0.178-3.82
					c-0.503-1.165-1.374-2.433-2.587-3.769c-2.083-2.29-4.453-3.976-4.476-3.992l-5.613-2.337l-1.787,5.749l9.589,6.029
					l-0.056,0.092C63.194,54.565,55.837,57.142,54.767,57.506z"/>
			</g>
		</g>
	</g>
	<g opacity="0.2">
		<g>
			<g>
				<path d="M58.154,47.872l-1.661-1.045l2.054-2.984C58.547,43.843,58.599,46.235,58.154,47.872z"/>
				<path d="M58.221,48.043l-1.882-1.184l2.309-3.357l0.009,0.338c0.001,0.024,0.047,2.428-0.396,4.062L58.221,48.043z
					 M56.647,46.795l1.438,0.905c0.303-1.221,0.349-2.814,0.352-3.509L56.647,46.795z"/>
			</g>
		</g>
		<g>
			<g>
				<path d="M58.167,47.906l-0.024-0.015l-1.68-1.058l0.012-0.02l2.093-3.04l0.002,0.067c0,0.024,0.047,2.414-0.394,4.036
					L58.167,47.906z M56.524,46.821l1.616,1.017c0.389-1.46,0.389-3.526,0.386-3.926L56.524,46.821z"/>
				<path d="M58.235,48.077l-0.15-0.094l-1.777-1.118l2.36-3.43l0.01,0.404c0.004,0.26,0.023,2.519-0.396,4.066L58.235,48.077z
					 M56.679,46.789l1.393,0.877c0.284-1.168,0.337-2.681,0.345-3.402L56.679,46.789z"/>
			</g>
		</g>
	</g>
	<g opacity="0.2">
		<g>
			<g>
				<path d="M58.154,47.872l-1.661-1.045l2.054-2.984C58.547,43.843,58.599,46.235,58.154,47.872z"/>
				<path d="M58.221,48.043l-1.882-1.184l2.309-3.357l0.009,0.338c0.001,0.024,0.047,2.428-0.396,4.062L58.221,48.043z
					 M56.647,46.795l1.438,0.905c0.303-1.221,0.349-2.814,0.352-3.509L56.647,46.795z"/>
			</g>
		</g>
		<g>
			<g>
				<path d="M58.167,47.906l-0.024-0.015l-1.68-1.058l0.012-0.02l2.093-3.04l0.002,0.067c0,0.024,0.047,2.414-0.394,4.036
					L58.167,47.906z M56.524,46.821l1.616,1.017c0.389-1.46,0.389-3.526,0.386-3.926L56.524,46.821z"/>
				<path d="M58.235,48.077l-0.15-0.094l-1.777-1.118l2.36-3.43l0.01,0.404c0.004,0.26,0.023,2.519-0.396,4.066L58.235,48.077z
					 M56.679,46.789l1.393,0.877c0.284-1.168,0.337-2.681,0.345-3.402L56.679,46.789z"/>
			</g>
		</g>
	</g>
	<g>
		<g>
			<g>
				<path fill="#1A2E35" d="M60.613,41.483c0,0-7.71,12.824-10.894,16.985c-3.486,4.557-12.512,13.147-12.512,13.147l-2.69-1.87
					c0,0,7.791-8.594,10.733-13.35c3.355-5.417,8.609-17.731,8.609-17.731L60.613,41.483z"/>
				<path d="M37.219,71.756l-2.866-1.991l0.083-0.092c0.078-0.085,7.819-8.641,10.722-13.333c3.313-5.349,8.549-17.594,8.601-17.717
					l0.042-0.101l6.971,2.908l-0.064,0.109c-0.077,0.129-7.751,12.878-10.9,16.995c-3.452,4.511-12.433,13.073-12.523,13.159
					L37.219,71.756z M34.681,69.727l2.516,1.749c0.82-0.783,9.15-8.777,12.436-13.073c2.988-3.906,10.064-15.612,10.821-16.866
					l-6.536-2.729c-0.511,1.187-5.412,12.543-8.573,17.648C42.594,60.899,35.531,68.785,34.681,69.727z"/>
			</g>
		</g>
		<g>
			<g>
				<path d="M37.21,71.644l-0.016-0.01l-2.711-1.883l0.018-0.019c0.078-0.087,7.824-8.646,10.731-13.347
					c3.316-5.354,8.555-17.605,8.606-17.729l0.009-0.021l0.021,0.009l6.777,2.828l-0.014,0.021
					c-0.076,0.128-7.747,12.874-10.895,16.988c-3.447,4.505-12.424,13.063-12.514,13.148L37.21,71.644z M34.551,69.742l2.654,1.846
					c0.392-0.374,9.112-8.708,12.498-13.132c3.083-4.033,10.518-16.362,10.879-16.963l-6.71-2.799
					c-0.242,0.564-5.347,12.46-8.602,17.714C42.426,61.005,34.957,69.292,34.551,69.742z"/>
				<path d="M37.243,71.764l-0.109-0.038l-2.816-1.957l0.086-0.092l0.042,0.02l0.013-0.016l-0.033-0.028
					c0.32-0.354,7.877-8.741,10.713-13.324c3.316-5.355,8.548-17.592,8.6-17.713l0.042-0.101l0.108,0.022l6.914,2.885l-0.065,0.108
					c-0.088,0.147-7.74,12.869-10.914,17.02c-3.313,4.33-11.585,12.264-12.518,13.153L37.243,71.764z M34.715,69.725l2.48,1.722
					c0.819-0.783,9.146-8.775,12.421-13.057c2.973-3.888,10-15.507,10.807-16.844l-6.493-2.709
					c-0.543,1.264-5.411,12.534-8.566,17.63C42.653,60.846,35.836,68.478,34.715,69.725z"/>
			</g>
		</g>
	</g>
	<g>
		<g>
			<g>
				<polygon fill="#FD7C05" points="37.487,71.897 34.322,69.696 34.98,68.751 38.562,71.149 				"/>
				<path d="M37.487,72.03l-3.317-2.306l0.782-1.124l3.803,2.549L37.487,72.03z M34.474,69.669l3.013,2.095l0.881-0.612l-3.36-2.25
					L34.474,69.669z"/>
			</g>
		</g>
		<g>
			<g>
				<path d="M37.487,71.924l-0.013-0.008l-3.183-2.214l0.013-0.019l0.67-0.963l0.018,0.012l3.608,2.417l-0.025,0.019L37.487,71.924z
					 M34.353,69.69l3.134,2.182l1.036-0.722l-3.537-2.368L34.353,69.69z"/>
				<path d="M37.488,72.057l-0.074-0.05l-3.275-2.279l0.807-1.157l3.847,2.577l-0.154,0.109L37.488,72.057z M34.505,69.664
					l2.982,2.075l0.842-0.587l-3.315-2.221L34.505,69.664z"/>
			</g>
		</g>
	</g>
	<g>
		<g>
			<g>
				<polygon fill="#FD7C05" points="56.028,60.516 54.429,57.282 55.475,56.765 57.316,60.353 				"/>
				<path d="M55.966,60.635l-0.035-0.07l-1.647-3.332l1.239-0.613l0.05,0.095l1.912,3.727L55.966,60.635z M54.574,57.332
					l1.518,3.065l1.057-0.134l-1.722-3.354L54.574,57.332z"/>
			</g>
		</g>
		<g>
			<g>
				<path d="M56.016,60.539l-0.007-0.013L54.4,57.272l0.02-0.01l1.063-0.526l0.011,0.019l1.855,3.615L56.016,60.539z M54.458,57.292
					l1.584,3.2l1.242-0.158l-1.818-3.54L54.458,57.292z"/>
				<path d="M55.952,60.657l-0.042-0.082l-1.655-3.352l1.275-0.633l0.05,0.094l1.938,3.774L55.952,60.657z M54.604,57.342
					l1.501,3.032l1.011-0.129l-1.697-3.306L54.604,57.342z"/>
			</g>
		</g>
	</g>
	<g>
		<g>
			<g>
				
					<ellipse transform="matrix(-0.9656 -0.26 0.26 -0.9656 127.0854 57.6853)" fill="#1A2E35" cx="67.357" cy="20.438" rx="0.171" ry="0.262"/>
				<path d="M67.318,20.804L67.318,20.804c-0.02,0-0.038-0.002-0.058-0.008c-0.151-0.042-0.228-0.231-0.174-0.43
					c0.056-0.198,0.222-0.324,0.368-0.284c0.08,0.022,0.144,0.086,0.172,0.178c0.024,0.075,0.024,0.166,0,0.252
					C67.582,20.683,67.455,20.804,67.318,20.804z"/>
			</g>
		</g>
		<g>
			<g>
				<path d="M67.318,20.717L67.318,20.717c-0.012,0-0.023-0.002-0.036-0.005c-0.102-0.028-0.151-0.172-0.111-0.323
					c0.042-0.149,0.156-0.253,0.262-0.223c0.051,0.014,0.092,0.057,0.11,0.12c0.021,0.06,0.021,0.132,0,0.204
					C67.509,20.621,67.415,20.717,67.318,20.717z M67.396,20.204c-0.073,0-0.152,0.084-0.183,0.197
					c-0.034,0.124,0.004,0.248,0.081,0.269c0.083,0.022,0.173-0.069,0.206-0.192c0.018-0.063,0.018-0.126,0.001-0.179
					c-0.016-0.048-0.045-0.08-0.082-0.09C67.413,20.205,67.403,20.204,67.396,20.204z"/>
				<path d="M67.318,20.826c-0.021,0-0.044-0.003-0.065-0.009c-0.162-0.045-0.244-0.245-0.187-0.457
					c0.059-0.211,0.234-0.345,0.396-0.299c0.087,0.024,0.153,0.094,0.185,0.192c0.026,0.078,0.026,0.173,0.001,0.266
					C67.6,20.7,67.465,20.826,67.318,20.826z"/>
			</g>
		</g>
	</g>
	<g>
		<g>
			<g>
				
					<ellipse transform="matrix(-0.9645 -0.264 0.264 -0.9645 129.9087 59.187)" fill="#1A2E35" cx="68.931" cy="20.866" rx="0.171" ry="0.261"/>
				<path d="M68.892,21.231L68.892,21.231c-0.019,0-0.039-0.003-0.058-0.008c-0.061-0.017-0.113-0.058-0.146-0.118
					c-0.049-0.085-0.059-0.199-0.028-0.313c0.054-0.195,0.219-0.323,0.367-0.284c0.151,0.041,0.228,0.23,0.174,0.431
					C69.154,21.111,69.027,21.231,68.892,21.231z"/>
			</g>
		</g>
		<g>
			<g>
				<path d="M68.892,21.144L68.892,21.144c-0.012,0-0.023-0.001-0.035-0.005c-0.038-0.01-0.07-0.037-0.092-0.076
					c-0.037-0.064-0.045-0.158-0.021-0.247c0.036-0.132,0.131-0.227,0.226-0.227c0.012,0,0.024,0.001,0.036,0.005
					c0.104,0.027,0.152,0.17,0.11,0.322C69.081,21.049,68.986,21.144,68.892,21.144z M68.97,20.632
					c-0.074,0-0.153,0.083-0.183,0.194c-0.021,0.08-0.017,0.16,0.015,0.214c0.017,0.029,0.04,0.049,0.066,0.057
					c0.08,0.021,0.172-0.07,0.205-0.191c0.035-0.128-0.001-0.249-0.079-0.271C68.986,20.633,68.978,20.632,68.97,20.632z"/>
				<path d="M68.892,21.253c-0.021,0-0.044-0.002-0.064-0.009c-0.065-0.017-0.122-0.063-0.159-0.128
					c-0.05-0.09-0.062-0.213-0.028-0.33c0.056-0.209,0.236-0.348,0.396-0.299c0.163,0.044,0.244,0.241,0.186,0.458
					C69.173,21.126,69.037,21.253,68.892,21.253z"/>
			</g>
		</g>
	</g>
	<g>
		<g>
			<g>
				<path fill="#E6E6E6" d="M68.248,20.756c0,0,0.097,0.887,0.341,1.369c-0.309,0.164-0.699-0.056-0.699-0.056L68.248,20.756z"/>
				<path d="M68.328,22.295c-0.257,0-0.482-0.125-0.492-0.13l-0.074-0.041l0.532-1.952l0.063,0.572
					c0.001,0.009,0.098,0.875,0.33,1.332l0.049,0.097l-0.095,0.05C68.548,22.271,68.444,22.295,68.328,22.295z M68.02,22.009
					c0.097,0.041,0.28,0.087,0.421,0.056c-0.101-0.24-0.174-0.537-0.222-0.786L68.02,22.009z"/>
			</g>
		</g>
		<g>
			<g>
				<path d="M68.328,22.208c-0.234,0-0.44-0.115-0.449-0.119l-0.015-0.008l0.005-0.018l0.388-1.425l0.012,0.114
					c0.002,0.01,0.101,0.891,0.34,1.363l0.01,0.02L68.6,22.145C68.521,22.187,68.43,22.208,68.328,22.208z M67.916,22.059
					c0.051,0.025,0.225,0.106,0.412,0.106c0.086,0,0.164-0.017,0.231-0.049c-0.187-0.382-0.285-1-0.32-1.249L67.916,22.059z"/>
				<path d="M68.328,22.317c-0.227,0-0.424-0.091-0.498-0.13l-0.077-0.041l0.006-0.093l0.546-2.006l0.072,0.695
					c0.026,0.216,0.127,0.926,0.329,1.325l0.048,0.096l-0.086,0.069C68.555,22.292,68.447,22.317,68.328,22.317z M68.045,21.996
					c0.091,0.035,0.239,0.074,0.365,0.052c-0.084-0.208-0.147-0.455-0.194-0.677L68.045,21.996z"/>
			</g>
		</g>
	</g>
	<g>
		<g>
			<g>
				<path fill="#1A2E35" d="M67.202,22.282c-0.511-0.215-0.657-0.649-0.662-0.669c-0.007-0.022,0.005-0.046,0.027-0.053
					c0.021-0.008,0.045,0.006,0.053,0.027c0.002,0.005,0.172,0.51,0.781,0.675c0.022,0.006,0.036,0.029,0.03,0.053
					c-0.006,0.022-0.029,0.036-0.053,0.029C67.316,22.326,67.257,22.306,67.202,22.282z"/>
				<path d="M67.391,22.455l-0.043-0.007c-0.065-0.017-0.129-0.04-0.188-0.065c-0.574-0.242-0.724-0.735-0.725-0.739
					c-0.024-0.078,0.021-0.162,0.099-0.188l0.047-0.007c0.063,0,0.119,0.039,0.142,0.098c0.009,0.024,0.164,0.462,0.708,0.61
					c0.035,0.009,0.07,0.033,0.091,0.068c0.021,0.035,0.027,0.077,0.018,0.117C67.52,22.408,67.459,22.455,67.391,22.455z"/>
			</g>
		</g>
		<g>
			<g>
				<path d="M67.391,22.367c-0.006,0-0.012-0.001-0.018-0.003c-0.063-0.017-0.124-0.038-0.18-0.062
					c-0.527-0.221-0.673-0.679-0.675-0.684c-0.01-0.033,0.008-0.068,0.041-0.08c0.03-0.011,0.069,0.008,0.082,0.04
					c0.002,0.006,0.173,0.501,0.765,0.663c0.017,0.003,0.03,0.014,0.039,0.029c0.009,0.015,0.012,0.032,0.008,0.049
					C67.445,22.347,67.419,22.367,67.391,22.367z M66.58,21.579c-0.002,0-0.004,0.001-0.007,0.002
					c-0.011,0.003-0.016,0.015-0.014,0.025c0.002,0.005,0.143,0.442,0.65,0.657c0.055,0.023,0.113,0.043,0.175,0.06
					c0.015,0.002,0.022-0.004,0.025-0.014c0.002-0.006,0.001-0.011-0.002-0.016c-0.004-0.005-0.007-0.008-0.013-0.009
					c-0.615-0.168-0.789-0.669-0.795-0.69C66.597,21.585,66.588,21.579,66.58,21.579z"/>
				<path d="M67.391,22.476l-0.048-0.007c-0.066-0.018-0.133-0.04-0.193-0.065c-0.547-0.231-0.716-0.697-0.734-0.75
					c-0.028-0.092,0.021-0.189,0.109-0.218l0.055-0.01c0.071,0,0.138,0.045,0.163,0.112c0.004,0.011,0.161,0.454,0.693,0.598
					c0.042,0.01,0.079,0.038,0.104,0.079c0.024,0.039,0.031,0.087,0.02,0.132C67.538,22.424,67.468,22.476,67.391,22.476z"/>
			</g>
		</g>
	</g>
	<g>
		<g>
			<g>
				<path fill="#1A2E35" d="M66.846,19.754c-0.012-0.005-0.025-0.014-0.032-0.027c-0.03-0.037-0.022-0.089,0.015-0.118
					c0.371-0.287,0.742-0.163,0.757-0.157c0.045,0.017,0.067,0.064,0.052,0.108c-0.016,0.043-0.063,0.067-0.107,0.052l0,0
					c-0.012-0.003-0.303-0.098-0.599,0.131C66.904,19.763,66.874,19.766,66.846,19.754z"/>
				<path d="M66.879,19.87c-0.026,0-0.051-0.005-0.076-0.016c-0.04-0.019-0.067-0.043-0.085-0.074
					c-0.057-0.067-0.042-0.19,0.04-0.257c0.229-0.175,0.456-0.211,0.606-0.211c0.156,0,0.259,0.038,0.26,0.039
					c0.047,0.016,0.086,0.052,0.108,0.099c0.021,0.047,0.024,0.1,0.006,0.148c-0.033,0.097-0.147,0.151-0.246,0.117l0,0
					c-0.001,0-0.238-0.083-0.495,0.116C66.961,19.856,66.92,19.87,66.879,19.87z"/>
			</g>
		</g>
		<g>
			<g>
				<path d="M66.879,19.783c-0.015,0-0.027-0.003-0.041-0.008c-0.021-0.01-0.035-0.022-0.043-0.036
					c-0.035-0.042-0.028-0.11,0.019-0.147c0.208-0.16,0.414-0.192,0.551-0.192c0.138,0,0.227,0.032,0.228,0.032
					c0.027,0.01,0.05,0.029,0.062,0.055c0.012,0.025,0.014,0.054,0.004,0.081c-0.019,0.053-0.078,0.085-0.135,0.065
					c-0.011-0.004-0.069-0.021-0.157-0.021c-0.104,0-0.263,0.025-0.421,0.148C66.924,19.775,66.901,19.783,66.879,19.783z
					 M67.364,19.442c-0.13,0-0.326,0.032-0.523,0.184c-0.027,0.021-0.031,0.062-0.011,0.087c0.006,0.01,0.014,0.015,0.025,0.021
					c0.017,0.007,0.042,0.006,0.063-0.009c0.167-0.13,0.336-0.158,0.447-0.158c0.094,0,0.159,0.02,0.172,0.024
					c0.033,0.012,0.066-0.007,0.078-0.039c0.007-0.015,0.006-0.032-0.001-0.047c-0.008-0.015-0.021-0.026-0.037-0.033
					C67.576,19.472,67.492,19.442,67.364,19.442z"/>
				<path d="M66.879,19.892c-0.027,0-0.055-0.006-0.082-0.017c-0.048-0.022-0.079-0.05-0.098-0.084
					c-0.023-0.025-0.04-0.079-0.034-0.137c0.006-0.057,0.035-0.112,0.08-0.147c0.233-0.18,0.465-0.217,0.619-0.217
					c0.155,0,0.26,0.036,0.277,0.044c0.042,0.014,0.087,0.055,0.11,0.108c0.025,0.051,0.028,0.111,0.008,0.166
					c-0.037,0.104-0.161,0.167-0.273,0.129l0,0c0,0-0.228-0.081-0.476,0.111C66.969,19.877,66.925,19.892,66.879,19.892z"/>
			</g>
		</g>
	</g>
	<g>
		<g>
			<g>
				<path fill="#1A2E35" d="M69.59,20.465c-0.024-0.011-0.043-0.034-0.05-0.063c-0.07-0.367-0.349-0.49-0.36-0.495
					c-0.043-0.017-0.063-0.068-0.045-0.111c0.019-0.042,0.067-0.063,0.109-0.046c0.018,0.009,0.376,0.161,0.462,0.622
					c0.01,0.044-0.021,0.09-0.067,0.098C69.622,20.474,69.606,20.471,69.59,20.465z"/>
				<path d="M69.624,20.581c-0.024,0-0.047-0.004-0.071-0.014c-0.063-0.028-0.105-0.082-0.119-0.143
					c-0.058-0.3-0.274-0.406-0.299-0.418c-0.043-0.018-0.08-0.054-0.1-0.102c-0.021-0.048-0.021-0.103,0-0.15
					c0.038-0.096,0.151-0.144,0.251-0.105c0.075,0.033,0.437,0.217,0.527,0.701c0.011,0.048-0.001,0.102-0.03,0.145
					c-0.028,0.043-0.074,0.072-0.125,0.082L69.624,20.581z"/>
			</g>
		</g>
		<g>
			<g>
				<path d="M69.624,20.493c-0.013,0-0.025-0.001-0.041-0.007c-0.033-0.015-0.057-0.043-0.063-0.079
					c-0.065-0.333-0.301-0.458-0.349-0.479c-0.025-0.01-0.045-0.03-0.056-0.056c-0.012-0.026-0.012-0.056,0-0.084
					c0.021-0.052,0.085-0.08,0.138-0.057c0.065,0.029,0.393,0.193,0.475,0.637c0.007,0.026,0,0.056-0.017,0.079
					c-0.016,0.024-0.039,0.039-0.068,0.045C69.637,20.493,69.63,20.493,69.624,20.493z M69.213,19.767
					c-0.024,0-0.048,0.014-0.057,0.039c-0.008,0.015-0.008,0.034,0,0.049c0.005,0.016,0.017,0.026,0.032,0.032
					c0.051,0.024,0.306,0.157,0.374,0.511c0.004,0.022,0.018,0.04,0.037,0.048c0.013,0.004,0.023,0.007,0.034,0.003
					c0.018-0.003,0.032-0.012,0.042-0.026s0.013-0.03,0.01-0.047c-0.079-0.42-0.389-0.577-0.449-0.604
					C69.229,19.768,69.221,19.767,69.213,19.767z"/>
				<path d="M69.624,20.603c-0.025,0-0.051-0.005-0.078-0.014c-0.074-0.034-0.12-0.09-0.134-0.163
					c-0.055-0.28-0.249-0.382-0.287-0.4c-0.046-0.019-0.089-0.06-0.111-0.112c-0.021-0.053-0.021-0.115,0-0.168
					c0.045-0.106,0.178-0.16,0.283-0.115c0.074,0.033,0.445,0.219,0.538,0.717c0.012,0.053,0,0.113-0.034,0.161
					c-0.032,0.05-0.083,0.082-0.141,0.09L69.624,20.603z"/>
			</g>
		</g>
	</g>
	<g>
		<g>
			<g>
				<g>
					<path fill="#E6E6E6" d="M59.393,27.135l-0.703-0.471c-0.241-0.159-0.489-0.313-0.738-0.465c-0.495-0.307-1-0.597-1.507-0.874
						c-0.509-0.274-1.023-0.534-1.54-0.759c-0.261-0.119-0.521-0.216-0.781-0.323l-0.392-0.138l-0.098-0.035l-0.048-0.017
						c-0.013-0.005-0.005-0.002-0.007-0.003c0.002-0.003-0.016-0.008-0.036-0.014c-0.103-0.02-0.326-0.008-0.559,0.031
						c-0.237,0.043-0.496,0.109-0.757,0.191c-0.526,0.161-1.068,0.374-1.61,0.604c-1.08,0.466-2.182,0.997-3.25,1.538l-0.756-1.108
						c0.976-0.822,1.979-1.562,3.082-2.224c0.55-0.331,1.12-0.643,1.744-0.915c0.313-0.133,0.638-0.258,0.998-0.362
						c0.364-0.101,0.753-0.191,1.266-0.176c0.132,0.009,0.268,0.021,0.418,0.052l0.105,0.023l0.063,0.015l0.121,0.033l0.491,0.126
						c0.321,0.097,0.644,0.192,0.951,0.311c0.625,0.222,1.227,0.478,1.812,0.765c0.585,0.283,1.154,0.593,1.708,0.924
						c0.274,0.169,0.548,0.339,0.818,0.519c0.275,0.179,0.527,0.355,0.815,0.573L59.393,27.135z"/>
					<path d="M59.419,27.284l-0.79-0.529c-0.24-0.158-0.486-0.311-0.734-0.463c-0.459-0.284-0.95-0.568-1.503-0.871
						c-0.59-0.317-1.076-0.557-1.531-0.755c-0.177-0.079-0.349-0.149-0.522-0.219c-0.085-0.034-0.171-0.069-0.256-0.104
						l-0.569-0.202c-0.129-0.02-0.317,0-0.51,0.033c-0.229,0.042-0.478,0.104-0.743,0.188c-0.454,0.139-0.961,0.33-1.6,0.601
						c-0.983,0.425-2.045,0.927-3.243,1.535l-0.085,0.044l-0.866-1.27l0.075-0.064c1.04-0.876,2.053-1.606,3.096-2.233
						c0.644-0.386,1.202-0.68,1.757-0.922c0.367-0.157,0.688-0.273,1.011-0.367c0.347-0.094,0.759-0.191,1.3-0.18
						c0.133,0.009,0.275,0.021,0.439,0.055l0.293,0.072l0.585,0.155c0.288,0.087,0.584,0.177,0.869,0.286
						c0.613,0.218,1.227,0.478,1.819,0.77c0.57,0.275,1.148,0.587,1.716,0.927c0.276,0.17,0.551,0.342,0.822,0.521
						c0.283,0.185,0.537,0.364,0.822,0.577l0.086,0.065L59.419,27.284z M53.637,23.956l0.522,0.184
						c0.091,0.038,0.175,0.071,0.26,0.106c0.177,0.071,0.353,0.141,0.53,0.222c0.458,0.2,0.951,0.442,1.548,0.763
						c0.556,0.304,1.051,0.591,1.512,0.875c0.249,0.152,0.498,0.308,0.74,0.468l0.618,0.413l1.484-2.008
						c-0.246-0.183-0.473-0.34-0.723-0.504c-0.27-0.178-0.542-0.347-0.816-0.517c-0.561-0.336-1.133-0.645-1.698-0.917
						c-0.587-0.289-1.191-0.544-1.8-0.761c-0.279-0.106-0.573-0.196-0.857-0.282l-0.089-0.027l-0.772-0.195
						c-0.147-0.031-0.28-0.042-0.401-0.049c-0.034,0-0.071-0.001-0.106-0.001c-0.455,0-0.805,0.085-1.124,0.173
						c-0.313,0.091-0.626,0.204-0.983,0.358c-0.546,0.237-1.096,0.525-1.73,0.908c-1.009,0.606-1.988,1.31-2.993,2.149l0.646,0.949
						c1.168-0.592,2.205-1.083,3.171-1.499c0.646-0.273,1.16-0.468,1.621-0.609c0.272-0.085,0.531-0.15,0.771-0.193
						c0.009-0.002,0.017-0.003,0.025-0.003l-0.063-0.024l0.208,0.003c0.177-0.022,0.342-0.024,0.428-0.007
						C53.585,23.935,53.613,23.941,53.637,23.956z"/>
				</g>
			</g>
			<g>
				<g>
					<path d="M59.397,27.165l-0.017-0.011l-0.703-0.47c-0.21-0.138-0.443-0.286-0.737-0.465c-0.46-0.284-0.952-0.569-1.506-0.873
						c-0.593-0.317-1.082-0.559-1.54-0.758c-0.174-0.08-0.353-0.15-0.524-0.22c-0.085-0.035-0.17-0.068-0.255-0.103l-0.56-0.197
						v-0.004c-0.005-0.001-0.011-0.002-0.018-0.004c-0.031-0.006-0.075-0.009-0.131-0.009c-0.117,0-0.271,0.015-0.419,0.041
						c-0.232,0.042-0.487,0.106-0.754,0.189c-0.457,0.14-0.968,0.333-1.609,0.604c-0.984,0.425-2.048,0.929-3.247,1.538
						l-0.017,0.008l-0.013-0.016l-0.767-1.126l0.016-0.012c1.036-0.874,2.045-1.601,3.084-2.226
						c0.641-0.384,1.195-0.676,1.747-0.917c0.362-0.156,0.681-0.27,1-0.363c0.313-0.086,0.688-0.178,1.159-0.178
						c0.037,0,0.075,0.001,0.114,0.002c0.126,0.007,0.265,0.019,0.422,0.052l0.168,0.04l0.613,0.158l0.091,0.028
						c0.286,0.086,0.582,0.176,0.863,0.284c0.612,0.219,1.223,0.477,1.812,0.767c0.569,0.273,1.145,0.584,1.71,0.924
						c0.245,0.15,0.532,0.33,0.819,0.519c0.282,0.185,0.534,0.361,0.816,0.574l0.019,0.014l-0.013,0.017L59.397,27.165z
						 M53.595,24.034l0.145,0.052l0.392,0.137c0.086,0.035,0.171,0.069,0.256,0.103c0.172,0.069,0.351,0.141,0.526,0.221
						c0.458,0.199,0.947,0.44,1.541,0.76c0.556,0.303,1.049,0.589,1.509,0.873c0.294,0.181,0.529,0.329,0.738,0.466l0.687,0.458
						l1.586-2.144c-0.275-0.206-0.522-0.379-0.797-0.559c-0.287-0.188-0.574-0.368-0.818-0.518
						c-0.564-0.338-1.139-0.649-1.706-0.922c-0.589-0.29-1.197-0.547-1.809-0.765c-0.279-0.107-0.574-0.196-0.861-0.283l-0.09-0.028
						l-0.673-0.172l-0.104-0.024c-0.154-0.032-0.29-0.044-0.415-0.051c-0.038-0.002-0.076-0.002-0.112-0.002
						c-0.466,0-0.836,0.09-1.147,0.176c-0.317,0.092-0.634,0.207-0.995,0.362c-0.55,0.239-1.103,0.529-1.741,0.914
						c-1.031,0.62-2.035,1.343-3.064,2.209l0.734,1.077c1.194-0.606,2.253-1.106,3.234-1.53c0.643-0.273,1.155-0.465,1.613-0.606
						c0.269-0.084,0.523-0.148,0.759-0.19c0.225-0.04,0.459-0.051,0.566-0.032C53.574,24.021,53.588,24.026,53.595,24.034z"/>
					<path d="M59.423,27.314l-0.806-0.541c-0.208-0.136-0.44-0.283-0.733-0.462c-0.463-0.285-0.953-0.569-1.502-0.87
						c-0.592-0.318-1.078-0.558-1.53-0.754c-0.165-0.075-0.331-0.142-0.491-0.207l-0.031-0.013
						c-0.086-0.034-0.171-0.068-0.256-0.104l-0.574-0.2c-0.111-0.014-0.306,0.001-0.492,0.034c-0.231,0.042-0.48,0.104-0.739,0.187
						c-0.454,0.139-0.962,0.329-1.6,0.601c-0.987,0.427-2.048,0.929-3.241,1.535l-0.084,0.042l-0.071-0.069l-0.835-1.225
						l0.076-0.063c1.054-0.888,2.067-1.62,3.113-2.248c0.645-0.387,1.203-0.679,1.759-0.923c0.366-0.156,0.688-0.273,1.014-0.368
						c0.347-0.095,0.762-0.193,1.307-0.18c0.133,0.007,0.277,0.02,0.442,0.055l0.169,0.039l0.711,0.188
						c0.302,0.091,0.592,0.179,0.871,0.286c0.613,0.218,1.227,0.478,1.821,0.77c0.569,0.275,1.146,0.587,1.717,0.929
						c0.247,0.152,0.535,0.333,0.823,0.521c0.282,0.184,0.537,0.363,0.823,0.578l0.087,0.065l-0.048,0.101L59.423,27.314z
						 M53.647,23.937l0.779,0.289c0.174,0.07,0.354,0.142,0.531,0.223c0.463,0.201,0.955,0.444,1.549,0.763
						c0.555,0.303,1.049,0.59,1.514,0.877c0.294,0.181,0.53,0.33,0.74,0.468l0.601,0.401l1.459-1.974
						c-0.236-0.176-0.458-0.33-0.703-0.49c-0.286-0.188-0.574-0.367-0.816-0.517c-0.558-0.335-1.13-0.644-1.697-0.917
						c-0.584-0.288-1.189-0.543-1.797-0.76c-0.279-0.108-0.571-0.195-0.854-0.281l-0.091-0.027l-0.771-0.195
						c-0.144-0.032-0.276-0.042-0.396-0.048c-0.035-0.002-0.071-0.002-0.106-0.002c-0.451,0-0.814,0.089-1.118,0.172
						c-0.313,0.09-0.625,0.204-0.981,0.356c-0.545,0.238-1.094,0.527-1.728,0.907c-1.002,0.602-1.975,1.301-2.975,2.135l0.623,0.916
						c1.162-0.586,2.195-1.074,3.155-1.489c0.647-0.276,1.163-0.469,1.626-0.611c0.271-0.085,0.531-0.15,0.771-0.193
						c0.233-0.04,0.486-0.053,0.606-0.031C53.592,23.915,53.621,23.92,53.647,23.937z"/>
				</g>
			</g>
		</g>
		<g>
			<g>
				<g>
					<path fill="#FD7C05" d="M62.05,25.244c-0.395-0.977-4.122-2.312-4.122-2.312l-1.202,3.146c0,0,1.302,0.86,2.382,1.507
						C61.174,28.824,62.825,27.165,62.05,25.244z"/>
					<path d="M60.494,28.122L60.494,28.122c-0.468,0-0.953-0.148-1.443-0.442c-1.069-0.641-2.372-1.502-2.386-1.511l-0.072-0.048
						l0.03-0.082l1.24-3.246l0.102,0.036c0.153,0.055,3.778,1.363,4.187,2.373c0.312,0.772,0.264,1.549-0.131,2.133
						C61.684,27.835,61.127,28.122,60.494,28.122z M56.859,26.036c0.289,0.19,1.384,0.905,2.304,1.457
						c0.455,0.273,0.904,0.412,1.331,0.412l0,0c0.56,0,1.049-0.251,1.346-0.689c0.353-0.523,0.393-1.226,0.108-1.929
						c-0.299-0.739-2.865-1.813-3.956-2.212L56.859,26.036z"/>
				</g>
			</g>
			<g>
				<g>
					<path d="M60.494,28.035L60.494,28.035c-0.451,0-0.922-0.145-1.397-0.43c-1.068-0.64-2.37-1.5-2.383-1.508l-0.015-0.009
						l0.007-0.017l1.209-3.165l0.021,0.007c0.151,0.055,3.741,1.351,4.135,2.323c0.301,0.745,0.256,1.492-0.121,2.052
						C61.628,27.762,61.099,28.035,60.494,28.035z M56.753,26.07c0.146,0.095,1.36,0.895,2.365,1.497
						c0.47,0.282,0.933,0.423,1.376,0.423l0,0c0.589,0,1.106-0.265,1.418-0.729c0.37-0.546,0.413-1.28,0.117-2.011
						c-0.371-0.918-3.792-2.183-4.089-2.291L56.753,26.07z"/>
					<path d="M60.494,28.145L60.494,28.145c-0.472,0-0.961-0.15-1.454-0.446c-1.072-0.642-2.375-1.503-2.387-1.511l-0.071-0.047
						l0.016-0.091l1.253-3.282l0.101,0.036c0.409,0.146,3.817,1.396,4.221,2.392c0.313,0.778,0.265,1.563-0.132,2.153
						C61.698,27.854,61.135,28.145,60.494,28.145z M56.886,26.027c0.459,0.301,1.446,0.941,2.289,1.447
						c0.452,0.271,0.896,0.408,1.319,0.408c0.552,0,1.035-0.248,1.328-0.68c0.349-0.517,0.387-1.213,0.105-1.909
						c-0.278-0.689-2.55-1.685-3.924-2.193L56.886,26.027z"/>
				</g>
			</g>
		</g>
		<g>
			<g>
				<g>
					<path fill="#E6E6E6" d="M47.732,25.933l-0.754,1.638l-1.153-1.492c0,0,0.866-1.463,1.488-0.892L47.732,25.933z"/>
					<path d="M47.002,27.781l-1.309-1.693l0.037-0.063c0.026-0.044,0.646-1.079,1.264-1.079c0.145,0,0.277,0.055,0.394,0.161
						l0.021,0.028l0.446,0.793l-0.023,0.05L47.002,27.781z M45.957,26.072l0.997,1.289l0.655-1.423l-0.383-0.681
						c-0.072-0.062-0.148-0.093-0.232-0.093C46.612,25.164,46.149,25.77,45.957,26.072z"/>
				</g>
			</g>
			<g>
				<g>
					<path d="M46.983,27.613l-0.022-0.029l-1.162-1.504l0.007-0.012c0.025-0.042,0.62-1.035,1.188-1.035
						c0.122,0,0.233,0.047,0.334,0.138l0.004,0.006l0.425,0.755l-0.004,0.01L46.983,27.613z M45.852,26.078l1.121,1.452l0.735-1.596
						l-0.411-0.732c-0.092-0.083-0.193-0.125-0.303-0.125C46.484,25.077,45.924,25.961,45.852,26.078z"/>
					<path d="M47.007,27.822l-1.341-1.733l0.039-0.064c0.033-0.057,0.652-1.101,1.289-1.101c0.149,0,0.287,0.056,0.407,0.167
						l0.026,0.033l0.454,0.807l-0.028,0.052L47.007,27.822z M45.984,26.072l0.965,1.248l0.636-1.381l-0.374-0.667
						C46.843,24.959,46.267,25.637,45.984,26.072z"/>
				</g>
			</g>
		</g>
		<g>
			<g>
				<g>
					<polygon fill="#E6E6E6" points="45.383,28.085 44.802,26.775 45.825,26.079 46.979,27.571 					"/>
					<path d="M45.323,28.22l-0.658-1.483l1.184-0.806l1.312,1.696L45.323,28.22z M44.938,26.815l0.504,1.137l1.354-0.437
						l-0.995-1.288L44.938,26.815z"/>
				</g>
			</g>
			<g>
				<g>
					<path d="M45.371,28.112l-0.008-0.018l-0.59-1.326l0.016-0.01l1.041-0.708l0.012,0.016l1.173,1.517l-0.03,0.01L45.371,28.112z
						 M44.829,26.784l0.565,1.274l1.547-0.498l-1.122-1.452L44.829,26.784z"/>
					<path d="M45.31,28.247l-0.047-0.109l-0.626-1.409l1.219-0.828l0.063,0.084l1.278,1.653L45.31,28.247z M44.966,26.822
						l0.488,1.102l1.305-0.42l-0.963-1.248L44.966,26.822z"/>
				</g>
			</g>
		</g>
	</g>
</g>
</svg>
