<?xml version="1.0" encoding="utf-8"?>
<!-- Generator: Adobe Illustrator 16.0.0, SVG Export Plug-In . SVG Version: 6.00 Build 0)  -->
<!DOCTYPE svg PUBLIC "-//W3C//DTD SVG 1.1//EN" "http://www.w3.org/Graphics/SVG/1.1/DTD/svg11.dtd">
<svg version="1.1" id="Layer_1" xmlns="http://www.w3.org/2000/svg" xmlns:xlink="http://www.w3.org/1999/xlink" x="0px" y="0px"
	 width="80px" height="45px" viewBox="0 0 80 45" enable-background="new 0 0 80 45" xml:space="preserve">
<path fill="#FD7C05" stroke="#000000" stroke-width="0.25" stroke-miterlimit="10" d="M-175.983-24.397
	c-0.509,0-0.931-0.022-1.325-0.069c-1.674-0.199-2.88-1.629-2.933-3.477l-0.001-0.074c-0.06-2.119-0.123-4.31,0.583-6.481
	c0.369-1.135,0.466-2.406,0.53-3.508c0.093-1.63,0.919-2.796,2.388-3.373c1.548-0.607,3.356-1.289,5.222-1.692
	c2.765-0.598,5.181-1.734,7.389-3.475c4.681-3.69,10.248-5.587,16.549-5.639c0.205-0.001,0.41-0.002,0.615-0.002
	c7.82,0,14.376,1.301,20.04,3.979c2.363,1.117,4.783,2.578,7.616,4.598c1.527,1.089,3.197,1.754,5.415,2.155
	c3.582,0.648,7.095,1.596,10.061,2.439c2.029,0.576,3.413,1.686,4.113,3.298c0.024,0.055,0.056,0.109,0.087,0.164
	c0.096,0.168,0.213,0.377,0.245,0.64c0.076,0.643,0.18,1.3,0.282,1.937c0.317,1.995,0.646,4.058,0.197,6.183
	c-0.409,1.942-0.955,2.389-2.922,2.39h-4.617l0.095-0.678c0.555-3.97-0.786-6.859-4.097-8.831c-2.641-1.572-5.416-1.541-8.019,0.089
	c-3.188,1.996-4.465,4.915-3.799,8.676l0.124,0.699h-17.671h-17.671l0.105-0.686c0.507-3.297-0.687-5.555-1.777-6.868
	c-1.478-1.779-3.706-2.926-5.815-2.994c-2.654-0.084-5.141,1.044-6.778,3.072c-1.539,1.905-2.125,4.373-1.609,6.769l0.154,0.721
	h-0.736c-0.337,0-0.673,0.01-1.008,0.019C-175.298-24.407-175.642-24.397-175.983-24.397z M-146.966-50.996
	c-0.202,0-0.404,0.001-0.606,0.002c-6.115,0.05-11.29,1.811-15.822,5.384c-2.353,1.854-4.928,3.066-7.874,3.703
	c-1.779,0.385-3.534,1.047-5.039,1.637c-1.033,0.405-1.567,1.168-1.633,2.333c-0.068,1.176-0.175,2.538-0.587,3.807
	c-0.642,1.976-0.585,3.969-0.525,6.079l0.002,0.075c0.036,1.262,0.793,2.198,1.884,2.328c0.345,0.041,0.721,0.061,1.183,0.061
	c0.331,0,0.663-0.01,0.996-0.02c0.112-0.003,0.224-0.006,0.335-0.009c-0.344-2.522,0.357-5.059,1.972-7.059
	c1.872-2.317,4.701-3.606,7.743-3.513c2.438,0.078,5.002,1.39,6.692,3.424c1.168,1.407,2.442,3.757,2.123,7.123h16.288h16.288
	c-0.471-3.905,1.056-7.073,4.444-9.194c2.979-1.865,6.237-1.902,9.259-0.103c3.524,2.098,5.119,5.239,4.745,9.341h3.266
	c1.399,0,1.464-0.054,1.757-1.444c0.403-1.909,0.106-3.775-0.208-5.75c-0.103-0.648-0.209-1.318-0.289-1.984
	c-0.007-0.032-0.061-0.128-0.098-0.191c-0.052-0.092-0.103-0.184-0.144-0.278c-0.558-1.287-1.653-2.146-3.346-2.627
	c-2.937-0.834-6.415-1.774-9.946-2.413c-2.399-0.434-4.217-1.161-5.895-2.358c-2.773-1.978-5.135-3.404-7.433-4.491
	C-133.013-49.769-139.22-50.996-146.966-50.996z M-123.828-40.358L-123.828-40.358c-1.803-0.041-3.605-0.115-5.35-0.187
	l-0.791-0.033c-0.966-0.039-1.934-0.082-2.901-0.125c-2.227-0.099-4.529-0.201-6.792-0.257c-1.137-0.028-1.695-0.547-1.807-1.685
	c-0.113-1.128-0.271-2.277-0.423-3.388c-0.076-0.552-0.152-1.103-0.223-1.655c-0.024-0.188-0.03-0.368-0.039-0.619
	c-0.004-0.137-0.01-0.3-0.02-0.503l-0.033-0.718l0.711,0.1c0.65,0.093,1.289,0.17,1.919,0.247c1.396,0.169,2.715,0.33,4.036,0.624
	c4.224,0.938,8.293,2.844,12.094,5.665c0.028,0.021,0.06,0.041,0.09,0.061c0.132,0.086,0.312,0.204,0.442,0.404
	c0.138,0.214,0.242,0.431,0.342,0.641c0.038,0.078,0.074,0.157,0.114,0.234l0.292,0.578l-0.601,0.243
	c-0.073,0.03-0.146,0.068-0.219,0.107C-123.211-40.505-123.494-40.358-123.828-40.358z M-140.956-48.151
	c0.004,0.125,0.01,0.223,0.022,0.313c0.071,0.549,0.146,1.097,0.221,1.645c0.154,1.122,0.314,2.282,0.429,3.433
	c0.054,0.542,0.115,0.599,0.653,0.612c2.273,0.056,4.583,0.159,6.815,0.257c0.965,0.043,1.931,0.085,2.896,0.125l0.792,0.033
	c1.738,0.071,3.536,0.145,5.301,0.186c0.01-0.001,0.025-0.005,0.042-0.011c-0.037-0.07-0.074-0.137-0.114-0.201
	c-0.023-0.019-0.072-0.051-0.106-0.073c-0.05-0.033-0.101-0.066-0.147-0.101c-3.667-2.72-7.583-4.557-11.644-5.459
	c-1.265-0.281-2.555-0.438-3.922-0.604C-140.127-48.047-140.54-48.097-140.956-48.151z M-143.3-41.482h-19.208l-0.385-1.032
	l0.224-0.265c0.066-0.079,0.13-0.159,0.194-0.239c0.154-0.193,0.314-0.393,0.505-0.58c2.753-2.695,6.246-4.407,10.681-5.235
	c1.594-0.298,3.232-0.414,4.815-0.526l0.793-0.054c0.496,0,1.334,0.443,1.43,1.032c0.262,1.615,0.475,3.255,0.68,4.842
	c0.06,0.463,0.12,0.925,0.18,1.385L-143.3-41.482z M-161.21-42.672h16.552c-0.031-0.238-0.062-0.476-0.092-0.715
	c-0.2-1.542-0.406-3.134-0.657-4.695c-0.074-0.058-0.208-0.127-0.277-0.14l-0.705,0.051c-1.55,0.11-3.154,0.224-4.682,0.509
	c-4.195,0.783-7.487,2.391-10.066,4.916C-161.162-42.724-161.186-42.698-161.21-42.672z"/>
<g>
	<g>
		<g>
			<path fill-rule="evenodd" clip-rule="evenodd" fill="#FD7C05" d="M41.716,26.856c-2.519,2.229-4.748,4.533-7.193,6.547
				c-1.066,0.879-1.415,1.695-1.167,3.095c0.341,1.94,0.249,3.948,0.424,5.917c0.088,0.976-0.294,1.688-1.155,1.973
				c-0.875,0.291-1.746-0.031-2.286-0.804c-1.306-1.865-2.414-3.875-3.773-5.699c-0.522-0.704-1.06-1.543-1.762-2.068
				c-1.823-1.359-4.061-2.149-5.928-3.451c-0.749-0.522-0.687-1.364-0.409-2.279c0.298-0.978,0.702-1.534,1.737-1.44
				c2.304,0.208,4.636,0.096,6.942,0.287c0.383,0.032,0.746,0.088,0.985-0.177c2.255-2.49,4.702-4.81,6.916-7.336
				c0.143-0.163,0.047-0.288,0.285-0.632c-1.673-0.771-3.193-1.593-4.791-2.346c-3.544-1.671-7.167-3.177-10.692-4.884
				c-1.246-0.604-0.954-1.24-0.244-2.471c1.299-2.251,2.903-2.964,5.488-2.727c6.467,0.593,12.96,0.916,19.424,1.539
				c1.207,0.117,1.748-0.776,2.616-1.534c2.439-2.13,5.322-3.737,7.905-5.685c1.07-0.808,2.398-1.145,3.704-1.529
				c2.375-0.699,3.735,0.398,3.065,2.794c-0.705,2.523-2.346,4.529-4.033,6.498c-1.529,1.786-3.181,3.466-4.721,5.244
				c-0.299,0.343-0.252,1.079-0.214,1.532c0.567,6.881,1.455,13.735,2.049,20.614c0.204,2.366-1.647,4.708-3.854,5.589
				c-0.735,0.294-1.515,0.317-1.896-0.409c-0.536-1.021-0.492-2.327-0.98-3.372C46.331,35.719,41.947,27.32,41.716,26.856z
				 M31.749,42.785c0.182-0.5,0.351-0.651,0.344-0.715c-0.258-2.298-0.554-4.592-0.828-6.889c-0.09-0.755-0.045-1.347,0.676-1.946
				c8.844-7.367,17.114-15.335,24.617-24.08c1.355-1.581,2.187-3.585,3.202-5.44c0.182-0.332,0.229-0.84,0.246-1.261
				c-0.427,0.035-1.084-0.236-1.453-0.073c-1.124,0.495-2.026,1.425-2.966,2.174c-2.59,2.068-5.498,3.778-7.938,6.018
				c-6.696,6.144-12.531,13.131-18.446,20.012c-0.298,0.347-0.912,0.958-1.373,0.932c-1.375-0.08-2.742-0.459-4.112-0.608
				c-1.154-0.128-2.291-0.526-3.447-0.624c-0.062,0.123-0.034,0.2-0.097,0.322C25.294,33.281,28.94,37.446,31.749,42.785z
				 M20.831,12.063c5.192,2.376,10.389,4.555,15.454,6.913c0.646,0.301,0.823-0.102,1.15-0.44c1.972-2.036,4.041-3.977,6.012-6.014
				c0.265-0.275,0.343-0.6,0.715-0.991c-0.404-0.074-0.467-0.007-0.645-0.022c-3.491-0.304-6.964-0.828-10.456-1.121
				c-2.896-0.243-5.779-0.693-8.679-0.892C22.853,9.388,21.624,10.509,20.831,12.063z M51.043,18.099
				c-2.569,2.456-4.99,4.903-7.352,7.229c-0.19,0.187-0.147,0.717-0.021,1.017c0.791,1.851,1.506,3.737,2.351,5.566
				c1.485,3.213,3.132,6.286,4.627,9.498c1.685-0.826,2.112-1.918,1.945-3.79c-0.332-3.681-0.439-7.38-0.763-11.061
				C51.593,23.852,51.292,20.995,51.043,18.099z"/>
			<path fill="none" stroke="#000000" stroke-width="0.25" stroke-miterlimit="10" d="M41.716,26.856
				c-2.519,2.229-4.748,4.533-7.193,6.547c-1.066,0.879-1.415,1.695-1.167,3.095c0.341,1.94,0.249,3.948,0.424,5.917
				c0.088,0.976-0.294,1.688-1.155,1.973c-0.875,0.291-1.746-0.031-2.286-0.804c-1.306-1.865-2.414-3.875-3.773-5.699
				c-0.522-0.704-1.06-1.543-1.762-2.068c-1.823-1.359-4.061-2.149-5.928-3.451c-0.749-0.522-0.687-1.364-0.409-2.279
				c0.298-0.978,0.702-1.534,1.737-1.44c2.304,0.208,4.636,0.096,6.942,0.287c0.383,0.032,0.746,0.088,0.985-0.177
				c2.255-2.49,4.702-4.81,6.916-7.336c0.143-0.163,0.047-0.288,0.285-0.632c-1.673-0.771-3.193-1.593-4.791-2.346
				c-3.544-1.671-7.167-3.177-10.692-4.884c-1.246-0.604-0.954-1.24-0.244-2.471c1.299-2.251,2.903-2.964,5.488-2.727
				c6.467,0.593,12.96,0.916,19.424,1.539c1.207,0.117,1.748-0.776,2.616-1.534c2.439-2.13,5.322-3.737,7.905-5.685
				c1.07-0.808,2.398-1.145,3.704-1.529c2.375-0.699,3.735,0.398,3.065,2.794c-0.705,2.523-2.346,4.529-4.033,6.498
				c-1.529,1.786-3.181,3.466-4.721,5.244c-0.299,0.343-0.252,1.079-0.214,1.532c0.567,6.881,1.455,13.735,2.049,20.614
				c0.204,2.366-1.647,4.708-3.854,5.589c-0.735,0.294-1.515,0.317-1.896-0.409c-0.536-1.021-0.492-2.327-0.98-3.372
				C46.331,35.719,41.947,27.32,41.716,26.856z M31.749,42.785c0.182-0.5,0.351-0.651,0.344-0.715
				c-0.258-2.298-0.554-4.592-0.828-6.889c-0.09-0.755-0.045-1.347,0.676-1.946c8.844-7.367,17.114-15.335,24.617-24.08
				c1.355-1.581,2.187-3.585,3.202-5.44c0.182-0.332,0.229-0.84,0.246-1.261c-0.427,0.035-1.084-0.236-1.453-0.073
				c-1.124,0.495-2.026,1.425-2.966,2.174c-2.59,2.068-5.498,3.778-7.938,6.018c-6.696,6.144-12.531,13.131-18.446,20.012
				c-0.298,0.347-0.912,0.958-1.373,0.932c-1.375-0.08-2.742-0.459-4.112-0.608c-1.154-0.128-2.291-0.526-3.447-0.624
				c-0.062,0.123-0.034,0.2-0.097,0.322C25.294,33.281,28.94,37.446,31.749,42.785z M20.831,12.063
				c5.192,2.376,10.389,4.555,15.454,6.913c0.646,0.301,0.823-0.102,1.15-0.44c1.972-2.036,4.041-3.977,6.012-6.014
				c0.265-0.275,0.343-0.6,0.715-0.991c-0.404-0.074-0.467-0.007-0.645-0.022c-3.491-0.304-6.964-0.828-10.456-1.121
				c-2.896-0.243-5.779-0.693-8.679-0.892C22.853,9.388,21.624,10.509,20.831,12.063z M51.043,18.099
				c-2.569,2.456-4.99,4.903-7.352,7.229c-0.19,0.187-0.147,0.717-0.021,1.017c0.791,1.851,1.506,3.737,2.351,5.566
				c1.485,3.213,3.132,6.286,4.627,9.498c1.685-0.826,2.112-1.918,1.945-3.79c-0.332-3.681-0.439-7.38-0.763-11.061
				C51.593,23.852,51.292,20.995,51.043,18.099z"/>
		</g>
		<g>
			<path fill-rule="evenodd" clip-rule="evenodd" fill="#002F64" d="M34.004,42.396c-0.175-1.969-0.088-3.996-0.429-5.937
				c-0.248-1.399-0.221-2.301,0.846-3.18c2.445-2.014,4.707-4.265,7.224-6.494c0.111,0.225,1.789-1.437,1.931-1.576
				c2.361-2.326,4.593-4.808,7.162-7.264c0.01,0.117,2.325-1.803,2.549-2.059c1.54-1.778,3.336-3.337,4.865-5.123
				c1.688-1.969,2.782-4.343,3.487-6.866c0.67-2.396-0.536-3.502-2.911-2.804c-1.306,0.385-2.887,0.421-3.957,1.229
				c-1.998,1.507-4.716,3.063-6.613,4.701c-6.869,6.909-6.525,7.247-13.273,14.274c-2.153,2.459-4.126,5.426-6.319,7.85
				c-0.239,0.266-1.092,0.505-1.476,0.473c-2.306-0.191-4.612-0.43-6.916-0.638c-1.036-0.094-1.416,0.123-1.714,1.101
				c-0.278,0.915-0.324,1.748,0.425,2.271c1.867,1.302,4.159,2.02,5.982,3.379c0.703,0.525,1.153,1.466,1.675,2.17
				c1.359,1.824,2.907,3.525,4.213,5.391c0.539,0.772,0.836,0.91,1.712,0.619C33.328,43.628,34.092,43.371,34.004,42.396z
				 M20.151,30.644c0.063-0.122,0.064,0.163,0.127,0.04c1.155,0.098,2.322-0.254,3.477-0.126c1.37,0.149,2.732,0.295,4.107,0.375
				c0.461,0.026,0.974-0.061,1.272-0.406c5.916-6.881,11.722-13.914,18.418-20.058c2.44-2.24,5.298-4.029,7.888-6.097
				c0.939-0.75,2.213-0.986,3.337-1.481c0.369-0.163,0.795-0.394,1.222-0.429c-0.017,0.421,0.323,1.131,0.142,1.462
				c-1.016,1.855-2.29,3.598-3.646,5.177c-7.503,8.745-15.962,16.462-24.808,23.83c-0.721,0.6-0.308,1.472-0.219,2.227
				c0.274,2.297,0.757,4.571,1.015,6.869c0.007,0.063-0.726,0.366-0.908,0.866C28.767,37.554,25.273,33.318,20.151,30.644z"/>
			<path fill="none" stroke="#000000" stroke-width="0.25" stroke-miterlimit="10" d="M34.004,42.396
				c-0.175-1.969-0.088-3.996-0.429-5.937c-0.248-1.399-0.221-2.301,0.846-3.18c2.445-2.014,4.707-4.265,7.224-6.494
				c0.111,0.225,1.789-1.437,1.931-1.576c2.361-2.326,4.593-4.808,7.162-7.264c0.01,0.117,2.325-1.803,2.549-2.059
				c1.54-1.778,3.336-3.337,4.865-5.123c1.688-1.969,2.782-4.343,3.487-6.866c0.67-2.396-0.536-3.502-2.911-2.804
				c-1.306,0.385-2.887,0.421-3.957,1.229c-1.998,1.507-4.716,3.063-6.613,4.701c-6.869,6.909-6.525,7.247-13.273,14.274
				c-2.153,2.459-4.126,5.426-6.319,7.85c-0.239,0.266-1.092,0.505-1.476,0.473c-2.306-0.191-4.612-0.43-6.916-0.638
				c-1.036-0.094-1.416,0.123-1.714,1.101c-0.278,0.915-0.324,1.748,0.425,2.271c1.867,1.302,4.159,2.02,5.982,3.379
				c0.703,0.525,1.153,1.466,1.675,2.17c1.359,1.824,2.907,3.525,4.213,5.391c0.539,0.772,0.836,0.91,1.712,0.619
				C33.328,43.628,34.092,43.371,34.004,42.396z M20.151,30.644c0.063-0.122,0.064,0.163,0.127,0.04
				c1.155,0.098,2.322-0.254,3.477-0.126c1.37,0.149,2.732,0.295,4.107,0.375c0.461,0.026,0.974-0.061,1.272-0.406
				c5.916-6.881,11.722-13.914,18.418-20.058c2.44-2.24,5.298-4.029,7.888-6.097c0.939-0.75,2.213-0.986,3.337-1.481
				c0.369-0.163,0.795-0.394,1.222-0.429c-0.017,0.421,0.323,1.131,0.142,1.462c-1.016,1.855-2.29,3.598-3.646,5.177
				c-7.503,8.745-15.962,16.462-24.808,23.83c-0.721,0.6-0.308,1.472-0.219,2.227c0.274,2.297,0.757,4.571,1.015,6.869
				c0.007,0.063-0.726,0.366-0.908,0.866C28.767,37.554,25.273,33.318,20.151,30.644z"/>
		</g>
	</g>
</g>
</svg>
