<?xml version="1.0" encoding="utf-8"?>
<!-- Generator: Adobe Illustrator 16.0.0, SVG Export Plug-In . SVG Version: 6.00 Build 0)  -->
<!DOCTYPE svg PUBLIC "-//W3C//DTD SVG 1.1//EN" "http://www.w3.org/Graphics/SVG/1.1/DTD/svg11.dtd">
<svg version="1.1" id="Layer_1" xmlns="http://www.w3.org/2000/svg" xmlns:xlink="http://www.w3.org/1999/xlink" x="0px" y="0px"
	 width="22px" height="22px" viewBox="0 0 22 22" enable-background="new 0 0 22 22" xml:space="preserve">
<g>
	<path fill="#666666" d="M20.801,5.278c-0.594,0.269-1.312,0.432-1.953,0.54c0.305-0.051,0.721-0.603,0.9-0.825
		c0.274-0.34,0.484-0.728,0.613-1.146c0.017-0.033,0.021-0.074-0.012-0.099c-0.041-0.017-0.071-0.008-0.104,0.008
		c-0.716,0.384-1.459,0.662-2.248,0.859c-0.064,0.017-0.114,0-0.156-0.041C17.776,4.5,17.715,4.43,17.646,4.373
		c-0.332-0.281-0.688-0.503-1.088-0.667c-0.526-0.214-1.102-0.305-1.668-0.268c-0.552,0.037-1.094,0.192-1.583,0.447
		c-0.49,0.257-0.929,0.613-1.276,1.043c-0.36,0.445-0.626,0.971-0.763,1.528c-0.131,0.537-0.121,1.068-0.041,1.612
		c0.013,0.089,0.005,0.102-0.076,0.089C8.066,7.699,5.51,6.595,3.434,4.231C3.345,4.128,3.296,4.128,3.222,4.238
		C2.313,5.599,2.755,7.787,3.889,8.861C4.04,9.005,4.195,9.147,4.362,9.278C4.302,9.291,3.547,9.208,2.874,8.861
		C2.784,8.804,2.738,8.837,2.73,8.938C2.722,9.086,2.734,9.222,2.755,9.38c0.174,1.38,1.13,2.657,2.438,3.154
		c0.155,0.065,0.327,0.123,0.495,0.152c-0.299,0.064-0.605,0.112-1.461,0.044c-0.105-0.02-0.147,0.033-0.105,0.136
		c0.642,1.752,2.029,2.272,3.067,2.568c0.14,0.025,0.278,0.025,0.417,0.058c-0.008,0.013-0.017,0.013-0.024,0.024
		c-0.345,0.525-1.538,0.916-2.095,1.11c-1.012,0.354-2.113,0.513-3.183,0.407c-0.171-0.025-0.207-0.022-0.253,0
		c-0.047,0.029-0.006,0.07,0.049,0.114c0.217,0.144,0.438,0.271,0.663,0.394c0.679,0.36,1.387,0.646,2.127,0.851
		c3.823,1.057,8.128,0.28,10.998-2.572c2.255-2.238,3.045-5.328,3.045-8.419c0-0.121,0.143-0.188,0.229-0.252
		c0.586-0.44,1.18-0.968,1.617-1.558C20.877,5.46,21,5.342,21,5.293c0-0.008,0-0.016,0-0.016C21,5.228,20.877,5.243,20.801,5.278z"
		/>
	<path fill="#666666" d="M-38.059,6.179c-2.733,0-4.957,2.224-4.957,4.958c0,2.733,2.224,4.958,4.957,4.958
		c2.734,0,4.958-2.225,4.958-4.958C-33.101,8.403-35.324,6.179-38.059,6.179z M-38.059,14.313c-1.751,0-3.177-1.425-3.177-3.176
		c0-1.751,1.426-3.176,3.177-3.176c1.752,0,3.176,1.425,3.176,3.176C-34.883,12.888-36.307,14.313-38.059,14.313z"/>
	<path fill="#666666" d="M-34.122,21.202h-8.038c-3.334,0-6.047-2.713-6.047-6.046V7.118c0-3.334,2.713-6.047,6.047-6.047h8.038
		c3.334,0,6.047,2.713,6.047,6.047v8.039C-28.075,18.489-30.788,21.202-34.122,21.202z M-42.16,2.964
		c-2.29,0-4.152,1.863-4.152,4.153v8.039c0,2.29,1.862,4.152,4.152,4.152h8.038c2.289,0,4.153-1.862,4.153-4.152V7.118
		c0-2.29-1.864-4.153-4.153-4.153H-42.16z"/>
	<path fill-rule="evenodd" clip-rule="evenodd" fill="#666666" d="M-91.101,11.309v9.304c0,0.134,0.108,0.242,0.242,0.242h3.456
		c0.134,0,0.241-0.108,0.241-0.242v-9.457h2.506c0.126,0,0.23-0.096,0.242-0.221l0.24-2.85c0.012-0.142-0.1-0.263-0.242-0.263
		h-2.746V5.802c0-0.474,0.385-0.857,0.858-0.857h1.931c0.135,0,0.243-0.109,0.243-0.243v-2.85c0-0.134-0.108-0.242-0.243-0.242
		h-3.263c-1.914,0-3.466,1.551-3.466,3.466v2.746h-1.728c-0.134,0-0.242,0.109-0.242,0.243v2.849c0,0.134,0.108,0.242,0.242,0.242
		h1.728V11.309z"/>
	<g>
		<g>
			<path fill="#666666" d="M57.295,8.45h3.185v1.461h0.044c0.444-0.84,1.526-1.726,3.144-1.726c3.362,0,3.982,2.211,3.982,5.088
				v5.859h-3.318v-5.194c0-1.239-0.023-2.833-1.726-2.833c-1.729,0-1.992,1.35-1.992,2.742v5.285h-3.318V8.45z"/>
		</g>
		<path fill="#666666" d="M51.886,8.45h3.325v10.683h-3.325V8.45z M53.55,3.142c1.063,0,1.925,0.862,1.925,1.923
			c0,1.063-0.862,1.927-1.925,1.927c-1.066,0-1.929-0.864-1.929-1.927C51.621,4.004,52.483,3.142,53.55,3.142"/>
	</g>
</g>
</svg>
