<?xml version="1.0" encoding="utf-8"?>
<!-- Generator: Adobe Illustrator 16.0.0, SVG Export Plug-In . SVG Version: 6.00 Build 0)  -->
<!DOCTYPE svg PUBLIC "-//W3C//DTD SVG 1.1//EN" "http://www.w3.org/Graphics/SVG/1.1/DTD/svg11.dtd">
<svg version="1.1" id="Layer_1" xmlns="http://www.w3.org/2000/svg" xmlns:xlink="http://www.w3.org/1999/xlink" x="0px" y="0px"
	 width="80px" height="80px" viewBox="0 0 80 80" enable-background="new 0 0 80 80" xml:space="preserve">
<g>
	<g>
		<g>
			<g>
				<path fill="#D86405" d="M36.146,65.174c0,0-5.384-1.994-6.014-3.27c-0.628-1.277-2.779-7.15-5.75-7.43
					c-0.68-0.064-0.853,0.436-0.853,0.436s-2.879-2.404-5.112-1.727c-2.232,0.682,1.706,6.592,1.706,6.592s9.191,15.93,29.445,12.65
					C69.824,69.15,36.146,65.174,36.146,65.174z"/>
			</g>
			<g>
				<path d="M44.187,73.121L44.187,73.121c-16.46,0-24.203-13.09-24.279-13.221c-0.296-0.443-2.949-4.502-2.33-6.232
					c0.129-0.359,0.394-0.609,0.768-0.723c0.287-0.088,0.598-0.133,0.924-0.133c1.757,0,3.581,1.262,4.202,1.734
					c0.16-0.178,0.447-0.365,0.936-0.32c2.724,0.254,4.685,4.711,5.627,6.854c0.133,0.301,0.241,0.547,0.323,0.715
					c0.48,0.973,4.405,2.6,5.876,3.145c3.293,0.381,20.012,2.49,20.07,5.145c0.014,0.699-0.732,1.625-6.693,2.588
					C47.773,72.971,45.949,73.121,44.187,73.121z M19.269,53.313c-0.277,0-0.539,0.037-0.778,0.111
					c-0.225,0.068-0.366,0.199-0.442,0.414c-0.453,1.266,1.495,4.615,2.284,5.799c0.083,0.143,7.69,12.984,23.854,12.984
					c1.735,0,3.533-0.148,5.343-0.441c5.682-0.92,6.279-1.766,6.273-2.086c-0.037-1.715-12.095-3.775-19.686-4.672
					c-0.618-0.221-5.554-2.08-6.208-3.406c-0.084-0.172-0.195-0.424-0.332-0.734c-0.833-1.895-2.785-6.33-5.217-6.557
					c-0.468-0.047-0.592,0.266-0.593,0.268l-0.119,0.342l-0.278-0.23C23.348,55.084,21.202,53.313,19.269,53.313z"/>
			</g>
		</g>
		<g>
			<g>
				<path fill="#FD7C05" d="M68.649,79.533c0,0-2.188-3.568-8.786-2.918c-6.597,0.654-13.728,1.336-17.236,0.201
					c-3.556-1.152-13.369-2.822-16.538-6.291c-3.114-3.406-5.03-4.902-5.644-6.654c-0.431-1.232-2.736-8.131-2.337-8.773
					s3.376-0.666,5.117,2.928c1.137,2.348,1.565,4.938,1.565,4.938s5.653,3.686,7.479,4.596c1.826,0.914,15.596,4.828,16.178,3.748
					c0.584-1.08-11.685-3.201-12.302-4.645c-0.761-1.785,1-4.279,6.133-3.188c5.133,1.092,6.271,1.41,7.587,1.258
					C51.181,64.578,66.143,61.045,68.649,79.533z"/>
			</g>
			<g>
				<path d="M69.055,80.66l-0.618-0.996c-0.018-0.027-1.845-2.877-7.009-2.877c-0.496,0-1.014,0.025-1.539,0.078
					c-3.643,0.361-8.174,0.811-11.762,0.811c-2.462,0-4.286-0.203-5.578-0.621c-0.826-0.268-1.998-0.564-3.354-0.908
					c-4.564-1.158-10.814-2.742-13.291-5.453c-0.927-1.014-1.742-1.852-2.461-2.592c-1.678-1.727-2.786-2.867-3.234-4.148
					c-0.116-0.332-2.84-8.141-2.314-8.986c0.174-0.281,0.611-0.449,1.167-0.449c1.325,0,3.173,0.893,4.387,3.398
					c1.021,2.107,1.472,4.371,1.567,4.896c0.735,0.477,5.697,3.691,7.363,4.523c1.662,0.832,12.515,3.906,15.333,3.906
					c0.259,0,0.395-0.025,0.463-0.045c-0.431-0.441-3.309-1.232-5.436-1.818c-4.025-1.107-6.493-1.838-6.827-2.619
					c-0.314-0.736-0.237-1.547,0.211-2.227c0.389-0.588,1.403-1.576,3.829-1.576c0.726,0,1.525,0.092,2.375,0.273l1.98,0.424
					c2.84,0.611,4.016,0.863,4.944,0.863h0.001c0.199,0,0.389-0.012,0.581-0.033c0.069-0.008,0.177-0.025,0.318-0.049
					c0.634-0.104,1.952-0.32,3.604-0.32c4.876,0,13.325,1.998,15.14,15.385L69.055,80.66z M61.428,76.287
					c3.846,0,5.924,1.482,6.844,2.402c-1.893-11.604-8.897-14.074-14.515-14.074c-1.61,0-2.902,0.211-3.522,0.313
					c-0.152,0.025-0.268,0.045-0.342,0.053c-0.213,0.025-0.42,0.037-0.639,0.037h-0.001c-0.981,0-2.173-0.256-5.05-0.875
					l-1.979-0.424c-0.816-0.174-1.58-0.262-2.271-0.262c-2.191,0-3.078,0.848-3.412,1.354c-0.354,0.535-0.416,1.174-0.168,1.754
					c0.263,0.615,3.868,1.607,6.5,2.332c3.848,1.061,5.561,1.584,5.807,2.164c0.052,0.121,0.047,0.25-0.016,0.365
					c-0.117,0.219-0.412,0.316-0.951,0.316c-3.071,0-13.984-3.172-15.557-3.959c-1.817-0.908-7.272-4.461-7.503-4.611l-0.092-0.061
					l-0.018-0.107c-0.004-0.027-0.436-2.584-1.543-4.869c-1.113-2.299-2.763-3.117-3.937-3.117c-0.448,0-0.689,0.127-0.742,0.213
					c-0.221,0.568,1.394,5.795,2.361,8.559c0.413,1.176,1.49,2.285,3.121,3.965c0.722,0.742,1.539,1.582,2.472,2.604
					c2.375,2.6,8.796,4.227,13.044,5.305c1.365,0.346,2.543,0.645,3.385,0.916c1.24,0.402,3.015,0.598,5.424,0.598
					c3.563,0,8.081-0.449,11.712-0.809C60.381,76.314,60.916,76.287,61.428,76.287z"/>
			</g>
		</g>
		<g>
			<g>
				<path fill="#172866" d="M20.573,53.277c0,0,0.091,0.023,0.262,0.066c0.169,0.041,0.425,0.119,0.729,0.252
					c0.61,0.262,1.427,0.781,2.196,1.592c0.776,0.805,1.506,1.873,2.13,3.076c0.312,0.6,0.59,1.238,0.856,1.893
					c0.129,0.326,0.261,0.656,0.375,0.99l0.174,0.494l0.086,0.236l0.021,0.049l0.01,0.021l0.005,0.012
					c0.032,0.063-0.044-0.076-0.034-0.061l0.005,0.008c0.037,0.057,0.036,0.029,0.024,0.018c0.186,0.154,0.528,0.385,0.815,0.57
					c0.304,0.191,0.606,0.385,0.907,0.576c0.608,0.381,1.225,0.73,1.813,1.082c1.187,0.689,2.311,1.311,3.287,1.82
					c0.977,0.51,1.811,0.902,2.41,1.156c0.598,0.25,0.958,0.369,0.958,0.369s-0.096-0.012-0.271-0.031
					c-0.176-0.023-0.437-0.059-0.763-0.129c-0.654-0.135-1.569-0.4-2.627-0.803c-1.06-0.4-2.261-0.939-3.505-1.586
					c-0.628-0.316-1.252-0.68-1.886-1.053c-0.315-0.189-0.635-0.379-0.948-0.586c-0.321-0.223-0.597-0.393-0.963-0.717
					c-0.076-0.074-0.145-0.162-0.156-0.182l-0.004-0.006l-0.041-0.076l-0.007-0.02l-0.018-0.039l-0.028-0.072l-0.09-0.262
					l-0.167-0.5c-0.11-0.326-0.219-0.654-0.329-0.977c-0.224-0.643-0.472-1.266-0.732-1.861c-0.514-1.189-1.116-2.254-1.75-3.086
					c-0.628-0.84-1.313-1.424-1.849-1.762c-0.266-0.174-0.486-0.293-0.65-0.363C20.66,53.316,20.573,53.277,20.573,53.277z"/>
			</g>
			<g>
				<path d="M40.026,68.033l-2.723-0.318c-0.186-0.023-0.454-0.061-0.789-0.133c-0.73-0.15-1.677-0.438-2.663-0.813
					c-1.099-0.416-2.32-0.969-3.531-1.6c-0.651-0.328-1.294-0.703-1.898-1.059l-0.101-0.061c-0.286-0.172-0.575-0.344-0.858-0.531
					l-0.176-0.121c-0.259-0.176-0.504-0.342-0.815-0.617c-0.091-0.088-0.181-0.197-0.21-0.252l-0.11-0.24l-0.59-1.748
					c-0.209-0.602-0.454-1.223-0.725-1.842c-0.508-1.176-1.103-2.225-1.72-3.035c-0.713-0.953-1.424-1.475-1.784-1.701
					c-0.304-0.197-0.501-0.297-0.614-0.344l-0.248-0.111l0.159-0.473l0.264,0.066c0.167,0.039,0.438,0.119,0.769,0.266
					c0.76,0.324,1.591,0.926,2.277,1.646c0.774,0.805,1.525,1.889,2.171,3.135c0.276,0.533,0.551,1.141,0.866,1.912l0.023,0.061
					c0.124,0.313,0.248,0.625,0.357,0.943l0.247,0.693c0.156,0.125,0.428,0.314,0.757,0.525l0.906,0.576
					c0.405,0.254,0.815,0.494,1.218,0.73l0.589,0.348c1.162,0.674,2.295,1.303,3.275,1.814c0.881,0.459,1.731,0.865,2.392,1.146
					c0.581,0.244,0.934,0.359,0.938,0.361L40.026,68.033z M23.278,55.059c0.08,0.098,0.159,0.199,0.239,0.305
					c0.64,0.84,1.256,1.926,1.779,3.137c0.275,0.631,0.524,1.262,0.739,1.879l0.664,1.908c0.009,0.01,0.06,0.076,0.114,0.129
					c0.278,0.244,0.51,0.402,0.756,0.568l0.175,0.121c0.273,0.18,0.555,0.35,0.835,0.518l0.1,0.059
					c0.594,0.352,1.229,0.721,1.87,1.043c1.198,0.623,2.4,1.168,3.481,1.578c0.342,0.129,0.679,0.248,1.003,0.355
					c-0.296-0.146-0.603-0.303-0.913-0.463c-0.986-0.516-2.126-1.146-3.297-1.828l-0.588-0.346
					c-0.407-0.238-0.821-0.482-1.231-0.738l-0.908-0.578c-0.047-0.031-0.113-0.074-0.189-0.123l0.26,0.713l-1.032-1.324l0.003-0.02
					l-0.978-2.021l0.466,0.596c-0.029-0.074-0.058-0.146-0.087-0.221c-0.33-0.813-0.6-1.408-0.869-1.926
					c-0.624-1.203-1.346-2.248-2.088-3.02C23.479,55.254,23.378,55.152,23.278,55.059z"/>
			</g>
		</g>
		<g>
			<g>
				<path fill="#172866" d="M20.992,55.381c0,0,0.106,0.078,0.306,0.229c0.103,0.07,0.221,0.166,0.353,0.289
					c0.135,0.119,0.289,0.26,0.441,0.432c0.641,0.668,1.321,1.803,1.867,3.242c0.277,0.719,0.526,1.508,0.822,2.324
					c0.077,0.205,0.156,0.408,0.236,0.617c0.088,0.199,0.161,0.434,0.274,0.557c0.259,0.313,0.659,0.6,1.062,0.859
					c1.654,1.045,3.618,1.938,5.592,2.764c1.984,0.814,3.982,1.607,5.896,2.254c1.915,0.643,3.708,1.232,5.279,1.633
					c1.567,0.396,2.896,0.672,3.844,0.711c0.472,0.021,0.844-0.002,1.091-0.061c0.246-0.057,0.364-0.123,0.364-0.123
					s-0.108,0.08-0.353,0.16c-0.242,0.084-0.621,0.15-1.104,0.162c-0.967,0.021-2.346-0.119-3.947-0.469
					c-1.604-0.342-3.459-0.811-5.392-1.455c-1.935-0.641-3.987-1.359-5.973-2.225c-0.993-0.428-1.976-0.879-2.928-1.357
					c-0.947-0.484-1.879-0.971-2.711-1.563c-0.414-0.301-0.817-0.6-1.139-1.027c-0.177-0.25-0.216-0.465-0.304-0.676
					c-0.074-0.215-0.146-0.426-0.217-0.635c-0.257-0.836-0.5-1.621-0.725-2.352c-0.449-1.443-1.041-2.584-1.629-3.273
					c-0.136-0.18-0.272-0.328-0.397-0.455c-0.119-0.131-0.228-0.234-0.325-0.314C21.092,55.467,20.992,55.381,20.992,55.381z"/>
			</g>
			<g>
				<path d="M46.766,71.682c-1.045,0-2.396-0.17-3.804-0.477c-1.892-0.402-3.714-0.895-5.417-1.461
					c-1.681-0.557-3.881-1.314-5.993-2.232c-1.047-0.451-2.036-0.91-2.94-1.363c-1.013-0.52-1.917-0.994-2.745-1.584
					c-0.394-0.287-0.839-0.609-1.194-1.08c-0.152-0.215-0.217-0.4-0.274-0.564c-0.02-0.057-0.039-0.111-0.061-0.168l-0.223-0.648
					l-0.727-2.357c-0.42-1.352-0.981-2.482-1.581-3.186c-0.138-0.182-0.267-0.322-0.384-0.441c-0.116-0.127-0.216-0.225-0.305-0.297
					l-0.292-0.254l0.314-0.389l0.305,0.229c0.104,0.072,0.231,0.176,0.374,0.309c0.137,0.121,0.298,0.268,0.458,0.447
					c0.694,0.723,1.376,1.904,1.914,3.32c0.161,0.418,0.313,0.861,0.471,1.32c0.113,0.328,0.229,0.666,0.352,1.008l0.299,0.766
					c0.05,0.125,0.107,0.266,0.161,0.324c0.261,0.313,0.679,0.602,1.014,0.818c1.733,1.094,3.779,2,5.553,2.742
					c1.775,0.729,3.863,1.566,5.879,2.246c1.88,0.631,3.698,1.23,5.261,1.629c1.764,0.445,2.969,0.67,3.793,0.703
					c0.442,0.023,0.793,0,1.023-0.053c0.2-0.047,0.299-0.1,0.299-0.1l0.271,0.42c-0.023,0.018-0.154,0.107-0.424,0.197
					c-0.297,0.102-0.716,0.164-1.177,0.174L46.766,71.682z M25.252,63.398c0.278,0.303,0.609,0.543,0.907,0.76
					c0.798,0.568,1.686,1.035,2.678,1.543c0.894,0.449,1.875,0.904,2.913,1.352c2.094,0.91,4.281,1.662,5.952,2.217
					c1.033,0.344,2.111,0.66,3.222,0.945c-1.01-0.313-2.077-0.666-3.164-1.031c-2.029-0.686-4.127-1.527-5.912-2.26
					c-1.793-0.75-3.863-1.666-5.63-2.781C25.911,63.941,25.54,63.688,25.252,63.398z"/>
			</g>
		</g>
		<g>
			<g>
				<path fill="#172866" d="M40.35,67.832c0,0-3.018-0.355-3.674-1.316c-0.491-0.719,0.446-2.049,0.919-2.188
					c0.793-0.232,3.42,1.008,3.42,1.008L40.35,67.832z"/>
			</g>
			<g>
				<path d="M40.536,68.105l-0.215-0.025c-0.32-0.039-3.151-0.398-3.851-1.424c-0.217-0.318-0.241-0.742-0.069-1.225
					c0.218-0.613,0.733-1.229,1.124-1.344c0.09-0.027,0.192-0.039,0.312-0.039c1.026,0,3.194,1.018,3.286,1.063l0.188,0.088
					L40.536,68.105z M37.836,64.549c-0.088,0-0.141,0.01-0.17,0.018c-0.191,0.057-0.61,0.516-0.794,1.033
					c-0.081,0.229-0.145,0.547,0.011,0.773c0.447,0.656,2.354,1.049,3.282,1.182l0.554-2.08
					C40.007,65.154,38.526,64.549,37.836,64.549z"/>
			</g>
		</g>
		<g>
			<g>
				<path fill="#172866" d="M40.35,67.832c0,0-1.486-1.373,0.666-2.496L40.35,67.832z"/>
			</g>
			<g>
				<path d="M40.485,68.297l-0.304-0.281c-0.028-0.025-0.675-0.635-0.569-1.43c0.076-0.57,0.509-1.064,1.288-1.471l0.503-0.264
					L40.485,68.297z M40.609,65.891c-0.297,0.236-0.466,0.492-0.501,0.76c-0.031,0.23,0.042,0.447,0.133,0.621L40.609,65.891z"/>
			</g>
		</g>
	</g>
	<g>
		<g>
			<g>
				<rect x="43.08" y="32.48" fill="#505050" width="4.87" height="1.219"/>
			</g>
			<g>
				<path d="M48.2,33.949h-5.37V32.23h5.37V33.949z M43.33,33.449h4.37V32.73h-4.37V33.449z"/>
			</g>
		</g>
		<g>
			<g>
				<rect x="44.357" y="33.445" fill="#505050" width="2.386" height="24.047"/>
			</g>
			<g>
				<path d="M46.993,57.742h-2.886V33.195h2.886V57.742z M44.607,57.242h1.886V33.695h-1.886V57.242z"/>
			</g>
		</g>
		<g>
			<g>
				<rect x="42.201" y="55.664" fill="#505050" width="7.305" height="1.221"/>
			</g>
			<g>
				<path d="M49.756,57.135h-7.805v-1.721h7.805V57.135z M42.451,56.635h6.805v-0.721h-6.805V56.635z"/>
			</g>
		</g>
		<g>
			<g>
				<path fill="#505050" d="M45.516,37.418c-2.346,0-3.917-0.887-5.437-1.744c-1.823-1.029-3.706-2.094-7.198-1.809l-0.099-1.213
					c3.861-0.318,6.005,0.895,7.895,1.961c1.51,0.854,2.813,1.588,4.838,1.588V37.418z"/>
			</g>
			<g>
				<path d="M45.766,37.668h-0.25c-2.413,0-4.013-0.904-5.56-1.777c-1.59-0.896-3.23-1.822-5.961-1.822
					c-0.352,0-0.72,0.016-1.094,0.045l-0.25,0.021l-0.139-1.711l0.249-0.021C33.184,32.367,33.6,32.35,34,32.35
					c3.179,0,5.103,1.088,6.8,2.047c1.479,0.834,2.756,1.555,4.716,1.555h0.25V37.668z M33.995,33.568
					c2.862,0,4.56,0.957,6.202,1.885c1.439,0.813,2.923,1.65,5.068,1.711v-0.717c-1.949-0.057-3.233-0.781-4.711-1.615
					C38.91,33.902,37.047,32.85,34,32.85c-0.307,0-0.625,0.012-0.948,0.033l0.058,0.715C33.412,33.578,33.709,33.568,33.995,33.568z
					"/>
			</g>
		</g>
		<g>
			<g>
				<path fill="#505050" d="M45.549,37.418v-1.217c2.025,0,3.329-0.734,4.84-1.588c1.89-1.066,4.033-2.275,7.894-1.961l-0.099,1.213
					c-3.491-0.285-5.373,0.779-7.197,1.809C49.466,36.531,47.895,37.418,45.549,37.418z"/>
			</g>
			<g>
				<path d="M45.549,37.668h-0.25v-1.717h0.25c1.96,0,3.237-0.721,4.717-1.555c1.696-0.959,3.619-2.045,6.808-2.045
					c0.397,0,0.811,0.018,1.229,0.051l0.249,0.02l-0.14,1.713l-0.25-0.021c-0.375-0.029-0.743-0.045-1.096-0.045
					c-2.725,0-4.363,0.924-5.947,1.816C49.562,36.764,47.961,37.668,45.549,37.668z M45.799,36.447v0.717
					c2.145-0.061,3.628-0.898,5.064-1.709c1.651-0.93,3.348-1.887,6.203-1.887c0.287,0,0.585,0.01,0.888,0.029l0.059-0.715
					c-0.319-0.021-0.635-0.031-0.939-0.031c-3.057,0-4.919,1.053-6.562,1.98C49.033,35.666,47.748,36.391,45.799,36.447z"/>
			</g>
		</g>
		<g>
			<g>
				<rect x="39.968" y="56.885" fill="#505050" width="11.821" height="1.217"/>
			</g>
			<g>
				<path d="M52.039,58.352H39.718v-1.717h12.321V58.352z M40.218,57.852h11.321v-0.717H40.218V57.852z"/>
			</g>
		</g>
		<g>
			<g>
				<circle fill="#0B1742" cx="45.55" cy="30.621" r="1.353"/>
			</g>
			<g>
				<path d="M45.549,32.225c-0.883,0-1.602-0.721-1.602-1.604c0-0.885,0.719-1.604,1.602-1.604c0.884,0,1.604,0.719,1.604,1.604
					C47.152,31.504,46.433,32.225,45.549,32.225z M45.549,29.518c-0.607,0-1.102,0.494-1.102,1.104c0,0.607,0.494,1.104,1.102,1.104
					c0.608,0,1.104-0.496,1.104-1.104C46.652,30.012,46.157,29.518,45.549,29.518z"/>
			</g>
		</g>
		<g>
			<g>
				
					<rect x="32.037" y="32.987" transform="matrix(0.9706 0.2406 -0.2406 0.9706 10.6823 -6.5671)" fill="#505050" width="0.406" height="14.97"/>
			</g>
			<g>
				<polygon points="30.81,48.086 29.93,47.869 33.671,32.855 34.55,33.08 				"/>
			</g>
		</g>
		<g>
			<g>
				
					<rect x="28.376" y="40.268" transform="matrix(0.2417 0.9703 -0.9703 0.2417 66.4634 -4.1065)" fill="#505050" width="14.967" height="0.407"/>
			</g>
			<g>
				<polygon points="37.289,48.086 33.55,33.08 34.43,32.855 38.169,47.869 				"/>
			</g>
		</g>
		<g>
			<g>
				<rect x="33.846" y="33.211" fill="#505050" width="0.406" height="14.828"/>
			</g>
			<g>
				<rect x="33.596" y="32.961" width="0.906" height="15.328"/>
			</g>
		</g>
		<g>
			<g>
				
					<rect x="55.51" y="32.987" transform="matrix(0.9707 0.2403 -0.2403 0.9707 11.3564 -12.2007)" fill="#505050" width="0.406" height="14.969"/>
			</g>
			<g>
				<polygon points="54.283,48.086 53.402,47.869 57.143,32.857 58.023,33.08 				"/>
			</g>
		</g>
		<g>
			<g>
				
					<rect x="51.849" y="40.268" transform="matrix(0.2418 0.9703 -0.9703 0.2418 84.2567 -26.8862)" fill="#505050" width="14.968" height="0.408"/>
			</g>
			<g>
				<polygon points="60.762,48.086 57.022,33.08 57.902,32.857 61.643,47.869 				"/>
			</g>
		</g>
		<g>
			<g>
				<path fill="#505050" d="M34.049,47.637h-3.924c0,0,0.293,2.529,3.924,2.529s3.924-2.529,3.924-2.529H34.049z"/>
			</g>
			<g>
				<path d="M34.049,50.416c-3.809,0-4.169-2.725-4.172-2.752l-0.032-0.277h8.41l-0.032,0.277
					C38.219,47.691,37.858,50.416,34.049,50.416z M30.44,47.887c0.195,0.617,0.935,2.029,3.609,2.029
					c2.651,0,3.404-1.416,3.606-2.029H30.44z"/>
			</g>
		</g>
		<g>
			<g>
				<rect x="57.32" y="33.211" fill="#505050" width="0.406" height="14.828"/>
			</g>
			<g>
				<rect x="57.07" y="32.961" width="0.906" height="15.328"/>
			</g>
		</g>
		<g>
			<g>
				<circle fill="#0B1742" cx="34.05" cy="33.211" r="1.353"/>
			</g>
			<g>
				<path d="M34.049,34.813c-0.884,0-1.603-0.719-1.603-1.602c0-0.885,0.719-1.604,1.603-1.604c0.884,0,1.604,0.719,1.604,1.604
					C35.653,34.094,34.934,34.813,34.049,34.813z M34.049,32.107c-0.608,0-1.103,0.494-1.103,1.104c0,0.607,0.495,1.102,1.103,1.102
					s1.104-0.494,1.104-1.102C35.153,32.602,34.658,32.107,34.049,32.107z"/>
			</g>
		</g>
		<g>
			<g>
				<circle fill="#0B1742" cx="57.456" cy="33.211" r="1.353"/>
			</g>
			<g>
				<path d="M57.455,34.813c-0.883,0-1.603-0.719-1.603-1.602c0-0.885,0.72-1.604,1.603-1.604c0.885,0,1.604,0.719,1.604,1.604
					C59.059,34.094,58.34,34.813,57.455,34.813z M57.455,32.107c-0.607,0-1.103,0.494-1.103,1.104c0,0.607,0.495,1.102,1.103,1.102
					c0.609,0,1.104-0.494,1.104-1.102C58.559,32.602,58.064,32.107,57.455,32.107z"/>
			</g>
		</g>
		<g>
			<g>
				<path fill="#505050" d="M57.523,47.637H53.6c0,0,0.293,2.529,3.924,2.529c3.629,0,3.924-2.529,3.924-2.529H57.523z"/>
			</g>
			<g>
				<path d="M57.523,50.416c-3.81,0-4.169-2.725-4.172-2.752l-0.033-0.277h8.409l-0.032,0.277
					C61.691,47.691,61.332,50.416,57.523,50.416z M53.914,47.887c0.195,0.617,0.935,2.029,3.609,2.029
					c2.674,0,3.413-1.412,3.609-2.029H53.914z"/>
			</g>
		</g>
		<g>
			<g>
				<path fill="#0B1742" d="M37.974,47.637h-3.924v2.529C37.68,50.166,37.974,47.637,37.974,47.637z"/>
			</g>
			<g>
				<path d="M34.049,50.416h-0.25v-3.029h4.455l-0.032,0.277C38.219,47.691,37.858,50.416,34.049,50.416z M34.299,47.887v2.025
					c2.471-0.084,3.17-1.428,3.36-2.025H34.299z"/>
			</g>
		</g>
		<g>
			<g>
				<rect x="45.55" y="33.445" fill="#0B1742" width="1.193" height="24.047"/>
			</g>
			<g>
				<path d="M46.993,57.742H45.3V33.195h1.693V57.742z M45.8,57.242h0.693V33.695H45.8V57.242z"/>
			</g>
		</g>
		<g>
			<g>
				<path fill="#0B1742" d="M61.447,47.637h-3.924v2.529C61.152,50.166,61.447,47.637,61.447,47.637z"/>
			</g>
			<g>
				<path d="M57.523,50.416h-0.25v-3.029h4.454l-0.032,0.277C61.691,47.691,61.332,50.416,57.523,50.416z M57.773,47.887v2.025
					c2.448-0.086,3.16-1.432,3.355-2.025H57.773z"/>
			</g>
		</g>
		<g>
			<g>
				<rect x="45.55" y="55.664" fill="#0B1742" width="3.956" height="1.221"/>
			</g>
			<g>
				<path d="M49.756,57.135H45.3v-1.721h4.456V57.135z M45.8,56.635h3.456v-0.721H45.8V56.635z"/>
			</g>
		</g>
		<g>
			<g>
				<rect x="45.55" y="56.885" fill="#0B1742" width="6.239" height="1.217"/>
			</g>
			<g>
				<path d="M52.039,58.352H45.3v-1.717h6.739V58.352z M45.8,57.852h5.739v-0.717H45.8V57.852z"/>
			</g>
		</g>
		<g>
			<g>
				<rect x="45.55" y="32.48" fill="#3C3C3C" width="2.4" height="1.219"/>
			</g>
			<g>
				<path d="M48.2,33.949h-2.9V32.23h2.9V33.949z M45.8,33.449h1.9V32.73h-1.9V33.449z"/>
			</g>
		</g>
	</g>
	<g>
		<g>
			<g>
				<path fill="#D86405" d="M46.193,15.572c0,0,5.385,1.992,6.014,3.268c0.629,1.277,2.779,7.152,5.75,7.43
					c0.68,0.064,0.853-0.436,0.853-0.436s2.88,2.406,5.112,1.727c2.232-0.682-1.707-6.59-1.707-6.59S53.025,5.041,32.771,8.318
					C12.515,11.594,46.193,15.572,46.193,15.572z"/>
			</g>
			<g>
				<path d="M63.07,27.932c-1.758,0-3.582-1.262-4.202-1.732c-0.145,0.158-0.392,0.326-0.792,0.326l0,0
					c-0.046,0-0.094-0.004-0.143-0.008c-2.725-0.254-4.686-4.711-5.628-6.854c-0.133-0.301-0.241-0.547-0.322-0.713
					c-0.48-0.973-4.405-2.6-5.876-3.145c-3.294-0.383-20.013-2.492-20.07-5.145c-0.015-0.701,0.732-1.627,6.693-2.59
					c1.835-0.297,3.66-0.447,5.422-0.447c16.461,0,24.203,13.088,24.279,13.221c0.297,0.443,2.949,4.5,2.331,6.229
					c-0.129,0.361-0.394,0.611-0.768,0.725C63.707,27.887,63.396,27.932,63.07,27.932z M58.691,25.41l0.278,0.232
					c0.021,0.018,2.167,1.789,4.101,1.789c0.277,0,0.539-0.037,0.779-0.111c0.225-0.068,0.365-0.199,0.442-0.414
					c0.452-1.266-1.496-4.613-2.284-5.797c-0.084-0.145-7.691-12.984-23.855-12.984c-1.735,0-3.533,0.148-5.342,0.439
					c-5.682,0.92-6.28,1.766-6.273,2.086c0.037,1.715,12.094,3.775,19.685,4.674c0.619,0.221,5.555,2.078,6.209,3.404
					c0.084,0.172,0.195,0.424,0.332,0.734c0.833,1.895,2.785,6.33,5.217,6.557c0.479,0.047,0.592-0.264,0.593-0.268L58.691,25.41z"
					/>
			</g>
		</g>
		<g>
			<g>
				<path fill="#FD7C05" d="M13.69,1.211c0,0,2.188,3.57,8.786,2.918c6.597-0.652,13.729-1.336,17.237-0.201
					c3.554,1.152,13.368,2.822,16.538,6.291c3.113,3.408,5.03,4.902,5.644,6.654c0.432,1.232,2.736,8.133,2.338,8.775
					s-3.376,0.664-5.117-2.93c-1.137-2.346-1.564-4.936-1.564-4.936s-5.652-3.686-7.479-4.598
					c-1.826-0.914-15.595-4.826-16.178-3.746c-0.584,1.078,11.686,3.199,12.302,4.643c0.761,1.785-0.999,4.279-6.132,3.188
					s-6.271-1.41-7.588-1.258C31.159,16.166,16.197,19.701,13.69,1.211z"/>
			</g>
			<g>
				<path d="M63.279,26.229c-1.326,0-3.174-0.893-4.389-3.4c-1.021-2.107-1.472-4.371-1.567-4.895
					c-0.735-0.479-5.696-3.691-7.362-4.525c-1.664-0.832-12.519-3.906-15.334-3.906c-0.259,0-0.395,0.025-0.463,0.045
					c0.431,0.441,3.307,1.232,5.434,1.818c4.026,1.107,6.496,1.838,6.829,2.619c0.314,0.736,0.237,1.549-0.211,2.227
					c-0.389,0.588-1.402,1.574-3.828,1.574c-0.725,0-1.524-0.092-2.375-0.271l-1.992-0.428c-3.444-0.74-4.424-0.953-5.515-0.824
					c-0.068,0.008-0.176,0.025-0.317,0.049c-0.633,0.104-1.952,0.318-3.604,0.318c-4.875,0-13.326-1.998-15.14-15.385l-0.158-1.16
					l0.618,0.996c0.018,0.029,1.844,2.879,7.008,2.879c0.496,0,1.015-0.027,1.541-0.078C26.288,3.5,30.635,3.07,34.217,3.07
					c2.46,0,4.284,0.203,5.574,0.619c0.827,0.27,1.999,0.566,3.355,0.91c4.563,1.156,10.813,2.74,13.29,5.451
					c0.928,1.016,1.744,1.854,2.463,2.596c1.677,1.725,2.784,2.863,3.232,4.145c0.116,0.332,2.84,8.141,2.314,8.988
					C64.271,26.061,63.835,26.229,63.279,26.229z M34.626,9.002c3.068,0,13.983,3.172,15.557,3.959
					c1.818,0.908,7.272,4.461,7.504,4.611l0.092,0.061l0.018,0.109c0.005,0.025,0.437,2.582,1.544,4.869
					c1.113,2.297,2.765,3.117,3.938,3.117c0.447,0,0.688-0.127,0.741-0.213c0.221-0.568-1.394-5.795-2.361-8.561
					c-0.412-1.176-1.489-2.283-3.119-3.961c-0.722-0.744-1.54-1.586-2.474-2.607c-2.375-2.598-8.795-4.227-13.044-5.303
					c-1.364-0.346-2.544-0.645-3.386-0.918c-1.239-0.4-3.012-0.596-5.419-0.596c-3.558,0-7.892,0.43-11.716,0.809
					c-0.542,0.053-1.078,0.08-1.59,0.08c-3.845,0-5.922-1.482-6.842-2.404c1.892,11.605,8.896,14.074,14.514,14.074
					c1.612,0,2.903-0.211,3.524-0.313c0.151-0.025,0.267-0.043,0.34-0.053c1.163-0.131,2.165,0.08,5.678,0.834l1.991,0.426
					c0.816,0.174,1.581,0.262,2.271,0.262c2.191,0,3.078-0.846,3.411-1.35c0.354-0.537,0.415-1.176,0.169-1.754
					c-0.264-0.617-3.869-1.609-6.502-2.334c-3.846-1.061-5.558-1.584-5.804-2.162c-0.052-0.123-0.047-0.252,0.015-0.365
					C33.793,9.1,34.087,9.002,34.626,9.002z"/>
			</g>
		</g>
		<g>
			<g>
				<path fill="#172866" d="M61.347,25.365c0,0-0.104-0.08-0.304-0.229c-0.104-0.072-0.223-0.168-0.353-0.291
					c-0.136-0.119-0.29-0.26-0.442-0.432c-0.642-0.666-1.32-1.803-1.867-3.242c-0.276-0.719-0.525-1.508-0.821-2.324
					c-0.077-0.203-0.156-0.406-0.236-0.615c-0.088-0.199-0.161-0.434-0.273-0.559c-0.261-0.313-0.66-0.598-1.063-0.859
					c-1.654-1.043-3.617-1.936-5.592-2.762c-1.984-0.816-3.981-1.607-5.896-2.254c-1.915-0.643-3.708-1.234-5.279-1.633
					c-1.568-0.396-2.897-0.674-3.844-0.711c-0.471-0.021-0.844,0.002-1.09,0.057C34.039,9.57,33.92,9.639,33.92,9.639
					s0.11-0.08,0.353-0.162c0.243-0.084,0.621-0.15,1.104-0.16c0.967-0.021,2.345,0.119,3.948,0.467
					c1.604,0.342,3.459,0.813,5.391,1.457c1.935,0.639,3.986,1.359,5.972,2.223c0.994,0.428,1.977,0.881,2.93,1.359
					c0.946,0.482,1.879,0.971,2.711,1.561c0.414,0.303,0.816,0.602,1.139,1.027c0.178,0.25,0.217,0.465,0.305,0.678
					c0.072,0.213,0.145,0.426,0.216,0.633c0.257,0.836,0.5,1.623,0.726,2.352c0.448,1.445,1.04,2.584,1.627,3.275
					c0.138,0.18,0.273,0.328,0.398,0.453c0.118,0.131,0.229,0.236,0.324,0.314C61.248,25.277,61.347,25.365,61.347,25.365z"/>
			</g>
			<g>
				<path d="M61.195,25.564l-0.303-0.227c-0.104-0.074-0.233-0.178-0.373-0.311c-0.137-0.119-0.299-0.266-0.459-0.447
					c-0.693-0.719-1.375-1.9-1.914-3.318c-0.158-0.414-0.309-0.852-0.464-1.305c-0.114-0.334-0.231-0.676-0.358-1.023l-0.299-0.766
					c-0.05-0.125-0.107-0.266-0.16-0.326c-0.26-0.311-0.678-0.6-1.014-0.816c-1.754-1.105-3.889-2.047-5.553-2.742
					c-1.768-0.727-3.849-1.563-5.88-2.248c-1.88-0.631-3.697-1.23-5.26-1.627c-1.767-0.447-2.972-0.672-3.793-0.703
					c-0.438-0.02-0.792-0.002-1.025,0.051c-0.199,0.047-0.298,0.1-0.299,0.102l-0.269-0.422c0.024-0.018,0.155-0.107,0.421-0.195
					c0.292-0.102,0.711-0.164,1.177-0.174l0.194-0.002c1.048,0,2.402,0.168,3.813,0.475c1.893,0.404,3.716,0.896,5.417,1.463
					c1.677,0.555,3.874,1.311,5.992,2.23c1.044,0.451,2.034,0.91,2.941,1.365c0.971,0.496,1.91,0.99,2.744,1.582
					c0.396,0.289,0.844,0.615,1.194,1.08c0.151,0.215,0.216,0.4,0.273,0.564c0.02,0.057,0.038,0.111,0.062,0.168l0.223,0.648
					L58.951,21c0.42,1.35,0.98,2.48,1.58,3.186c0.138,0.18,0.266,0.32,0.385,0.439c0.117,0.129,0.218,0.225,0.306,0.299l0.29,0.254
					L61.195,25.564z M41.422,10.533c1.009,0.311,2.072,0.664,3.156,1.027c2.045,0.691,4.137,1.531,5.912,2.262
					c1.684,0.703,3.844,1.654,5.63,2.781c0.327,0.211,0.687,0.459,0.968,0.742c-0.272-0.297-0.594-0.531-0.906-0.762
					c-0.805-0.57-1.727-1.053-2.678-1.539c-0.898-0.451-1.879-0.906-2.915-1.354c-2.101-0.912-4.284-1.662-5.952-2.215
					C43.607,11.133,42.531,10.818,41.422,10.533z"/>
			</g>
		</g>
		<g>
			<g>
				<path fill="#172866" d="M41.99,12.914c0,0,3.018,0.355,3.673,1.316c0.491,0.719-0.444,2.047-0.919,2.188
					c-0.793,0.232-3.419-1.01-3.419-1.01L41.99,12.914z"/>
			</g>
			<g>
				<path d="M44.503,16.695c-1.026,0-3.192-1.018-3.284-1.061l-0.189-0.09l0.774-2.904l0.216,0.025
					c0.32,0.037,3.15,0.398,3.85,1.424c0.218,0.316,0.242,0.74,0.07,1.225c-0.219,0.611-0.734,1.227-1.125,1.342
					C44.725,16.684,44.623,16.695,44.503,16.695z M41.621,15.27c0.712,0.322,2.191,0.926,2.882,0.926
					c0.088,0,0.142-0.01,0.171-0.018c0.191-0.057,0.609-0.516,0.794-1.031c0.081-0.229,0.146-0.547-0.011-0.775
					c-0.447-0.654-2.354-1.049-3.282-1.182L41.621,15.27z"/>
			</g>
		</g>
		<g>
			<g>
				<path fill="#172866" d="M41.99,12.914c0,0,1.485,1.373-0.665,2.494L41.99,12.914z"/>
			</g>
			<g>
				<path d="M40.938,15.893l0.918-3.445l0.305,0.283c0.027,0.025,0.674,0.633,0.568,1.43c-0.076,0.57-0.51,1.064-1.287,1.471
					L40.938,15.893z M42.1,13.475l-0.368,1.381c0.298-0.238,0.466-0.492,0.501-0.762C42.264,13.863,42.191,13.646,42.1,13.475z"/>
			</g>
		</g>
	</g>
</g>
</svg>
