<?xml version="1.0" encoding="utf-8"?>
<!-- Generator: Adobe Illustrator 16.0.0, SVG Export Plug-In . SVG Version: 6.00 Build 0)  -->
<!DOCTYPE svg PUBLIC "-//W3C//DTD SVG 1.1//EN" "http://www.w3.org/Graphics/SVG/1.1/DTD/svg11.dtd">
<svg version="1.1" id="Layer_1" xmlns="http://www.w3.org/2000/svg" xmlns:xlink="http://www.w3.org/1999/xlink" x="0px" y="0px"
	 width="236px" height="70px" viewBox="0 0 236 70" enable-background="new 0 0 236 70" xml:space="preserve">
<g>
	<g>
		<path fill-rule="evenodd" clip-rule="evenodd" fill="#2851B5" d="M234.557,54.438c-0.232,0.021-0.453,0.056-0.675,0.056
			c-2.664,0.003-5.328-0.02-7.991,0.016c-0.672,0.009-0.967-0.188-1.086-0.868c-0.26-1.494-0.617-2.971-0.91-4.46
			c-0.119-0.605-0.412-0.855-1.055-0.852c-4.038,0.025-8.077,0.025-12.115,0.013c-0.538-0.001-0.84,0.176-1.02,0.695
			c-0.521,1.514-1.102,3.007-1.613,4.522c-0.229,0.68-0.535,0.982-1.341,0.965c-3.035-0.063-6.071-0.022-9.108-0.021
			c-0.274,0-0.55,0-0.986,0c0.678-1.618,1.289-3.078,1.9-4.54c2.503-5.989,5.004-11.98,7.51-17.97
			c2.175-5.197,4.333-10.401,6.545-15.583c0.847-1.986,2.439-2.976,4.604-2.985c2.722-0.012,5.442,0.015,8.163-0.014
			c0.572-0.007,0.799,0.167,0.913,0.731c0.979,4.794,1.982,9.583,2.991,14.371c0.938,4.451,1.904,8.896,2.834,13.35
			c0.854,4.09,1.675,8.187,2.507,12.281C234.635,54.195,234.601,54.254,234.557,54.438z M218.828,24.915
			c-0.082-0.008-0.165-0.016-0.248-0.023c-0.115,0.205-0.264,0.398-0.344,0.617c-1.654,4.541-3.294,9.088-4.955,13.627
			c-0.23,0.629-0.129,0.908,0.588,0.904c2.435-0.014,4.869-0.013,7.303,0.005c0.639,0.005,0.795-0.251,0.666-0.849
			c-0.926-4.307-1.836-8.617-2.749-12.926C218.994,25.82,218.915,25.367,218.828,24.915z"/>
		<path fill-rule="evenodd" clip-rule="evenodd" fill="#2851B5" d="M130.744,40.987c0.194-0.227,0.359-0.344,0.421-0.502
			c2.044-5.19,4.074-10.387,6.115-15.578c1.435-3.646,2.87-7.293,4.345-10.924c0.107-0.266,0.526-0.574,0.803-0.578
			c3.352-0.035,6.702-0.017,10.053-0.008c0.08,0,0.158,0.055,0.395,0.141c-0.396,0.969-0.783,1.931-1.182,2.887
			c-2.115,5.066-4.227,10.135-6.35,15.198c-2.477,5.907-4.966,11.81-7.448,17.715c-0.632,1.504-1.288,2.999-1.874,4.521
			c-0.206,0.532-0.512,0.675-1.031,0.672c-3.236-0.013-6.475-0.021-9.711,0.006c-0.611,0.006-0.83-0.214-0.978-0.789
			c-1.205-4.713-2.454-9.414-3.671-14.125c-1.21-4.682-2.396-9.37-3.6-14.054c-0.393-1.524-0.831-3.036-1.207-4.563
			c-0.346-1.408-1.143-2.475-2.475-2.986c-2.718-1.041-5.473-1.988-8.218-2.957c-0.511-0.182-1.063-0.246-1.571-0.436
			c-0.205-0.077-0.511-0.413-0.472-0.514c0.11-0.279,0.334-0.625,0.591-0.711c0.36-0.12,0.791-0.027,1.191-0.027
			c5.357,0.004,10.714,0.006,16.07,0.012c2.912,0.003,4.733,1.48,5.283,4.365c1.271,6.662,2.514,13.331,3.766,19.998
			c0.164,0.871,0.307,1.746,0.477,2.616C130.502,40.542,130.615,40.703,130.744,40.987z"/>
		<path fill-rule="evenodd" clip-rule="evenodd" fill="#2851B5" d="M168.775,44.192c1.514,0.559,2.953,1.205,4.455,1.623
			c3.266,0.907,6.578,1.315,9.88,0.168c0.683-0.237,1.357-0.654,1.884-1.149c1.417-1.337,1.486-3.296-0.012-4.523
			c-1.377-1.128-3.006-1.946-4.52-2.908c-1.879-1.193-3.898-2.218-5.602-3.624c-4.512-3.724-4.558-9.064-2.102-13.43
			c1.945-3.457,5.088-5.463,8.793-6.566c5.576-1.658,11.138-1.384,16.658,0.387c0.727,0.232,0.813,0.527,0.638,1.244
			c-0.547,2.25-1.011,4.523-1.451,6.798c-0.136,0.704-0.347,0.823-1.022,0.554c-3.324-1.319-6.759-2.061-10.326-1.332
			c-1.02,0.209-2.059,0.745-2.881,1.395c-1.348,1.064-1.395,2.641-0.145,3.803c0.91,0.846,1.995,1.52,3.059,2.179
			c2.306,1.43,4.769,2.636,6.949,4.231c3.717,2.721,4.681,6.595,3.73,10.938c-1.193,5.451-4.998,8.49-10.07,10.004
			c-6.372,1.902-12.734,1.404-19.02-0.623c-0.703-0.227-0.865-0.558-0.704-1.262c0.568-2.481,1.078-4.977,1.618-7.464
			C168.619,44.477,168.713,44.334,168.775,44.192z"/>
		<path fill-rule="evenodd" clip-rule="evenodd" fill="#2851B5" d="M154.081,54.519c-1.519-0.002-3.038-0.023-4.556,0.01
			c-0.58,0.012-0.687-0.191-0.572-0.717c1.104-5.061,2.201-10.123,3.283-15.188c0.938-4.395,1.846-8.795,2.781-13.189
			c0.805-3.778,1.64-7.551,2.439-11.33c0.119-0.562,0.386-0.732,0.945-0.728c2.979,0.028,5.959,0.038,8.938,0.015
			c0.689-0.005,0.829,0.204,0.686,0.861c-0.989,4.529-1.943,9.066-2.914,13.6c-0.9,4.199-1.808,8.396-2.707,12.594
			c-0.955,4.451-1.917,8.9-2.84,13.357c-0.122,0.592-0.386,0.732-0.929,0.725C157.118,54.503,155.6,54.52,154.081,54.519z"/>
	</g>
	<g>
		<path fill-rule="evenodd" clip-rule="evenodd" fill="#F599A3" d="M35.205,3.876c-0.002,0.058-0.005,0.114-0.008,0.171
			c-1.661-0.002-3.321-0.005-4.981-0.007c0.003-0.055,0.004-0.109,0.003-0.164C31.88,3.876,33.543,3.876,35.205,3.876z"/>
		<path fill-rule="evenodd" clip-rule="evenodd" fill="#F599A3" d="M28.669,4.214c0.441-0.219,0.903-0.246,1.379-0.154
			C29.607,4.279,29.137,4.239,28.669,4.214z"/>
		<path fill-rule="evenodd" clip-rule="evenodd" fill="#F599A3" d="M35.216,4.05c0.473-0.094,0.933-0.066,1.373,0.15
			C36.121,4.243,35.656,4.254,35.216,4.05z"/>
		<path fill-rule="evenodd" clip-rule="evenodd" fill="#F599A3" d="M27.478,4.396c0.312-0.249,0.667-0.227,1.029-0.163
			C28.182,4.401,27.833,4.424,27.478,4.396z"/>
		<g>
			<path fill-rule="evenodd" clip-rule="evenodd" fill="#ED1B2E" d="M36.064,65.603c-2.292,0-4.585,0-6.877,0
				c-0.753-0.156-1.523-0.135-2.285-0.21c-3.94-0.389-7.458-1.954-10.754-4.013c-4.724-2.949-8.452-6.872-11.082-11.813
				c-1.202-2.259-2.158-4.604-2.792-7.086c-0.422-1.65-0.377-3.341-0.513-5.017c-0.034-0.421,0.097-0.853-0.084-1.265
				c0-0.974,0-1.948,0-2.922c0.15-1.414,0.125-2.839,0.277-4.25c0.231-2.149,0.941-4.17,1.739-6.164
				c1.834-4.582,4.759-8.396,8.423-11.629c3.972-3.507,8.605-5.789,13.785-6.938c0.501-0.111,1.016-0.14,1.529-0.163
				c0.35-0.009,0.703,0.03,1.047-0.068c0.089-0.01,0.178-0.016,0.268-0.016c0.456-0.024,0.917,0.056,1.367-0.081
				c0.097-0.005,0.192-0.007,0.29-0.007c1.5,0,3,0,4.498,0c0.095-0.001,0.191,0.004,0.285,0.016c0.452,0.128,0.915,0.048,1.373,0.07
				c2.765-0.038,5.347,0.762,7.867,1.78c3.415,1.381,6.504,3.295,9.207,5.815c0.588,0.419,1.105,0.916,1.563,1.467
				c0.536,0.645,0.282,1.284-0.545,1.43c-0.282,0.05-0.57,0.043-0.857,0.047c-0.573,0.009-1.146-0.016-1.718,0.02
				c-0.452,0.026-1.111,0.029-1.082,0.57c0.029,0.558,0.692,0.314,1.075,0.324c1.402,0.037,2.807-0.012,4.209,0.029
				c0.967,0.029,1.949,0.832,2.192,1.748c0.118,0.445-0.042,0.732-0.478,0.846c-0.362,0.094-0.74,0.074-1.112,0.075
				c-2.377,0.007-4.754-0.004-7.131,0.007c-0.37,0.002-0.75-0.025-1.087,0.18c-0.151,0.093-0.279,0.216-0.259,0.41
				c0.022,0.209,0.196,0.268,0.369,0.295c0.284,0.046,0.571,0.032,0.858,0.032c2.921,0.005,5.842-0.015,8.764,0.011
				c1.302,0.012,1.864,0.461,2.221,1.703c0.179,0.624-0.05,0.994-0.698,1.1c-0.396,0.064-0.8,0.047-1.201,0.047
				c-3.58,0.003-7.16-0.001-10.74,0.004c-0.372,0-0.747-0.027-1.11,0.077c-0.23,0.066-0.451,0.188-0.452,0.452
				c-0.001,0.298,0.257,0.344,0.491,0.369c0.313,0.033,0.629,0.02,0.944,0.021c4.153,0.006,8.306-0.018,12.458,0.014
				c1.155,0.009,1.543,0.335,1.826,1.413c0.207,0.788-0.031,1.148-0.826,1.231c-0.428,0.044-0.859,0.03-1.288,0.03
				c-4.525,0.002-9.051-0.003-13.576,0.004c-0.37,0.001-0.749-0.038-1.099,0.127c-0.163,0.077-0.29,0.197-0.28,0.393
				c0.01,0.203,0.16,0.299,0.333,0.341c0.337,0.083,0.684,0.057,1.027,0.058c4.668,0.002,9.337-0.001,14.005,0.002
				c0.458,0,0.919-0.02,1.373,0.045c0.965,0.137,1.609,1.061,1.408,2.007c-0.093,0.438-0.363,0.702-0.818,0.759
				c-0.37,0.047-0.743,0.047-1.115,0.047c-5.298,0.003-10.597,0.002-15.895,0.001c-0.43,0-0.86,0.001-1.282-0.088
				c-0.54-0.055-1.084-0.064-1.626-0.093c-0.716-0.038-1.05,0.309-1.162,0.972c-0.562,3.327-1.206,6.642-1.717,9.978
				c-0.232,1.514,0.227,1.982,1.758,2.018c0.514,0.012,1.033,0.047,1.541-0.072c0.338-0.08,0.678-0.188,0.8-0.568
				c0.137-0.428,0.164-0.756-0.459-0.836c-1.083-0.141-1.394-0.495-1.333-1.587c0.046-0.841-0.01-1.728,0.534-2.472
				c0.09-0.07,0.236-0.182,0.296-0.13c0.741,0.642,2.032,0.603,2.29,1.84c0.439,2.79,2.403,3.737,4.809,3.825
				c0.854,0.03,1.709,0.049,2.563-0.129c0.68-0.143,0.964-0.506,1.015-1.17c0.036-0.484-0.089-0.626-0.57-0.471
				c-1.111,0.359-2.234,0.404-3.38,0.124c-0.901-0.22-1.532-0.757-1.938-1.555c-0.452-0.89-0.076-1.535,0.928-1.579
				c1.486-0.064,2.975-0.011,4.462-0.026c1.046-0.011,1.248-0.182,1.316-1.236c0.077-1.208,0.094-2.405-0.796-3.405
				c-0.55-0.617-1.252-0.889-2.026-1.017c-2.322-0.382-5.158,0.47-6.013,3.336c-0.135,0.455-0.236,0.973-0.838,1.086
				c-0.73,0.114-1.5,0.369-1.918-0.566c-0.176-1.459,0.072-1.858,1.402-2.166c0.458-0.106,0.671-0.376,0.723-0.818
				c0.057-0.484-0.155-0.749-0.633-0.828c-0.331-0.055-0.597-0.215-0.646-0.577c-0.049-0.357,0.122-0.597,0.462-0.717
				c0.411-0.17,0.843-0.146,1.27-0.146c5.513-0.008,11.025-0.007,16.538-0.002c0.228,0,0.457,0.017,0.685,0.017
				c0.686,0.001,1.085,0.294,1.077,1.021c0.073,0.26,0.005,0.499-0.098,0.736c-0.452,1.037-0.786,2.112-1.024,3.218
				c-0.075,0.349-0.231,0.633-0.571,0.788c-1.029,0.269-2.062,0.243-3.094,0.037c-0.589-0.498-0.314-0.98,0.083-1.39
				c0.446-0.46,1.023-0.704,1.669-0.792c0.546-0.074,1.406-1.354,1.27-1.867c-0.084-0.315-0.338-0.258-0.56-0.201
				c-0.631,0.164-1.121,0.551-1.547,1.026c-0.162,0.181-0.36,0.31-0.602,0.253c-0.268-0.063-0.349-0.307-0.322-0.537
				c0.085-0.746-0.341-0.849-0.941-0.84c-0.997,0.015-1.237,0.132-1.339,0.928c-0.16,1.246-0.448,2.469-0.646,3.707
				c-0.265,1.661-0.562,3.316-0.832,4.977c-0.096,0.593,0.104,0.779,0.655,0.797c0.708,0.021,1.389,0.037,1.695-0.795
				c0.048-0.131,0.196-0.202,0.336-0.252c1.506-0.313,3.023-0.158,4.537-0.118c0.544,0.015,0.818,0.373,0.846,0.9
				c0.047,0.886-0.353,1.547-1.024,1.675c-0.451,0.086-0.914,0.061-1.372,0.061c-4.725,0.003-9.45-0.006-14.175,0.012
				c-0.416,0.002-1.126-0.205-1.14,0.396c-0.016,0.668,0.717,0.502,1.164,0.504c4.124,0.021,8.248,0.01,12.371,0.012
				c0.516,0,1.031-0.005,1.546,0.004c1.154,0.021,1.546,0.242,1.584,0.889c0.057,0.961-0.717,1.922-1.649,1.938
				c-4.123,0.068-8.247,0.016-12.371,0.029c-0.286,0.002-0.573-0.01-0.859,0.014c-0.199,0.018-0.432,0.021-0.48,0.271
				c-0.053,0.274,0.147,0.416,0.363,0.514c0.351,0.157,0.73,0.122,1.101,0.122c3.522,0.008,7.045-0.008,10.567,0.015
				c0.548,0.003,1.225-0.192,1.57,0.416c0.366,0.644-0.202,1.112-0.463,1.634c-0.334,0.671-0.917,0.787-1.583,0.791
				c-2.52,0.016-5.04,0.002-7.56,0.008c-0.344,0-0.69-0.025-1.03,0.01c-0.278,0.03-0.75-0.129-0.728,0.34
				c0.018,0.377,0.459,0.376,0.766,0.382c2.262,0.042,4.524-0.006,6.787,0.031c0.568,0.01,1.296-0.219,1.603,0.493
				c0.293,0.68-0.328,1.096-0.663,1.566c-0.39,0.546-0.933,0.789-1.625,0.785c-1.174-0.008-2.349-0.012-3.522,0.011
				c-0.238,0.005-0.596-0.087-0.645,0.249c-0.05,0.34,0.289,0.466,0.558,0.555c0.526,0.176,1.08,0.082,1.62,0.122
				c0.447,0.033,0.98-0.059,1.174,0.495c0.187,0.533-0.264,0.826-0.562,1.161c-0.211,0.238-0.485,0.4-0.728,0.599
				c-3.709,3.428-8.038,5.731-12.898,7.053c-1.275,0.346-2.6,0.345-3.907,0.453C36.563,65.539,36.298,65.437,36.064,65.603z"/>
			<path fill-rule="evenodd" clip-rule="evenodd" fill="#FAB131" d="M63.321,31.442c0.024-0.698-0.422-0.729-0.96-0.729
				c-5.869,0.01-11.738,0.006-17.607,0.005c-0.314,0-0.629-0.007-0.944-0.011c-0.504-0.673-0.457-1.051,0.213-1.727
				c5.987,0.003,11.975,0.01,17.962-0.002c0.334,0,0.974,0.22,0.864-0.45c-0.093-0.567,0.109-1.427-0.867-1.524
				c-0.341-0.034-0.687-0.03-1.03-0.03c-5.099-0.002-10.199,0.011-15.298-0.024c-0.437-0.004-1.208,0.443-1.312-0.44
				c-0.104-0.888,0.396-1.263,1.471-1.263c5.042-0.002,10.084,0.005,15.126-0.014c0.312-0.002,0.798,0.269,0.934-0.274
				c0.118-0.474-0.561-1.61-0.946-1.658c-0.226-0.028-0.458-0.015-0.687-0.015c-4.555-0.002-9.11,0.004-13.665-0.018
				c-0.332-0.001-0.872,0.277-0.972-0.324c-0.085-0.515,0.587-1.339,1.044-1.376c0.313-0.026,0.63-0.015,0.945-0.015
				c4.011-0.001,8.021,0.001,12.032-0.003c0.888-0.001,0.859-0.03,0.525-0.849c-0.364-0.892-0.909-1.2-1.897-1.179
				c-3.235,0.07-6.474,0.034-9.71,0.009c-0.351-0.002-0.838,0.258-1.051-0.248c-0.111-0.264,0.754-1.396,1.066-1.44
				c0.253-0.035,0.515-0.021,0.772-0.021c2.722-0.002,5.443,0.002,8.165-0.009c0.24-0.001,0.582,0.13,0.703-0.135
				c0.112-0.246-0.191-0.445-0.304-0.668c-0.45-0.889-1.132-1.219-2.154-1.167c-1.686,0.087-3.379,0.028-5.069,0.017
				c-0.241-0.002-0.586,0.133-0.7-0.148c-0.104-0.258,0.217-0.432,0.352-0.642c0.456-0.706,1.064-1.032,1.943-0.948
				c0.794,0.077,1.603,0.015,2.404,0.006c0.199-0.003,0.457,0.014,0.549-0.171c0.104-0.208-0.119-0.36-0.256-0.497
				c-0.547-0.544-1.104-1.079-1.657-1.618c-0.012-0.46,0.303-0.729,0.61-0.982c3.927-3.234,8.327-5.522,13.336-6.538
				c1.539-0.312,3.119-0.317,4.688-0.359c0.14-0.004,0.287,0.024,0.405-0.086c1.146,0,2.292,0,3.438,0
				c1.327,0.17,2.67,0.134,3.996,0.293c2.35,0.28,4.568,1.046,6.729,1.97c4.421,1.89,8.167,4.731,11.31,8.337
				c8.712,9.993,9.83,25.094,3.096,36.377c-3.076,5.157-7.346,9.113-12.677,11.858c-3.197,1.646-6.571,2.81-10.242,2.806
				c-0.115,0-0.228,0-0.319,0.086c-2.407,0-4.814,0-7.222,0c-0.721-0.162-1.462-0.164-2.192-0.218
				c-3.358-0.247-6.334-1.611-9.261-3.111c-1.734-0.89-3.278-2.075-4.815-3.262c-0.398-0.308-0.861-0.598-0.865-1.202
				c0.469-0.485,1.032-0.885,1.476-1.584c-1.612-0.253-3.583,0.573-4.299-1.685c0.195-0.224,0.531-0.096,0.823-0.099
				c1.518-0.016,3.037-0.004,4.555-0.012c0.569-0.003,1.892-1.195,1.922-1.732c0.021-0.381-0.301-0.271-0.492-0.274
				c-0.888-0.016-1.776-0.007-2.664-0.008c-1.776-0.001-3.553,0.003-5.329-0.007c-0.59-0.004-1.423-0.778-1.443-1.334
				c-0.017-0.444,0.354-0.295,0.559-0.297c1.375-0.02,2.75-0.012,4.125-0.014c1.977,0,3.954,0.004,5.93-0.006
				c0.557-0.002,1.631-1.247,1.565-1.784c-0.037-0.31-0.291-0.228-0.465-0.233c-0.659-0.019-1.318-0.016-1.977-0.016
				c-3.409,0-6.818,0.002-10.228,0.001c-0.866,0-1.436-0.521-1.521-1.35c-0.023-0.227,0.051-0.324,0.259-0.335
				c0.229-0.012,0.458-0.015,0.687-0.015c4.412-0.002,8.824-0.002,13.236-0.005c0.917-0.001,1.636-0.744,1.624-1.647
				c-0.003-0.267-0.145-0.354-0.37-0.364c-0.286-0.013-0.573-0.019-0.859-0.019c-4.87-0.001-9.741,0.003-14.611-0.007
				c-0.345-0.001-0.781,0.157-0.987-0.3c-0.164-0.362-0.424-0.769-0.28-1.138c0.163-0.418,0.653-0.25,1.004-0.251
				c5.214-0.01,10.428-0.007,15.642-0.006c1.229,0,1.239-0.024,1.476-1.25c0.103-0.536-0.061-0.736-0.599-0.733
				c-1.49,0.008-2.979-0.01-4.469-0.018c-0.398-0.809-0.336-1.258,0.253-1.845c0.728-0.311,1.498-0.173,2.251-0.2
				c0.646-0.023,1.295,0.033,1.934-0.1c0.498-0.05,0.689,0.346,0.917,0.66c1.556,2.146,4.403,3.033,6.841,2.14
				c0.435-0.159,0.597-0.497,0.729-0.883c0.135-0.267,0.294-0.519,0.474-0.759c0.067-0.063,0.146-0.104,0.235-0.125
				c0.491-0.02,0.697,0.359,0.949,0.676c0.837,1.352,2.113,1.828,3.778,1.399c0.416-0.106,0.819-0.252,1.204-0.452
				c0.392-0.205,0.804-0.203,1.109,0.13c0.332,0.362,0.73,0.394,1.169,0.411c0.688,0.027,1.031-0.252,1.162-0.957
				c0.403-2.166,0.85-4.324,1.252-6.489c0.277-1.488-0.524-2.668-2.094-3.059c-1.551-0.386-3.118-0.323-4.682,0.011
				c-0.793,0.17-0.919,0.791-1.039,1.406c-0.091,0.463,0.26,0.419,0.557,0.367c1.019-0.179,2.042-0.258,3.078-0.201
				c0.549,0.03,1.007,0.219,1.341,0.656c0.554,0.725,0.226,1.549-0.682,1.609c-0.801,0.053-1.596,0.138-2.392,0.221
				c-1.748,0.184-3.12,0.915-3.787,2.649c-0.052,0.135-0.135,0.251-0.237,0.354c-0.317,0.24-0.708,0.373-0.975,0.686
				c-1.469,1.008-3.001,0.762-4.476,0.1c-1.268-0.568-1.88-2.038-1.713-3.641c0.134-1.277,0.561-2.441,1.288-3.503
				c0.661-0.966,1.569-1.483,2.729-1.536c0.885-0.039,1.776-0.074,2.641,0.189c0.513,0.156,0.832,0.021,0.908-0.553
				c0.072-0.545,0.413-1.182-0.417-1.432c-2.292-0.691-5.868-0.654-7.803,1.822C63.904,31.309,63.684,31.506,63.321,31.442z"/>
			<path fill-rule="evenodd" clip-rule="evenodd" fill="#FDFDFD" d="M15.563,37.047c-0.671,1.579-1.368,3.147-2,4.741
				c-0.233,0.589-0.531,0.875-1.19,0.806c-0.764-0.079-1.737,0.299-2.25-0.146c-0.522-0.453-0.235-1.459-0.29-2.219
				c-0.177-2.485-0.286-4.975-0.485-7.47c-0.432,1.178-0.543,2.421-0.763,3.639c-0.325,1.803-0.635,3.609-0.9,5.421
				c-0.09,0.614-0.337,0.782-0.943,0.779c-2.088-0.014-2.082,0.012-1.722-2.061c0.626-3.61,1.255-7.221,1.853-10.836
				c0.102-0.616,0.327-0.861,0.981-0.828c1.115,0.056,2.236,0.051,3.351,0.001c0.63-0.028,0.887,0.16,0.846,0.806
				c-0.025,0.395,0.056,0.797,0.089,1.196c0.222,0.247,0.12,0.55,0.1,0.815c-0.096,1.287,0.243,2.55,0.186,3.834
				c-0.013,0.287,0.02,0.574,0.428,0.309c0.932-2.166,1.874-4.328,2.79-6.501c0.169-0.4,0.442-0.454,0.812-0.45
				c1.229,0.011,2.46,0.038,3.688-0.009c0.691-0.026,0.881,0.166,0.752,0.864c-0.671,3.624-1.291,7.256-1.952,10.881
				c-0.369,2.025-0.39,2-2.482,1.978c-0.597-0.007-0.737-0.192-0.62-0.75c0.135-0.64,0.2-1.295,0.295-1.943
				c0.186-1.144,0.456-2.288,0.522-3.432c0.063-1.083,0.196-2.127,0.468-2.884C17.077,34.751,16.162,35.831,15.563,37.047z"/>
			<path fill-rule="evenodd" clip-rule="evenodd" fill="#FDFDFC" d="M21.651,34.188c0.12-0.418,0.211-0.747,0.309-1.074
				c0.472-1.576,0.551-1.625,2.242-1.765c1.06-0.087,2.117-0.11,3.174-0.006c2.355,0.233,3.457,1.685,3.028,3.981
				c-0.409,2.193-0.84,4.383-1.221,6.582c-0.093,0.537-0.307,0.743-0.839,0.683c-0.312-0.035-0.63-0.005-0.945-0.004
				c-0.571,0.003-1.264,0.155-0.866-0.997c-0.874,0.549-1.61,0.908-2.43,1.077c-1.576,0.326-3.103-0.188-3.735-1.282
				c-0.766-1.326-0.5-3.211,0.609-4.382c0.674-0.712,1.496-1.155,2.454-1.317c1.017-0.172,2.041-0.288,3.078-0.24
				c0.283,0.014,0.66,0.174,0.795-0.273c0.118-0.393,0.017-0.725-0.277-1.017c-0.31-0.308-0.688-0.4-1.1-0.395
				c-0.715,0.011-1.434-0.001-2.145,0.067C23.107,33.894,22.439,34.05,21.651,34.188z"/>
			<path fill-rule="evenodd" clip-rule="evenodd" fill="#FDFDFC" d="M44.692,35.856c0.376-1.27,0.79-2.541,1.884-3.388
				c1.886-1.458,3.982-1.646,6.16-0.782c1.132,0.45,1.681,1.414,1.882,2.587c0.019,0.112,0.019,0.228,0.027,0.343
				c0.203,3.016,0.077,3.155-2.864,3.154c-1.146,0-2.292,0.028-3.437-0.01c-0.752-0.025-0.844,0.309-0.585,0.889
				c0.36,0.808,0.959,1.336,1.849,1.506c1.481,0.283,2.903,0.13,4.312-0.648c0.071,0.85-0.142,1.582-0.286,2.318
				c-0.074,0.376-0.45,0.438-0.737,0.502c-1.909,0.42-3.819,0.461-5.651-0.305c-1.629-0.68-2.442-2.002-2.635-3.73
				c-0.048-0.359-0.096-0.706-0.228-1.059C44.204,36.751,44.202,36.228,44.692,35.856z"/>
			<path fill-rule="evenodd" clip-rule="evenodd" fill="#FDFDFC" d="M63.321,31.442c1.761-2.647,4.352-3.225,7.294-2.925
				c0.057,0.006,0.113,0.018,0.169,0.029c2.768,0.58,2.241,0.311,1.838,2.84c-0.076,0.479-0.265,0.638-0.752,0.408
				c-0.847-0.399-1.76-0.473-2.687-0.442c-1.955,0.062-3.272,1.311-3.833,3.655c-0.046,0.194-0.078,0.394-0.109,0.591
				c-0.225,1.402-0.153,2.791,1.161,3.609c1.385,0.861,2.913,0.937,4.401,0.108c0.669,0.068,0.735,0.272,0.323,1.002l0.001-0.001
				c-0.21,0.243,0.111,0.627-0.222,0.839c-0.057,0.837-0.606,1.159-1.344,1.275c-1.541,0.241-3.082,0.32-4.553-0.31
				c-1.287-0.551-2.196-1.506-2.728-2.81c-0.832-0.347-0.702-1.103-0.758-1.78c-0.007-0.581-0.221-1.203,0.327-1.676
				C62.173,34.329,62.523,32.812,63.321,31.442z"/>
			<path fill-rule="evenodd" clip-rule="evenodd" fill="#FDFCFC" d="M33.18,42.647c-0.85-0.048-1.769-0.025-2.667-0.26
				c-0.422-0.11-0.597-0.27-0.512-0.774c0.287-1.71,0.262-1.722,1.925-1.444c0.682,0.113,1.364,0.175,2.053,0.137
				c0.637-0.035,1.105-0.324,1.237-0.981c0.13-0.647-0.319-0.923-0.818-1.136c-0.5-0.215-1.015-0.395-1.506-0.627
				c-1.069-0.507-1.712-1.294-1.685-2.549c0.03-1.365,0.335-2.593,1.675-3.238c1.674-0.806,3.466-0.626,5.236-0.462
				c1.123,0.104,1.12,0.14,0.87,1.228c-0.051,0.223-0.131,0.443-0.151,0.668c-0.047,0.526-0.317,0.681-0.812,0.568
				c-0.705-0.16-1.423-0.178-2.137-0.08c-0.569,0.078-1.244,0.158-1.337,0.85c-0.101,0.737,0.554,0.988,1.114,1.225
				c0.236,0.1,0.489,0.16,0.734,0.238c1.172,0.37,2.064,0.986,2.144,2.359c0.087,1.53-0.251,2.854-1.7,3.663
				C35.717,42.659,34.479,42.647,33.18,42.647z"/>
			<path fill-rule="evenodd" clip-rule="evenodd" fill="#FDFDFC" d="M44.021,28.981c-0.071,0.576-0.142,1.15-0.213,1.727
				c-0.34,0.598-0.059,0.778,0.502,0.694c0.903-0.136,1.171,0.204,0.887,1.058c-0.088,0.266-0.126,0.556-0.142,0.837
				c-0.02,0.35-0.166,0.479-0.522,0.506c-1.47,0.113-1.469,0.125-1.651,1.633c-0.017,0.429,0.154,0.896-0.25,1.245
				c-0.131,0.784-0.272,1.566-0.391,2.352c-0.156,1.034,0.079,1.266,1.111,1.32c0.317,0.018,0.752-0.384,0.958,0.117
				c0.189,0.461-0.32,1.763-0.712,1.877c-1.239,0.36-2.497,0.385-3.715-0.053c-0.84-0.302-0.884-1.065-0.771-1.804
				c0.226-1.471,0.492-2.935,0.748-4.401c0.385-2.197,0.793-4.391,1.15-6.592c0.077-0.474,0.247-0.647,0.709-0.611
				C42.485,28.945,43.261,28.786,44.021,28.981z"/>
			<path fill-rule="evenodd" clip-rule="evenodd" fill="#FDFDFC" d="M57.908,39.619c-0.238,0.532-0.206,1.114-0.3,1.672
				c-0.057,0.249-0.146,0.496-0.165,0.749c-0.033,0.446-0.273,0.535-0.68,0.554c-2.518,0.118-2.498,0.13-2.047-2.331
				c0.494-2.698,0.96-5.402,1.405-8.109c0.091-0.55,0.28-0.808,0.87-0.753c0.51,0.047,1.031,0.042,1.543,0.002
				c0.623-0.049,0.847,0.142,0.612,0.767c-0.077,0.205-0.065,0.443-0.1,0.711c1.716-1.496,2-1.619,3.537-1.479
				c-0.482,0.842-0.769,1.713-1.01,2.603c-0.09,0.334-0.427,0.208-0.666,0.238c-1.042,0.134-1.963,0.438-2.31,1.583
				c0.398,0.615,0.054,1.199-0.076,1.792C58.417,38.315,58.547,39.085,57.908,39.619z"/>
			<path fill-rule="evenodd" clip-rule="evenodd" fill="#FBAD39" d="M58.26,37.554c0.015-0.596,0.096-1.178,0.338-1.729
				c1.084,0.011,2.168,0.021,3.252,0.031c-0.007,0.57-0.015,1.142-0.022,1.713c-0.69,0.68-1.559,0.337-2.352,0.385
				C59.048,37.98,58.542,38.058,58.26,37.554z"/>
			<path fill-rule="evenodd" clip-rule="evenodd" fill="#F4A440" d="M42.631,36.681c0.024-0.428,0.084-0.849,0.251-1.247
				c0.086,0.476,0.453,0.416,0.79,0.417c0.34,0,0.68,0.004,1.02,0.006c-0.027,0.813-0.055,1.627-0.082,2.438
				c-0.096-0.438-0.224-0.82-0.813-0.722c-0.569,0.095-0.949-0.071-0.908-0.75C42.897,36.683,42.75,36.671,42.631,36.681z"/>
			<path fill-rule="evenodd" clip-rule="evenodd" fill="#CF2F3D" d="M15.563,37.047c0.573-1.448,1.147-2.896,1.721-4.343
				c-0.292,2.434-0.553,4.846-1.148,7.2c-0.053-1.119,0.267-2.194,0.394-3.292c0.024-0.209,0.216-0.495-0.079-0.596
				c-0.281-0.096-0.334,0.238-0.444,0.419C15.874,36.651,15.805,36.911,15.563,37.047z"/>
			<path fill-rule="evenodd" clip-rule="evenodd" fill="#CD4B56" d="M12.855,35.835c0.035,0.275-0.097,0.482-0.419,0.863
				c-0.123-2.059-0.312-3.933-0.295-5.821c0.404,1.312,0.16,2.683,0.374,4.011C12.569,35.223,12.367,35.654,12.855,35.835z"/>
			<path fill-rule="evenodd" clip-rule="evenodd" fill="#FDFEFC" d="M96.896,32.659c0.341-0.932,0.406-1.904,0.571-2.85
				c0.105-0.605,0.308-0.894,0.978-0.861c2.158,0.104,2.156-0.469,1.711,2.065c-0.629,3.579-1.25,7.159-1.84,10.745
				c-0.106,0.644-0.375,0.896-1.011,0.837c-0.397-0.037-0.804-0.041-1.201-0.005c-0.611,0.057-0.96-0.109-0.743-0.922
				c-0.46,0.286-0.793,0.542-1.165,0.714c-2.317,1.077-4.801-0.106-5.393-2.683c-0.621-2.702,0.034-5.122,2.092-7.051
				C92.599,31.053,94.573,31.074,96.896,32.659z"/>
			<path fill-rule="evenodd" clip-rule="evenodd" fill="#FDFDFC" d="M71.674,38.784c0.594-2.036,2.027-3.037,4.068-3.25
				c0.823-0.087,1.654-0.1,2.481-0.153c0.27-0.018,0.613,0.094,0.721-0.288c0.102-0.361-0.011-0.679-0.299-0.925
				c-0.348-0.297-0.767-0.359-1.204-0.368c-1.121-0.023-2.238,0.044-3.319,0.337c-0.759,0.205-0.752-0.09-0.595-0.671
				c0.531-1.966,0.578-2.027,2.631-2.199c1.142-0.096,2.288-0.136,3.42,0.102c2.126,0.445,3.04,1.801,2.636,3.924
				c-0.422,2.219-0.874,4.433-1.281,6.654c-0.096,0.522-0.327,0.746-0.852,0.721c-0.485-0.022-0.973,0.004-1.458-0.014
				c-0.163-0.007-0.45-0.055-0.466-0.131c-0.22-1.009-0.712-0.391-1.118-0.197c-1.761,0.844-4.339,0.731-5.214-1.312
				c-0.025-0.463-0.425-0.795-0.432-1.271C71.39,39.387,71.43,39.06,71.674,38.784z"/>
			<path fill-rule="evenodd" clip-rule="evenodd" fill="#FDFDFB" d="M86.692,32.875c0.689-0.634,1.244-1.222,2.051-1.435
				c0.816-0.215,0.995-0.064,0.874,0.75c-0.021,0.142-0.068,0.28-0.076,0.422c-0.052,0.912-0.349,1.439-1.43,1.563
				c-1.369,0.156-1.959,1.25-2.188,2.527c-0.302,1.688-0.624,3.372-0.883,5.066c-0.099,0.645-0.379,0.836-1.011,0.836
				c-2.161,0-2.147,0.023-1.772-2.068c0.495-2.756,0.984-5.513,1.435-8.276c0.109-0.675,0.392-0.956,1.064-0.856
				c0.196,0.029,0.4,0.004,0.6,0.004C86.712,31.407,86.712,31.407,86.692,32.875z"/>
			<path fill-rule="evenodd" clip-rule="evenodd" fill="#E72029" d="M58.26,37.554c1.189,0.005,2.379,0.01,3.568,0.016
				c0.151,0.581,0.302,1.162,0.453,1.743c-0.171,0.371-0.513,0.292-0.813,0.294c-1.187,0.011-2.374,0.01-3.561,0.013
				C57.933,38.915,58.03,38.223,58.26,37.554z"/>
			<path fill-rule="evenodd" clip-rule="evenodd" fill="#FCEDAB" d="M103.086,41.203c-0.016,0.841-0.705,1.53-1.531,1.532
				c-0.828,0.002-1.544-0.701-1.543-1.516c0.001-0.834,0.705-1.55,1.521-1.545C102.354,39.681,103.099,40.415,103.086,41.203z"/>
			<path fill-rule="evenodd" clip-rule="evenodd" fill="#ECBF6B" d="M71.674,38.784c0.051,0.743,0.102,1.486,0.152,2.229
				c-0.238-0.227-0.258-0.673-0.699-0.695c-0.159-0.317,0.283-0.829-0.323-1.002C70.966,38.929,71.375,38.947,71.674,38.784z"/>
			<path fill-rule="evenodd" clip-rule="evenodd" fill="#ECBF6B" d="M70.907,41.156c0.053-0.286,0.016-0.595,0.222-0.839
				C71.157,40.624,71.227,40.941,70.907,41.156z"/>
			<path fill-rule="evenodd" clip-rule="evenodd" fill="#E91E30" d="M26.202,37.353c0.567-0.098,0.783,0.121,0.646,0.803
				c-0.279,1.388-1.043,2.085-2.452,2.131c-0.479,0.016-0.948-0.021-1.138-0.543c-0.187-0.512-0.11-1,0.294-1.418
				C24.098,37.757,25.05,37.385,26.202,37.353z"/>
			<path fill-rule="evenodd" clip-rule="evenodd" fill="#E42031" d="M49.912,35.68c-0.314,0.001-0.628,0.003-0.943,0.001
				c-0.979-0.006-1.065-0.172-0.554-1.059c0.442-0.767,1.218-1.181,1.992-1.041c0.793,0.143,1.241,0.629,1.398,1.42
				c0.091,0.458,0.026,0.719-0.522,0.684C50.827,35.655,50.369,35.679,49.912,35.68z"/>
			<path fill-rule="evenodd" clip-rule="evenodd" fill="#FAB132" d="M96.229,36.538c-0.059,0.91-0.315,1.974-1.153,2.821
				c-0.57,0.576-1.271,0.845-2.032,0.604c-0.741-0.234-0.938-0.956-1.047-1.646c-0.163-1.022,0.048-1.997,0.517-2.908
				c0.557-1.084,1.587-1.661,2.486-1.433C95.756,34.168,96.228,35.064,96.229,36.538z"/>
			<path fill-rule="evenodd" clip-rule="evenodd" fill="#F7B237" d="M76.008,40.285c-0.392,0.039-0.818-0.052-0.996-0.521
				c-0.179-0.475-0.115-0.952,0.21-1.372c0.52-0.672,2.232-1.229,3.045-1.017c0.346,0.091,0.343,0.314,0.334,0.584
				C78.556,39.36,77.578,40.265,76.008,40.285z"/>
			<path fill-rule="evenodd" clip-rule="evenodd" fill="#E9B85C" d="M102.62,41.381c-0.034,0.507-0.337,0.935-1.018,0.997
				c-0.568,0.053-1.163-0.529-1.178-1.112c-0.016-0.628,0.507-1.215,1.083-1.22C102.075,40.04,102.61,40.613,102.62,41.381z"/>
			<path fill-rule="evenodd" clip-rule="evenodd" fill="#F9E6A3" d="M101.432,41.517c-0.48,0.213-0.381-0.166-0.395-0.38
				c-0.021-0.337,0.041-0.638,0.486-0.62c0.323,0.014,0.549,0.13,0.533,0.504C102.042,41.339,101.828,41.505,101.432,41.517z"/>
		</g>
	</g>
</g>
</svg>
